<?xml version="1.0" encoding="utf-8" standalone="no"?>
<!DOCTYPE svg PUBLIC "-//W3C//DTD SVG 1.1//EN"
  "http://www.w3.org/Graphics/SVG/1.1/DTD/svg11.dtd">
<svg xmlns:xlink="http://www.w3.org/1999/xlink" width="432pt" height="360pt" viewBox="0 0 432 360" xmlns="http://www.w3.org/2000/svg" version="1.1">
 <metadata>
  <rdf:RDF xmlns:dc="http://purl.org/dc/elements/1.1/" xmlns:cc="http://creativecommons.org/ns#" xmlns:rdf="http://www.w3.org/1999/02/22-rdf-syntax-ns#">
   <cc:Work>
    <dc:type rdf:resource="http://purl.org/dc/dcmitype/StillImage"/>
    <dc:date>2025-10-27T15:26:55.208712</dc:date>
    <dc:format>image/svg+xml</dc:format>
    <dc:creator>
     <cc:Agent>
      <dc:title>Matplotlib v3.6.0, https://matplotlib.org/</dc:title>
     </cc:Agent>
    </dc:creator>
   </cc:Work>
  </rdf:RDF>
 </metadata>
 <defs>
  <style type="text/css">*{stroke-linejoin: round; stroke-linecap: butt}</style>
 </defs>
 <g id="figure_1">
  <g id="patch_1">
   <path d="M 0 360 
L 432 360 
L 432 0 
L 0 0 
z
" style="fill: #ffffff"/>
  </g>
  <g id="axes_1">
   <g id="patch_2">
    <path d="M 25.45 313.28 
L 411.705 313.28 
L 411.705 15.84 
L 25.45 15.84 
z
" style="fill: #ffffff"/>
   </g>
   <g id="matplotlib.axis_1">
    <g id="xtick_1">
     <g id="line2d_1">
      <defs>
       <path id="m7abdb9a15e" d="M 0 0 
L 0 3.5 
" style="stroke: #000000; stroke-width: 0.8"/>
      </defs>
      <g>
       <use xlink:href="#m7abdb9a15e" x="25.45" y="313.28" style="stroke: #000000; stroke-width: 0.8"/>
      </g>
     </g>
    </g>
    <g id="xtick_2">
     <g id="line2d_2">
      <g>
       <use xlink:href="#m7abdb9a15e" x="122.01375" y="313.28" style="stroke: #000000; stroke-width: 0.8"/>
      </g>
     </g>
    </g>
    <g id="xtick_3">
     <g id="line2d_3">
      <g>
       <use xlink:href="#m7abdb9a15e" x="218.5775" y="313.28" style="stroke: #000000; stroke-width: 0.8"/>
      </g>
     </g>
    </g>
    <g id="xtick_4">
     <g id="line2d_4">
      <g>
       <use xlink:href="#m7abdb9a15e" x="315.14125" y="313.28" style="stroke: #000000; stroke-width: 0.8"/>
      </g>
     </g>
    </g>
    <g id="xtick_5">
     <g id="line2d_5">
      <g>
       <use xlink:href="#m7abdb9a15e" x="411.705" y="313.28" style="stroke: #000000; stroke-width: 0.8"/>
      </g>
     </g>
    </g>
   </g>
   <g id="matplotlib.axis_2">
    <g id="ytick_1">
     <g id="line2d_6">
      <defs>
       <path id="m6a7a88c161" d="M 0 0 
L -3.5 0 
" style="stroke: #000000; stroke-width: 0.8"/>
      </defs>
      <g>
       <use xlink:href="#m6a7a88c161" x="25.45" y="220.534985" style="stroke: #000000; stroke-width: 0.8"/>
      </g>
     </g>
    </g>
    <g id="ytick_2">
     <g id="line2d_7">
      <defs>
       <path id="m119e9be4d0" d="M 0 0 
L -2 0 
" style="stroke: #000000; stroke-width: 0.6"/>
      </defs>
      <g>
       <use xlink:href="#m119e9be4d0" x="25.45" y="291.401122" style="stroke: #000000; stroke-width: 0.6"/>
      </g>
     </g>
    </g>
    <g id="ytick_3">
     <g id="line2d_8">
      <g>
       <use xlink:href="#m119e9be4d0" x="25.45" y="264.870371" style="stroke: #000000; stroke-width: 0.6"/>
      </g>
     </g>
    </g>
    <g id="ytick_4">
     <g id="line2d_9">
      <g>
       <use xlink:href="#m119e9be4d0" x="25.45" y="241.468591" style="stroke: #000000; stroke-width: 0.6"/>
      </g>
     </g>
    </g>
    <g id="ytick_5">
     <g id="line2d_10">
      <g>
       <use xlink:href="#m119e9be4d0" x="25.45" y="82.816695" style="stroke: #000000; stroke-width: 0.6"/>
      </g>
     </g>
    </g>
   </g>
   <g id="line2d_11">
    <path d="M 25.45 234.953261 
L 38.325167 299.76 
L 51.200333 252.935216 
L 64.0755 271.000749 
L 76.950667 258.843049 
L 89.825833 244.762398 
L 102.701 265.965156 
L 115.576167 245.321814 
L 128.451333 240.525088 
L 141.3265 235.485693 
L 154.201667 248.901829 
L 167.076833 231.439722 
L 179.952 247.764314 
L 192.827167 255.473738 
L 199.26475 238.169464 
L 202.023714 249.09205 
L 204.782678 233.364475 
L 205.702333 235.485693 
L 207.541643 238.349677 
L 210.300607 232.662406 
L 213.059571 229.36104 
L 215.818535 230.918009 
L 218.5775 29.36 
L 221.336464 187.139165 
L 224.095428 214.74767 
L 226.854393 231.265665 
L 229.613357 237.270839 
L 231.452667 237.629802 
L 232.372321 225.436682 
L 235.131285 227.645265 
L 237.89025 232.137477 
L 244.327833 223.085347 
L 257.203 239.978998 
L 270.078166 239.434405 
L 282.953334 230.224516 
L 295.8285 262.677627 
L 308.703667 238.349677 
L 321.578833 264.520164 
L 334.454 244.018953 
L 347.329167 282.144913 
L 360.204334 229.70598 
L 373.0795 251.774441 
L 385.954667 259.844996 
L 398.829833 233.364475 
L 411.705 250.812281 
" clip-path="url(#p2d257e2fff)" style="fill: none; stroke: #1f77b4; stroke-width: 1.5; stroke-linecap: square"/>
   </g>
   <g id="line2d_12">
    <path d="M 25.45 220.534985 
L 411.705 220.534985 
" clip-path="url(#p2d257e2fff)" style="fill: none; stroke-dasharray: 1.5,2.475; stroke-dashoffset: 0; stroke: #7f7f7f; stroke-width: 1.5"/>
   </g>
   <g id="line2d_13">
    <path d="M 218.577524 313.28 
L 218.577524 15.84 
" clip-path="url(#p2d257e2fff)" style="fill: none; stroke-dasharray: 5.55,2.4; stroke-dashoffset: 0; stroke: #ff0000; stroke-width: 1.5"/>
   </g>
   <g id="patch_3">
    <path d="M 25.45 313.28 
L 25.45 15.84 
" style="fill: none; stroke: #000000; stroke-width: 0.8; stroke-linejoin: miter; stroke-linecap: square"/>
   </g>
   <g id="patch_4">
    <path d="M 411.705 313.28 
L 411.705 15.84 
" style="fill: none; stroke: #000000; stroke-width: 0.8; stroke-linejoin: miter; stroke-linecap: square"/>
   </g>
   <g id="patch_5">
    <path d="M 25.45 313.28 
L 411.705 313.28 
" style="fill: none; stroke: #000000; stroke-width: 0.8; stroke-linejoin: miter; stroke-linecap: square"/>
   </g>
   <g id="patch_6">
    <path d="M 25.45 15.84 
L 411.705 15.84 
" style="fill: none; stroke: #000000; stroke-width: 0.8; stroke-linejoin: miter; stroke-linecap: square"/>
   </g>
  </g>
 </g>
 <defs>
  <clipPath id="p2d257e2fff">
   <rect x="25.45" y="15.84" width="386.255" height="297.44"/>
  </clipPath>
 </defs>
</svg>
