<?xml version="1.0" encoding="utf-8" standalone="no"?>
<!DOCTYPE svg PUBLIC "-//W3C//DTD SVG 1.1//EN"
  "http://www.w3.org/Graphics/SVG/1.1/DTD/svg11.dtd">
<svg xmlns:xlink="http://www.w3.org/1999/xlink" width="460.8pt" height="345.6pt" viewBox="0 0 460.8 345.6" xmlns="http://www.w3.org/2000/svg" version="1.1">
 <metadata>
  <rdf:RDF xmlns:dc="http://purl.org/dc/elements/1.1/" xmlns:cc="http://creativecommons.org/ns#" xmlns:rdf="http://www.w3.org/1999/02/22-rdf-syntax-ns#">
   <cc:Work>
    <dc:type rdf:resource="http://purl.org/dc/dcmitype/StillImage"/>
    <dc:date>2025-09-16T16:04:57.344602</dc:date>
    <dc:format>image/svg+xml</dc:format>
    <dc:creator>
     <cc:Agent>
      <dc:title>Matplotlib v3.6.0, https://matplotlib.org/</dc:title>
     </cc:Agent>
    </dc:creator>
   </cc:Work>
  </rdf:RDF>
 </metadata>
 <defs>
  <style type="text/css">*{stroke-linejoin: round; stroke-linecap: butt}</style>
 </defs>
 <g id="figure_1">
  <g id="patch_1">
   <path d="M 0 345.6 
L 460.8 345.6 
L 460.8 0 
L 0 0 
z
" style="fill: #ffffff"/>
  </g>
  <g id="axes_1">
   <g id="patch_2">
    <path d="M 57.6 307.584 
L 414.72 307.584 
L 414.72 41.472 
L 57.6 41.472 
z
" style="fill: #ffffff"/>
   </g>
   <g id="matplotlib.axis_1">
    <g id="xtick_1">
     <g id="line2d_1">
      <defs>
       <path id="m11c840c1af" d="M 0 0 
L 0 3.5 
" style="stroke: #000000; stroke-width: 0.8"/>
      </defs>
      <g>
       <use xlink:href="#m11c840c1af" x="73.832727" y="307.584" style="stroke: #000000; stroke-width: 0.8"/>
      </g>
     </g>
     <g id="text_1">
      <!-- $\mathdefault{10^{-1}}$ -->
      <g transform="translate(62.082727 322.182437) scale(0.1 -0.1)">
       <defs>
        <path id="DejaVuSans-31" d="M 794 531 
L 1825 531 
L 1825 4091 
L 703 3866 
L 703 4441 
L 1819 4666 
L 2450 4666 
L 2450 531 
L 3481 531 
L 3481 0 
L 794 0 
L 794 531 
z
" transform="scale(0.015625)"/>
        <path id="DejaVuSans-30" d="M 2034 4250 
Q 1547 4250 1301 3770 
Q 1056 3291 1056 2328 
Q 1056 1369 1301 889 
Q 1547 409 2034 409 
Q 2525 409 2770 889 
Q 3016 1369 3016 2328 
Q 3016 3291 2770 3770 
Q 2525 4250 2034 4250 
z
M 2034 4750 
Q 2819 4750 3233 4129 
Q 3647 3509 3647 2328 
Q 3647 1150 3233 529 
Q 2819 -91 2034 -91 
Q 1250 -91 836 529 
Q 422 1150 422 2328 
Q 422 3509 836 4129 
Q 1250 4750 2034 4750 
z
" transform="scale(0.015625)"/>
        <path id="DejaVuSans-2212" d="M 678 2272 
L 4684 2272 
L 4684 1741 
L 678 1741 
L 678 2272 
z
" transform="scale(0.015625)"/>
       </defs>
       <use xlink:href="#DejaVuSans-31" transform="translate(0 0.684375)"/>
       <use xlink:href="#DejaVuSans-30" transform="translate(63.623047 0.684375)"/>
       <use xlink:href="#DejaVuSans-2212" transform="translate(128.203125 38.965625) scale(0.7)"/>
       <use xlink:href="#DejaVuSans-31" transform="translate(186.855469 38.965625) scale(0.7)"/>
      </g>
     </g>
    </g>
    <g id="xtick_2">
     <g id="line2d_2">
      <g>
       <use xlink:href="#m11c840c1af" x="244.426103" y="307.584" style="stroke: #000000; stroke-width: 0.8"/>
      </g>
     </g>
     <g id="text_2">
      <!-- $\mathdefault{10^{0}}$ -->
      <g transform="translate(235.626103 322.182437) scale(0.1 -0.1)">
       <use xlink:href="#DejaVuSans-31" transform="translate(0 0.765625)"/>
       <use xlink:href="#DejaVuSans-30" transform="translate(63.623047 0.765625)"/>
       <use xlink:href="#DejaVuSans-30" transform="translate(128.203125 39.046875) scale(0.7)"/>
      </g>
     </g>
    </g>
    <g id="xtick_3">
     <g id="line2d_3">
      <defs>
       <path id="m0c866d5952" d="M 0 0 
L 0 2 
" style="stroke: #000000; stroke-width: 0.6"/>
      </defs>
      <g>
       <use xlink:href="#m0c866d5952" x="66.026802" y="307.584" style="stroke: #000000; stroke-width: 0.6"/>
      </g>
     </g>
    </g>
    <g id="xtick_4">
     <g id="line2d_4">
      <g>
       <use xlink:href="#m0c866d5952" x="125.18645" y="307.584" style="stroke: #000000; stroke-width: 0.6"/>
      </g>
     </g>
    </g>
    <g id="xtick_5">
     <g id="line2d_5">
      <g>
       <use xlink:href="#m0c866d5952" x="155.226453" y="307.584" style="stroke: #000000; stroke-width: 0.6"/>
      </g>
     </g>
    </g>
    <g id="xtick_6">
     <g id="line2d_6">
      <g>
       <use xlink:href="#m0c866d5952" x="176.540174" y="307.584" style="stroke: #000000; stroke-width: 0.6"/>
      </g>
     </g>
    </g>
    <g id="xtick_7">
     <g id="line2d_7">
      <g>
       <use xlink:href="#m0c866d5952" x="193.07238" y="307.584" style="stroke: #000000; stroke-width: 0.6"/>
      </g>
     </g>
    </g>
    <g id="xtick_8">
     <g id="line2d_8">
      <g>
       <use xlink:href="#m0c866d5952" x="206.580176" y="307.584" style="stroke: #000000; stroke-width: 0.6"/>
      </g>
     </g>
    </g>
    <g id="xtick_9">
     <g id="line2d_9">
      <g>
       <use xlink:href="#m0c866d5952" x="218.000855" y="307.584" style="stroke: #000000; stroke-width: 0.6"/>
      </g>
     </g>
    </g>
    <g id="xtick_10">
     <g id="line2d_10">
      <g>
       <use xlink:href="#m0c866d5952" x="227.893897" y="307.584" style="stroke: #000000; stroke-width: 0.6"/>
      </g>
     </g>
    </g>
    <g id="xtick_11">
     <g id="line2d_11">
      <g>
       <use xlink:href="#m0c866d5952" x="236.620178" y="307.584" style="stroke: #000000; stroke-width: 0.6"/>
      </g>
     </g>
    </g>
    <g id="xtick_12">
     <g id="line2d_12">
      <g>
       <use xlink:href="#m0c866d5952" x="295.779826" y="307.584" style="stroke: #000000; stroke-width: 0.6"/>
      </g>
     </g>
    </g>
    <g id="xtick_13">
     <g id="line2d_13">
      <g>
       <use xlink:href="#m0c866d5952" x="325.819829" y="307.584" style="stroke: #000000; stroke-width: 0.6"/>
      </g>
     </g>
    </g>
    <g id="xtick_14">
     <g id="line2d_14">
      <g>
       <use xlink:href="#m0c866d5952" x="347.13355" y="307.584" style="stroke: #000000; stroke-width: 0.6"/>
      </g>
     </g>
    </g>
    <g id="xtick_15">
     <g id="line2d_15">
      <g>
       <use xlink:href="#m0c866d5952" x="363.665756" y="307.584" style="stroke: #000000; stroke-width: 0.6"/>
      </g>
     </g>
    </g>
    <g id="xtick_16">
     <g id="line2d_16">
      <g>
       <use xlink:href="#m0c866d5952" x="377.173552" y="307.584" style="stroke: #000000; stroke-width: 0.6"/>
      </g>
     </g>
    </g>
    <g id="xtick_17">
     <g id="line2d_17">
      <g>
       <use xlink:href="#m0c866d5952" x="388.594231" y="307.584" style="stroke: #000000; stroke-width: 0.6"/>
      </g>
     </g>
    </g>
    <g id="xtick_18">
     <g id="line2d_18">
      <g>
       <use xlink:href="#m0c866d5952" x="398.487273" y="307.584" style="stroke: #000000; stroke-width: 0.6"/>
      </g>
     </g>
    </g>
    <g id="xtick_19">
     <g id="line2d_19">
      <g>
       <use xlink:href="#m0c866d5952" x="407.213554" y="307.584" style="stroke: #000000; stroke-width: 0.6"/>
      </g>
     </g>
    </g>
    <g id="text_3">
     <!-- Interaction Length [m] -->
     <g transform="translate(179.836562 335.860562) scale(0.1 -0.1)">
      <defs>
       <path id="DejaVuSans-49" d="M 628 4666 
L 1259 4666 
L 1259 0 
L 628 0 
L 628 4666 
z
" transform="scale(0.015625)"/>
       <path id="DejaVuSans-6e" d="M 3513 2113 
L 3513 0 
L 2938 0 
L 2938 2094 
Q 2938 2591 2744 2837 
Q 2550 3084 2163 3084 
Q 1697 3084 1428 2787 
Q 1159 2491 1159 1978 
L 1159 0 
L 581 0 
L 581 3500 
L 1159 3500 
L 1159 2956 
Q 1366 3272 1645 3428 
Q 1925 3584 2291 3584 
Q 2894 3584 3203 3211 
Q 3513 2838 3513 2113 
z
" transform="scale(0.015625)"/>
       <path id="DejaVuSans-74" d="M 1172 4494 
L 1172 3500 
L 2356 3500 
L 2356 3053 
L 1172 3053 
L 1172 1153 
Q 1172 725 1289 603 
Q 1406 481 1766 481 
L 2356 481 
L 2356 0 
L 1766 0 
Q 1100 0 847 248 
Q 594 497 594 1153 
L 594 3053 
L 172 3053 
L 172 3500 
L 594 3500 
L 594 4494 
L 1172 4494 
z
" transform="scale(0.015625)"/>
       <path id="DejaVuSans-65" d="M 3597 1894 
L 3597 1613 
L 953 1613 
Q 991 1019 1311 708 
Q 1631 397 2203 397 
Q 2534 397 2845 478 
Q 3156 559 3463 722 
L 3463 178 
Q 3153 47 2828 -22 
Q 2503 -91 2169 -91 
Q 1331 -91 842 396 
Q 353 884 353 1716 
Q 353 2575 817 3079 
Q 1281 3584 2069 3584 
Q 2775 3584 3186 3129 
Q 3597 2675 3597 1894 
z
M 3022 2063 
Q 3016 2534 2758 2815 
Q 2500 3097 2075 3097 
Q 1594 3097 1305 2825 
Q 1016 2553 972 2059 
L 3022 2063 
z
" transform="scale(0.015625)"/>
       <path id="DejaVuSans-72" d="M 2631 2963 
Q 2534 3019 2420 3045 
Q 2306 3072 2169 3072 
Q 1681 3072 1420 2755 
Q 1159 2438 1159 1844 
L 1159 0 
L 581 0 
L 581 3500 
L 1159 3500 
L 1159 2956 
Q 1341 3275 1631 3429 
Q 1922 3584 2338 3584 
Q 2397 3584 2469 3576 
Q 2541 3569 2628 3553 
L 2631 2963 
z
" transform="scale(0.015625)"/>
       <path id="DejaVuSans-61" d="M 2194 1759 
Q 1497 1759 1228 1600 
Q 959 1441 959 1056 
Q 959 750 1161 570 
Q 1363 391 1709 391 
Q 2188 391 2477 730 
Q 2766 1069 2766 1631 
L 2766 1759 
L 2194 1759 
z
M 3341 1997 
L 3341 0 
L 2766 0 
L 2766 531 
Q 2569 213 2275 61 
Q 1981 -91 1556 -91 
Q 1019 -91 701 211 
Q 384 513 384 1019 
Q 384 1609 779 1909 
Q 1175 2209 1959 2209 
L 2766 2209 
L 2766 2266 
Q 2766 2663 2505 2880 
Q 2244 3097 1772 3097 
Q 1472 3097 1187 3025 
Q 903 2953 641 2809 
L 641 3341 
Q 956 3463 1253 3523 
Q 1550 3584 1831 3584 
Q 2591 3584 2966 3190 
Q 3341 2797 3341 1997 
z
" transform="scale(0.015625)"/>
       <path id="DejaVuSans-63" d="M 3122 3366 
L 3122 2828 
Q 2878 2963 2633 3030 
Q 2388 3097 2138 3097 
Q 1578 3097 1268 2742 
Q 959 2388 959 1747 
Q 959 1106 1268 751 
Q 1578 397 2138 397 
Q 2388 397 2633 464 
Q 2878 531 3122 666 
L 3122 134 
Q 2881 22 2623 -34 
Q 2366 -91 2075 -91 
Q 1284 -91 818 406 
Q 353 903 353 1747 
Q 353 2603 823 3093 
Q 1294 3584 2113 3584 
Q 2378 3584 2631 3529 
Q 2884 3475 3122 3366 
z
" transform="scale(0.015625)"/>
       <path id="DejaVuSans-69" d="M 603 3500 
L 1178 3500 
L 1178 0 
L 603 0 
L 603 3500 
z
M 603 4863 
L 1178 4863 
L 1178 4134 
L 603 4134 
L 603 4863 
z
" transform="scale(0.015625)"/>
       <path id="DejaVuSans-6f" d="M 1959 3097 
Q 1497 3097 1228 2736 
Q 959 2375 959 1747 
Q 959 1119 1226 758 
Q 1494 397 1959 397 
Q 2419 397 2687 759 
Q 2956 1122 2956 1747 
Q 2956 2369 2687 2733 
Q 2419 3097 1959 3097 
z
M 1959 3584 
Q 2709 3584 3137 3096 
Q 3566 2609 3566 1747 
Q 3566 888 3137 398 
Q 2709 -91 1959 -91 
Q 1206 -91 779 398 
Q 353 888 353 1747 
Q 353 2609 779 3096 
Q 1206 3584 1959 3584 
z
" transform="scale(0.015625)"/>
       <path id="DejaVuSans-20" transform="scale(0.015625)"/>
       <path id="DejaVuSans-4c" d="M 628 4666 
L 1259 4666 
L 1259 531 
L 3531 531 
L 3531 0 
L 628 0 
L 628 4666 
z
" transform="scale(0.015625)"/>
       <path id="DejaVuSans-67" d="M 2906 1791 
Q 2906 2416 2648 2759 
Q 2391 3103 1925 3103 
Q 1463 3103 1205 2759 
Q 947 2416 947 1791 
Q 947 1169 1205 825 
Q 1463 481 1925 481 
Q 2391 481 2648 825 
Q 2906 1169 2906 1791 
z
M 3481 434 
Q 3481 -459 3084 -895 
Q 2688 -1331 1869 -1331 
Q 1566 -1331 1297 -1286 
Q 1028 -1241 775 -1147 
L 775 -588 
Q 1028 -725 1275 -790 
Q 1522 -856 1778 -856 
Q 2344 -856 2625 -561 
Q 2906 -266 2906 331 
L 2906 616 
Q 2728 306 2450 153 
Q 2172 0 1784 0 
Q 1141 0 747 490 
Q 353 981 353 1791 
Q 353 2603 747 3093 
Q 1141 3584 1784 3584 
Q 2172 3584 2450 3431 
Q 2728 3278 2906 2969 
L 2906 3500 
L 3481 3500 
L 3481 434 
z
" transform="scale(0.015625)"/>
       <path id="DejaVuSans-68" d="M 3513 2113 
L 3513 0 
L 2938 0 
L 2938 2094 
Q 2938 2591 2744 2837 
Q 2550 3084 2163 3084 
Q 1697 3084 1428 2787 
Q 1159 2491 1159 1978 
L 1159 0 
L 581 0 
L 581 4863 
L 1159 4863 
L 1159 2956 
Q 1366 3272 1645 3428 
Q 1925 3584 2291 3584 
Q 2894 3584 3203 3211 
Q 3513 2838 3513 2113 
z
" transform="scale(0.015625)"/>
       <path id="DejaVuSans-5b" d="M 550 4863 
L 1875 4863 
L 1875 4416 
L 1125 4416 
L 1125 -397 
L 1875 -397 
L 1875 -844 
L 550 -844 
L 550 4863 
z
" transform="scale(0.015625)"/>
       <path id="DejaVuSans-6d" d="M 3328 2828 
Q 3544 3216 3844 3400 
Q 4144 3584 4550 3584 
Q 5097 3584 5394 3201 
Q 5691 2819 5691 2113 
L 5691 0 
L 5113 0 
L 5113 2094 
Q 5113 2597 4934 2840 
Q 4756 3084 4391 3084 
Q 3944 3084 3684 2787 
Q 3425 2491 3425 1978 
L 3425 0 
L 2847 0 
L 2847 2094 
Q 2847 2600 2669 2842 
Q 2491 3084 2119 3084 
Q 1678 3084 1418 2786 
Q 1159 2488 1159 1978 
L 1159 0 
L 581 0 
L 581 3500 
L 1159 3500 
L 1159 2956 
Q 1356 3278 1631 3431 
Q 1906 3584 2284 3584 
Q 2666 3584 2933 3390 
Q 3200 3197 3328 2828 
z
" transform="scale(0.015625)"/>
       <path id="DejaVuSans-5d" d="M 1947 4863 
L 1947 -844 
L 622 -844 
L 622 -397 
L 1369 -397 
L 1369 4416 
L 622 4416 
L 622 4863 
L 1947 4863 
z
" transform="scale(0.015625)"/>
      </defs>
      <use xlink:href="#DejaVuSans-49"/>
      <use xlink:href="#DejaVuSans-6e" x="29.492188"/>
      <use xlink:href="#DejaVuSans-74" x="92.871094"/>
      <use xlink:href="#DejaVuSans-65" x="132.080078"/>
      <use xlink:href="#DejaVuSans-72" x="193.603516"/>
      <use xlink:href="#DejaVuSans-61" x="234.716797"/>
      <use xlink:href="#DejaVuSans-63" x="295.996094"/>
      <use xlink:href="#DejaVuSans-74" x="350.976562"/>
      <use xlink:href="#DejaVuSans-69" x="390.185547"/>
      <use xlink:href="#DejaVuSans-6f" x="417.96875"/>
      <use xlink:href="#DejaVuSans-6e" x="479.150391"/>
      <use xlink:href="#DejaVuSans-20" x="542.529297"/>
      <use xlink:href="#DejaVuSans-4c" x="574.316406"/>
      <use xlink:href="#DejaVuSans-65" x="628.279297"/>
      <use xlink:href="#DejaVuSans-6e" x="689.802734"/>
      <use xlink:href="#DejaVuSans-67" x="753.181641"/>
      <use xlink:href="#DejaVuSans-74" x="816.658203"/>
      <use xlink:href="#DejaVuSans-68" x="855.867188"/>
      <use xlink:href="#DejaVuSans-20" x="919.246094"/>
      <use xlink:href="#DejaVuSans-5b" x="951.033203"/>
      <use xlink:href="#DejaVuSans-6d" x="990.046875"/>
      <use xlink:href="#DejaVuSans-5d" x="1087.458984"/>
     </g>
    </g>
   </g>
   <g id="matplotlib.axis_2">
    <g id="ytick_1">
     <g id="line2d_20">
      <defs>
       <path id="me4cb8f4f50" d="M 0 0 
L -3.5 0 
" style="stroke: #000000; stroke-width: 0.8"/>
      </defs>
      <g>
       <use xlink:href="#me4cb8f4f50" x="57.6" y="176.811985" style="stroke: #000000; stroke-width: 0.8"/>
      </g>
     </g>
     <g id="text_4">
      <!-- $\mathdefault{10^{-1}}$ -->
      <g transform="translate(27.1 180.611204) scale(0.1 -0.1)">
       <use xlink:href="#DejaVuSans-31" transform="translate(0 0.684375)"/>
       <use xlink:href="#DejaVuSans-30" transform="translate(63.623047 0.684375)"/>
       <use xlink:href="#DejaVuSans-2212" transform="translate(128.203125 38.965625) scale(0.7)"/>
       <use xlink:href="#DejaVuSans-31" transform="translate(186.855469 38.965625) scale(0.7)"/>
      </g>
     </g>
    </g>
    <g id="ytick_2">
     <g id="line2d_21">
      <defs>
       <path id="m40554d4985" d="M 0 0 
L -2 0 
" style="stroke: #000000; stroke-width: 0.6"/>
      </defs>
      <g>
       <use xlink:href="#m40554d4985" x="57.6" y="279.026662" style="stroke: #000000; stroke-width: 0.6"/>
      </g>
     </g>
    </g>
    <g id="ytick_3">
     <g id="line2d_22">
      <g>
       <use xlink:href="#m40554d4985" x="57.6" y="253.275756" style="stroke: #000000; stroke-width: 0.6"/>
      </g>
     </g>
    </g>
    <g id="ytick_4">
     <g id="line2d_23">
      <g>
       <use xlink:href="#m40554d4985" x="57.6" y="235.005197" style="stroke: #000000; stroke-width: 0.6"/>
      </g>
     </g>
    </g>
    <g id="ytick_5">
     <g id="line2d_24">
      <g>
       <use xlink:href="#m40554d4985" x="57.6" y="220.833451" style="stroke: #000000; stroke-width: 0.6"/>
      </g>
     </g>
    </g>
    <g id="ytick_6">
     <g id="line2d_25">
      <g>
       <use xlink:href="#m40554d4985" x="57.6" y="209.254291" style="stroke: #000000; stroke-width: 0.6"/>
      </g>
     </g>
    </g>
    <g id="ytick_7">
     <g id="line2d_26">
      <g>
       <use xlink:href="#m40554d4985" x="57.6" y="199.46425" style="stroke: #000000; stroke-width: 0.6"/>
      </g>
     </g>
    </g>
    <g id="ytick_8">
     <g id="line2d_27">
      <g>
       <use xlink:href="#m40554d4985" x="57.6" y="190.983732" style="stroke: #000000; stroke-width: 0.6"/>
      </g>
     </g>
    </g>
    <g id="ytick_9">
     <g id="line2d_28">
      <g>
       <use xlink:href="#m40554d4985" x="57.6" y="183.503384" style="stroke: #000000; stroke-width: 0.6"/>
      </g>
     </g>
    </g>
    <g id="ytick_10">
     <g id="line2d_29">
      <g>
       <use xlink:href="#m40554d4985" x="57.6" y="132.79052" style="stroke: #000000; stroke-width: 0.6"/>
      </g>
     </g>
    </g>
    <g id="ytick_11">
     <g id="line2d_30">
      <g>
       <use xlink:href="#m40554d4985" x="57.6" y="107.039614" style="stroke: #000000; stroke-width: 0.6"/>
      </g>
     </g>
    </g>
    <g id="ytick_12">
     <g id="line2d_31">
      <g>
       <use xlink:href="#m40554d4985" x="57.6" y="88.769055" style="stroke: #000000; stroke-width: 0.6"/>
      </g>
     </g>
    </g>
    <g id="ytick_13">
     <g id="line2d_32">
      <g>
       <use xlink:href="#m40554d4985" x="57.6" y="74.597309" style="stroke: #000000; stroke-width: 0.6"/>
      </g>
     </g>
    </g>
    <g id="ytick_14">
     <g id="line2d_33">
      <g>
       <use xlink:href="#m40554d4985" x="57.6" y="63.018149" style="stroke: #000000; stroke-width: 0.6"/>
      </g>
     </g>
    </g>
    <g id="ytick_15">
     <g id="line2d_34">
      <g>
       <use xlink:href="#m40554d4985" x="57.6" y="53.228109" style="stroke: #000000; stroke-width: 0.6"/>
      </g>
     </g>
    </g>
    <g id="ytick_16">
     <g id="line2d_35">
      <g>
       <use xlink:href="#m40554d4985" x="57.6" y="44.74759" style="stroke: #000000; stroke-width: 0.6"/>
      </g>
     </g>
    </g>
    <g id="text_5">
     <!-- Final Width (eV) -->
     <g transform="translate(21.020312 214.152219) rotate(-90) scale(0.1 -0.1)">
      <defs>
       <path id="DejaVuSans-46" d="M 628 4666 
L 3309 4666 
L 3309 4134 
L 1259 4134 
L 1259 2759 
L 3109 2759 
L 3109 2228 
L 1259 2228 
L 1259 0 
L 628 0 
L 628 4666 
z
" transform="scale(0.015625)"/>
       <path id="DejaVuSans-6c" d="M 603 4863 
L 1178 4863 
L 1178 0 
L 603 0 
L 603 4863 
z
" transform="scale(0.015625)"/>
       <path id="DejaVuSans-57" d="M 213 4666 
L 850 4666 
L 1831 722 
L 2809 4666 
L 3519 4666 
L 4500 722 
L 5478 4666 
L 6119 4666 
L 4947 0 
L 4153 0 
L 3169 4050 
L 2175 0 
L 1381 0 
L 213 4666 
z
" transform="scale(0.015625)"/>
       <path id="DejaVuSans-64" d="M 2906 2969 
L 2906 4863 
L 3481 4863 
L 3481 0 
L 2906 0 
L 2906 525 
Q 2725 213 2448 61 
Q 2172 -91 1784 -91 
Q 1150 -91 751 415 
Q 353 922 353 1747 
Q 353 2572 751 3078 
Q 1150 3584 1784 3584 
Q 2172 3584 2448 3432 
Q 2725 3281 2906 2969 
z
M 947 1747 
Q 947 1113 1208 752 
Q 1469 391 1925 391 
Q 2381 391 2643 752 
Q 2906 1113 2906 1747 
Q 2906 2381 2643 2742 
Q 2381 3103 1925 3103 
Q 1469 3103 1208 2742 
Q 947 2381 947 1747 
z
" transform="scale(0.015625)"/>
       <path id="DejaVuSans-28" d="M 1984 4856 
Q 1566 4138 1362 3434 
Q 1159 2731 1159 2009 
Q 1159 1288 1364 580 
Q 1569 -128 1984 -844 
L 1484 -844 
Q 1016 -109 783 600 
Q 550 1309 550 2009 
Q 550 2706 781 3412 
Q 1013 4119 1484 4856 
L 1984 4856 
z
" transform="scale(0.015625)"/>
       <path id="DejaVuSans-56" d="M 1831 0 
L 50 4666 
L 709 4666 
L 2188 738 
L 3669 4666 
L 4325 4666 
L 2547 0 
L 1831 0 
z
" transform="scale(0.015625)"/>
       <path id="DejaVuSans-29" d="M 513 4856 
L 1013 4856 
Q 1481 4119 1714 3412 
Q 1947 2706 1947 2009 
Q 1947 1309 1714 600 
Q 1481 -109 1013 -844 
L 513 -844 
Q 928 -128 1133 580 
Q 1338 1288 1338 2009 
Q 1338 2731 1133 3434 
Q 928 4138 513 4856 
z
" transform="scale(0.015625)"/>
      </defs>
      <use xlink:href="#DejaVuSans-46"/>
      <use xlink:href="#DejaVuSans-69" x="50.269531"/>
      <use xlink:href="#DejaVuSans-6e" x="78.052734"/>
      <use xlink:href="#DejaVuSans-61" x="141.431641"/>
      <use xlink:href="#DejaVuSans-6c" x="202.710938"/>
      <use xlink:href="#DejaVuSans-20" x="230.494141"/>
      <use xlink:href="#DejaVuSans-57" x="262.28125"/>
      <use xlink:href="#DejaVuSans-69" x="358.908203"/>
      <use xlink:href="#DejaVuSans-64" x="386.691406"/>
      <use xlink:href="#DejaVuSans-74" x="450.167969"/>
      <use xlink:href="#DejaVuSans-68" x="489.376953"/>
      <use xlink:href="#DejaVuSans-20" x="552.755859"/>
      <use xlink:href="#DejaVuSans-28" x="584.542969"/>
      <use xlink:href="#DejaVuSans-65" x="623.556641"/>
      <use xlink:href="#DejaVuSans-56" x="685.080078"/>
      <use xlink:href="#DejaVuSans-29" x="753.488281"/>
     </g>
    </g>
   </g>
   <g id="line2d_36">
    <path d="M 73.832727 59.621107 
L 90.065455 61.088455 
L 106.298182 62.693291 
L 122.530909 64.403106 
L 138.763636 68.101625 
L 154.996364 74.905133 
L 171.229091 85.992488 
L 187.461818 102.863304 
L 203.694545 121.08225 
L 219.927273 137.672698 
L 236.16 153.147337 
L 252.392727 168.006609 
L 268.625455 182.503213 
L 284.858182 196.912887 
L 301.090909 210.957061 
L 317.323636 225.181932 
L 333.556364 239.420145 
L 349.789091 253.095074 
L 366.021818 267.370004 
L 382.254545 281.155673 
L 398.487273 295.488 
" clip-path="url(#p9572cdff34)" style="fill: none; stroke: #1f77b4; stroke-width: 1.5; stroke-linecap: square"/>
    <defs>
     <path id="m8ef257bb8d" d="M 0 1.5 
C 0.397805 1.5 0.77937 1.341951 1.06066 1.06066 
C 1.341951 0.77937 1.5 0.397805 1.5 0 
C 1.5 -0.397805 1.341951 -0.77937 1.06066 -1.06066 
C 0.77937 -1.341951 0.397805 -1.5 0 -1.5 
C -0.397805 -1.5 -0.77937 -1.341951 -1.06066 -1.06066 
C -1.341951 -0.77937 -1.5 -0.397805 -1.5 0 
C -1.5 0.397805 -1.341951 0.77937 -1.06066 1.06066 
C -0.77937 1.341951 -0.397805 1.5 0 1.5 
z
" style="stroke: #1f77b4"/>
    </defs>
    <g clip-path="url(#p9572cdff34)">
     <use xlink:href="#m8ef257bb8d" x="73.832727" y="59.621107" style="fill: #1f77b4; stroke: #1f77b4"/>
     <use xlink:href="#m8ef257bb8d" x="90.065455" y="61.088455" style="fill: #1f77b4; stroke: #1f77b4"/>
     <use xlink:href="#m8ef257bb8d" x="106.298182" y="62.693291" style="fill: #1f77b4; stroke: #1f77b4"/>
     <use xlink:href="#m8ef257bb8d" x="122.530909" y="64.403106" style="fill: #1f77b4; stroke: #1f77b4"/>
     <use xlink:href="#m8ef257bb8d" x="138.763636" y="68.101625" style="fill: #1f77b4; stroke: #1f77b4"/>
     <use xlink:href="#m8ef257bb8d" x="154.996364" y="74.905133" style="fill: #1f77b4; stroke: #1f77b4"/>
     <use xlink:href="#m8ef257bb8d" x="171.229091" y="85.992488" style="fill: #1f77b4; stroke: #1f77b4"/>
     <use xlink:href="#m8ef257bb8d" x="187.461818" y="102.863304" style="fill: #1f77b4; stroke: #1f77b4"/>
     <use xlink:href="#m8ef257bb8d" x="203.694545" y="121.08225" style="fill: #1f77b4; stroke: #1f77b4"/>
     <use xlink:href="#m8ef257bb8d" x="219.927273" y="137.672698" style="fill: #1f77b4; stroke: #1f77b4"/>
     <use xlink:href="#m8ef257bb8d" x="236.16" y="153.147337" style="fill: #1f77b4; stroke: #1f77b4"/>
     <use xlink:href="#m8ef257bb8d" x="252.392727" y="168.006609" style="fill: #1f77b4; stroke: #1f77b4"/>
     <use xlink:href="#m8ef257bb8d" x="268.625455" y="182.503213" style="fill: #1f77b4; stroke: #1f77b4"/>
     <use xlink:href="#m8ef257bb8d" x="284.858182" y="196.912887" style="fill: #1f77b4; stroke: #1f77b4"/>
     <use xlink:href="#m8ef257bb8d" x="301.090909" y="210.957061" style="fill: #1f77b4; stroke: #1f77b4"/>
     <use xlink:href="#m8ef257bb8d" x="317.323636" y="225.181932" style="fill: #1f77b4; stroke: #1f77b4"/>
     <use xlink:href="#m8ef257bb8d" x="333.556364" y="239.420145" style="fill: #1f77b4; stroke: #1f77b4"/>
     <use xlink:href="#m8ef257bb8d" x="349.789091" y="253.095074" style="fill: #1f77b4; stroke: #1f77b4"/>
     <use xlink:href="#m8ef257bb8d" x="366.021818" y="267.370004" style="fill: #1f77b4; stroke: #1f77b4"/>
     <use xlink:href="#m8ef257bb8d" x="382.254545" y="281.155673" style="fill: #1f77b4; stroke: #1f77b4"/>
     <use xlink:href="#m8ef257bb8d" x="398.487273" y="295.488" style="fill: #1f77b4; stroke: #1f77b4"/>
    </g>
   </g>
   <g id="line2d_37">
    <path d="M 73.832727 59.503605 
L 90.065455 60.848191 
L 106.298182 62.324049 
L 122.530909 63.83502 
L 138.763636 66.029999 
L 154.996364 70.243111 
L 171.229091 76.521368 
L 187.461818 84.990925 
L 203.694545 95.901404 
L 219.927273 108.024278 
L 236.16 118.851837 
L 252.392727 127.539053 
L 268.625455 134.281239 
L 284.858182 139.370008 
L 301.090909 143.345087 
L 317.323636 146.344915 
L 333.556364 148.611958 
L 349.789091 150.305646 
L 366.021818 151.79422 
L 382.254545 152.721383 
L 398.487273 153.662282 
" clip-path="url(#p9572cdff34)" style="fill: none; stroke: #ff7f0e; stroke-width: 1.5; stroke-linecap: square"/>
    <defs>
     <path id="m2d4af3c396" d="M 0 1.5 
C 0.397805 1.5 0.77937 1.341951 1.06066 1.06066 
C 1.341951 0.77937 1.5 0.397805 1.5 0 
C 1.5 -0.397805 1.341951 -0.77937 1.06066 -1.06066 
C 0.77937 -1.341951 0.397805 -1.5 0 -1.5 
C -0.397805 -1.5 -0.77937 -1.341951 -1.06066 -1.06066 
C -1.341951 -0.77937 -1.5 -0.397805 -1.5 0 
C -1.5 0.397805 -1.341951 0.77937 -1.06066 1.06066 
C -0.77937 1.341951 -0.397805 1.5 0 1.5 
z
" style="stroke: #ff7f0e"/>
    </defs>
    <g clip-path="url(#p9572cdff34)">
     <use xlink:href="#m2d4af3c396" x="73.832727" y="59.503605" style="fill: #ff7f0e; stroke: #ff7f0e"/>
     <use xlink:href="#m2d4af3c396" x="90.065455" y="60.848191" style="fill: #ff7f0e; stroke: #ff7f0e"/>
     <use xlink:href="#m2d4af3c396" x="106.298182" y="62.324049" style="fill: #ff7f0e; stroke: #ff7f0e"/>
     <use xlink:href="#m2d4af3c396" x="122.530909" y="63.83502" style="fill: #ff7f0e; stroke: #ff7f0e"/>
     <use xlink:href="#m2d4af3c396" x="138.763636" y="66.029999" style="fill: #ff7f0e; stroke: #ff7f0e"/>
     <use xlink:href="#m2d4af3c396" x="154.996364" y="70.243111" style="fill: #ff7f0e; stroke: #ff7f0e"/>
     <use xlink:href="#m2d4af3c396" x="171.229091" y="76.521368" style="fill: #ff7f0e; stroke: #ff7f0e"/>
     <use xlink:href="#m2d4af3c396" x="187.461818" y="84.990925" style="fill: #ff7f0e; stroke: #ff7f0e"/>
     <use xlink:href="#m2d4af3c396" x="203.694545" y="95.901404" style="fill: #ff7f0e; stroke: #ff7f0e"/>
     <use xlink:href="#m2d4af3c396" x="219.927273" y="108.024278" style="fill: #ff7f0e; stroke: #ff7f0e"/>
     <use xlink:href="#m2d4af3c396" x="236.16" y="118.851837" style="fill: #ff7f0e; stroke: #ff7f0e"/>
     <use xlink:href="#m2d4af3c396" x="252.392727" y="127.539053" style="fill: #ff7f0e; stroke: #ff7f0e"/>
     <use xlink:href="#m2d4af3c396" x="268.625455" y="134.281239" style="fill: #ff7f0e; stroke: #ff7f0e"/>
     <use xlink:href="#m2d4af3c396" x="284.858182" y="139.370008" style="fill: #ff7f0e; stroke: #ff7f0e"/>
     <use xlink:href="#m2d4af3c396" x="301.090909" y="143.345087" style="fill: #ff7f0e; stroke: #ff7f0e"/>
     <use xlink:href="#m2d4af3c396" x="317.323636" y="146.344915" style="fill: #ff7f0e; stroke: #ff7f0e"/>
     <use xlink:href="#m2d4af3c396" x="333.556364" y="148.611958" style="fill: #ff7f0e; stroke: #ff7f0e"/>
     <use xlink:href="#m2d4af3c396" x="349.789091" y="150.305646" style="fill: #ff7f0e; stroke: #ff7f0e"/>
     <use xlink:href="#m2d4af3c396" x="366.021818" y="151.79422" style="fill: #ff7f0e; stroke: #ff7f0e"/>
     <use xlink:href="#m2d4af3c396" x="382.254545" y="152.721383" style="fill: #ff7f0e; stroke: #ff7f0e"/>
     <use xlink:href="#m2d4af3c396" x="398.487273" y="153.662282" style="fill: #ff7f0e; stroke: #ff7f0e"/>
    </g>
   </g>
   <g id="line2d_38">
    <path d="M 73.832727 59.191326 
L 90.065455 60.410055 
L 106.298182 61.713375 
L 122.530909 63.08539 
L 138.763636 64.44539 
L 154.996364 66.837381 
L 171.229091 70.33586 
L 187.461818 74.260108 
L 203.694545 78.17981 
L 219.927273 81.660286 
L 236.16 84.670243 
L 252.392727 87.282219 
L 268.625455 89.502196 
L 284.858182 91.348719 
L 301.090909 92.918551 
L 317.323636 94.189453 
L 333.556364 95.245415 
L 349.789091 96.109974 
L 366.021818 96.810197 
L 382.254545 97.375987 
L 398.487273 97.803663 
" clip-path="url(#p9572cdff34)" style="fill: none; stroke: #2ca02c; stroke-width: 1.5; stroke-linecap: square"/>
    <defs>
     <path id="m9608516357" d="M 0 1.5 
C 0.397805 1.5 0.77937 1.341951 1.06066 1.06066 
C 1.341951 0.77937 1.5 0.397805 1.5 0 
C 1.5 -0.397805 1.341951 -0.77937 1.06066 -1.06066 
C 0.77937 -1.341951 0.397805 -1.5 0 -1.5 
C -0.397805 -1.5 -0.77937 -1.341951 -1.06066 -1.06066 
C -1.341951 -0.77937 -1.5 -0.397805 -1.5 0 
C -1.5 0.397805 -1.341951 0.77937 -1.06066 1.06066 
C -0.77937 1.341951 -0.397805 1.5 0 1.5 
z
" style="stroke: #2ca02c"/>
    </defs>
    <g clip-path="url(#p9572cdff34)">
     <use xlink:href="#m9608516357" x="73.832727" y="59.191326" style="fill: #2ca02c; stroke: #2ca02c"/>
     <use xlink:href="#m9608516357" x="90.065455" y="60.410055" style="fill: #2ca02c; stroke: #2ca02c"/>
     <use xlink:href="#m9608516357" x="106.298182" y="61.713375" style="fill: #2ca02c; stroke: #2ca02c"/>
     <use xlink:href="#m9608516357" x="122.530909" y="63.08539" style="fill: #2ca02c; stroke: #2ca02c"/>
     <use xlink:href="#m9608516357" x="138.763636" y="64.44539" style="fill: #2ca02c; stroke: #2ca02c"/>
     <use xlink:href="#m9608516357" x="154.996364" y="66.837381" style="fill: #2ca02c; stroke: #2ca02c"/>
     <use xlink:href="#m9608516357" x="171.229091" y="70.33586" style="fill: #2ca02c; stroke: #2ca02c"/>
     <use xlink:href="#m9608516357" x="187.461818" y="74.260108" style="fill: #2ca02c; stroke: #2ca02c"/>
     <use xlink:href="#m9608516357" x="203.694545" y="78.17981" style="fill: #2ca02c; stroke: #2ca02c"/>
     <use xlink:href="#m9608516357" x="219.927273" y="81.660286" style="fill: #2ca02c; stroke: #2ca02c"/>
     <use xlink:href="#m9608516357" x="236.16" y="84.670243" style="fill: #2ca02c; stroke: #2ca02c"/>
     <use xlink:href="#m9608516357" x="252.392727" y="87.282219" style="fill: #2ca02c; stroke: #2ca02c"/>
     <use xlink:href="#m9608516357" x="268.625455" y="89.502196" style="fill: #2ca02c; stroke: #2ca02c"/>
     <use xlink:href="#m9608516357" x="284.858182" y="91.348719" style="fill: #2ca02c; stroke: #2ca02c"/>
     <use xlink:href="#m9608516357" x="301.090909" y="92.918551" style="fill: #2ca02c; stroke: #2ca02c"/>
     <use xlink:href="#m9608516357" x="317.323636" y="94.189453" style="fill: #2ca02c; stroke: #2ca02c"/>
     <use xlink:href="#m9608516357" x="333.556364" y="95.245415" style="fill: #2ca02c; stroke: #2ca02c"/>
     <use xlink:href="#m9608516357" x="349.789091" y="96.109974" style="fill: #2ca02c; stroke: #2ca02c"/>
     <use xlink:href="#m9608516357" x="366.021818" y="96.810197" style="fill: #2ca02c; stroke: #2ca02c"/>
     <use xlink:href="#m9608516357" x="382.254545" y="97.375987" style="fill: #2ca02c; stroke: #2ca02c"/>
     <use xlink:href="#m9608516357" x="398.487273" y="97.803663" style="fill: #2ca02c; stroke: #2ca02c"/>
    </g>
   </g>
   <g id="line2d_39">
    <path d="M 73.832727 58.687126 
L 90.065455 59.699562 
L 106.298182 60.788267 
L 122.530909 61.835041 
L 138.763636 62.816851 
L 154.996364 63.6259 
L 171.229091 64.297521 
L 187.461818 64.827212 
L 203.694545 65.533237 
L 219.927273 66.138507 
L 236.16 66.66194 
L 252.392727 67.101454 
L 268.625455 67.455269 
L 284.858182 67.744201 
L 301.090909 67.967355 
L 317.323636 68.168867 
L 333.556364 68.326041 
L 349.789091 68.438547 
L 366.021818 68.528695 
L 382.254545 68.618972 
L 398.487273 68.664158 
" clip-path="url(#p9572cdff34)" style="fill: none; stroke: #d62728; stroke-width: 1.5; stroke-linecap: square"/>
    <defs>
     <path id="md6d69cc1e7" d="M 0 1.5 
C 0.397805 1.5 0.77937 1.341951 1.06066 1.06066 
C 1.341951 0.77937 1.5 0.397805 1.5 0 
C 1.5 -0.397805 1.341951 -0.77937 1.06066 -1.06066 
C 0.77937 -1.341951 0.397805 -1.5 0 -1.5 
C -0.397805 -1.5 -0.77937 -1.341951 -1.06066 -1.06066 
C -1.341951 -0.77937 -1.5 -0.397805 -1.5 0 
C -1.5 0.397805 -1.341951 0.77937 -1.06066 1.06066 
C -0.77937 1.341951 -0.397805 1.5 0 1.5 
z
" style="stroke: #d62728"/>
    </defs>
    <g clip-path="url(#p9572cdff34)">
     <use xlink:href="#md6d69cc1e7" x="73.832727" y="58.687126" style="fill: #d62728; stroke: #d62728"/>
     <use xlink:href="#md6d69cc1e7" x="90.065455" y="59.699562" style="fill: #d62728; stroke: #d62728"/>
     <use xlink:href="#md6d69cc1e7" x="106.298182" y="60.788267" style="fill: #d62728; stroke: #d62728"/>
     <use xlink:href="#md6d69cc1e7" x="122.530909" y="61.835041" style="fill: #d62728; stroke: #d62728"/>
     <use xlink:href="#md6d69cc1e7" x="138.763636" y="62.816851" style="fill: #d62728; stroke: #d62728"/>
     <use xlink:href="#md6d69cc1e7" x="154.996364" y="63.6259" style="fill: #d62728; stroke: #d62728"/>
     <use xlink:href="#md6d69cc1e7" x="171.229091" y="64.297521" style="fill: #d62728; stroke: #d62728"/>
     <use xlink:href="#md6d69cc1e7" x="187.461818" y="64.827212" style="fill: #d62728; stroke: #d62728"/>
     <use xlink:href="#md6d69cc1e7" x="203.694545" y="65.533237" style="fill: #d62728; stroke: #d62728"/>
     <use xlink:href="#md6d69cc1e7" x="219.927273" y="66.138507" style="fill: #d62728; stroke: #d62728"/>
     <use xlink:href="#md6d69cc1e7" x="236.16" y="66.66194" style="fill: #d62728; stroke: #d62728"/>
     <use xlink:href="#md6d69cc1e7" x="252.392727" y="67.101454" style="fill: #d62728; stroke: #d62728"/>
     <use xlink:href="#md6d69cc1e7" x="268.625455" y="67.455269" style="fill: #d62728; stroke: #d62728"/>
     <use xlink:href="#md6d69cc1e7" x="284.858182" y="67.744201" style="fill: #d62728; stroke: #d62728"/>
     <use xlink:href="#md6d69cc1e7" x="301.090909" y="67.967355" style="fill: #d62728; stroke: #d62728"/>
     <use xlink:href="#md6d69cc1e7" x="317.323636" y="68.168867" style="fill: #d62728; stroke: #d62728"/>
     <use xlink:href="#md6d69cc1e7" x="333.556364" y="68.326041" style="fill: #d62728; stroke: #d62728"/>
     <use xlink:href="#md6d69cc1e7" x="349.789091" y="68.438547" style="fill: #d62728; stroke: #d62728"/>
     <use xlink:href="#md6d69cc1e7" x="366.021818" y="68.528695" style="fill: #d62728; stroke: #d62728"/>
     <use xlink:href="#md6d69cc1e7" x="382.254545" y="68.618972" style="fill: #d62728; stroke: #d62728"/>
     <use xlink:href="#md6d69cc1e7" x="398.487273" y="68.664158" style="fill: #d62728; stroke: #d62728"/>
    </g>
   </g>
   <g id="LineCollection_1">
    <path d="M 73.832727 122.418323 
L 398.487273 122.418323 
" clip-path="url(#p9572cdff34)" style="fill: none; stroke-dasharray: 5.55,2.4; stroke-dashoffset: 0; stroke: #ff0000; stroke-width: 1.5"/>
   </g>
   <g id="LineCollection_2">
    <path d="M 147.498492 346.6 
L 147.498492 53.568 
" clip-path="url(#p9572cdff34)" style="fill: none; stroke-dasharray: 5.55,2.4; stroke-dashoffset: 0; stroke: #008000; stroke-width: 1.5"/>
   </g>
   <g id="patch_3">
    <path d="M 57.6 307.584 
L 57.6 41.472 
" style="fill: none; stroke: #000000; stroke-width: 0.8; stroke-linejoin: miter; stroke-linecap: square"/>
   </g>
   <g id="patch_4">
    <path d="M 414.72 307.584 
L 414.72 41.472 
" style="fill: none; stroke: #000000; stroke-width: 0.8; stroke-linejoin: miter; stroke-linecap: square"/>
   </g>
   <g id="patch_5">
    <path d="M 57.6 307.584 
L 414.72 307.584 
" style="fill: none; stroke: #000000; stroke-width: 0.8; stroke-linejoin: miter; stroke-linecap: square"/>
   </g>
   <g id="patch_6">
    <path d="M 57.6 41.472 
L 414.72 41.472 
" style="fill: none; stroke: #000000; stroke-width: 0.8; stroke-linejoin: miter; stroke-linecap: square"/>
   </g>
   <g id="legend_1">
    <g id="patch_7">
     <path d="M 64.6 302.584 
L 205.95 302.584 
Q 207.95 302.584 207.95 300.584 
L 207.95 213.51525 
Q 207.95 211.51525 205.95 211.51525 
L 64.6 211.51525 
Q 62.6 211.51525 62.6 213.51525 
L 62.6 300.584 
Q 62.6 302.584 64.6 302.584 
z
" style="fill: #ffffff; opacity: 0.8; stroke: #cccccc; stroke-linejoin: miter"/>
    </g>
    <g id="line2d_40">
     <path d="M 66.6 219.613687 
L 76.6 219.613687 
L 86.6 219.613687 
" style="fill: none; stroke: #1f77b4; stroke-width: 1.5; stroke-linecap: square"/>
     <g>
      <use xlink:href="#m8ef257bb8d" x="76.6" y="219.613687" style="fill: #1f77b4; stroke: #1f77b4"/>
     </g>
    </g>
    <g id="text_6">
     <!-- Final Width 0 dB/cm -->
     <g transform="translate(94.6 223.113687) scale(0.1 -0.1)">
      <defs>
       <path id="DejaVuSans-42" d="M 1259 2228 
L 1259 519 
L 2272 519 
Q 2781 519 3026 730 
Q 3272 941 3272 1375 
Q 3272 1813 3026 2020 
Q 2781 2228 2272 2228 
L 1259 2228 
z
M 1259 4147 
L 1259 2741 
L 2194 2741 
Q 2656 2741 2882 2914 
Q 3109 3088 3109 3444 
Q 3109 3797 2882 3972 
Q 2656 4147 2194 4147 
L 1259 4147 
z
M 628 4666 
L 2241 4666 
Q 2963 4666 3353 4366 
Q 3744 4066 3744 3513 
Q 3744 3084 3544 2831 
Q 3344 2578 2956 2516 
Q 3422 2416 3680 2098 
Q 3938 1781 3938 1306 
Q 3938 681 3513 340 
Q 3088 0 2303 0 
L 628 0 
L 628 4666 
z
" transform="scale(0.015625)"/>
       <path id="DejaVuSans-2f" d="M 1625 4666 
L 2156 4666 
L 531 -594 
L 0 -594 
L 1625 4666 
z
" transform="scale(0.015625)"/>
      </defs>
      <use xlink:href="#DejaVuSans-46"/>
      <use xlink:href="#DejaVuSans-69" x="50.269531"/>
      <use xlink:href="#DejaVuSans-6e" x="78.052734"/>
      <use xlink:href="#DejaVuSans-61" x="141.431641"/>
      <use xlink:href="#DejaVuSans-6c" x="202.710938"/>
      <use xlink:href="#DejaVuSans-20" x="230.494141"/>
      <use xlink:href="#DejaVuSans-57" x="262.28125"/>
      <use xlink:href="#DejaVuSans-69" x="358.908203"/>
      <use xlink:href="#DejaVuSans-64" x="386.691406"/>
      <use xlink:href="#DejaVuSans-74" x="450.167969"/>
      <use xlink:href="#DejaVuSans-68" x="489.376953"/>
      <use xlink:href="#DejaVuSans-20" x="552.755859"/>
      <use xlink:href="#DejaVuSans-30" x="584.542969"/>
      <use xlink:href="#DejaVuSans-20" x="648.166016"/>
      <use xlink:href="#DejaVuSans-64" x="679.953125"/>
      <use xlink:href="#DejaVuSans-42" x="743.429688"/>
      <use xlink:href="#DejaVuSans-2f" x="812.033203"/>
      <use xlink:href="#DejaVuSans-63" x="845.724609"/>
      <use xlink:href="#DejaVuSans-6d" x="900.705078"/>
     </g>
    </g>
    <g id="line2d_41">
     <path d="M 66.6 234.291812 
L 76.6 234.291812 
L 86.6 234.291812 
" style="fill: none; stroke: #ff7f0e; stroke-width: 1.5; stroke-linecap: square"/>
     <g>
      <use xlink:href="#m2d4af3c396" x="76.6" y="234.291812" style="fill: #ff7f0e; stroke: #ff7f0e"/>
     </g>
    </g>
    <g id="text_7">
     <!-- Final Width 0.5 dB/cm -->
     <g transform="translate(94.6 237.791812) scale(0.1 -0.1)">
      <defs>
       <path id="DejaVuSans-2e" d="M 684 794 
L 1344 794 
L 1344 0 
L 684 0 
L 684 794 
z
" transform="scale(0.015625)"/>
       <path id="DejaVuSans-35" d="M 691 4666 
L 3169 4666 
L 3169 4134 
L 1269 4134 
L 1269 2991 
Q 1406 3038 1543 3061 
Q 1681 3084 1819 3084 
Q 2600 3084 3056 2656 
Q 3513 2228 3513 1497 
Q 3513 744 3044 326 
Q 2575 -91 1722 -91 
Q 1428 -91 1123 -41 
Q 819 9 494 109 
L 494 744 
Q 775 591 1075 516 
Q 1375 441 1709 441 
Q 2250 441 2565 725 
Q 2881 1009 2881 1497 
Q 2881 1984 2565 2268 
Q 2250 2553 1709 2553 
Q 1456 2553 1204 2497 
Q 953 2441 691 2322 
L 691 4666 
z
" transform="scale(0.015625)"/>
      </defs>
      <use xlink:href="#DejaVuSans-46"/>
      <use xlink:href="#DejaVuSans-69" x="50.269531"/>
      <use xlink:href="#DejaVuSans-6e" x="78.052734"/>
      <use xlink:href="#DejaVuSans-61" x="141.431641"/>
      <use xlink:href="#DejaVuSans-6c" x="202.710938"/>
      <use xlink:href="#DejaVuSans-20" x="230.494141"/>
      <use xlink:href="#DejaVuSans-57" x="262.28125"/>
      <use xlink:href="#DejaVuSans-69" x="358.908203"/>
      <use xlink:href="#DejaVuSans-64" x="386.691406"/>
      <use xlink:href="#DejaVuSans-74" x="450.167969"/>
      <use xlink:href="#DejaVuSans-68" x="489.376953"/>
      <use xlink:href="#DejaVuSans-20" x="552.755859"/>
      <use xlink:href="#DejaVuSans-30" x="584.542969"/>
      <use xlink:href="#DejaVuSans-2e" x="648.166016"/>
      <use xlink:href="#DejaVuSans-35" x="679.953125"/>
      <use xlink:href="#DejaVuSans-20" x="743.576172"/>
      <use xlink:href="#DejaVuSans-64" x="775.363281"/>
      <use xlink:href="#DejaVuSans-42" x="838.839844"/>
      <use xlink:href="#DejaVuSans-2f" x="907.443359"/>
      <use xlink:href="#DejaVuSans-63" x="941.134766"/>
      <use xlink:href="#DejaVuSans-6d" x="996.115234"/>
     </g>
    </g>
    <g id="line2d_42">
     <path d="M 66.6 248.969937 
L 76.6 248.969937 
L 86.6 248.969937 
" style="fill: none; stroke: #2ca02c; stroke-width: 1.5; stroke-linecap: square"/>
     <g>
      <use xlink:href="#m9608516357" x="76.6" y="248.969937" style="fill: #2ca02c; stroke: #2ca02c"/>
     </g>
    </g>
    <g id="text_8">
     <!-- Final Width 1 dB/cm -->
     <g transform="translate(94.6 252.469937) scale(0.1 -0.1)">
      <use xlink:href="#DejaVuSans-46"/>
      <use xlink:href="#DejaVuSans-69" x="50.269531"/>
      <use xlink:href="#DejaVuSans-6e" x="78.052734"/>
      <use xlink:href="#DejaVuSans-61" x="141.431641"/>
      <use xlink:href="#DejaVuSans-6c" x="202.710938"/>
      <use xlink:href="#DejaVuSans-20" x="230.494141"/>
      <use xlink:href="#DejaVuSans-57" x="262.28125"/>
      <use xlink:href="#DejaVuSans-69" x="358.908203"/>
      <use xlink:href="#DejaVuSans-64" x="386.691406"/>
      <use xlink:href="#DejaVuSans-74" x="450.167969"/>
      <use xlink:href="#DejaVuSans-68" x="489.376953"/>
      <use xlink:href="#DejaVuSans-20" x="552.755859"/>
      <use xlink:href="#DejaVuSans-31" x="584.542969"/>
      <use xlink:href="#DejaVuSans-20" x="648.166016"/>
      <use xlink:href="#DejaVuSans-64" x="679.953125"/>
      <use xlink:href="#DejaVuSans-42" x="743.429688"/>
      <use xlink:href="#DejaVuSans-2f" x="812.033203"/>
      <use xlink:href="#DejaVuSans-63" x="845.724609"/>
      <use xlink:href="#DejaVuSans-6d" x="900.705078"/>
     </g>
    </g>
    <g id="line2d_43">
     <path d="M 66.6 263.648062 
L 76.6 263.648062 
L 86.6 263.648062 
" style="fill: none; stroke: #d62728; stroke-width: 1.5; stroke-linecap: square"/>
     <g>
      <use xlink:href="#md6d69cc1e7" x="76.6" y="263.648062" style="fill: #d62728; stroke: #d62728"/>
     </g>
    </g>
    <g id="text_9">
     <!-- Final Width 2 dB/cm -->
     <g transform="translate(94.6 267.148062) scale(0.1 -0.1)">
      <defs>
       <path id="DejaVuSans-32" d="M 1228 531 
L 3431 531 
L 3431 0 
L 469 0 
L 469 531 
Q 828 903 1448 1529 
Q 2069 2156 2228 2338 
Q 2531 2678 2651 2914 
Q 2772 3150 2772 3378 
Q 2772 3750 2511 3984 
Q 2250 4219 1831 4219 
Q 1534 4219 1204 4116 
Q 875 4013 500 3803 
L 500 4441 
Q 881 4594 1212 4672 
Q 1544 4750 1819 4750 
Q 2544 4750 2975 4387 
Q 3406 4025 3406 3419 
Q 3406 3131 3298 2873 
Q 3191 2616 2906 2266 
Q 2828 2175 2409 1742 
Q 1991 1309 1228 531 
z
" transform="scale(0.015625)"/>
      </defs>
      <use xlink:href="#DejaVuSans-46"/>
      <use xlink:href="#DejaVuSans-69" x="50.269531"/>
      <use xlink:href="#DejaVuSans-6e" x="78.052734"/>
      <use xlink:href="#DejaVuSans-61" x="141.431641"/>
      <use xlink:href="#DejaVuSans-6c" x="202.710938"/>
      <use xlink:href="#DejaVuSans-20" x="230.494141"/>
      <use xlink:href="#DejaVuSans-57" x="262.28125"/>
      <use xlink:href="#DejaVuSans-69" x="358.908203"/>
      <use xlink:href="#DejaVuSans-64" x="386.691406"/>
      <use xlink:href="#DejaVuSans-74" x="450.167969"/>
      <use xlink:href="#DejaVuSans-68" x="489.376953"/>
      <use xlink:href="#DejaVuSans-20" x="552.755859"/>
      <use xlink:href="#DejaVuSans-32" x="584.542969"/>
      <use xlink:href="#DejaVuSans-20" x="648.166016"/>
      <use xlink:href="#DejaVuSans-64" x="679.953125"/>
      <use xlink:href="#DejaVuSans-42" x="743.429688"/>
      <use xlink:href="#DejaVuSans-2f" x="812.033203"/>
      <use xlink:href="#DejaVuSans-63" x="845.724609"/>
      <use xlink:href="#DejaVuSans-6d" x="900.705078"/>
     </g>
    </g>
    <g id="line2d_44">
     <path d="M 66.6 278.326188 
L 86.6 278.326188 
" style="fill: none; stroke-dasharray: 5.55,2.4; stroke-dashoffset: 0; stroke: #ff0000; stroke-width: 1.5"/>
    </g>
    <g id="text_10">
     <!-- Initial Width -->
     <g transform="translate(94.6 281.826188) scale(0.1 -0.1)">
      <use xlink:href="#DejaVuSans-49"/>
      <use xlink:href="#DejaVuSans-6e" x="29.492188"/>
      <use xlink:href="#DejaVuSans-69" x="92.871094"/>
      <use xlink:href="#DejaVuSans-74" x="120.654297"/>
      <use xlink:href="#DejaVuSans-69" x="159.863281"/>
      <use xlink:href="#DejaVuSans-61" x="187.646484"/>
      <use xlink:href="#DejaVuSans-6c" x="248.925781"/>
      <use xlink:href="#DejaVuSans-20" x="276.708984"/>
      <use xlink:href="#DejaVuSans-57" x="308.496094"/>
      <use xlink:href="#DejaVuSans-69" x="405.123047"/>
      <use xlink:href="#DejaVuSans-64" x="432.90625"/>
      <use xlink:href="#DejaVuSans-74" x="496.382812"/>
      <use xlink:href="#DejaVuSans-68" x="535.591797"/>
     </g>
    </g>
    <g id="line2d_45">
     <path d="M 66.6 293.004312 
L 86.6 293.004312 
" style="fill: none; stroke-dasharray: 5.55,2.4; stroke-dashoffset: 0; stroke: #008000; stroke-width: 1.5"/>
    </g>
    <g id="text_11">
     <!-- L0 -->
     <g transform="translate(94.6 296.504312) scale(0.1 -0.1)">
      <use xlink:href="#DejaVuSans-4c"/>
      <use xlink:href="#DejaVuSans-30" x="55.712891"/>
     </g>
    </g>
   </g>
  </g>
 </g>
 <defs>
  <clipPath id="p9572cdff34">
   <rect x="57.6" y="41.472" width="357.12" height="266.112"/>
  </clipPath>
 </defs>
</svg>
