<?xml version="1.0" encoding="utf-8" standalone="no"?>
<!DOCTYPE svg PUBLIC "-//W3C//DTD SVG 1.1//EN"
  "http://www.w3.org/Graphics/SVG/1.1/DTD/svg11.dtd">
<svg xmlns:xlink="http://www.w3.org/1999/xlink" width="576pt" height="360pt" viewBox="0 0 576 360" xmlns="http://www.w3.org/2000/svg" version="1.1">
 <metadata>
  <rdf:RDF xmlns:dc="http://purl.org/dc/elements/1.1/" xmlns:cc="http://creativecommons.org/ns#" xmlns:rdf="http://www.w3.org/1999/02/22-rdf-syntax-ns#">
   <cc:Work>
    <dc:type rdf:resource="http://purl.org/dc/dcmitype/StillImage"/>
    <dc:date>2025-10-09T12:17:54.543537</dc:date>
    <dc:format>image/svg+xml</dc:format>
    <dc:creator>
     <cc:Agent>
      <dc:title>Matplotlib v3.10.6, https://matplotlib.org/</dc:title>
     </cc:Agent>
    </dc:creator>
   </cc:Work>
  </rdf:RDF>
 </metadata>
 <defs>
  <style type="text/css">*{stroke-linejoin: round; stroke-linecap: butt}</style>
 </defs>
 <g id="figure_1">
  <g id="patch_1">
   <path d="M 0 360 
L 576 360 
L 576 0 
L 0 0 
z
" style="fill: #ffffff"/>
  </g>
  <g id="axes_1">
   <g id="patch_2">
    <path d="M 55.772054 311.848 
L 558.057407 311.848 
L 558.057407 28.32 
L 55.772054 28.32 
z
" style="fill: #ffffff"/>
   </g>
   <g id="matplotlib.axis_1">
    <g id="xtick_1">
     <g id="line2d_1">
      <defs>
       <path id="me3ef847a28" d="M 0 0 
L 0 3.5 
" style="stroke: #000000; stroke-width: 0.8"/>
      </defs>
      <g>
       <use xlink:href="#me3ef847a28" x="114.964875" y="311.848" style="stroke: #000000; stroke-width: 0.8"/>
      </g>
     </g>
     <g id="text_1">
      <!-- $\mathdefault{10^{-3}}$ -->
      <g transform="translate(103.214875 326.446438) scale(0.1 -0.1)">
       <defs>
        <path id="DejaVuSans-31" d="M 794 531 
L 1825 531 
L 1825 4091 
L 703 3866 
L 703 4441 
L 1819 4666 
L 2450 4666 
L 2450 531 
L 3481 531 
L 3481 0 
L 794 0 
L 794 531 
z
" transform="scale(0.015625)"/>
        <path id="DejaVuSans-30" d="M 2034 4250 
Q 1547 4250 1301 3770 
Q 1056 3291 1056 2328 
Q 1056 1369 1301 889 
Q 1547 409 2034 409 
Q 2525 409 2770 889 
Q 3016 1369 3016 2328 
Q 3016 3291 2770 3770 
Q 2525 4250 2034 4250 
z
M 2034 4750 
Q 2819 4750 3233 4129 
Q 3647 3509 3647 2328 
Q 3647 1150 3233 529 
Q 2819 -91 2034 -91 
Q 1250 -91 836 529 
Q 422 1150 422 2328 
Q 422 3509 836 4129 
Q 1250 4750 2034 4750 
z
" transform="scale(0.015625)"/>
        <path id="DejaVuSans-2212" d="M 678 2272 
L 4684 2272 
L 4684 1741 
L 678 1741 
L 678 2272 
z
" transform="scale(0.015625)"/>
        <path id="DejaVuSans-33" d="M 2597 2516 
Q 3050 2419 3304 2112 
Q 3559 1806 3559 1356 
Q 3559 666 3084 287 
Q 2609 -91 1734 -91 
Q 1441 -91 1130 -33 
Q 819 25 488 141 
L 488 750 
Q 750 597 1062 519 
Q 1375 441 1716 441 
Q 2309 441 2620 675 
Q 2931 909 2931 1356 
Q 2931 1769 2642 2001 
Q 2353 2234 1838 2234 
L 1294 2234 
L 1294 2753 
L 1863 2753 
Q 2328 2753 2575 2939 
Q 2822 3125 2822 3475 
Q 2822 3834 2567 4026 
Q 2313 4219 1838 4219 
Q 1578 4219 1281 4162 
Q 984 4106 628 3988 
L 628 4550 
Q 988 4650 1302 4700 
Q 1616 4750 1894 4750 
Q 2613 4750 3031 4423 
Q 3450 4097 3450 3541 
Q 3450 3153 3228 2886 
Q 3006 2619 2597 2516 
z
" transform="scale(0.015625)"/>
       </defs>
       <use xlink:href="#DejaVuSans-31" transform="translate(0 0.765625)"/>
       <use xlink:href="#DejaVuSans-30" transform="translate(63.623047 0.765625)"/>
       <use xlink:href="#DejaVuSans-2212" transform="translate(128.203125 39.046875) scale(0.7)"/>
       <use xlink:href="#DejaVuSans-33" transform="translate(186.855469 39.046875) scale(0.7)"/>
      </g>
     </g>
    </g>
    <g id="xtick_2">
     <g id="line2d_2">
      <g>
       <use xlink:href="#me3ef847a28" x="225.210926" y="311.848" style="stroke: #000000; stroke-width: 0.8"/>
      </g>
     </g>
     <g id="text_2">
      <!-- $\mathdefault{10^{-2}}$ -->
      <g transform="translate(213.460926 326.446438) scale(0.1 -0.1)">
       <defs>
        <path id="DejaVuSans-32" d="M 1228 531 
L 3431 531 
L 3431 0 
L 469 0 
L 469 531 
Q 828 903 1448 1529 
Q 2069 2156 2228 2338 
Q 2531 2678 2651 2914 
Q 2772 3150 2772 3378 
Q 2772 3750 2511 3984 
Q 2250 4219 1831 4219 
Q 1534 4219 1204 4116 
Q 875 4013 500 3803 
L 500 4441 
Q 881 4594 1212 4672 
Q 1544 4750 1819 4750 
Q 2544 4750 2975 4387 
Q 3406 4025 3406 3419 
Q 3406 3131 3298 2873 
Q 3191 2616 2906 2266 
Q 2828 2175 2409 1742 
Q 1991 1309 1228 531 
z
" transform="scale(0.015625)"/>
       </defs>
       <use xlink:href="#DejaVuSans-31" transform="translate(0 0.765625)"/>
       <use xlink:href="#DejaVuSans-30" transform="translate(63.623047 0.765625)"/>
       <use xlink:href="#DejaVuSans-2212" transform="translate(128.203125 39.046875) scale(0.7)"/>
       <use xlink:href="#DejaVuSans-32" transform="translate(186.855469 39.046875) scale(0.7)"/>
      </g>
     </g>
    </g>
    <g id="xtick_3">
     <g id="line2d_3">
      <g>
       <use xlink:href="#me3ef847a28" x="335.456978" y="311.848" style="stroke: #000000; stroke-width: 0.8"/>
      </g>
     </g>
     <g id="text_3">
      <!-- $\mathdefault{10^{-1}}$ -->
      <g transform="translate(323.706978 326.446438) scale(0.1 -0.1)">
       <use xlink:href="#DejaVuSans-31" transform="translate(0 0.684375)"/>
       <use xlink:href="#DejaVuSans-30" transform="translate(63.623047 0.684375)"/>
       <use xlink:href="#DejaVuSans-2212" transform="translate(128.203125 38.965625) scale(0.7)"/>
       <use xlink:href="#DejaVuSans-31" transform="translate(186.855469 38.965625) scale(0.7)"/>
      </g>
     </g>
    </g>
    <g id="xtick_4">
     <g id="line2d_4">
      <g>
       <use xlink:href="#me3ef847a28" x="445.703029" y="311.848" style="stroke: #000000; stroke-width: 0.8"/>
      </g>
     </g>
     <g id="text_4">
      <!-- $\mathdefault{10^{0}}$ -->
      <g transform="translate(436.903029 326.446438) scale(0.1 -0.1)">
       <use xlink:href="#DejaVuSans-31" transform="translate(0 0.765625)"/>
       <use xlink:href="#DejaVuSans-30" transform="translate(63.623047 0.765625)"/>
       <use xlink:href="#DejaVuSans-30" transform="translate(128.203125 39.046875) scale(0.7)"/>
      </g>
     </g>
    </g>
    <g id="xtick_5">
     <g id="line2d_5">
      <g>
       <use xlink:href="#me3ef847a28" x="555.949081" y="311.848" style="stroke: #000000; stroke-width: 0.8"/>
      </g>
     </g>
     <g id="text_5">
      <!-- $\mathdefault{10^{1}}$ -->
      <g transform="translate(547.149081 326.446438) scale(0.1 -0.1)">
       <use xlink:href="#DejaVuSans-31" transform="translate(0 0.684375)"/>
       <use xlink:href="#DejaVuSans-30" transform="translate(63.623047 0.684375)"/>
       <use xlink:href="#DejaVuSans-31" transform="translate(128.203125 38.965625) scale(0.7)"/>
      </g>
     </g>
    </g>
    <g id="xtick_6">
     <g id="line2d_6">
      <defs>
       <path id="ma8bfbe4463" d="M 0 0 
L 0 2 
" style="stroke: #000000; stroke-width: 0.6"/>
      </defs>
      <g>
       <use xlink:href="#ma8bfbe4463" x="57.319558" y="311.848" style="stroke: #000000; stroke-width: 0.6"/>
      </g>
     </g>
    </g>
    <g id="xtick_7">
     <g id="line2d_7">
      <g>
       <use xlink:href="#ma8bfbe4463" x="71.09356" y="311.848" style="stroke: #000000; stroke-width: 0.6"/>
      </g>
     </g>
    </g>
    <g id="xtick_8">
     <g id="line2d_8">
      <g>
       <use xlink:href="#ma8bfbe4463" x="81.777506" y="311.848" style="stroke: #000000; stroke-width: 0.6"/>
      </g>
     </g>
    </g>
    <g id="xtick_9">
     <g id="line2d_9">
      <g>
       <use xlink:href="#ma8bfbe4463" x="90.506926" y="311.848" style="stroke: #000000; stroke-width: 0.6"/>
      </g>
     </g>
    </g>
    <g id="xtick_10">
     <g id="line2d_10">
      <g>
       <use xlink:href="#ma8bfbe4463" x="97.887545" y="311.848" style="stroke: #000000; stroke-width: 0.6"/>
      </g>
     </g>
    </g>
    <g id="xtick_11">
     <g id="line2d_11">
      <g>
       <use xlink:href="#ma8bfbe4463" x="104.280928" y="311.848" style="stroke: #000000; stroke-width: 0.6"/>
      </g>
     </g>
    </g>
    <g id="xtick_12">
     <g id="line2d_12">
      <g>
       <use xlink:href="#ma8bfbe4463" x="109.920292" y="311.848" style="stroke: #000000; stroke-width: 0.6"/>
      </g>
     </g>
    </g>
    <g id="xtick_13">
     <g id="line2d_13">
      <g>
       <use xlink:href="#ma8bfbe4463" x="148.152243" y="311.848" style="stroke: #000000; stroke-width: 0.6"/>
      </g>
     </g>
    </g>
    <g id="xtick_14">
     <g id="line2d_14">
      <g>
       <use xlink:href="#ma8bfbe4463" x="167.565609" y="311.848" style="stroke: #000000; stroke-width: 0.6"/>
      </g>
     </g>
    </g>
    <g id="xtick_15">
     <g id="line2d_15">
      <g>
       <use xlink:href="#ma8bfbe4463" x="181.339612" y="311.848" style="stroke: #000000; stroke-width: 0.6"/>
      </g>
     </g>
    </g>
    <g id="xtick_16">
     <g id="line2d_16">
      <g>
       <use xlink:href="#ma8bfbe4463" x="192.023558" y="311.848" style="stroke: #000000; stroke-width: 0.6"/>
      </g>
     </g>
    </g>
    <g id="xtick_17">
     <g id="line2d_17">
      <g>
       <use xlink:href="#ma8bfbe4463" x="200.752978" y="311.848" style="stroke: #000000; stroke-width: 0.6"/>
      </g>
     </g>
    </g>
    <g id="xtick_18">
     <g id="line2d_18">
      <g>
       <use xlink:href="#ma8bfbe4463" x="208.133597" y="311.848" style="stroke: #000000; stroke-width: 0.6"/>
      </g>
     </g>
    </g>
    <g id="xtick_19">
     <g id="line2d_19">
      <g>
       <use xlink:href="#ma8bfbe4463" x="214.52698" y="311.848" style="stroke: #000000; stroke-width: 0.6"/>
      </g>
     </g>
    </g>
    <g id="xtick_20">
     <g id="line2d_20">
      <g>
       <use xlink:href="#ma8bfbe4463" x="220.166344" y="311.848" style="stroke: #000000; stroke-width: 0.6"/>
      </g>
     </g>
    </g>
    <g id="xtick_21">
     <g id="line2d_21">
      <g>
       <use xlink:href="#ma8bfbe4463" x="258.398295" y="311.848" style="stroke: #000000; stroke-width: 0.6"/>
      </g>
     </g>
    </g>
    <g id="xtick_22">
     <g id="line2d_22">
      <g>
       <use xlink:href="#ma8bfbe4463" x="277.811661" y="311.848" style="stroke: #000000; stroke-width: 0.6"/>
      </g>
     </g>
    </g>
    <g id="xtick_23">
     <g id="line2d_23">
      <g>
       <use xlink:href="#ma8bfbe4463" x="291.585663" y="311.848" style="stroke: #000000; stroke-width: 0.6"/>
      </g>
     </g>
    </g>
    <g id="xtick_24">
     <g id="line2d_24">
      <g>
       <use xlink:href="#ma8bfbe4463" x="302.269609" y="311.848" style="stroke: #000000; stroke-width: 0.6"/>
      </g>
     </g>
    </g>
    <g id="xtick_25">
     <g id="line2d_25">
      <g>
       <use xlink:href="#ma8bfbe4463" x="310.999029" y="311.848" style="stroke: #000000; stroke-width: 0.6"/>
      </g>
     </g>
    </g>
    <g id="xtick_26">
     <g id="line2d_26">
      <g>
       <use xlink:href="#ma8bfbe4463" x="318.379648" y="311.848" style="stroke: #000000; stroke-width: 0.6"/>
      </g>
     </g>
    </g>
    <g id="xtick_27">
     <g id="line2d_27">
      <g>
       <use xlink:href="#ma8bfbe4463" x="324.773031" y="311.848" style="stroke: #000000; stroke-width: 0.6"/>
      </g>
     </g>
    </g>
    <g id="xtick_28">
     <g id="line2d_28">
      <g>
       <use xlink:href="#ma8bfbe4463" x="330.412395" y="311.848" style="stroke: #000000; stroke-width: 0.6"/>
      </g>
     </g>
    </g>
    <g id="xtick_29">
     <g id="line2d_29">
      <g>
       <use xlink:href="#ma8bfbe4463" x="368.644346" y="311.848" style="stroke: #000000; stroke-width: 0.6"/>
      </g>
     </g>
    </g>
    <g id="xtick_30">
     <g id="line2d_30">
      <g>
       <use xlink:href="#ma8bfbe4463" x="388.057712" y="311.848" style="stroke: #000000; stroke-width: 0.6"/>
      </g>
     </g>
    </g>
    <g id="xtick_31">
     <g id="line2d_31">
      <g>
       <use xlink:href="#ma8bfbe4463" x="401.831714" y="311.848" style="stroke: #000000; stroke-width: 0.6"/>
      </g>
     </g>
    </g>
    <g id="xtick_32">
     <g id="line2d_32">
      <g>
       <use xlink:href="#ma8bfbe4463" x="412.515661" y="311.848" style="stroke: #000000; stroke-width: 0.6"/>
      </g>
     </g>
    </g>
    <g id="xtick_33">
     <g id="line2d_33">
      <g>
       <use xlink:href="#ma8bfbe4463" x="421.245081" y="311.848" style="stroke: #000000; stroke-width: 0.6"/>
      </g>
     </g>
    </g>
    <g id="xtick_34">
     <g id="line2d_34">
      <g>
       <use xlink:href="#ma8bfbe4463" x="428.6257" y="311.848" style="stroke: #000000; stroke-width: 0.6"/>
      </g>
     </g>
    </g>
    <g id="xtick_35">
     <g id="line2d_35">
      <g>
       <use xlink:href="#ma8bfbe4463" x="435.019083" y="311.848" style="stroke: #000000; stroke-width: 0.6"/>
      </g>
     </g>
    </g>
    <g id="xtick_36">
     <g id="line2d_36">
      <g>
       <use xlink:href="#ma8bfbe4463" x="440.658447" y="311.848" style="stroke: #000000; stroke-width: 0.6"/>
      </g>
     </g>
    </g>
    <g id="xtick_37">
     <g id="line2d_37">
      <g>
       <use xlink:href="#ma8bfbe4463" x="478.890398" y="311.848" style="stroke: #000000; stroke-width: 0.6"/>
      </g>
     </g>
    </g>
    <g id="xtick_38">
     <g id="line2d_38">
      <g>
       <use xlink:href="#ma8bfbe4463" x="498.303764" y="311.848" style="stroke: #000000; stroke-width: 0.6"/>
      </g>
     </g>
    </g>
    <g id="xtick_39">
     <g id="line2d_39">
      <g>
       <use xlink:href="#ma8bfbe4463" x="512.077766" y="311.848" style="stroke: #000000; stroke-width: 0.6"/>
      </g>
     </g>
    </g>
    <g id="xtick_40">
     <g id="line2d_40">
      <g>
       <use xlink:href="#ma8bfbe4463" x="522.761712" y="311.848" style="stroke: #000000; stroke-width: 0.6"/>
      </g>
     </g>
    </g>
    <g id="xtick_41">
     <g id="line2d_41">
      <g>
       <use xlink:href="#ma8bfbe4463" x="531.491132" y="311.848" style="stroke: #000000; stroke-width: 0.6"/>
      </g>
     </g>
    </g>
    <g id="xtick_42">
     <g id="line2d_42">
      <g>
       <use xlink:href="#ma8bfbe4463" x="538.871751" y="311.848" style="stroke: #000000; stroke-width: 0.6"/>
      </g>
     </g>
    </g>
    <g id="xtick_43">
     <g id="line2d_43">
      <g>
       <use xlink:href="#ma8bfbe4463" x="545.265134" y="311.848" style="stroke: #000000; stroke-width: 0.6"/>
      </g>
     </g>
    </g>
    <g id="xtick_44">
     <g id="line2d_44">
      <g>
       <use xlink:href="#ma8bfbe4463" x="550.904498" y="311.848" style="stroke: #000000; stroke-width: 0.6"/>
      </g>
     </g>
    </g>
    <g id="text_6">
     <!-- Interaction length $L_{int}$ (m) -->
     <g transform="translate(242.814731 340.126125) scale(0.1 -0.1)">
      <defs>
       <path id="DejaVuSans-49" d="M 628 4666 
L 1259 4666 
L 1259 0 
L 628 0 
L 628 4666 
z
" transform="scale(0.015625)"/>
       <path id="DejaVuSans-6e" d="M 3513 2113 
L 3513 0 
L 2938 0 
L 2938 2094 
Q 2938 2591 2744 2837 
Q 2550 3084 2163 3084 
Q 1697 3084 1428 2787 
Q 1159 2491 1159 1978 
L 1159 0 
L 581 0 
L 581 3500 
L 1159 3500 
L 1159 2956 
Q 1366 3272 1645 3428 
Q 1925 3584 2291 3584 
Q 2894 3584 3203 3211 
Q 3513 2838 3513 2113 
z
" transform="scale(0.015625)"/>
       <path id="DejaVuSans-74" d="M 1172 4494 
L 1172 3500 
L 2356 3500 
L 2356 3053 
L 1172 3053 
L 1172 1153 
Q 1172 725 1289 603 
Q 1406 481 1766 481 
L 2356 481 
L 2356 0 
L 1766 0 
Q 1100 0 847 248 
Q 594 497 594 1153 
L 594 3053 
L 172 3053 
L 172 3500 
L 594 3500 
L 594 4494 
L 1172 4494 
z
" transform="scale(0.015625)"/>
       <path id="DejaVuSans-65" d="M 3597 1894 
L 3597 1613 
L 953 1613 
Q 991 1019 1311 708 
Q 1631 397 2203 397 
Q 2534 397 2845 478 
Q 3156 559 3463 722 
L 3463 178 
Q 3153 47 2828 -22 
Q 2503 -91 2169 -91 
Q 1331 -91 842 396 
Q 353 884 353 1716 
Q 353 2575 817 3079 
Q 1281 3584 2069 3584 
Q 2775 3584 3186 3129 
Q 3597 2675 3597 1894 
z
M 3022 2063 
Q 3016 2534 2758 2815 
Q 2500 3097 2075 3097 
Q 1594 3097 1305 2825 
Q 1016 2553 972 2059 
L 3022 2063 
z
" transform="scale(0.015625)"/>
       <path id="DejaVuSans-72" d="M 2631 2963 
Q 2534 3019 2420 3045 
Q 2306 3072 2169 3072 
Q 1681 3072 1420 2755 
Q 1159 2438 1159 1844 
L 1159 0 
L 581 0 
L 581 3500 
L 1159 3500 
L 1159 2956 
Q 1341 3275 1631 3429 
Q 1922 3584 2338 3584 
Q 2397 3584 2469 3576 
Q 2541 3569 2628 3553 
L 2631 2963 
z
" transform="scale(0.015625)"/>
       <path id="DejaVuSans-61" d="M 2194 1759 
Q 1497 1759 1228 1600 
Q 959 1441 959 1056 
Q 959 750 1161 570 
Q 1363 391 1709 391 
Q 2188 391 2477 730 
Q 2766 1069 2766 1631 
L 2766 1759 
L 2194 1759 
z
M 3341 1997 
L 3341 0 
L 2766 0 
L 2766 531 
Q 2569 213 2275 61 
Q 1981 -91 1556 -91 
Q 1019 -91 701 211 
Q 384 513 384 1019 
Q 384 1609 779 1909 
Q 1175 2209 1959 2209 
L 2766 2209 
L 2766 2266 
Q 2766 2663 2505 2880 
Q 2244 3097 1772 3097 
Q 1472 3097 1187 3025 
Q 903 2953 641 2809 
L 641 3341 
Q 956 3463 1253 3523 
Q 1550 3584 1831 3584 
Q 2591 3584 2966 3190 
Q 3341 2797 3341 1997 
z
" transform="scale(0.015625)"/>
       <path id="DejaVuSans-63" d="M 3122 3366 
L 3122 2828 
Q 2878 2963 2633 3030 
Q 2388 3097 2138 3097 
Q 1578 3097 1268 2742 
Q 959 2388 959 1747 
Q 959 1106 1268 751 
Q 1578 397 2138 397 
Q 2388 397 2633 464 
Q 2878 531 3122 666 
L 3122 134 
Q 2881 22 2623 -34 
Q 2366 -91 2075 -91 
Q 1284 -91 818 406 
Q 353 903 353 1747 
Q 353 2603 823 3093 
Q 1294 3584 2113 3584 
Q 2378 3584 2631 3529 
Q 2884 3475 3122 3366 
z
" transform="scale(0.015625)"/>
       <path id="DejaVuSans-69" d="M 603 3500 
L 1178 3500 
L 1178 0 
L 603 0 
L 603 3500 
z
M 603 4863 
L 1178 4863 
L 1178 4134 
L 603 4134 
L 603 4863 
z
" transform="scale(0.015625)"/>
       <path id="DejaVuSans-6f" d="M 1959 3097 
Q 1497 3097 1228 2736 
Q 959 2375 959 1747 
Q 959 1119 1226 758 
Q 1494 397 1959 397 
Q 2419 397 2687 759 
Q 2956 1122 2956 1747 
Q 2956 2369 2687 2733 
Q 2419 3097 1959 3097 
z
M 1959 3584 
Q 2709 3584 3137 3096 
Q 3566 2609 3566 1747 
Q 3566 888 3137 398 
Q 2709 -91 1959 -91 
Q 1206 -91 779 398 
Q 353 888 353 1747 
Q 353 2609 779 3096 
Q 1206 3584 1959 3584 
z
" transform="scale(0.015625)"/>
       <path id="DejaVuSans-20" transform="scale(0.015625)"/>
       <path id="DejaVuSans-6c" d="M 603 4863 
L 1178 4863 
L 1178 0 
L 603 0 
L 603 4863 
z
" transform="scale(0.015625)"/>
       <path id="DejaVuSans-67" d="M 2906 1791 
Q 2906 2416 2648 2759 
Q 2391 3103 1925 3103 
Q 1463 3103 1205 2759 
Q 947 2416 947 1791 
Q 947 1169 1205 825 
Q 1463 481 1925 481 
Q 2391 481 2648 825 
Q 2906 1169 2906 1791 
z
M 3481 434 
Q 3481 -459 3084 -895 
Q 2688 -1331 1869 -1331 
Q 1566 -1331 1297 -1286 
Q 1028 -1241 775 -1147 
L 775 -588 
Q 1028 -725 1275 -790 
Q 1522 -856 1778 -856 
Q 2344 -856 2625 -561 
Q 2906 -266 2906 331 
L 2906 616 
Q 2728 306 2450 153 
Q 2172 0 1784 0 
Q 1141 0 747 490 
Q 353 981 353 1791 
Q 353 2603 747 3093 
Q 1141 3584 1784 3584 
Q 2172 3584 2450 3431 
Q 2728 3278 2906 2969 
L 2906 3500 
L 3481 3500 
L 3481 434 
z
" transform="scale(0.015625)"/>
       <path id="DejaVuSans-68" d="M 3513 2113 
L 3513 0 
L 2938 0 
L 2938 2094 
Q 2938 2591 2744 2837 
Q 2550 3084 2163 3084 
Q 1697 3084 1428 2787 
Q 1159 2491 1159 1978 
L 1159 0 
L 581 0 
L 581 4863 
L 1159 4863 
L 1159 2956 
Q 1366 3272 1645 3428 
Q 1925 3584 2291 3584 
Q 2894 3584 3203 3211 
Q 3513 2838 3513 2113 
z
" transform="scale(0.015625)"/>
       <path id="DejaVuSans-Oblique-4c" d="M 1075 4666 
L 1709 4666 
L 909 525 
L 3181 525 
L 3078 0 
L 172 0 
L 1075 4666 
z
" transform="scale(0.015625)"/>
       <path id="DejaVuSans-Oblique-69" d="M 1172 4863 
L 1747 4863 
L 1606 4134 
L 1031 4134 
L 1172 4863 
z
M 909 3500 
L 1484 3500 
L 800 0 
L 225 0 
L 909 3500 
z
" transform="scale(0.015625)"/>
       <path id="DejaVuSans-Oblique-6e" d="M 3566 2113 
L 3156 0 
L 2578 0 
L 2988 2091 
Q 3016 2238 3031 2350 
Q 3047 2463 3047 2528 
Q 3047 2791 2881 2937 
Q 2716 3084 2419 3084 
Q 1956 3084 1622 2776 
Q 1288 2469 1184 1941 
L 800 0 
L 225 0 
L 903 3500 
L 1478 3500 
L 1363 2950 
Q 1603 3253 1940 3418 
Q 2278 3584 2650 3584 
Q 3113 3584 3367 3334 
Q 3622 3084 3622 2631 
Q 3622 2519 3608 2391 
Q 3594 2263 3566 2113 
z
" transform="scale(0.015625)"/>
       <path id="DejaVuSans-Oblique-74" d="M 2706 3500 
L 2619 3053 
L 1472 3053 
L 1100 1153 
Q 1081 1047 1072 975 
Q 1063 903 1063 863 
Q 1063 663 1183 572 
Q 1303 481 1569 481 
L 2150 481 
L 2053 0 
L 1503 0 
Q 991 0 739 200 
Q 488 400 488 806 
Q 488 878 497 964 
Q 506 1050 525 1153 
L 897 3053 
L 409 3053 
L 500 3500 
L 978 3500 
L 1172 4494 
L 1747 4494 
L 1556 3500 
L 2706 3500 
z
" transform="scale(0.015625)"/>
       <path id="DejaVuSans-28" d="M 1984 4856 
Q 1566 4138 1362 3434 
Q 1159 2731 1159 2009 
Q 1159 1288 1364 580 
Q 1569 -128 1984 -844 
L 1484 -844 
Q 1016 -109 783 600 
Q 550 1309 550 2009 
Q 550 2706 781 3412 
Q 1013 4119 1484 4856 
L 1984 4856 
z
" transform="scale(0.015625)"/>
       <path id="DejaVuSans-6d" d="M 3328 2828 
Q 3544 3216 3844 3400 
Q 4144 3584 4550 3584 
Q 5097 3584 5394 3201 
Q 5691 2819 5691 2113 
L 5691 0 
L 5113 0 
L 5113 2094 
Q 5113 2597 4934 2840 
Q 4756 3084 4391 3084 
Q 3944 3084 3684 2787 
Q 3425 2491 3425 1978 
L 3425 0 
L 2847 0 
L 2847 2094 
Q 2847 2600 2669 2842 
Q 2491 3084 2119 3084 
Q 1678 3084 1418 2786 
Q 1159 2488 1159 1978 
L 1159 0 
L 581 0 
L 581 3500 
L 1159 3500 
L 1159 2956 
Q 1356 3278 1631 3431 
Q 1906 3584 2284 3584 
Q 2666 3584 2933 3390 
Q 3200 3197 3328 2828 
z
" transform="scale(0.015625)"/>
       <path id="DejaVuSans-29" d="M 513 4856 
L 1013 4856 
Q 1481 4119 1714 3412 
Q 1947 2706 1947 2009 
Q 1947 1309 1714 600 
Q 1481 -109 1013 -844 
L 513 -844 
Q 928 -128 1133 580 
Q 1338 1288 1338 2009 
Q 1338 2731 1133 3434 
Q 928 4138 513 4856 
z
" transform="scale(0.015625)"/>
      </defs>
      <use xlink:href="#DejaVuSans-49" transform="translate(0 0.015625)"/>
      <use xlink:href="#DejaVuSans-6e" transform="translate(29.492188 0.015625)"/>
      <use xlink:href="#DejaVuSans-74" transform="translate(92.871094 0.015625)"/>
      <use xlink:href="#DejaVuSans-65" transform="translate(132.080078 0.015625)"/>
      <use xlink:href="#DejaVuSans-72" transform="translate(193.603516 0.015625)"/>
      <use xlink:href="#DejaVuSans-61" transform="translate(234.716797 0.015625)"/>
      <use xlink:href="#DejaVuSans-63" transform="translate(295.996094 0.015625)"/>
      <use xlink:href="#DejaVuSans-74" transform="translate(350.976562 0.015625)"/>
      <use xlink:href="#DejaVuSans-69" transform="translate(390.185547 0.015625)"/>
      <use xlink:href="#DejaVuSans-6f" transform="translate(417.96875 0.015625)"/>
      <use xlink:href="#DejaVuSans-6e" transform="translate(479.150391 0.015625)"/>
      <use xlink:href="#DejaVuSans-20" transform="translate(542.529297 0.015625)"/>
      <use xlink:href="#DejaVuSans-6c" transform="translate(574.316406 0.015625)"/>
      <use xlink:href="#DejaVuSans-65" transform="translate(602.099609 0.015625)"/>
      <use xlink:href="#DejaVuSans-6e" transform="translate(663.623047 0.015625)"/>
      <use xlink:href="#DejaVuSans-67" transform="translate(727.001953 0.015625)"/>
      <use xlink:href="#DejaVuSans-74" transform="translate(790.478516 0.015625)"/>
      <use xlink:href="#DejaVuSans-68" transform="translate(829.6875 0.015625)"/>
      <use xlink:href="#DejaVuSans-20" transform="translate(893.066406 0.015625)"/>
      <use xlink:href="#DejaVuSans-Oblique-4c" transform="translate(924.853516 0.015625)"/>
      <use xlink:href="#DejaVuSans-Oblique-69" transform="translate(980.566406 -16.390625) scale(0.7)"/>
      <use xlink:href="#DejaVuSans-Oblique-6e" transform="translate(1000.014648 -16.390625) scale(0.7)"/>
      <use xlink:href="#DejaVuSans-Oblique-74" transform="translate(1044.379883 -16.390625) scale(0.7)"/>
      <use xlink:href="#DejaVuSans-20" transform="translate(1074.560547 0.015625)"/>
      <use xlink:href="#DejaVuSans-28" transform="translate(1106.347656 0.015625)"/>
      <use xlink:href="#DejaVuSans-6d" transform="translate(1145.361328 0.015625)"/>
      <use xlink:href="#DejaVuSans-29" transform="translate(1242.773438 0.015625)"/>
     </g>
    </g>
   </g>
   <g id="matplotlib.axis_2">
    <g id="ytick_1">
     <g id="line2d_45">
      <defs>
       <path id="m3de5f53c53" d="M 0 0 
L -3.5 0 
" style="stroke: #000000; stroke-width: 0.8"/>
      </defs>
      <g>
       <use xlink:href="#m3de5f53c53" x="55.772054" y="186.722573" style="stroke: #000000; stroke-width: 0.8"/>
      </g>
     </g>
     <g id="text_7">
      <!-- $\mathdefault{10^{-1}}$ -->
      <g transform="translate(25.272054 190.521792) scale(0.1 -0.1)">
       <use xlink:href="#DejaVuSans-31" transform="translate(0 0.684375)"/>
       <use xlink:href="#DejaVuSans-30" transform="translate(63.623047 0.684375)"/>
       <use xlink:href="#DejaVuSans-2212" transform="translate(128.203125 38.965625) scale(0.7)"/>
       <use xlink:href="#DejaVuSans-31" transform="translate(186.855469 38.965625) scale(0.7)"/>
      </g>
     </g>
    </g>
    <g id="ytick_2">
     <g id="line2d_46">
      <defs>
       <path id="m5e19369954" d="M 0 0 
L -2 0 
" style="stroke: #000000; stroke-width: 0.6"/>
      </defs>
      <g>
       <use xlink:href="#m5e19369954" x="55.772054" y="302.836975" style="stroke: #000000; stroke-width: 0.6"/>
      </g>
     </g>
    </g>
    <g id="ytick_3">
     <g id="line2d_47">
      <g>
       <use xlink:href="#m5e19369954" x="55.772054" y="273.584316" style="stroke: #000000; stroke-width: 0.6"/>
      </g>
     </g>
    </g>
    <g id="ytick_4">
     <g id="line2d_48">
      <g>
       <use xlink:href="#m5e19369954" x="55.772054" y="252.829224" style="stroke: #000000; stroke-width: 0.6"/>
      </g>
     </g>
    </g>
    <g id="ytick_5">
     <g id="line2d_49">
      <g>
       <use xlink:href="#m5e19369954" x="55.772054" y="236.730324" style="stroke: #000000; stroke-width: 0.6"/>
      </g>
     </g>
    </g>
    <g id="ytick_6">
     <g id="line2d_50">
      <g>
       <use xlink:href="#m5e19369954" x="55.772054" y="223.576565" style="stroke: #000000; stroke-width: 0.6"/>
      </g>
     </g>
    </g>
    <g id="ytick_7">
     <g id="line2d_51">
      <g>
       <use xlink:href="#m5e19369954" x="55.772054" y="212.45522" style="stroke: #000000; stroke-width: 0.6"/>
      </g>
     </g>
    </g>
    <g id="ytick_8">
     <g id="line2d_52">
      <g>
       <use xlink:href="#m5e19369954" x="55.772054" y="202.821473" style="stroke: #000000; stroke-width: 0.6"/>
      </g>
     </g>
    </g>
    <g id="ytick_9">
     <g id="line2d_53">
      <g>
       <use xlink:href="#m5e19369954" x="55.772054" y="194.323906" style="stroke: #000000; stroke-width: 0.6"/>
      </g>
     </g>
    </g>
    <g id="ytick_10">
     <g id="line2d_54">
      <g>
       <use xlink:href="#m5e19369954" x="55.772054" y="136.714822" style="stroke: #000000; stroke-width: 0.6"/>
      </g>
     </g>
    </g>
    <g id="ytick_11">
     <g id="line2d_55">
      <g>
       <use xlink:href="#m5e19369954" x="55.772054" y="107.462163" style="stroke: #000000; stroke-width: 0.6"/>
      </g>
     </g>
    </g>
    <g id="ytick_12">
     <g id="line2d_56">
      <g>
       <use xlink:href="#m5e19369954" x="55.772054" y="86.707071" style="stroke: #000000; stroke-width: 0.6"/>
      </g>
     </g>
    </g>
    <g id="ytick_13">
     <g id="line2d_57">
      <g>
       <use xlink:href="#m5e19369954" x="55.772054" y="70.608172" style="stroke: #000000; stroke-width: 0.6"/>
      </g>
     </g>
    </g>
    <g id="ytick_14">
     <g id="line2d_58">
      <g>
       <use xlink:href="#m5e19369954" x="55.772054" y="57.454412" style="stroke: #000000; stroke-width: 0.6"/>
      </g>
     </g>
    </g>
    <g id="ytick_15">
     <g id="line2d_59">
      <g>
       <use xlink:href="#m5e19369954" x="55.772054" y="46.333068" style="stroke: #000000; stroke-width: 0.6"/>
      </g>
     </g>
    </g>
    <g id="ytick_16">
     <g id="line2d_60">
      <g>
       <use xlink:href="#m5e19369954" x="55.772054" y="36.699321" style="stroke: #000000; stroke-width: 0.6"/>
      </g>
     </g>
    </g>
    <g id="text_8">
     <!-- Final width (eV) -->
     <g transform="translate(19.192366 208.966031) rotate(-90) scale(0.1 -0.1)">
      <defs>
       <path id="DejaVuSans-46" d="M 628 4666 
L 3309 4666 
L 3309 4134 
L 1259 4134 
L 1259 2759 
L 3109 2759 
L 3109 2228 
L 1259 2228 
L 1259 0 
L 628 0 
L 628 4666 
z
" transform="scale(0.015625)"/>
       <path id="DejaVuSans-77" d="M 269 3500 
L 844 3500 
L 1563 769 
L 2278 3500 
L 2956 3500 
L 3675 769 
L 4391 3500 
L 4966 3500 
L 4050 0 
L 3372 0 
L 2619 2869 
L 1863 0 
L 1184 0 
L 269 3500 
z
" transform="scale(0.015625)"/>
       <path id="DejaVuSans-64" d="M 2906 2969 
L 2906 4863 
L 3481 4863 
L 3481 0 
L 2906 0 
L 2906 525 
Q 2725 213 2448 61 
Q 2172 -91 1784 -91 
Q 1150 -91 751 415 
Q 353 922 353 1747 
Q 353 2572 751 3078 
Q 1150 3584 1784 3584 
Q 2172 3584 2448 3432 
Q 2725 3281 2906 2969 
z
M 947 1747 
Q 947 1113 1208 752 
Q 1469 391 1925 391 
Q 2381 391 2643 752 
Q 2906 1113 2906 1747 
Q 2906 2381 2643 2742 
Q 2381 3103 1925 3103 
Q 1469 3103 1208 2742 
Q 947 2381 947 1747 
z
" transform="scale(0.015625)"/>
       <path id="DejaVuSans-56" d="M 1831 0 
L 50 4666 
L 709 4666 
L 2188 738 
L 3669 4666 
L 4325 4666 
L 2547 0 
L 1831 0 
z
" transform="scale(0.015625)"/>
      </defs>
      <use xlink:href="#DejaVuSans-46"/>
      <use xlink:href="#DejaVuSans-69" transform="translate(50.269531 0)"/>
      <use xlink:href="#DejaVuSans-6e" transform="translate(78.052734 0)"/>
      <use xlink:href="#DejaVuSans-61" transform="translate(141.431641 0)"/>
      <use xlink:href="#DejaVuSans-6c" transform="translate(202.710938 0)"/>
      <use xlink:href="#DejaVuSans-20" transform="translate(230.494141 0)"/>
      <use xlink:href="#DejaVuSans-77" transform="translate(262.28125 0)"/>
      <use xlink:href="#DejaVuSans-69" transform="translate(344.068359 0)"/>
      <use xlink:href="#DejaVuSans-64" transform="translate(371.851562 0)"/>
      <use xlink:href="#DejaVuSans-74" transform="translate(435.328125 0)"/>
      <use xlink:href="#DejaVuSans-68" transform="translate(474.537109 0)"/>
      <use xlink:href="#DejaVuSans-20" transform="translate(537.916016 0)"/>
      <use xlink:href="#DejaVuSans-28" transform="translate(569.703125 0)"/>
      <use xlink:href="#DejaVuSans-65" transform="translate(608.716797 0)"/>
      <use xlink:href="#DejaVuSans-56" transform="translate(670.240234 0)"/>
      <use xlink:href="#DejaVuSans-29" transform="translate(738.648438 0)"/>
     </g>
    </g>
   </g>
   <g id="line2d_61">
    <path d="M 78.603206 48.713155 
L 129.339101 48.713155 
L 180.074995 48.713155 
L 230.810889 48.754798 
L 281.546783 49.214461 
L 332.282678 51.818057 
L 383.018572 57.795918 
L 433.754466 64.262547 
L 484.49036 67.591731 
L 535.226255 68.791464 
" clip-path="url(#pa794ada5de)" style="fill: none; stroke: #d62728; stroke-width: 1.5; stroke-linecap: square"/>
    <defs>
     <path id="m0cc451ed0b" d="M 0 1.5 
C 0.397805 1.5 0.77937 1.341951 1.06066 1.06066 
C 1.341951 0.77937 1.5 0.397805 1.5 0 
C 1.5 -0.397805 1.341951 -0.77937 1.06066 -1.06066 
C 0.77937 -1.341951 0.397805 -1.5 0 -1.5 
C -0.397805 -1.5 -0.77937 -1.341951 -1.06066 -1.06066 
C -1.341951 -0.77937 -1.5 -0.397805 -1.5 0 
C -1.5 0.397805 -1.341951 0.77937 -1.06066 1.06066 
C -0.77937 1.341951 -0.397805 1.5 0 1.5 
z
" style="stroke: #d62728"/>
    </defs>
    <g clip-path="url(#pa794ada5de)">
     <use xlink:href="#m0cc451ed0b" x="78.603206" y="48.713155" style="fill: #d62728; stroke: #d62728"/>
     <use xlink:href="#m0cc451ed0b" x="129.339101" y="48.713155" style="fill: #d62728; stroke: #d62728"/>
     <use xlink:href="#m0cc451ed0b" x="180.074995" y="48.713155" style="fill: #d62728; stroke: #d62728"/>
     <use xlink:href="#m0cc451ed0b" x="230.810889" y="48.754798" style="fill: #d62728; stroke: #d62728"/>
     <use xlink:href="#m0cc451ed0b" x="281.546783" y="49.214461" style="fill: #d62728; stroke: #d62728"/>
     <use xlink:href="#m0cc451ed0b" x="332.282678" y="51.818057" style="fill: #d62728; stroke: #d62728"/>
     <use xlink:href="#m0cc451ed0b" x="383.018572" y="57.795918" style="fill: #d62728; stroke: #d62728"/>
     <use xlink:href="#m0cc451ed0b" x="433.754466" y="64.262547" style="fill: #d62728; stroke: #d62728"/>
     <use xlink:href="#m0cc451ed0b" x="484.49036" y="67.591731" style="fill: #d62728; stroke: #d62728"/>
     <use xlink:href="#m0cc451ed0b" x="535.226255" y="68.791464" style="fill: #d62728; stroke: #d62728"/>
    </g>
   </g>
   <g id="line2d_62">
    <path d="M 78.603206 48.713155 
L 129.339101 48.713155 
L 180.074995 48.713155 
L 230.810889 48.754798 
L 281.546783 49.256394 
L 332.282678 52.079298 
L 383.018572 58.890141 
L 433.754466 74.570802 
L 484.49036 83.839511 
L 535.226255 87.451033 
" clip-path="url(#pa794ada5de)" style="fill: none; stroke: #2ca02c; stroke-width: 1.5; stroke-linecap: square"/>
    <defs>
     <path id="m8a065ea9bd" d="M 0 1.5 
C 0.397805 1.5 0.77937 1.341951 1.06066 1.06066 
C 1.341951 0.77937 1.5 0.397805 1.5 0 
C 1.5 -0.397805 1.341951 -0.77937 1.06066 -1.06066 
C 0.77937 -1.341951 0.397805 -1.5 0 -1.5 
C -0.397805 -1.5 -0.77937 -1.341951 -1.06066 -1.06066 
C -1.341951 -0.77937 -1.5 -0.397805 -1.5 0 
C -1.5 0.397805 -1.341951 0.77937 -1.06066 1.06066 
C -0.77937 1.341951 -0.397805 1.5 0 1.5 
z
" style="stroke: #2ca02c"/>
    </defs>
    <g clip-path="url(#pa794ada5de)">
     <use xlink:href="#m8a065ea9bd" x="78.603206" y="48.713155" style="fill: #2ca02c; stroke: #2ca02c"/>
     <use xlink:href="#m8a065ea9bd" x="129.339101" y="48.713155" style="fill: #2ca02c; stroke: #2ca02c"/>
     <use xlink:href="#m8a065ea9bd" x="180.074995" y="48.713155" style="fill: #2ca02c; stroke: #2ca02c"/>
     <use xlink:href="#m8a065ea9bd" x="230.810889" y="48.754798" style="fill: #2ca02c; stroke: #2ca02c"/>
     <use xlink:href="#m8a065ea9bd" x="281.546783" y="49.256394" style="fill: #2ca02c; stroke: #2ca02c"/>
     <use xlink:href="#m8a065ea9bd" x="332.282678" y="52.079298" style="fill: #2ca02c; stroke: #2ca02c"/>
     <use xlink:href="#m8a065ea9bd" x="383.018572" y="58.890141" style="fill: #2ca02c; stroke: #2ca02c"/>
     <use xlink:href="#m8a065ea9bd" x="433.754466" y="74.570802" style="fill: #2ca02c; stroke: #2ca02c"/>
     <use xlink:href="#m8a065ea9bd" x="484.49036" y="83.839511" style="fill: #2ca02c; stroke: #2ca02c"/>
     <use xlink:href="#m8a065ea9bd" x="535.226255" y="87.451033" style="fill: #2ca02c; stroke: #2ca02c"/>
    </g>
   </g>
   <g id="line2d_63">
    <path d="M 78.603206 48.713155 
L 129.339101 48.713155 
L 180.074995 48.713155 
L 230.810889 48.754798 
L 281.546783 49.256394 
L 332.282678 52.341488 
L 383.018572 60.636866 
L 433.754466 102.087049 
L 484.49036 139.701094 
L 535.226255 150.115717 
" clip-path="url(#pa794ada5de)" style="fill: none; stroke: #ff7f0e; stroke-width: 1.5; stroke-linecap: square"/>
    <defs>
     <path id="ma51cf476ee" d="M 0 1.5 
C 0.397805 1.5 0.77937 1.341951 1.06066 1.06066 
C 1.341951 0.77937 1.5 0.397805 1.5 0 
C 1.5 -0.397805 1.341951 -0.77937 1.06066 -1.06066 
C 0.77937 -1.341951 0.397805 -1.5 0 -1.5 
C -0.397805 -1.5 -0.77937 -1.341951 -1.06066 -1.06066 
C -1.341951 -0.77937 -1.5 -0.397805 -1.5 0 
C -1.5 0.397805 -1.341951 0.77937 -1.06066 1.06066 
C -0.77937 1.341951 -0.397805 1.5 0 1.5 
z
" style="stroke: #ff7f0e"/>
    </defs>
    <g clip-path="url(#pa794ada5de)">
     <use xlink:href="#ma51cf476ee" x="78.603206" y="48.713155" style="fill: #ff7f0e; stroke: #ff7f0e"/>
     <use xlink:href="#ma51cf476ee" x="129.339101" y="48.713155" style="fill: #ff7f0e; stroke: #ff7f0e"/>
     <use xlink:href="#ma51cf476ee" x="180.074995" y="48.713155" style="fill: #ff7f0e; stroke: #ff7f0e"/>
     <use xlink:href="#ma51cf476ee" x="230.810889" y="48.754798" style="fill: #ff7f0e; stroke: #ff7f0e"/>
     <use xlink:href="#ma51cf476ee" x="281.546783" y="49.256394" style="fill: #ff7f0e; stroke: #ff7f0e"/>
     <use xlink:href="#ma51cf476ee" x="332.282678" y="52.341488" style="fill: #ff7f0e; stroke: #ff7f0e"/>
     <use xlink:href="#ma51cf476ee" x="383.018572" y="60.636866" style="fill: #ff7f0e; stroke: #ff7f0e"/>
     <use xlink:href="#ma51cf476ee" x="433.754466" y="102.087049" style="fill: #ff7f0e; stroke: #ff7f0e"/>
     <use xlink:href="#ma51cf476ee" x="484.49036" y="139.701094" style="fill: #ff7f0e; stroke: #ff7f0e"/>
     <use xlink:href="#ma51cf476ee" x="535.226255" y="150.115717" style="fill: #ff7f0e; stroke: #ff7f0e"/>
    </g>
   </g>
   <g id="line2d_64">
    <path d="M 78.603206 48.713155 
L 129.339101 48.713155 
L 180.074995 48.713155 
L 230.810889 48.754798 
L 281.546783 49.256394 
L 332.282678 52.472941 
L 383.018572 63.338902 
L 433.754466 139.554307 
L 484.49036 220.596188 
L 535.226255 298.960364 
" clip-path="url(#pa794ada5de)" style="fill: none; stroke: #1f77b4; stroke-width: 1.5; stroke-linecap: square"/>
    <defs>
     <path id="m8414783a7d" d="M 0 1.5 
C 0.397805 1.5 0.77937 1.341951 1.06066 1.06066 
C 1.341951 0.77937 1.5 0.397805 1.5 0 
C 1.5 -0.397805 1.341951 -0.77937 1.06066 -1.06066 
C 0.77937 -1.341951 0.397805 -1.5 0 -1.5 
C -0.397805 -1.5 -0.77937 -1.341951 -1.06066 -1.06066 
C -1.341951 -0.77937 -1.5 -0.397805 -1.5 0 
C -1.5 0.397805 -1.341951 0.77937 -1.06066 1.06066 
C -0.77937 1.341951 -0.397805 1.5 0 1.5 
z
" style="stroke: #1f77b4"/>
    </defs>
    <g clip-path="url(#pa794ada5de)">
     <use xlink:href="#m8414783a7d" x="78.603206" y="48.713155" style="fill: #1f77b4; stroke: #1f77b4"/>
     <use xlink:href="#m8414783a7d" x="129.339101" y="48.713155" style="fill: #1f77b4; stroke: #1f77b4"/>
     <use xlink:href="#m8414783a7d" x="180.074995" y="48.713155" style="fill: #1f77b4; stroke: #1f77b4"/>
     <use xlink:href="#m8414783a7d" x="230.810889" y="48.754798" style="fill: #1f77b4; stroke: #1f77b4"/>
     <use xlink:href="#m8414783a7d" x="281.546783" y="49.256394" style="fill: #1f77b4; stroke: #1f77b4"/>
     <use xlink:href="#m8414783a7d" x="332.282678" y="52.472941" style="fill: #1f77b4; stroke: #1f77b4"/>
     <use xlink:href="#m8414783a7d" x="383.018572" y="63.338902" style="fill: #1f77b4; stroke: #1f77b4"/>
     <use xlink:href="#m8414783a7d" x="433.754466" y="139.554307" style="fill: #1f77b4; stroke: #1f77b4"/>
     <use xlink:href="#m8414783a7d" x="484.49036" y="220.596188" style="fill: #1f77b4; stroke: #1f77b4"/>
     <use xlink:href="#m8414783a7d" x="535.226255" y="298.960364" style="fill: #1f77b4; stroke: #1f77b4"/>
    </g>
   </g>
   <g id="line2d_65">
    <path d="M 78.603206 203.423135 
L 129.339101 203.423135 
L 180.074995 203.423135 
L 230.810889 203.423135 
L 281.546783 203.423135 
L 332.282678 203.458684 
L 383.018572 203.601054 
L 433.754466 205.954831 
L 484.49036 228.549085 
L 535.226255 298.826884 
" clip-path="url(#pa794ada5de)" style="fill: none; stroke: #d0e1f2; stroke-width: 1.5; stroke-linecap: square"/>
    <defs>
     <path id="me4f735147d" d="M -2.5 2.5 
L 2.5 -2.5 
M -2.5 -2.5 
L 2.5 2.5 
" style="stroke: #d0e1f2"/>
    </defs>
    <g clip-path="url(#pa794ada5de)">
     <use xlink:href="#me4f735147d" x="78.603206" y="203.423135" style="fill: #d0e1f2; stroke: #d0e1f2"/>
     <use xlink:href="#me4f735147d" x="129.339101" y="203.423135" style="fill: #d0e1f2; stroke: #d0e1f2"/>
     <use xlink:href="#me4f735147d" x="180.074995" y="203.423135" style="fill: #d0e1f2; stroke: #d0e1f2"/>
     <use xlink:href="#me4f735147d" x="230.810889" y="203.423135" style="fill: #d0e1f2; stroke: #d0e1f2"/>
     <use xlink:href="#me4f735147d" x="281.546783" y="203.423135" style="fill: #d0e1f2; stroke: #d0e1f2"/>
     <use xlink:href="#me4f735147d" x="332.282678" y="203.458684" style="fill: #d0e1f2; stroke: #d0e1f2"/>
     <use xlink:href="#me4f735147d" x="383.018572" y="203.601054" style="fill: #d0e1f2; stroke: #d0e1f2"/>
     <use xlink:href="#me4f735147d" x="433.754466" y="205.954831" style="fill: #d0e1f2; stroke: #d0e1f2"/>
     <use xlink:href="#me4f735147d" x="484.49036" y="228.549085" style="fill: #d0e1f2; stroke: #d0e1f2"/>
     <use xlink:href="#me4f735147d" x="535.226255" y="298.826884" style="fill: #d0e1f2; stroke: #d0e1f2"/>
    </g>
   </g>
   <g id="line2d_66">
    <path d="M 78.603206 138.390637 
L 129.339101 138.390637 
L 180.074995 138.390637 
L 230.810889 138.390637 
L 281.546783 138.426719 
L 332.282678 138.535074 
L 383.018572 139.737837 
L 433.754466 156.177505 
L 484.49036 221.846976 
L 535.226255 298.960364 
" clip-path="url(#pa794ada5de)" style="fill: none; stroke: #8dc1dd; stroke-width: 1.5; stroke-linecap: square"/>
    <defs>
     <path id="mc4f67a16ed" d="M 0 -2.5 
L -0.561285 -0.772542 
L -2.377641 -0.772542 
L -0.908178 0.295085 
L -1.469463 2.022542 
L -0 0.954915 
L 1.469463 2.022542 
L 0.908178 0.295085 
L 2.377641 -0.772542 
L 0.561285 -0.772542 
z
" style="stroke: #8dc1dd; stroke-linejoin: bevel"/>
    </defs>
    <g clip-path="url(#pa794ada5de)">
     <use xlink:href="#mc4f67a16ed" x="78.603206" y="138.390637" style="fill: #8dc1dd; stroke: #8dc1dd; stroke-linejoin: bevel"/>
     <use xlink:href="#mc4f67a16ed" x="129.339101" y="138.390637" style="fill: #8dc1dd; stroke: #8dc1dd; stroke-linejoin: bevel"/>
     <use xlink:href="#mc4f67a16ed" x="180.074995" y="138.390637" style="fill: #8dc1dd; stroke: #8dc1dd; stroke-linejoin: bevel"/>
     <use xlink:href="#mc4f67a16ed" x="230.810889" y="138.390637" style="fill: #8dc1dd; stroke: #8dc1dd; stroke-linejoin: bevel"/>
     <use xlink:href="#mc4f67a16ed" x="281.546783" y="138.426719" style="fill: #8dc1dd; stroke: #8dc1dd; stroke-linejoin: bevel"/>
     <use xlink:href="#mc4f67a16ed" x="332.282678" y="138.535074" style="fill: #8dc1dd; stroke: #8dc1dd; stroke-linejoin: bevel"/>
     <use xlink:href="#mc4f67a16ed" x="383.018572" y="139.737837" style="fill: #8dc1dd; stroke: #8dc1dd; stroke-linejoin: bevel"/>
     <use xlink:href="#mc4f67a16ed" x="433.754466" y="156.177505" style="fill: #8dc1dd; stroke: #8dc1dd; stroke-linejoin: bevel"/>
     <use xlink:href="#mc4f67a16ed" x="484.49036" y="221.846976" style="fill: #8dc1dd; stroke: #8dc1dd; stroke-linejoin: bevel"/>
     <use xlink:href="#mc4f67a16ed" x="535.226255" y="298.960364" style="fill: #8dc1dd; stroke: #8dc1dd; stroke-linejoin: bevel"/>
    </g>
   </g>
   <g id="line2d_67">
    <path d="M 78.603206 90.617593 
L 129.339101 90.617593 
L 180.074995 90.617593 
L 230.810889 90.65481 
L 281.546783 90.729302 
L 332.282678 91.365613 
L 383.018572 97.360011 
L 433.754466 142.777986 
L 484.49036 221.503696 
L 535.226255 298.960364 
" clip-path="url(#pa794ada5de)" style="fill: none; stroke: #3f8fc5; stroke-width: 1.5; stroke-linecap: square"/>
    <defs>
     <path id="mb7eb7227af" d="M 0 -2.5 
L -2.5 2.5 
L 2.5 2.5 
z
" style="stroke: #3f8fc5; stroke-linejoin: miter"/>
    </defs>
    <g clip-path="url(#pa794ada5de)">
     <use xlink:href="#mb7eb7227af" x="78.603206" y="90.617593" style="fill: #3f8fc5; stroke: #3f8fc5; stroke-linejoin: miter"/>
     <use xlink:href="#mb7eb7227af" x="129.339101" y="90.617593" style="fill: #3f8fc5; stroke: #3f8fc5; stroke-linejoin: miter"/>
     <use xlink:href="#mb7eb7227af" x="180.074995" y="90.617593" style="fill: #3f8fc5; stroke: #3f8fc5; stroke-linejoin: miter"/>
     <use xlink:href="#mb7eb7227af" x="230.810889" y="90.65481" style="fill: #3f8fc5; stroke: #3f8fc5; stroke-linejoin: miter"/>
     <use xlink:href="#mb7eb7227af" x="281.546783" y="90.729302" style="fill: #3f8fc5; stroke: #3f8fc5; stroke-linejoin: miter"/>
     <use xlink:href="#mb7eb7227af" x="332.282678" y="91.365613" style="fill: #3f8fc5; stroke: #3f8fc5; stroke-linejoin: miter"/>
     <use xlink:href="#mb7eb7227af" x="383.018572" y="97.360011" style="fill: #3f8fc5; stroke: #3f8fc5; stroke-linejoin: miter"/>
     <use xlink:href="#mb7eb7227af" x="433.754466" y="142.777986" style="fill: #3f8fc5; stroke: #3f8fc5; stroke-linejoin: miter"/>
     <use xlink:href="#mb7eb7227af" x="484.49036" y="221.503696" style="fill: #3f8fc5; stroke: #3f8fc5; stroke-linejoin: miter"/>
     <use xlink:href="#mb7eb7227af" x="535.226255" y="298.960364" style="fill: #3f8fc5; stroke: #3f8fc5; stroke-linejoin: miter"/>
    </g>
   </g>
   <g id="line2d_68">
    <path d="M 78.603206 48.85901 
L 129.339101 48.85901 
L 180.074995 48.85901 
L 230.810889 48.796464 
L 281.546783 48.422327 
L 332.282678 45.796329 
L 383.018572 41.207636 
L 433.754466 136.538814 
L 484.49036 219.03501 
L 535.226255 298.960364 
" clip-path="url(#pa794ada5de)" style="fill: none; stroke: #0d57a1; stroke-width: 1.5; stroke-linecap: square"/>
    <defs>
     <path id="ma68672d9b2" d="M -0 3.535534 
L 3.535534 0 
L 0 -3.535534 
L -3.535534 -0 
z
" style="stroke: #0d57a1; stroke-linejoin: miter"/>
    </defs>
    <g clip-path="url(#pa794ada5de)">
     <use xlink:href="#ma68672d9b2" x="78.603206" y="48.85901" style="fill: #0d57a1; stroke: #0d57a1; stroke-linejoin: miter"/>
     <use xlink:href="#ma68672d9b2" x="129.339101" y="48.85901" style="fill: #0d57a1; stroke: #0d57a1; stroke-linejoin: miter"/>
     <use xlink:href="#ma68672d9b2" x="180.074995" y="48.85901" style="fill: #0d57a1; stroke: #0d57a1; stroke-linejoin: miter"/>
     <use xlink:href="#ma68672d9b2" x="230.810889" y="48.796464" style="fill: #0d57a1; stroke: #0d57a1; stroke-linejoin: miter"/>
     <use xlink:href="#ma68672d9b2" x="281.546783" y="48.422327" style="fill: #0d57a1; stroke: #0d57a1; stroke-linejoin: miter"/>
     <use xlink:href="#ma68672d9b2" x="332.282678" y="45.796329" style="fill: #0d57a1; stroke: #0d57a1; stroke-linejoin: miter"/>
     <use xlink:href="#ma68672d9b2" x="383.018572" y="41.207636" style="fill: #0d57a1; stroke: #0d57a1; stroke-linejoin: miter"/>
     <use xlink:href="#ma68672d9b2" x="433.754466" y="136.538814" style="fill: #0d57a1; stroke: #0d57a1; stroke-linejoin: miter"/>
     <use xlink:href="#ma68672d9b2" x="484.49036" y="219.03501" style="fill: #0d57a1; stroke: #0d57a1; stroke-linejoin: miter"/>
     <use xlink:href="#ma68672d9b2" x="535.226255" y="298.960364" style="fill: #0d57a1; stroke: #0d57a1; stroke-linejoin: miter"/>
    </g>
   </g>
   <g id="line2d_69">
    <path d="M 409.341361 311.848 
L 409.341361 28.32 
" clip-path="url(#pa794ada5de)" style="fill: none; stroke-dasharray: 5.55,2.4; stroke-dashoffset: 0; stroke: #000000; stroke-width: 1.5"/>
   </g>
   <g id="patch_3">
    <path d="M 55.772054 311.848 
L 55.772054 28.32 
" style="fill: none; stroke: #000000; stroke-width: 0.8; stroke-linejoin: miter; stroke-linecap: square"/>
   </g>
   <g id="patch_4">
    <path d="M 558.057407 311.848 
L 558.057407 28.32 
" style="fill: none; stroke: #000000; stroke-width: 0.8; stroke-linejoin: miter; stroke-linecap: square"/>
   </g>
   <g id="patch_5">
    <path d="M 55.772054 311.848 
L 558.057407 311.848 
" style="fill: none; stroke: #000000; stroke-width: 0.8; stroke-linejoin: miter; stroke-linecap: square"/>
   </g>
   <g id="patch_6">
    <path d="M 55.772054 28.32 
L 558.057407 28.32 
" style="fill: none; stroke: #000000; stroke-width: 0.8; stroke-linejoin: miter; stroke-linecap: square"/>
   </g>
   <g id="text_9">
    <!-- Width vs $L_{int}$ for different initial widths $\sigma_E$ -->
    <g transform="translate(183.554731 22.32) scale(0.12 -0.12)">
     <defs>
      <path id="DejaVuSans-57" d="M 213 4666 
L 850 4666 
L 1831 722 
L 2809 4666 
L 3519 4666 
L 4500 722 
L 5478 4666 
L 6119 4666 
L 4947 0 
L 4153 0 
L 3169 4050 
L 2175 0 
L 1381 0 
L 213 4666 
z
" transform="scale(0.015625)"/>
      <path id="DejaVuSans-76" d="M 191 3500 
L 800 3500 
L 1894 563 
L 2988 3500 
L 3597 3500 
L 2284 0 
L 1503 0 
L 191 3500 
z
" transform="scale(0.015625)"/>
      <path id="DejaVuSans-73" d="M 2834 3397 
L 2834 2853 
Q 2591 2978 2328 3040 
Q 2066 3103 1784 3103 
Q 1356 3103 1142 2972 
Q 928 2841 928 2578 
Q 928 2378 1081 2264 
Q 1234 2150 1697 2047 
L 1894 2003 
Q 2506 1872 2764 1633 
Q 3022 1394 3022 966 
Q 3022 478 2636 193 
Q 2250 -91 1575 -91 
Q 1294 -91 989 -36 
Q 684 19 347 128 
L 347 722 
Q 666 556 975 473 
Q 1284 391 1588 391 
Q 1994 391 2212 530 
Q 2431 669 2431 922 
Q 2431 1156 2273 1281 
Q 2116 1406 1581 1522 
L 1381 1569 
Q 847 1681 609 1914 
Q 372 2147 372 2553 
Q 372 3047 722 3315 
Q 1072 3584 1716 3584 
Q 2034 3584 2315 3537 
Q 2597 3491 2834 3397 
z
" transform="scale(0.015625)"/>
      <path id="DejaVuSans-66" d="M 2375 4863 
L 2375 4384 
L 1825 4384 
Q 1516 4384 1395 4259 
Q 1275 4134 1275 3809 
L 1275 3500 
L 2222 3500 
L 2222 3053 
L 1275 3053 
L 1275 0 
L 697 0 
L 697 3053 
L 147 3053 
L 147 3500 
L 697 3500 
L 697 3744 
Q 697 4328 969 4595 
Q 1241 4863 1831 4863 
L 2375 4863 
z
" transform="scale(0.015625)"/>
      <path id="DejaVuSans-Oblique-3c3" d="M 2219 3044 
Q 1744 3044 1422 2700 
Q 1081 2341 969 1747 
Q 844 1119 1044 756 
Q 1241 397 1706 397 
Q 2166 397 2503 759 
Q 2844 1122 2966 1747 
Q 3075 2319 2881 2700 
Q 2700 3044 2219 3044 
z
M 2309 3503 
L 4219 3500 
L 4106 2925 
L 3463 2925 
Q 3706 2438 3575 1747 
Q 3406 888 2884 400 
Q 2359 -91 1609 -91 
Q 856 -91 525 400 
Q 194 888 363 1747 
Q 528 2609 1050 3097 
Q 1484 3503 2309 3503 
z
" transform="scale(0.015625)"/>
      <path id="DejaVuSans-Oblique-45" d="M 1081 4666 
L 4031 4666 
L 3928 4134 
L 1606 4134 
L 1338 2753 
L 3566 2753 
L 3463 2222 
L 1234 2222 
L 909 531 
L 3284 531 
L 3181 0 
L 172 0 
L 1081 4666 
z
" transform="scale(0.015625)"/>
     </defs>
     <use xlink:href="#DejaVuSans-57" transform="translate(0 0.015625)"/>
     <use xlink:href="#DejaVuSans-69" transform="translate(98.876953 0.015625)"/>
     <use xlink:href="#DejaVuSans-64" transform="translate(126.660156 0.015625)"/>
     <use xlink:href="#DejaVuSans-74" transform="translate(190.136719 0.015625)"/>
     <use xlink:href="#DejaVuSans-68" transform="translate(229.345703 0.015625)"/>
     <use xlink:href="#DejaVuSans-20" transform="translate(292.724609 0.015625)"/>
     <use xlink:href="#DejaVuSans-76" transform="translate(324.511719 0.015625)"/>
     <use xlink:href="#DejaVuSans-73" transform="translate(383.691406 0.015625)"/>
     <use xlink:href="#DejaVuSans-20" transform="translate(435.791016 0.015625)"/>
     <use xlink:href="#DejaVuSans-Oblique-4c" transform="translate(467.578125 0.015625)"/>
     <use xlink:href="#DejaVuSans-Oblique-69" transform="translate(523.291016 -16.390625) scale(0.7)"/>
     <use xlink:href="#DejaVuSans-Oblique-6e" transform="translate(542.739258 -16.390625) scale(0.7)"/>
     <use xlink:href="#DejaVuSans-Oblique-74" transform="translate(587.104492 -16.390625) scale(0.7)"/>
     <use xlink:href="#DejaVuSans-20" transform="translate(617.285156 0.015625)"/>
     <use xlink:href="#DejaVuSans-66" transform="translate(649.072266 0.015625)"/>
     <use xlink:href="#DejaVuSans-6f" transform="translate(684.277344 0.015625)"/>
     <use xlink:href="#DejaVuSans-72" transform="translate(745.458984 0.015625)"/>
     <use xlink:href="#DejaVuSans-20" transform="translate(786.572266 0.015625)"/>
     <use xlink:href="#DejaVuSans-64" transform="translate(818.359375 0.015625)"/>
     <use xlink:href="#DejaVuSans-69" transform="translate(881.835938 0.015625)"/>
     <use xlink:href="#DejaVuSans-66" transform="translate(909.619141 0.015625)"/>
     <use xlink:href="#DejaVuSans-66" transform="translate(944.824219 0.015625)"/>
     <use xlink:href="#DejaVuSans-65" transform="translate(980.029297 0.015625)"/>
     <use xlink:href="#DejaVuSans-72" transform="translate(1041.552734 0.015625)"/>
     <use xlink:href="#DejaVuSans-65" transform="translate(1082.666016 0.015625)"/>
     <use xlink:href="#DejaVuSans-6e" transform="translate(1144.189453 0.015625)"/>
     <use xlink:href="#DejaVuSans-74" transform="translate(1207.568359 0.015625)"/>
     <use xlink:href="#DejaVuSans-20" transform="translate(1246.777344 0.015625)"/>
     <use xlink:href="#DejaVuSans-69" transform="translate(1278.564453 0.015625)"/>
     <use xlink:href="#DejaVuSans-6e" transform="translate(1306.347656 0.015625)"/>
     <use xlink:href="#DejaVuSans-69" transform="translate(1369.726562 0.015625)"/>
     <use xlink:href="#DejaVuSans-74" transform="translate(1397.509766 0.015625)"/>
     <use xlink:href="#DejaVuSans-69" transform="translate(1436.71875 0.015625)"/>
     <use xlink:href="#DejaVuSans-61" transform="translate(1464.501953 0.015625)"/>
     <use xlink:href="#DejaVuSans-6c" transform="translate(1525.78125 0.015625)"/>
     <use xlink:href="#DejaVuSans-20" transform="translate(1553.564453 0.015625)"/>
     <use xlink:href="#DejaVuSans-77" transform="translate(1585.351562 0.015625)"/>
     <use xlink:href="#DejaVuSans-69" transform="translate(1667.138672 0.015625)"/>
     <use xlink:href="#DejaVuSans-64" transform="translate(1694.921875 0.015625)"/>
     <use xlink:href="#DejaVuSans-74" transform="translate(1758.398438 0.015625)"/>
     <use xlink:href="#DejaVuSans-68" transform="translate(1797.607422 0.015625)"/>
     <use xlink:href="#DejaVuSans-73" transform="translate(1860.986328 0.015625)"/>
     <use xlink:href="#DejaVuSans-20" transform="translate(1913.085938 0.015625)"/>
     <use xlink:href="#DejaVuSans-Oblique-3c3" transform="translate(1944.873047 0.015625)"/>
     <use xlink:href="#DejaVuSans-Oblique-45" transform="translate(2008.251953 -16.390625) scale(0.7)"/>
    </g>
   </g>
   <g id="legend_1">
    <g id="patch_7">
     <path d="M 62.772054 306.848 
L 153.872054 306.848 
Q 155.872054 306.848 155.872054 304.848 
L 155.872054 173.723 
Q 155.872054 171.723 153.872054 171.723 
L 62.772054 171.723 
Q 60.772054 171.723 60.772054 173.723 
L 60.772054 304.848 
Q 60.772054 306.848 62.772054 306.848 
z
" style="fill: #ffffff; opacity: 0.8; stroke: #cccccc; stroke-linejoin: miter"/>
    </g>
    <g id="line2d_70">
     <path d="M 64.772054 179.821438 
L 74.772054 179.821438 
L 84.772054 179.821438 
" style="fill: none; stroke: #d62728; stroke-width: 1.5; stroke-linecap: square"/>
     <g>
      <use xlink:href="#m0cc451ed0b" x="74.772054" y="179.821438" style="fill: #d62728; stroke: #d62728"/>
     </g>
    </g>
    <g id="text_10">
     <!-- 1.5 dB/cm -->
     <g transform="translate(92.772054 183.321438) scale(0.1 -0.1)">
      <defs>
       <path id="DejaVuSans-2e" d="M 684 794 
L 1344 794 
L 1344 0 
L 684 0 
L 684 794 
z
" transform="scale(0.015625)"/>
       <path id="DejaVuSans-35" d="M 691 4666 
L 3169 4666 
L 3169 4134 
L 1269 4134 
L 1269 2991 
Q 1406 3038 1543 3061 
Q 1681 3084 1819 3084 
Q 2600 3084 3056 2656 
Q 3513 2228 3513 1497 
Q 3513 744 3044 326 
Q 2575 -91 1722 -91 
Q 1428 -91 1123 -41 
Q 819 9 494 109 
L 494 744 
Q 775 591 1075 516 
Q 1375 441 1709 441 
Q 2250 441 2565 725 
Q 2881 1009 2881 1497 
Q 2881 1984 2565 2268 
Q 2250 2553 1709 2553 
Q 1456 2553 1204 2497 
Q 953 2441 691 2322 
L 691 4666 
z
" transform="scale(0.015625)"/>
       <path id="DejaVuSans-42" d="M 1259 2228 
L 1259 519 
L 2272 519 
Q 2781 519 3026 730 
Q 3272 941 3272 1375 
Q 3272 1813 3026 2020 
Q 2781 2228 2272 2228 
L 1259 2228 
z
M 1259 4147 
L 1259 2741 
L 2194 2741 
Q 2656 2741 2882 2914 
Q 3109 3088 3109 3444 
Q 3109 3797 2882 3972 
Q 2656 4147 2194 4147 
L 1259 4147 
z
M 628 4666 
L 2241 4666 
Q 2963 4666 3353 4366 
Q 3744 4066 3744 3513 
Q 3744 3084 3544 2831 
Q 3344 2578 2956 2516 
Q 3422 2416 3680 2098 
Q 3938 1781 3938 1306 
Q 3938 681 3513 340 
Q 3088 0 2303 0 
L 628 0 
L 628 4666 
z
" transform="scale(0.015625)"/>
       <path id="DejaVuSans-2f" d="M 1625 4666 
L 2156 4666 
L 531 -594 
L 0 -594 
L 1625 4666 
z
" transform="scale(0.015625)"/>
      </defs>
      <use xlink:href="#DejaVuSans-31"/>
      <use xlink:href="#DejaVuSans-2e" transform="translate(63.623047 0)"/>
      <use xlink:href="#DejaVuSans-35" transform="translate(95.410156 0)"/>
      <use xlink:href="#DejaVuSans-20" transform="translate(159.033203 0)"/>
      <use xlink:href="#DejaVuSans-64" transform="translate(190.820312 0)"/>
      <use xlink:href="#DejaVuSans-42" transform="translate(254.296875 0)"/>
      <use xlink:href="#DejaVuSans-2f" transform="translate(322.900391 0)"/>
      <use xlink:href="#DejaVuSans-63" transform="translate(356.591797 0)"/>
      <use xlink:href="#DejaVuSans-6d" transform="translate(411.572266 0)"/>
     </g>
    </g>
    <g id="line2d_71">
     <path d="M 64.772054 194.499563 
L 74.772054 194.499563 
L 84.772054 194.499563 
" style="fill: none; stroke: #2ca02c; stroke-width: 1.5; stroke-linecap: square"/>
     <g>
      <use xlink:href="#m8a065ea9bd" x="74.772054" y="194.499563" style="fill: #2ca02c; stroke: #2ca02c"/>
     </g>
    </g>
    <g id="text_11">
     <!-- 10 dB/cm -->
     <g transform="translate(92.772054 197.999563) scale(0.1 -0.1)">
      <use xlink:href="#DejaVuSans-31"/>
      <use xlink:href="#DejaVuSans-30" transform="translate(63.623047 0)"/>
      <use xlink:href="#DejaVuSans-20" transform="translate(127.246094 0)"/>
      <use xlink:href="#DejaVuSans-64" transform="translate(159.033203 0)"/>
      <use xlink:href="#DejaVuSans-42" transform="translate(222.509766 0)"/>
      <use xlink:href="#DejaVuSans-2f" transform="translate(291.113281 0)"/>
      <use xlink:href="#DejaVuSans-63" transform="translate(324.804688 0)"/>
      <use xlink:href="#DejaVuSans-6d" transform="translate(379.785156 0)"/>
     </g>
    </g>
    <g id="line2d_72">
     <path d="M 64.772054 209.177687 
L 74.772054 209.177687 
L 84.772054 209.177687 
" style="fill: none; stroke: #ff7f0e; stroke-width: 1.5; stroke-linecap: square"/>
     <g>
      <use xlink:href="#ma51cf476ee" x="74.772054" y="209.177687" style="fill: #ff7f0e; stroke: #ff7f0e"/>
     </g>
    </g>
    <g id="text_12">
     <!-- 5 dB/cm -->
     <g transform="translate(92.772054 212.677687) scale(0.1 -0.1)">
      <use xlink:href="#DejaVuSans-35"/>
      <use xlink:href="#DejaVuSans-20" transform="translate(63.623047 0)"/>
      <use xlink:href="#DejaVuSans-64" transform="translate(95.410156 0)"/>
      <use xlink:href="#DejaVuSans-42" transform="translate(158.886719 0)"/>
      <use xlink:href="#DejaVuSans-2f" transform="translate(227.490234 0)"/>
      <use xlink:href="#DejaVuSans-63" transform="translate(261.181641 0)"/>
      <use xlink:href="#DejaVuSans-6d" transform="translate(316.162109 0)"/>
     </g>
    </g>
    <g id="line2d_73">
     <path d="M 64.772054 223.855813 
L 74.772054 223.855813 
L 84.772054 223.855813 
" style="fill: none; stroke: #1f77b4; stroke-width: 1.5; stroke-linecap: square"/>
     <g>
      <use xlink:href="#m8414783a7d" x="74.772054" y="223.855813" style="fill: #1f77b4; stroke: #1f77b4"/>
     </g>
    </g>
    <g id="text_13">
     <!-- 0 dB/cm -->
     <g transform="translate(92.772054 227.355813) scale(0.1 -0.1)">
      <use xlink:href="#DejaVuSans-30"/>
      <use xlink:href="#DejaVuSans-20" transform="translate(63.623047 0)"/>
      <use xlink:href="#DejaVuSans-64" transform="translate(95.410156 0)"/>
      <use xlink:href="#DejaVuSans-42" transform="translate(158.886719 0)"/>
      <use xlink:href="#DejaVuSans-2f" transform="translate(227.490234 0)"/>
      <use xlink:href="#DejaVuSans-63" transform="translate(261.181641 0)"/>
      <use xlink:href="#DejaVuSans-6d" transform="translate(316.162109 0)"/>
     </g>
    </g>
    <g id="line2d_74">
     <path d="M 64.772054 238.533938 
L 74.772054 238.533938 
L 84.772054 238.533938 
" style="fill: none; stroke: #d0e1f2; stroke-width: 1.5; stroke-linecap: square"/>
     <g>
      <use xlink:href="#me4f735147d" x="74.772054" y="238.533938" style="fill: #d0e1f2; stroke: #d0e1f2"/>
     </g>
    </g>
    <g id="text_14">
     <!-- 0.010 eV -->
     <g transform="translate(92.772054 242.033938) scale(0.1 -0.1)">
      <use xlink:href="#DejaVuSans-30"/>
      <use xlink:href="#DejaVuSans-2e" transform="translate(63.623047 0)"/>
      <use xlink:href="#DejaVuSans-30" transform="translate(95.410156 0)"/>
      <use xlink:href="#DejaVuSans-31" transform="translate(159.033203 0)"/>
      <use xlink:href="#DejaVuSans-30" transform="translate(222.65625 0)"/>
      <use xlink:href="#DejaVuSans-20" transform="translate(286.279297 0)"/>
      <use xlink:href="#DejaVuSans-65" transform="translate(318.066406 0)"/>
      <use xlink:href="#DejaVuSans-56" transform="translate(379.589844 0)"/>
     </g>
    </g>
    <g id="line2d_75">
     <path d="M 64.772054 253.212063 
L 74.772054 253.212063 
L 84.772054 253.212063 
" style="fill: none; stroke: #8dc1dd; stroke-width: 1.5; stroke-linecap: square"/>
     <g>
      <use xlink:href="#mc4f67a16ed" x="74.772054" y="253.212063" style="fill: #8dc1dd; stroke: #8dc1dd; stroke-linejoin: bevel"/>
     </g>
    </g>
    <g id="text_15">
     <!-- 0.025 eV -->
     <g transform="translate(92.772054 256.712063) scale(0.1 -0.1)">
      <use xlink:href="#DejaVuSans-30"/>
      <use xlink:href="#DejaVuSans-2e" transform="translate(63.623047 0)"/>
      <use xlink:href="#DejaVuSans-30" transform="translate(95.410156 0)"/>
      <use xlink:href="#DejaVuSans-32" transform="translate(159.033203 0)"/>
      <use xlink:href="#DejaVuSans-35" transform="translate(222.65625 0)"/>
      <use xlink:href="#DejaVuSans-20" transform="translate(286.279297 0)"/>
      <use xlink:href="#DejaVuSans-65" transform="translate(318.066406 0)"/>
      <use xlink:href="#DejaVuSans-56" transform="translate(379.589844 0)"/>
     </g>
    </g>
    <g id="line2d_76">
     <path d="M 64.772054 267.890188 
L 74.772054 267.890188 
L 84.772054 267.890188 
" style="fill: none; stroke: #3f8fc5; stroke-width: 1.5; stroke-linecap: square"/>
     <g>
      <use xlink:href="#mb7eb7227af" x="74.772054" y="267.890188" style="fill: #3f8fc5; stroke: #3f8fc5; stroke-linejoin: miter"/>
     </g>
    </g>
    <g id="text_16">
     <!-- 0.050 eV -->
     <g transform="translate(92.772054 271.390188) scale(0.1 -0.1)">
      <use xlink:href="#DejaVuSans-30"/>
      <use xlink:href="#DejaVuSans-2e" transform="translate(63.623047 0)"/>
      <use xlink:href="#DejaVuSans-30" transform="translate(95.410156 0)"/>
      <use xlink:href="#DejaVuSans-35" transform="translate(159.033203 0)"/>
      <use xlink:href="#DejaVuSans-30" transform="translate(222.65625 0)"/>
      <use xlink:href="#DejaVuSans-20" transform="translate(286.279297 0)"/>
      <use xlink:href="#DejaVuSans-65" transform="translate(318.066406 0)"/>
      <use xlink:href="#DejaVuSans-56" transform="translate(379.589844 0)"/>
     </g>
    </g>
    <g id="line2d_77">
     <path d="M 64.772054 282.568312 
L 74.772054 282.568312 
L 84.772054 282.568312 
" style="fill: none; stroke: #0d57a1; stroke-width: 1.5; stroke-linecap: square"/>
     <g>
      <use xlink:href="#ma68672d9b2" x="74.772054" y="282.568312" style="fill: #0d57a1; stroke: #0d57a1; stroke-linejoin: miter"/>
     </g>
    </g>
    <g id="text_17">
     <!-- 0.150 eV -->
     <g transform="translate(92.772054 286.068312) scale(0.1 -0.1)">
      <use xlink:href="#DejaVuSans-30"/>
      <use xlink:href="#DejaVuSans-2e" transform="translate(63.623047 0)"/>
      <use xlink:href="#DejaVuSans-31" transform="translate(95.410156 0)"/>
      <use xlink:href="#DejaVuSans-35" transform="translate(159.033203 0)"/>
      <use xlink:href="#DejaVuSans-30" transform="translate(222.65625 0)"/>
      <use xlink:href="#DejaVuSans-20" transform="translate(286.279297 0)"/>
      <use xlink:href="#DejaVuSans-65" transform="translate(318.066406 0)"/>
      <use xlink:href="#DejaVuSans-56" transform="translate(379.589844 0)"/>
     </g>
    </g>
    <g id="line2d_78">
     <path d="M 64.772054 297.248 
L 74.772054 297.248 
L 84.772054 297.248 
" style="fill: none; stroke-dasharray: 5.55,2.4; stroke-dashoffset: 0; stroke: #000000; stroke-width: 1.5"/>
    </g>
    <g id="text_18">
     <!-- $L_0$ (optimal) -->
     <g transform="translate(92.772054 300.748) scale(0.1 -0.1)">
      <defs>
       <path id="DejaVuSans-70" d="M 1159 525 
L 1159 -1331 
L 581 -1331 
L 581 3500 
L 1159 3500 
L 1159 2969 
Q 1341 3281 1617 3432 
Q 1894 3584 2278 3584 
Q 2916 3584 3314 3078 
Q 3713 2572 3713 1747 
Q 3713 922 3314 415 
Q 2916 -91 2278 -91 
Q 1894 -91 1617 61 
Q 1341 213 1159 525 
z
M 3116 1747 
Q 3116 2381 2855 2742 
Q 2594 3103 2138 3103 
Q 1681 3103 1420 2742 
Q 1159 2381 1159 1747 
Q 1159 1113 1420 752 
Q 1681 391 2138 391 
Q 2594 391 2855 752 
Q 3116 1113 3116 1747 
z
" transform="scale(0.015625)"/>
      </defs>
      <use xlink:href="#DejaVuSans-Oblique-4c" transform="translate(0 0.015625)"/>
      <use xlink:href="#DejaVuSans-30" transform="translate(55.712891 -16.390625) scale(0.7)"/>
      <use xlink:href="#DejaVuSans-20" transform="translate(102.983398 0.015625)"/>
      <use xlink:href="#DejaVuSans-28" transform="translate(134.770508 0.015625)"/>
      <use xlink:href="#DejaVuSans-6f" transform="translate(173.78418 0.015625)"/>
      <use xlink:href="#DejaVuSans-70" transform="translate(234.96582 0.015625)"/>
      <use xlink:href="#DejaVuSans-74" transform="translate(298.442383 0.015625)"/>
      <use xlink:href="#DejaVuSans-69" transform="translate(337.651367 0.015625)"/>
      <use xlink:href="#DejaVuSans-6d" transform="translate(365.43457 0.015625)"/>
      <use xlink:href="#DejaVuSans-61" transform="translate(462.84668 0.015625)"/>
      <use xlink:href="#DejaVuSans-6c" transform="translate(524.125977 0.015625)"/>
      <use xlink:href="#DejaVuSans-29" transform="translate(551.90918 0.015625)"/>
     </g>
    </g>
   </g>
  </g>
 </g>
 <defs>
  <clipPath id="pa794ada5de">
   <rect x="55.772054" y="28.32" width="502.285353" height="283.528"/>
  </clipPath>
 </defs>
</svg>
