<?xml version="1.0" encoding="utf-8" standalone="no"?>
<!DOCTYPE svg PUBLIC "-//W3C//DTD SVG 1.1//EN"
  "http://www.w3.org/Graphics/SVG/1.1/DTD/svg11.dtd">
<svg xmlns:xlink="http://www.w3.org/1999/xlink" width="576pt" height="360pt" viewBox="0 0 576 360" xmlns="http://www.w3.org/2000/svg" version="1.1">
 <metadata>
  <rdf:RDF xmlns:dc="http://purl.org/dc/elements/1.1/" xmlns:cc="http://creativecommons.org/ns#" xmlns:rdf="http://www.w3.org/1999/02/22-rdf-syntax-ns#">
   <cc:Work>
    <dc:type rdf:resource="http://purl.org/dc/dcmitype/StillImage"/>
    <dc:date>2025-10-20T22:08:37.133762</dc:date>
    <dc:format>image/svg+xml</dc:format>
    <dc:creator>
     <cc:Agent>
      <dc:title>Matplotlib v3.10.6, https://matplotlib.org/</dc:title>
     </cc:Agent>
    </dc:creator>
   </cc:Work>
  </rdf:RDF>
 </metadata>
 <defs>
  <style type="text/css">*{stroke-linejoin: round; stroke-linecap: butt}</style>
 </defs>
 <g id="figure_1">
  <g id="patch_1">
   <path d="M 0 360 
L 576 360 
L 576 0 
L 0 0 
z
" style="fill: #ffffff"/>
  </g>
  <g id="axes_1">
   <g id="patch_2">
    <path d="M 55.772054 311.848 
L 565.2 311.848 
L 565.2 28.464 
L 55.772054 28.464 
z
" style="fill: #ffffff"/>
   </g>
   <g id="matplotlib.axis_1">
    <g id="xtick_1">
     <g id="line2d_1">
      <defs>
       <path id="mdfaef39439" d="M 0 0 
L 0 3.5 
" style="stroke: #000000; stroke-width: 0.8"/>
      </defs>
      <g>
       <use xlink:href="#mdfaef39439" x="192.195933" y="311.848" style="stroke: #000000; stroke-width: 0.8"/>
      </g>
     </g>
     <g id="text_1">
      <!-- $\mathdefault{10^{-3}}$ -->
      <g transform="translate(180.445933 326.446438) scale(0.1 -0.1)">
       <defs>
        <path id="DejaVuSans-31" d="M 794 531 
L 1825 531 
L 1825 4091 
L 703 3866 
L 703 4441 
L 1819 4666 
L 2450 4666 
L 2450 531 
L 3481 531 
L 3481 0 
L 794 0 
L 794 531 
z
" transform="scale(0.015625)"/>
        <path id="DejaVuSans-30" d="M 2034 4250 
Q 1547 4250 1301 3770 
Q 1056 3291 1056 2328 
Q 1056 1369 1301 889 
Q 1547 409 2034 409 
Q 2525 409 2770 889 
Q 3016 1369 3016 2328 
Q 3016 3291 2770 3770 
Q 2525 4250 2034 4250 
z
M 2034 4750 
Q 2819 4750 3233 4129 
Q 3647 3509 3647 2328 
Q 3647 1150 3233 529 
Q 2819 -91 2034 -91 
Q 1250 -91 836 529 
Q 422 1150 422 2328 
Q 422 3509 836 4129 
Q 1250 4750 2034 4750 
z
" transform="scale(0.015625)"/>
        <path id="DejaVuSans-2212" d="M 678 2272 
L 4684 2272 
L 4684 1741 
L 678 1741 
L 678 2272 
z
" transform="scale(0.015625)"/>
        <path id="DejaVuSans-33" d="M 2597 2516 
Q 3050 2419 3304 2112 
Q 3559 1806 3559 1356 
Q 3559 666 3084 287 
Q 2609 -91 1734 -91 
Q 1441 -91 1130 -33 
Q 819 25 488 141 
L 488 750 
Q 750 597 1062 519 
Q 1375 441 1716 441 
Q 2309 441 2620 675 
Q 2931 909 2931 1356 
Q 2931 1769 2642 2001 
Q 2353 2234 1838 2234 
L 1294 2234 
L 1294 2753 
L 1863 2753 
Q 2328 2753 2575 2939 
Q 2822 3125 2822 3475 
Q 2822 3834 2567 4026 
Q 2313 4219 1838 4219 
Q 1578 4219 1281 4162 
Q 984 4106 628 3988 
L 628 4550 
Q 988 4650 1302 4700 
Q 1616 4750 1894 4750 
Q 2613 4750 3031 4423 
Q 3450 4097 3450 3541 
Q 3450 3153 3228 2886 
Q 3006 2619 2597 2516 
z
" transform="scale(0.015625)"/>
       </defs>
       <use xlink:href="#DejaVuSans-31" transform="translate(0 0.765625)"/>
       <use xlink:href="#DejaVuSans-30" transform="translate(63.623047 0.765625)"/>
       <use xlink:href="#DejaVuSans-2212" transform="translate(128.203125 39.046875) scale(0.7)"/>
       <use xlink:href="#DejaVuSans-33" transform="translate(186.855469 39.046875) scale(0.7)"/>
      </g>
     </g>
    </g>
    <g id="xtick_2">
     <g id="line2d_2">
      <g>
       <use xlink:href="#mdfaef39439" x="351.721237" y="311.848" style="stroke: #000000; stroke-width: 0.8"/>
      </g>
     </g>
     <g id="text_2">
      <!-- $\mathdefault{10^{-2}}$ -->
      <g transform="translate(339.971237 326.446438) scale(0.1 -0.1)">
       <defs>
        <path id="DejaVuSans-32" d="M 1228 531 
L 3431 531 
L 3431 0 
L 469 0 
L 469 531 
Q 828 903 1448 1529 
Q 2069 2156 2228 2338 
Q 2531 2678 2651 2914 
Q 2772 3150 2772 3378 
Q 2772 3750 2511 3984 
Q 2250 4219 1831 4219 
Q 1534 4219 1204 4116 
Q 875 4013 500 3803 
L 500 4441 
Q 881 4594 1212 4672 
Q 1544 4750 1819 4750 
Q 2544 4750 2975 4387 
Q 3406 4025 3406 3419 
Q 3406 3131 3298 2873 
Q 3191 2616 2906 2266 
Q 2828 2175 2409 1742 
Q 1991 1309 1228 531 
z
" transform="scale(0.015625)"/>
       </defs>
       <use xlink:href="#DejaVuSans-31" transform="translate(0 0.765625)"/>
       <use xlink:href="#DejaVuSans-30" transform="translate(63.623047 0.765625)"/>
       <use xlink:href="#DejaVuSans-2212" transform="translate(128.203125 39.046875) scale(0.7)"/>
       <use xlink:href="#DejaVuSans-32" transform="translate(186.855469 39.046875) scale(0.7)"/>
      </g>
     </g>
    </g>
    <g id="xtick_3">
     <g id="line2d_3">
      <g>
       <use xlink:href="#mdfaef39439" x="511.246542" y="311.848" style="stroke: #000000; stroke-width: 0.8"/>
      </g>
     </g>
     <g id="text_3">
      <!-- $\mathdefault{10^{-1}}$ -->
      <g transform="translate(499.496542 326.446438) scale(0.1 -0.1)">
       <use xlink:href="#DejaVuSans-31" transform="translate(0 0.684375)"/>
       <use xlink:href="#DejaVuSans-30" transform="translate(63.623047 0.684375)"/>
       <use xlink:href="#DejaVuSans-2212" transform="translate(128.203125 38.965625) scale(0.7)"/>
       <use xlink:href="#DejaVuSans-31" transform="translate(186.855469 38.965625) scale(0.7)"/>
      </g>
     </g>
    </g>
    <g id="xtick_4">
     <g id="line2d_4">
      <defs>
       <path id="m785f03f7e1" d="M 0 0 
L 0 2 
" style="stroke: #000000; stroke-width: 0.6"/>
      </defs>
      <g>
       <use xlink:href="#m785f03f7e1" x="80.69253" y="311.848" style="stroke: #000000; stroke-width: 0.6"/>
      </g>
     </g>
    </g>
    <g id="xtick_5">
     <g id="line2d_5">
      <g>
       <use xlink:href="#m785f03f7e1" x="108.783542" y="311.848" style="stroke: #000000; stroke-width: 0.6"/>
      </g>
     </g>
    </g>
    <g id="xtick_6">
     <g id="line2d_6">
      <g>
       <use xlink:href="#m785f03f7e1" x="128.714432" y="311.848" style="stroke: #000000; stroke-width: 0.6"/>
      </g>
     </g>
    </g>
    <g id="xtick_7">
     <g id="line2d_7">
      <g>
       <use xlink:href="#m785f03f7e1" x="144.174031" y="311.848" style="stroke: #000000; stroke-width: 0.6"/>
      </g>
     </g>
    </g>
    <g id="xtick_8">
     <g id="line2d_8">
      <g>
       <use xlink:href="#m785f03f7e1" x="156.805443" y="311.848" style="stroke: #000000; stroke-width: 0.6"/>
      </g>
     </g>
    </g>
    <g id="xtick_9">
     <g id="line2d_9">
      <g>
       <use xlink:href="#m785f03f7e1" x="167.48515" y="311.848" style="stroke: #000000; stroke-width: 0.6"/>
      </g>
     </g>
    </g>
    <g id="xtick_10">
     <g id="line2d_10">
      <g>
       <use xlink:href="#m785f03f7e1" x="176.736333" y="311.848" style="stroke: #000000; stroke-width: 0.6"/>
      </g>
     </g>
    </g>
    <g id="xtick_11">
     <g id="line2d_11">
      <g>
       <use xlink:href="#m785f03f7e1" x="184.896455" y="311.848" style="stroke: #000000; stroke-width: 0.6"/>
      </g>
     </g>
    </g>
    <g id="xtick_12">
     <g id="line2d_12">
      <g>
       <use xlink:href="#m785f03f7e1" x="240.217834" y="311.848" style="stroke: #000000; stroke-width: 0.6"/>
      </g>
     </g>
    </g>
    <g id="xtick_13">
     <g id="line2d_13">
      <g>
       <use xlink:href="#m785f03f7e1" x="268.308846" y="311.848" style="stroke: #000000; stroke-width: 0.6"/>
      </g>
     </g>
    </g>
    <g id="xtick_14">
     <g id="line2d_14">
      <g>
       <use xlink:href="#m785f03f7e1" x="288.239736" y="311.848" style="stroke: #000000; stroke-width: 0.6"/>
      </g>
     </g>
    </g>
    <g id="xtick_15">
     <g id="line2d_15">
      <g>
       <use xlink:href="#m785f03f7e1" x="303.699336" y="311.848" style="stroke: #000000; stroke-width: 0.6"/>
      </g>
     </g>
    </g>
    <g id="xtick_16">
     <g id="line2d_16">
      <g>
       <use xlink:href="#m785f03f7e1" x="316.330748" y="311.848" style="stroke: #000000; stroke-width: 0.6"/>
      </g>
     </g>
    </g>
    <g id="xtick_17">
     <g id="line2d_17">
      <g>
       <use xlink:href="#m785f03f7e1" x="327.010455" y="311.848" style="stroke: #000000; stroke-width: 0.6"/>
      </g>
     </g>
    </g>
    <g id="xtick_18">
     <g id="line2d_18">
      <g>
       <use xlink:href="#m785f03f7e1" x="336.261638" y="311.848" style="stroke: #000000; stroke-width: 0.6"/>
      </g>
     </g>
    </g>
    <g id="xtick_19">
     <g id="line2d_19">
      <g>
       <use xlink:href="#m785f03f7e1" x="344.42176" y="311.848" style="stroke: #000000; stroke-width: 0.6"/>
      </g>
     </g>
    </g>
    <g id="xtick_20">
     <g id="line2d_20">
      <g>
       <use xlink:href="#m785f03f7e1" x="399.743139" y="311.848" style="stroke: #000000; stroke-width: 0.6"/>
      </g>
     </g>
    </g>
    <g id="xtick_21">
     <g id="line2d_21">
      <g>
       <use xlink:href="#m785f03f7e1" x="427.834151" y="311.848" style="stroke: #000000; stroke-width: 0.6"/>
      </g>
     </g>
    </g>
    <g id="xtick_22">
     <g id="line2d_22">
      <g>
       <use xlink:href="#m785f03f7e1" x="447.765041" y="311.848" style="stroke: #000000; stroke-width: 0.6"/>
      </g>
     </g>
    </g>
    <g id="xtick_23">
     <g id="line2d_23">
      <g>
       <use xlink:href="#m785f03f7e1" x="463.22464" y="311.848" style="stroke: #000000; stroke-width: 0.6"/>
      </g>
     </g>
    </g>
    <g id="xtick_24">
     <g id="line2d_24">
      <g>
       <use xlink:href="#m785f03f7e1" x="475.856053" y="311.848" style="stroke: #000000; stroke-width: 0.6"/>
      </g>
     </g>
    </g>
    <g id="xtick_25">
     <g id="line2d_25">
      <g>
       <use xlink:href="#m785f03f7e1" x="486.53576" y="311.848" style="stroke: #000000; stroke-width: 0.6"/>
      </g>
     </g>
    </g>
    <g id="xtick_26">
     <g id="line2d_26">
      <g>
       <use xlink:href="#m785f03f7e1" x="495.786943" y="311.848" style="stroke: #000000; stroke-width: 0.6"/>
      </g>
     </g>
    </g>
    <g id="xtick_27">
     <g id="line2d_27">
      <g>
       <use xlink:href="#m785f03f7e1" x="503.947064" y="311.848" style="stroke: #000000; stroke-width: 0.6"/>
      </g>
     </g>
    </g>
    <g id="xtick_28">
     <g id="line2d_28">
      <g>
       <use xlink:href="#m785f03f7e1" x="559.268444" y="311.848" style="stroke: #000000; stroke-width: 0.6"/>
      </g>
     </g>
    </g>
    <g id="text_4">
     <!-- Interaction length $L_{int}$ (in units of $\lambda_\mathrm{eff}$) -->
     <g transform="translate(217.086027 340.126125) scale(0.1 -0.1)">
      <defs>
       <path id="DejaVuSans-49" d="M 628 4666 
L 1259 4666 
L 1259 0 
L 628 0 
L 628 4666 
z
" transform="scale(0.015625)"/>
       <path id="DejaVuSans-6e" d="M 3513 2113 
L 3513 0 
L 2938 0 
L 2938 2094 
Q 2938 2591 2744 2837 
Q 2550 3084 2163 3084 
Q 1697 3084 1428 2787 
Q 1159 2491 1159 1978 
L 1159 0 
L 581 0 
L 581 3500 
L 1159 3500 
L 1159 2956 
Q 1366 3272 1645 3428 
Q 1925 3584 2291 3584 
Q 2894 3584 3203 3211 
Q 3513 2838 3513 2113 
z
" transform="scale(0.015625)"/>
       <path id="DejaVuSans-74" d="M 1172 4494 
L 1172 3500 
L 2356 3500 
L 2356 3053 
L 1172 3053 
L 1172 1153 
Q 1172 725 1289 603 
Q 1406 481 1766 481 
L 2356 481 
L 2356 0 
L 1766 0 
Q 1100 0 847 248 
Q 594 497 594 1153 
L 594 3053 
L 172 3053 
L 172 3500 
L 594 3500 
L 594 4494 
L 1172 4494 
z
" transform="scale(0.015625)"/>
       <path id="DejaVuSans-65" d="M 3597 1894 
L 3597 1613 
L 953 1613 
Q 991 1019 1311 708 
Q 1631 397 2203 397 
Q 2534 397 2845 478 
Q 3156 559 3463 722 
L 3463 178 
Q 3153 47 2828 -22 
Q 2503 -91 2169 -91 
Q 1331 -91 842 396 
Q 353 884 353 1716 
Q 353 2575 817 3079 
Q 1281 3584 2069 3584 
Q 2775 3584 3186 3129 
Q 3597 2675 3597 1894 
z
M 3022 2063 
Q 3016 2534 2758 2815 
Q 2500 3097 2075 3097 
Q 1594 3097 1305 2825 
Q 1016 2553 972 2059 
L 3022 2063 
z
" transform="scale(0.015625)"/>
       <path id="DejaVuSans-72" d="M 2631 2963 
Q 2534 3019 2420 3045 
Q 2306 3072 2169 3072 
Q 1681 3072 1420 2755 
Q 1159 2438 1159 1844 
L 1159 0 
L 581 0 
L 581 3500 
L 1159 3500 
L 1159 2956 
Q 1341 3275 1631 3429 
Q 1922 3584 2338 3584 
Q 2397 3584 2469 3576 
Q 2541 3569 2628 3553 
L 2631 2963 
z
" transform="scale(0.015625)"/>
       <path id="DejaVuSans-61" d="M 2194 1759 
Q 1497 1759 1228 1600 
Q 959 1441 959 1056 
Q 959 750 1161 570 
Q 1363 391 1709 391 
Q 2188 391 2477 730 
Q 2766 1069 2766 1631 
L 2766 1759 
L 2194 1759 
z
M 3341 1997 
L 3341 0 
L 2766 0 
L 2766 531 
Q 2569 213 2275 61 
Q 1981 -91 1556 -91 
Q 1019 -91 701 211 
Q 384 513 384 1019 
Q 384 1609 779 1909 
Q 1175 2209 1959 2209 
L 2766 2209 
L 2766 2266 
Q 2766 2663 2505 2880 
Q 2244 3097 1772 3097 
Q 1472 3097 1187 3025 
Q 903 2953 641 2809 
L 641 3341 
Q 956 3463 1253 3523 
Q 1550 3584 1831 3584 
Q 2591 3584 2966 3190 
Q 3341 2797 3341 1997 
z
" transform="scale(0.015625)"/>
       <path id="DejaVuSans-63" d="M 3122 3366 
L 3122 2828 
Q 2878 2963 2633 3030 
Q 2388 3097 2138 3097 
Q 1578 3097 1268 2742 
Q 959 2388 959 1747 
Q 959 1106 1268 751 
Q 1578 397 2138 397 
Q 2388 397 2633 464 
Q 2878 531 3122 666 
L 3122 134 
Q 2881 22 2623 -34 
Q 2366 -91 2075 -91 
Q 1284 -91 818 406 
Q 353 903 353 1747 
Q 353 2603 823 3093 
Q 1294 3584 2113 3584 
Q 2378 3584 2631 3529 
Q 2884 3475 3122 3366 
z
" transform="scale(0.015625)"/>
       <path id="DejaVuSans-69" d="M 603 3500 
L 1178 3500 
L 1178 0 
L 603 0 
L 603 3500 
z
M 603 4863 
L 1178 4863 
L 1178 4134 
L 603 4134 
L 603 4863 
z
" transform="scale(0.015625)"/>
       <path id="DejaVuSans-6f" d="M 1959 3097 
Q 1497 3097 1228 2736 
Q 959 2375 959 1747 
Q 959 1119 1226 758 
Q 1494 397 1959 397 
Q 2419 397 2687 759 
Q 2956 1122 2956 1747 
Q 2956 2369 2687 2733 
Q 2419 3097 1959 3097 
z
M 1959 3584 
Q 2709 3584 3137 3096 
Q 3566 2609 3566 1747 
Q 3566 888 3137 398 
Q 2709 -91 1959 -91 
Q 1206 -91 779 398 
Q 353 888 353 1747 
Q 353 2609 779 3096 
Q 1206 3584 1959 3584 
z
" transform="scale(0.015625)"/>
       <path id="DejaVuSans-20" transform="scale(0.015625)"/>
       <path id="DejaVuSans-6c" d="M 603 4863 
L 1178 4863 
L 1178 0 
L 603 0 
L 603 4863 
z
" transform="scale(0.015625)"/>
       <path id="DejaVuSans-67" d="M 2906 1791 
Q 2906 2416 2648 2759 
Q 2391 3103 1925 3103 
Q 1463 3103 1205 2759 
Q 947 2416 947 1791 
Q 947 1169 1205 825 
Q 1463 481 1925 481 
Q 2391 481 2648 825 
Q 2906 1169 2906 1791 
z
M 3481 434 
Q 3481 -459 3084 -895 
Q 2688 -1331 1869 -1331 
Q 1566 -1331 1297 -1286 
Q 1028 -1241 775 -1147 
L 775 -588 
Q 1028 -725 1275 -790 
Q 1522 -856 1778 -856 
Q 2344 -856 2625 -561 
Q 2906 -266 2906 331 
L 2906 616 
Q 2728 306 2450 153 
Q 2172 0 1784 0 
Q 1141 0 747 490 
Q 353 981 353 1791 
Q 353 2603 747 3093 
Q 1141 3584 1784 3584 
Q 2172 3584 2450 3431 
Q 2728 3278 2906 2969 
L 2906 3500 
L 3481 3500 
L 3481 434 
z
" transform="scale(0.015625)"/>
       <path id="DejaVuSans-68" d="M 3513 2113 
L 3513 0 
L 2938 0 
L 2938 2094 
Q 2938 2591 2744 2837 
Q 2550 3084 2163 3084 
Q 1697 3084 1428 2787 
Q 1159 2491 1159 1978 
L 1159 0 
L 581 0 
L 581 4863 
L 1159 4863 
L 1159 2956 
Q 1366 3272 1645 3428 
Q 1925 3584 2291 3584 
Q 2894 3584 3203 3211 
Q 3513 2838 3513 2113 
z
" transform="scale(0.015625)"/>
       <path id="DejaVuSans-Oblique-4c" d="M 1075 4666 
L 1709 4666 
L 909 525 
L 3181 525 
L 3078 0 
L 172 0 
L 1075 4666 
z
" transform="scale(0.015625)"/>
       <path id="DejaVuSans-Oblique-69" d="M 1172 4863 
L 1747 4863 
L 1606 4134 
L 1031 4134 
L 1172 4863 
z
M 909 3500 
L 1484 3500 
L 800 0 
L 225 0 
L 909 3500 
z
" transform="scale(0.015625)"/>
       <path id="DejaVuSans-Oblique-6e" d="M 3566 2113 
L 3156 0 
L 2578 0 
L 2988 2091 
Q 3016 2238 3031 2350 
Q 3047 2463 3047 2528 
Q 3047 2791 2881 2937 
Q 2716 3084 2419 3084 
Q 1956 3084 1622 2776 
Q 1288 2469 1184 1941 
L 800 0 
L 225 0 
L 903 3500 
L 1478 3500 
L 1363 2950 
Q 1603 3253 1940 3418 
Q 2278 3584 2650 3584 
Q 3113 3584 3367 3334 
Q 3622 3084 3622 2631 
Q 3622 2519 3608 2391 
Q 3594 2263 3566 2113 
z
" transform="scale(0.015625)"/>
       <path id="DejaVuSans-Oblique-74" d="M 2706 3500 
L 2619 3053 
L 1472 3053 
L 1100 1153 
Q 1081 1047 1072 975 
Q 1063 903 1063 863 
Q 1063 663 1183 572 
Q 1303 481 1569 481 
L 2150 481 
L 2053 0 
L 1503 0 
Q 991 0 739 200 
Q 488 400 488 806 
Q 488 878 497 964 
Q 506 1050 525 1153 
L 897 3053 
L 409 3053 
L 500 3500 
L 978 3500 
L 1172 4494 
L 1747 4494 
L 1556 3500 
L 2706 3500 
z
" transform="scale(0.015625)"/>
       <path id="DejaVuSans-28" d="M 1984 4856 
Q 1566 4138 1362 3434 
Q 1159 2731 1159 2009 
Q 1159 1288 1364 580 
Q 1569 -128 1984 -844 
L 1484 -844 
Q 1016 -109 783 600 
Q 550 1309 550 2009 
Q 550 2706 781 3412 
Q 1013 4119 1484 4856 
L 1984 4856 
z
" transform="scale(0.015625)"/>
       <path id="DejaVuSans-75" d="M 544 1381 
L 544 3500 
L 1119 3500 
L 1119 1403 
Q 1119 906 1312 657 
Q 1506 409 1894 409 
Q 2359 409 2629 706 
Q 2900 1003 2900 1516 
L 2900 3500 
L 3475 3500 
L 3475 0 
L 2900 0 
L 2900 538 
Q 2691 219 2414 64 
Q 2138 -91 1772 -91 
Q 1169 -91 856 284 
Q 544 659 544 1381 
z
M 1991 3584 
L 1991 3584 
z
" transform="scale(0.015625)"/>
       <path id="DejaVuSans-73" d="M 2834 3397 
L 2834 2853 
Q 2591 2978 2328 3040 
Q 2066 3103 1784 3103 
Q 1356 3103 1142 2972 
Q 928 2841 928 2578 
Q 928 2378 1081 2264 
Q 1234 2150 1697 2047 
L 1894 2003 
Q 2506 1872 2764 1633 
Q 3022 1394 3022 966 
Q 3022 478 2636 193 
Q 2250 -91 1575 -91 
Q 1294 -91 989 -36 
Q 684 19 347 128 
L 347 722 
Q 666 556 975 473 
Q 1284 391 1588 391 
Q 1994 391 2212 530 
Q 2431 669 2431 922 
Q 2431 1156 2273 1281 
Q 2116 1406 1581 1522 
L 1381 1569 
Q 847 1681 609 1914 
Q 372 2147 372 2553 
Q 372 3047 722 3315 
Q 1072 3584 1716 3584 
Q 2034 3584 2315 3537 
Q 2597 3491 2834 3397 
z
" transform="scale(0.015625)"/>
       <path id="DejaVuSans-66" d="M 2375 4863 
L 2375 4384 
L 1825 4384 
Q 1516 4384 1395 4259 
Q 1275 4134 1275 3809 
L 1275 3500 
L 2222 3500 
L 2222 3053 
L 1275 3053 
L 1275 0 
L 697 0 
L 697 3053 
L 147 3053 
L 147 3500 
L 697 3500 
L 697 3744 
Q 697 4328 969 4595 
Q 1241 4863 1831 4863 
L 2375 4863 
z
" transform="scale(0.015625)"/>
       <path id="DejaVuSans-Oblique-3bb" d="M 2350 4316 
L 3125 0 
L 2516 0 
L 2038 2588 
L 328 0 
L -281 0 
L 1903 3356 
L 1794 3975 
Q 1725 4369 1391 4369 
L 1091 4369 
L 1184 4863 
L 1550 4856 
Q 2253 4847 2350 4316 
z
" transform="scale(0.015625)"/>
       <path id="DejaVuSans-29" d="M 513 4856 
L 1013 4856 
Q 1481 4119 1714 3412 
Q 1947 2706 1947 2009 
Q 1947 1309 1714 600 
Q 1481 -109 1013 -844 
L 513 -844 
Q 928 -128 1133 580 
Q 1338 1288 1338 2009 
Q 1338 2731 1133 3434 
Q 928 4138 513 4856 
z
" transform="scale(0.015625)"/>
      </defs>
      <use xlink:href="#DejaVuSans-49" transform="translate(0 0.015625)"/>
      <use xlink:href="#DejaVuSans-6e" transform="translate(29.492188 0.015625)"/>
      <use xlink:href="#DejaVuSans-74" transform="translate(92.871094 0.015625)"/>
      <use xlink:href="#DejaVuSans-65" transform="translate(132.080078 0.015625)"/>
      <use xlink:href="#DejaVuSans-72" transform="translate(193.603516 0.015625)"/>
      <use xlink:href="#DejaVuSans-61" transform="translate(234.716797 0.015625)"/>
      <use xlink:href="#DejaVuSans-63" transform="translate(295.996094 0.015625)"/>
      <use xlink:href="#DejaVuSans-74" transform="translate(350.976562 0.015625)"/>
      <use xlink:href="#DejaVuSans-69" transform="translate(390.185547 0.015625)"/>
      <use xlink:href="#DejaVuSans-6f" transform="translate(417.96875 0.015625)"/>
      <use xlink:href="#DejaVuSans-6e" transform="translate(479.150391 0.015625)"/>
      <use xlink:href="#DejaVuSans-20" transform="translate(542.529297 0.015625)"/>
      <use xlink:href="#DejaVuSans-6c" transform="translate(574.316406 0.015625)"/>
      <use xlink:href="#DejaVuSans-65" transform="translate(602.099609 0.015625)"/>
      <use xlink:href="#DejaVuSans-6e" transform="translate(663.623047 0.015625)"/>
      <use xlink:href="#DejaVuSans-67" transform="translate(727.001953 0.015625)"/>
      <use xlink:href="#DejaVuSans-74" transform="translate(790.478516 0.015625)"/>
      <use xlink:href="#DejaVuSans-68" transform="translate(829.6875 0.015625)"/>
      <use xlink:href="#DejaVuSans-20" transform="translate(893.066406 0.015625)"/>
      <use xlink:href="#DejaVuSans-Oblique-4c" transform="translate(924.853516 0.015625)"/>
      <use xlink:href="#DejaVuSans-Oblique-69" transform="translate(980.566406 -16.390625) scale(0.7)"/>
      <use xlink:href="#DejaVuSans-Oblique-6e" transform="translate(1000.014648 -16.390625) scale(0.7)"/>
      <use xlink:href="#DejaVuSans-Oblique-74" transform="translate(1044.379883 -16.390625) scale(0.7)"/>
      <use xlink:href="#DejaVuSans-20" transform="translate(1074.560547 0.015625)"/>
      <use xlink:href="#DejaVuSans-28" transform="translate(1106.347656 0.015625)"/>
      <use xlink:href="#DejaVuSans-69" transform="translate(1145.361328 0.015625)"/>
      <use xlink:href="#DejaVuSans-6e" transform="translate(1173.144531 0.015625)"/>
      <use xlink:href="#DejaVuSans-20" transform="translate(1236.523438 0.015625)"/>
      <use xlink:href="#DejaVuSans-75" transform="translate(1268.310547 0.015625)"/>
      <use xlink:href="#DejaVuSans-6e" transform="translate(1331.689453 0.015625)"/>
      <use xlink:href="#DejaVuSans-69" transform="translate(1395.068359 0.015625)"/>
      <use xlink:href="#DejaVuSans-74" transform="translate(1422.851562 0.015625)"/>
      <use xlink:href="#DejaVuSans-73" transform="translate(1462.060547 0.015625)"/>
      <use xlink:href="#DejaVuSans-20" transform="translate(1514.160156 0.015625)"/>
      <use xlink:href="#DejaVuSans-6f" transform="translate(1545.947266 0.015625)"/>
      <use xlink:href="#DejaVuSans-66" transform="translate(1607.128906 0.015625)"/>
      <use xlink:href="#DejaVuSans-20" transform="translate(1642.333984 0.015625)"/>
      <use xlink:href="#DejaVuSans-Oblique-3bb" transform="translate(1674.121094 0.015625)"/>
      <use xlink:href="#DejaVuSans-65" transform="translate(1733.300781 -16.390625) scale(0.7)"/>
      <use xlink:href="#DejaVuSans-66" transform="translate(1776.367188 -16.390625) scale(0.7)"/>
      <use xlink:href="#DejaVuSans-66" transform="translate(1801.010742 -16.390625) scale(0.7)"/>
      <use xlink:href="#DejaVuSans-29" transform="translate(1828.388672 0.015625)"/>
     </g>
    </g>
   </g>
   <g id="matplotlib.axis_2">
    <g id="ytick_1">
     <g id="line2d_29">
      <defs>
       <path id="m4f75ae85e5" d="M 0 0 
L -3.5 0 
" style="stroke: #000000; stroke-width: 0.8"/>
      </defs>
      <g>
       <use xlink:href="#m4f75ae85e5" x="55.772054" y="290.976787" style="stroke: #000000; stroke-width: 0.8"/>
      </g>
     </g>
     <g id="text_5">
      <!-- $\mathdefault{10^{-2}}$ -->
      <g transform="translate(25.272054 294.776006) scale(0.1 -0.1)">
       <use xlink:href="#DejaVuSans-31" transform="translate(0 0.765625)"/>
       <use xlink:href="#DejaVuSans-30" transform="translate(63.623047 0.765625)"/>
       <use xlink:href="#DejaVuSans-2212" transform="translate(128.203125 39.046875) scale(0.7)"/>
       <use xlink:href="#DejaVuSans-32" transform="translate(186.855469 39.046875) scale(0.7)"/>
      </g>
     </g>
    </g>
    <g id="ytick_2">
     <g id="line2d_30">
      <g>
       <use xlink:href="#m4f75ae85e5" x="55.772054" y="192.35227" style="stroke: #000000; stroke-width: 0.8"/>
      </g>
     </g>
     <g id="text_6">
      <!-- $\mathdefault{10^{-1}}$ -->
      <g transform="translate(25.272054 196.151489) scale(0.1 -0.1)">
       <use xlink:href="#DejaVuSans-31" transform="translate(0 0.684375)"/>
       <use xlink:href="#DejaVuSans-30" transform="translate(63.623047 0.684375)"/>
       <use xlink:href="#DejaVuSans-2212" transform="translate(128.203125 38.965625) scale(0.7)"/>
       <use xlink:href="#DejaVuSans-31" transform="translate(186.855469 38.965625) scale(0.7)"/>
      </g>
     </g>
    </g>
    <g id="ytick_3">
     <g id="line2d_31">
      <g>
       <use xlink:href="#m4f75ae85e5" x="55.772054" y="93.727754" style="stroke: #000000; stroke-width: 0.8"/>
      </g>
     </g>
     <g id="text_7">
      <!-- $\mathdefault{10^{0}}$ -->
      <g transform="translate(31.172054 97.526972) scale(0.1 -0.1)">
       <use xlink:href="#DejaVuSans-31" transform="translate(0 0.765625)"/>
       <use xlink:href="#DejaVuSans-30" transform="translate(63.623047 0.765625)"/>
       <use xlink:href="#DejaVuSans-30" transform="translate(128.203125 39.046875) scale(0.7)"/>
      </g>
     </g>
    </g>
    <g id="ytick_4">
     <g id="line2d_32">
      <defs>
       <path id="m9d67374071" d="M 0 0 
L -2 0 
" style="stroke: #000000; stroke-width: 0.6"/>
      </defs>
      <g>
       <use xlink:href="#m9d67374071" x="55.772054" y="306.253918" style="stroke: #000000; stroke-width: 0.6"/>
      </g>
     </g>
    </g>
    <g id="ytick_5">
     <g id="line2d_33">
      <g>
       <use xlink:href="#m9d67374071" x="55.772054" y="300.53449" style="stroke: #000000; stroke-width: 0.6"/>
      </g>
     </g>
    </g>
    <g id="ytick_6">
     <g id="line2d_34">
      <g>
       <use xlink:href="#m9d67374071" x="55.772054" y="295.489598" style="stroke: #000000; stroke-width: 0.6"/>
      </g>
     </g>
    </g>
    <g id="ytick_7">
     <g id="line2d_35">
      <g>
       <use xlink:href="#m9d67374071" x="55.772054" y="261.287849" style="stroke: #000000; stroke-width: 0.6"/>
      </g>
     </g>
    </g>
    <g id="ytick_8">
     <g id="line2d_36">
      <g>
       <use xlink:href="#m9d67374071" x="55.772054" y="243.920934" style="stroke: #000000; stroke-width: 0.6"/>
      </g>
     </g>
    </g>
    <g id="ytick_9">
     <g id="line2d_37">
      <g>
       <use xlink:href="#m9d67374071" x="55.772054" y="231.598911" style="stroke: #000000; stroke-width: 0.6"/>
      </g>
     </g>
    </g>
    <g id="ytick_10">
     <g id="line2d_38">
      <g>
       <use xlink:href="#m9d67374071" x="55.772054" y="222.041208" style="stroke: #000000; stroke-width: 0.6"/>
      </g>
     </g>
    </g>
    <g id="ytick_11">
     <g id="line2d_39">
      <g>
       <use xlink:href="#m9d67374071" x="55.772054" y="214.231996" style="stroke: #000000; stroke-width: 0.6"/>
      </g>
     </g>
    </g>
    <g id="ytick_12">
     <g id="line2d_40">
      <g>
       <use xlink:href="#m9d67374071" x="55.772054" y="207.629401" style="stroke: #000000; stroke-width: 0.6"/>
      </g>
     </g>
    </g>
    <g id="ytick_13">
     <g id="line2d_41">
      <g>
       <use xlink:href="#m9d67374071" x="55.772054" y="201.909974" style="stroke: #000000; stroke-width: 0.6"/>
      </g>
     </g>
    </g>
    <g id="ytick_14">
     <g id="line2d_42">
      <g>
       <use xlink:href="#m9d67374071" x="55.772054" y="196.865081" style="stroke: #000000; stroke-width: 0.6"/>
      </g>
     </g>
    </g>
    <g id="ytick_15">
     <g id="line2d_43">
      <g>
       <use xlink:href="#m9d67374071" x="55.772054" y="162.663333" style="stroke: #000000; stroke-width: 0.6"/>
      </g>
     </g>
    </g>
    <g id="ytick_16">
     <g id="line2d_44">
      <g>
       <use xlink:href="#m9d67374071" x="55.772054" y="145.296417" style="stroke: #000000; stroke-width: 0.6"/>
      </g>
     </g>
    </g>
    <g id="ytick_17">
     <g id="line2d_45">
      <g>
       <use xlink:href="#m9d67374071" x="55.772054" y="132.974395" style="stroke: #000000; stroke-width: 0.6"/>
      </g>
     </g>
    </g>
    <g id="ytick_18">
     <g id="line2d_46">
      <g>
       <use xlink:href="#m9d67374071" x="55.772054" y="123.416692" style="stroke: #000000; stroke-width: 0.6"/>
      </g>
     </g>
    </g>
    <g id="ytick_19">
     <g id="line2d_47">
      <g>
       <use xlink:href="#m9d67374071" x="55.772054" y="115.607479" style="stroke: #000000; stroke-width: 0.6"/>
      </g>
     </g>
    </g>
    <g id="ytick_20">
     <g id="line2d_48">
      <g>
       <use xlink:href="#m9d67374071" x="55.772054" y="109.004885" style="stroke: #000000; stroke-width: 0.6"/>
      </g>
     </g>
    </g>
    <g id="ytick_21">
     <g id="line2d_49">
      <g>
       <use xlink:href="#m9d67374071" x="55.772054" y="103.285457" style="stroke: #000000; stroke-width: 0.6"/>
      </g>
     </g>
    </g>
    <g id="ytick_22">
     <g id="line2d_50">
      <g>
       <use xlink:href="#m9d67374071" x="55.772054" y="98.240564" style="stroke: #000000; stroke-width: 0.6"/>
      </g>
     </g>
    </g>
    <g id="ytick_23">
     <g id="line2d_51">
      <g>
       <use xlink:href="#m9d67374071" x="55.772054" y="64.038816" style="stroke: #000000; stroke-width: 0.6"/>
      </g>
     </g>
    </g>
    <g id="ytick_24">
     <g id="line2d_52">
      <g>
       <use xlink:href="#m9d67374071" x="55.772054" y="46.6719" style="stroke: #000000; stroke-width: 0.6"/>
      </g>
     </g>
    </g>
    <g id="ytick_25">
     <g id="line2d_53">
      <g>
       <use xlink:href="#m9d67374071" x="55.772054" y="34.349878" style="stroke: #000000; stroke-width: 0.6"/>
      </g>
     </g>
    </g>
    <g id="text_8">
     <!-- Saturation width (eV) -->
     <g transform="translate(19.192366 223.577875) rotate(-90) scale(0.1 -0.1)">
      <defs>
       <path id="DejaVuSans-53" d="M 3425 4513 
L 3425 3897 
Q 3066 4069 2747 4153 
Q 2428 4238 2131 4238 
Q 1616 4238 1336 4038 
Q 1056 3838 1056 3469 
Q 1056 3159 1242 3001 
Q 1428 2844 1947 2747 
L 2328 2669 
Q 3034 2534 3370 2195 
Q 3706 1856 3706 1288 
Q 3706 609 3251 259 
Q 2797 -91 1919 -91 
Q 1588 -91 1214 -16 
Q 841 59 441 206 
L 441 856 
Q 825 641 1194 531 
Q 1563 422 1919 422 
Q 2459 422 2753 634 
Q 3047 847 3047 1241 
Q 3047 1584 2836 1778 
Q 2625 1972 2144 2069 
L 1759 2144 
Q 1053 2284 737 2584 
Q 422 2884 422 3419 
Q 422 4038 858 4394 
Q 1294 4750 2059 4750 
Q 2388 4750 2728 4690 
Q 3069 4631 3425 4513 
z
" transform="scale(0.015625)"/>
       <path id="DejaVuSans-77" d="M 269 3500 
L 844 3500 
L 1563 769 
L 2278 3500 
L 2956 3500 
L 3675 769 
L 4391 3500 
L 4966 3500 
L 4050 0 
L 3372 0 
L 2619 2869 
L 1863 0 
L 1184 0 
L 269 3500 
z
" transform="scale(0.015625)"/>
       <path id="DejaVuSans-64" d="M 2906 2969 
L 2906 4863 
L 3481 4863 
L 3481 0 
L 2906 0 
L 2906 525 
Q 2725 213 2448 61 
Q 2172 -91 1784 -91 
Q 1150 -91 751 415 
Q 353 922 353 1747 
Q 353 2572 751 3078 
Q 1150 3584 1784 3584 
Q 2172 3584 2448 3432 
Q 2725 3281 2906 2969 
z
M 947 1747 
Q 947 1113 1208 752 
Q 1469 391 1925 391 
Q 2381 391 2643 752 
Q 2906 1113 2906 1747 
Q 2906 2381 2643 2742 
Q 2381 3103 1925 3103 
Q 1469 3103 1208 2742 
Q 947 2381 947 1747 
z
" transform="scale(0.015625)"/>
       <path id="DejaVuSans-56" d="M 1831 0 
L 50 4666 
L 709 4666 
L 2188 738 
L 3669 4666 
L 4325 4666 
L 2547 0 
L 1831 0 
z
" transform="scale(0.015625)"/>
      </defs>
      <use xlink:href="#DejaVuSans-53"/>
      <use xlink:href="#DejaVuSans-61" transform="translate(63.476562 0)"/>
      <use xlink:href="#DejaVuSans-74" transform="translate(124.755859 0)"/>
      <use xlink:href="#DejaVuSans-75" transform="translate(163.964844 0)"/>
      <use xlink:href="#DejaVuSans-72" transform="translate(227.34375 0)"/>
      <use xlink:href="#DejaVuSans-61" transform="translate(268.457031 0)"/>
      <use xlink:href="#DejaVuSans-74" transform="translate(329.736328 0)"/>
      <use xlink:href="#DejaVuSans-69" transform="translate(368.945312 0)"/>
      <use xlink:href="#DejaVuSans-6f" transform="translate(396.728516 0)"/>
      <use xlink:href="#DejaVuSans-6e" transform="translate(457.910156 0)"/>
      <use xlink:href="#DejaVuSans-20" transform="translate(521.289062 0)"/>
      <use xlink:href="#DejaVuSans-77" transform="translate(553.076172 0)"/>
      <use xlink:href="#DejaVuSans-69" transform="translate(634.863281 0)"/>
      <use xlink:href="#DejaVuSans-64" transform="translate(662.646484 0)"/>
      <use xlink:href="#DejaVuSans-74" transform="translate(726.123047 0)"/>
      <use xlink:href="#DejaVuSans-68" transform="translate(765.332031 0)"/>
      <use xlink:href="#DejaVuSans-20" transform="translate(828.710938 0)"/>
      <use xlink:href="#DejaVuSans-28" transform="translate(860.498047 0)"/>
      <use xlink:href="#DejaVuSans-65" transform="translate(899.511719 0)"/>
      <use xlink:href="#DejaVuSans-56" transform="translate(961.035156 0)"/>
      <use xlink:href="#DejaVuSans-29" transform="translate(1029.443359 0)"/>
     </g>
    </g>
   </g>
   <g id="line2d_54">
    <path d="M 78.92787 41.345091 
L 102.083685 41.345091 
L 125.239501 41.345091 
L 148.395317 43.314729 
L 171.551133 55.907818 
L 194.706948 67.829948 
L 217.862764 78.638672 
L 241.01858 88.109001 
L 264.174395 95.73158 
L 287.330211 101.122385 
L 310.486027 104.642401 
L 333.641843 107.09601 
L 356.797658 108.880938 
L 379.953474 109.905678 
L 403.10929 110.743496 
L 426.265106 111.168632 
L 449.420921 111.59803 
L 472.576737 111.814354 
L 495.732553 112.031776 
L 518.888369 112.250308 
L 542.044184 112.250308 
" clip-path="url(#p54f7f761cd)" style="fill: none; stroke: #d62728; stroke-width: 1.5; stroke-linecap: square"/>
    <defs>
     <path id="m9ed7427f5d" d="M 0 1.5 
C 0.397805 1.5 0.77937 1.341951 1.06066 1.06066 
C 1.341951 0.77937 1.5 0.397805 1.5 0 
C 1.5 -0.397805 1.341951 -0.77937 1.06066 -1.06066 
C 0.77937 -1.341951 0.397805 -1.5 0 -1.5 
C -0.397805 -1.5 -0.77937 -1.341951 -1.06066 -1.06066 
C -1.341951 -0.77937 -1.5 -0.397805 -1.5 0 
C -1.5 0.397805 -1.341951 0.77937 -1.06066 1.06066 
C -0.77937 1.341951 -0.397805 1.5 0 1.5 
z
" style="stroke: #d62728"/>
    </defs>
    <g clip-path="url(#p54f7f761cd)">
     <use xlink:href="#m9ed7427f5d" x="78.92787" y="41.345091" style="fill: #d62728; stroke: #d62728"/>
     <use xlink:href="#m9ed7427f5d" x="102.083685" y="41.345091" style="fill: #d62728; stroke: #d62728"/>
     <use xlink:href="#m9ed7427f5d" x="125.239501" y="41.345091" style="fill: #d62728; stroke: #d62728"/>
     <use xlink:href="#m9ed7427f5d" x="148.395317" y="43.314729" style="fill: #d62728; stroke: #d62728"/>
     <use xlink:href="#m9ed7427f5d" x="171.551133" y="55.907818" style="fill: #d62728; stroke: #d62728"/>
     <use xlink:href="#m9ed7427f5d" x="194.706948" y="67.829948" style="fill: #d62728; stroke: #d62728"/>
     <use xlink:href="#m9ed7427f5d" x="217.862764" y="78.638672" style="fill: #d62728; stroke: #d62728"/>
     <use xlink:href="#m9ed7427f5d" x="241.01858" y="88.109001" style="fill: #d62728; stroke: #d62728"/>
     <use xlink:href="#m9ed7427f5d" x="264.174395" y="95.73158" style="fill: #d62728; stroke: #d62728"/>
     <use xlink:href="#m9ed7427f5d" x="287.330211" y="101.122385" style="fill: #d62728; stroke: #d62728"/>
     <use xlink:href="#m9ed7427f5d" x="310.486027" y="104.642401" style="fill: #d62728; stroke: #d62728"/>
     <use xlink:href="#m9ed7427f5d" x="333.641843" y="107.09601" style="fill: #d62728; stroke: #d62728"/>
     <use xlink:href="#m9ed7427f5d" x="356.797658" y="108.880938" style="fill: #d62728; stroke: #d62728"/>
     <use xlink:href="#m9ed7427f5d" x="379.953474" y="109.905678" style="fill: #d62728; stroke: #d62728"/>
     <use xlink:href="#m9ed7427f5d" x="403.10929" y="110.743496" style="fill: #d62728; stroke: #d62728"/>
     <use xlink:href="#m9ed7427f5d" x="426.265106" y="111.168632" style="fill: #d62728; stroke: #d62728"/>
     <use xlink:href="#m9ed7427f5d" x="449.420921" y="111.59803" style="fill: #d62728; stroke: #d62728"/>
     <use xlink:href="#m9ed7427f5d" x="472.576737" y="111.814354" style="fill: #d62728; stroke: #d62728"/>
     <use xlink:href="#m9ed7427f5d" x="495.732553" y="112.031776" style="fill: #d62728; stroke: #d62728"/>
     <use xlink:href="#m9ed7427f5d" x="518.888369" y="112.250308" style="fill: #d62728; stroke: #d62728"/>
     <use xlink:href="#m9ed7427f5d" x="542.044184" y="112.250308" style="fill: #d62728; stroke: #d62728"/>
    </g>
   </g>
   <g id="line2d_55">
    <path d="M 78.92787 41.345091 
L 102.083685 41.345091 
L 125.239501 41.345091 
L 148.395317 46.308979 
L 171.551133 60.169853 
L 194.706948 73.732835 
L 217.862764 87.122895 
L 241.01858 99.95568 
L 264.174395 112.46996 
L 287.330211 124.028078 
L 310.486027 134.423154 
L 333.641843 142.936674 
L 356.797658 149.726555 
L 379.953474 154.738613 
L 403.10929 157.79935 
L 426.265106 159.746598 
L 449.420921 161.095751 
L 472.576737 161.786606 
L 495.732553 162.488787 
L 518.888369 163.202672 
L 542.044184 163.202672 
" clip-path="url(#p54f7f761cd)" style="fill: none; stroke: #2ca02c; stroke-width: 1.5; stroke-linecap: square"/>
    <defs>
     <path id="mc2b1d407e7" d="M 0 1.5 
C 0.397805 1.5 0.77937 1.341951 1.06066 1.06066 
C 1.341951 0.77937 1.5 0.397805 1.5 0 
C 1.5 -0.397805 1.341951 -0.77937 1.06066 -1.06066 
C 0.77937 -1.341951 0.397805 -1.5 0 -1.5 
C -0.397805 -1.5 -0.77937 -1.341951 -1.06066 -1.06066 
C -1.341951 -0.77937 -1.5 -0.397805 -1.5 0 
C -1.5 0.397805 -1.341951 0.77937 -1.06066 1.06066 
C -0.77937 1.341951 -0.397805 1.5 0 1.5 
z
" style="stroke: #2ca02c"/>
    </defs>
    <g clip-path="url(#p54f7f761cd)">
     <use xlink:href="#mc2b1d407e7" x="78.92787" y="41.345091" style="fill: #2ca02c; stroke: #2ca02c"/>
     <use xlink:href="#mc2b1d407e7" x="102.083685" y="41.345091" style="fill: #2ca02c; stroke: #2ca02c"/>
     <use xlink:href="#mc2b1d407e7" x="125.239501" y="41.345091" style="fill: #2ca02c; stroke: #2ca02c"/>
     <use xlink:href="#mc2b1d407e7" x="148.395317" y="46.308979" style="fill: #2ca02c; stroke: #2ca02c"/>
     <use xlink:href="#mc2b1d407e7" x="171.551133" y="60.169853" style="fill: #2ca02c; stroke: #2ca02c"/>
     <use xlink:href="#mc2b1d407e7" x="194.706948" y="73.732835" style="fill: #2ca02c; stroke: #2ca02c"/>
     <use xlink:href="#mc2b1d407e7" x="217.862764" y="87.122895" style="fill: #2ca02c; stroke: #2ca02c"/>
     <use xlink:href="#mc2b1d407e7" x="241.01858" y="99.95568" style="fill: #2ca02c; stroke: #2ca02c"/>
     <use xlink:href="#mc2b1d407e7" x="264.174395" y="112.46996" style="fill: #2ca02c; stroke: #2ca02c"/>
     <use xlink:href="#mc2b1d407e7" x="287.330211" y="124.028078" style="fill: #2ca02c; stroke: #2ca02c"/>
     <use xlink:href="#mc2b1d407e7" x="310.486027" y="134.423154" style="fill: #2ca02c; stroke: #2ca02c"/>
     <use xlink:href="#mc2b1d407e7" x="333.641843" y="142.936674" style="fill: #2ca02c; stroke: #2ca02c"/>
     <use xlink:href="#mc2b1d407e7" x="356.797658" y="149.726555" style="fill: #2ca02c; stroke: #2ca02c"/>
     <use xlink:href="#mc2b1d407e7" x="379.953474" y="154.738613" style="fill: #2ca02c; stroke: #2ca02c"/>
     <use xlink:href="#mc2b1d407e7" x="403.10929" y="157.79935" style="fill: #2ca02c; stroke: #2ca02c"/>
     <use xlink:href="#mc2b1d407e7" x="426.265106" y="159.746598" style="fill: #2ca02c; stroke: #2ca02c"/>
     <use xlink:href="#mc2b1d407e7" x="449.420921" y="161.095751" style="fill: #2ca02c; stroke: #2ca02c"/>
     <use xlink:href="#mc2b1d407e7" x="472.576737" y="161.786606" style="fill: #2ca02c; stroke: #2ca02c"/>
     <use xlink:href="#mc2b1d407e7" x="495.732553" y="162.488787" style="fill: #2ca02c; stroke: #2ca02c"/>
     <use xlink:href="#mc2b1d407e7" x="518.888369" y="163.202672" style="fill: #2ca02c; stroke: #2ca02c"/>
     <use xlink:href="#mc2b1d407e7" x="542.044184" y="163.202672" style="fill: #2ca02c; stroke: #2ca02c"/>
    </g>
   </g>
   <g id="line2d_56">
    <path d="M 78.92787 41.345091 
L 102.083685 41.345091 
L 125.239501 41.345091 
L 148.395317 47.30733 
L 171.551133 61.488882 
L 194.706948 75.460903 
L 217.862764 89.374442 
L 241.01858 103.377226 
L 264.174395 117.117559 
L 287.330211 130.558626 
L 310.486027 143.387543 
L 333.641843 155.936792 
L 356.797658 167.755494 
L 379.953474 178.634339 
L 403.10929 187.806743 
L 426.265106 196.260059 
L 449.420921 201.207716 
L 472.576737 204.855203 
L 495.732553 206.802451 
L 518.888369 208.84246 
L 542.044184 208.84246 
" clip-path="url(#p54f7f761cd)" style="fill: none; stroke: #ff7f0e; stroke-width: 1.5; stroke-linecap: square"/>
    <defs>
     <path id="m9583732d49" d="M 0 1.5 
C 0.397805 1.5 0.77937 1.341951 1.06066 1.06066 
C 1.341951 0.77937 1.5 0.397805 1.5 0 
C 1.5 -0.397805 1.341951 -0.77937 1.06066 -1.06066 
C 0.77937 -1.341951 0.397805 -1.5 0 -1.5 
C -0.397805 -1.5 -0.77937 -1.341951 -1.06066 -1.06066 
C -1.341951 -0.77937 -1.5 -0.397805 -1.5 0 
C -1.5 0.397805 -1.341951 0.77937 -1.06066 1.06066 
C -0.77937 1.341951 -0.397805 1.5 0 1.5 
z
" style="stroke: #ff7f0e"/>
    </defs>
    <g clip-path="url(#p54f7f761cd)">
     <use xlink:href="#m9583732d49" x="78.92787" y="41.345091" style="fill: #ff7f0e; stroke: #ff7f0e"/>
     <use xlink:href="#m9583732d49" x="102.083685" y="41.345091" style="fill: #ff7f0e; stroke: #ff7f0e"/>
     <use xlink:href="#m9583732d49" x="125.239501" y="41.345091" style="fill: #ff7f0e; stroke: #ff7f0e"/>
     <use xlink:href="#m9583732d49" x="148.395317" y="47.30733" style="fill: #ff7f0e; stroke: #ff7f0e"/>
     <use xlink:href="#m9583732d49" x="171.551133" y="61.488882" style="fill: #ff7f0e; stroke: #ff7f0e"/>
     <use xlink:href="#m9583732d49" x="194.706948" y="75.460903" style="fill: #ff7f0e; stroke: #ff7f0e"/>
     <use xlink:href="#m9583732d49" x="217.862764" y="89.374442" style="fill: #ff7f0e; stroke: #ff7f0e"/>
     <use xlink:href="#m9583732d49" x="241.01858" y="103.377226" style="fill: #ff7f0e; stroke: #ff7f0e"/>
     <use xlink:href="#m9583732d49" x="264.174395" y="117.117559" style="fill: #ff7f0e; stroke: #ff7f0e"/>
     <use xlink:href="#m9583732d49" x="287.330211" y="130.558626" style="fill: #ff7f0e; stroke: #ff7f0e"/>
     <use xlink:href="#m9583732d49" x="310.486027" y="143.387543" style="fill: #ff7f0e; stroke: #ff7f0e"/>
     <use xlink:href="#m9583732d49" x="333.641843" y="155.936792" style="fill: #ff7f0e; stroke: #ff7f0e"/>
     <use xlink:href="#m9583732d49" x="356.797658" y="167.755494" style="fill: #ff7f0e; stroke: #ff7f0e"/>
     <use xlink:href="#m9583732d49" x="379.953474" y="178.634339" style="fill: #ff7f0e; stroke: #ff7f0e"/>
     <use xlink:href="#m9583732d49" x="403.10929" y="187.806743" style="fill: #ff7f0e; stroke: #ff7f0e"/>
     <use xlink:href="#m9583732d49" x="426.265106" y="196.260059" style="fill: #ff7f0e; stroke: #ff7f0e"/>
     <use xlink:href="#m9583732d49" x="449.420921" y="201.207716" style="fill: #ff7f0e; stroke: #ff7f0e"/>
     <use xlink:href="#m9583732d49" x="472.576737" y="204.855203" style="fill: #ff7f0e; stroke: #ff7f0e"/>
     <use xlink:href="#m9583732d49" x="495.732553" y="206.802451" style="fill: #ff7f0e; stroke: #ff7f0e"/>
     <use xlink:href="#m9583732d49" x="518.888369" y="208.84246" style="fill: #ff7f0e; stroke: #ff7f0e"/>
     <use xlink:href="#m9583732d49" x="542.044184" y="208.84246" style="fill: #ff7f0e; stroke: #ff7f0e"/>
    </g>
   </g>
   <g id="line2d_57">
    <path d="M 78.92787 41.345091 
L 102.083685 41.345091 
L 125.239501 41.345091 
L 148.395317 47.548502 
L 171.551133 61.892644 
L 194.706948 76.209899 
L 217.862764 90.546214 
L 241.01858 104.82623 
L 264.174395 119.127644 
L 287.330211 133.69408 
L 310.486027 148.178238 
L 333.641843 162.488787 
L 356.797658 176.618339 
L 379.953474 191.825196 
L 403.10929 206.802451 
L 426.265106 220.817662 
L 449.420921 237.499249 
L 472.576737 251.911056 
L 495.732553 265.195638 
L 518.888369 284.555102 
L 542.044184 298.966909 
" clip-path="url(#p54f7f761cd)" style="fill: none; stroke: #003366; stroke-width: 1.5; stroke-linecap: square"/>
    <defs>
     <path id="m5265b372d7" d="M 0 1.5 
C 0.397805 1.5 0.77937 1.341951 1.06066 1.06066 
C 1.341951 0.77937 1.5 0.397805 1.5 0 
C 1.5 -0.397805 1.341951 -0.77937 1.06066 -1.06066 
C 0.77937 -1.341951 0.397805 -1.5 0 -1.5 
C -0.397805 -1.5 -0.77937 -1.341951 -1.06066 -1.06066 
C -1.341951 -0.77937 -1.5 -0.397805 -1.5 0 
C -1.5 0.397805 -1.341951 0.77937 -1.06066 1.06066 
C -0.77937 1.341951 -0.397805 1.5 0 1.5 
z
" style="stroke: #003366"/>
    </defs>
    <g clip-path="url(#p54f7f761cd)">
     <use xlink:href="#m5265b372d7" x="78.92787" y="41.345091" style="fill: #003366; stroke: #003366"/>
     <use xlink:href="#m5265b372d7" x="102.083685" y="41.345091" style="fill: #003366; stroke: #003366"/>
     <use xlink:href="#m5265b372d7" x="125.239501" y="41.345091" style="fill: #003366; stroke: #003366"/>
     <use xlink:href="#m5265b372d7" x="148.395317" y="47.548502" style="fill: #003366; stroke: #003366"/>
     <use xlink:href="#m5265b372d7" x="171.551133" y="61.892644" style="fill: #003366; stroke: #003366"/>
     <use xlink:href="#m5265b372d7" x="194.706948" y="76.209899" style="fill: #003366; stroke: #003366"/>
     <use xlink:href="#m5265b372d7" x="217.862764" y="90.546214" style="fill: #003366; stroke: #003366"/>
     <use xlink:href="#m5265b372d7" x="241.01858" y="104.82623" style="fill: #003366; stroke: #003366"/>
     <use xlink:href="#m5265b372d7" x="264.174395" y="119.127644" style="fill: #003366; stroke: #003366"/>
     <use xlink:href="#m5265b372d7" x="287.330211" y="133.69408" style="fill: #003366; stroke: #003366"/>
     <use xlink:href="#m5265b372d7" x="310.486027" y="148.178238" style="fill: #003366; stroke: #003366"/>
     <use xlink:href="#m5265b372d7" x="333.641843" y="162.488787" style="fill: #003366; stroke: #003366"/>
     <use xlink:href="#m5265b372d7" x="356.797658" y="176.618339" style="fill: #003366; stroke: #003366"/>
     <use xlink:href="#m5265b372d7" x="379.953474" y="191.825196" style="fill: #003366; stroke: #003366"/>
     <use xlink:href="#m5265b372d7" x="403.10929" y="206.802451" style="fill: #003366; stroke: #003366"/>
     <use xlink:href="#m5265b372d7" x="426.265106" y="220.817662" style="fill: #003366; stroke: #003366"/>
     <use xlink:href="#m5265b372d7" x="449.420921" y="237.499249" style="fill: #003366; stroke: #003366"/>
     <use xlink:href="#m5265b372d7" x="472.576737" y="251.911056" style="fill: #003366; stroke: #003366"/>
     <use xlink:href="#m5265b372d7" x="495.732553" y="265.195638" style="fill: #003366; stroke: #003366"/>
     <use xlink:href="#m5265b372d7" x="518.888369" y="284.555102" style="fill: #003366; stroke: #003366"/>
     <use xlink:href="#m5265b372d7" x="542.044184" y="298.966909" style="fill: #003366; stroke: #003366"/>
    </g>
   </g>
   <g id="patch_3">
    <path d="M 55.772054 311.848 
L 55.772054 28.464 
" style="fill: none; stroke: #000000; stroke-width: 0.8; stroke-linejoin: miter; stroke-linecap: square"/>
   </g>
   <g id="patch_4">
    <path d="M 565.2 311.848 
L 565.2 28.464 
" style="fill: none; stroke: #000000; stroke-width: 0.8; stroke-linejoin: miter; stroke-linecap: square"/>
   </g>
   <g id="patch_5">
    <path d="M 55.772054 311.848 
L 565.2 311.848 
" style="fill: none; stroke: #000000; stroke-width: 0.8; stroke-linejoin: miter; stroke-linecap: square"/>
   </g>
   <g id="patch_6">
    <path d="M 55.772054 28.464 
L 565.2 28.464 
" style="fill: none; stroke: #000000; stroke-width: 0.8; stroke-linejoin: miter; stroke-linecap: square"/>
   </g>
   <g id="text_9">
    <!-- Saturation width vs $L_{int}$ for $v_0 = v_g$ at different losses -->
    <g transform="translate(153.226027 22.464) scale(0.12 -0.12)">
     <defs>
      <path id="DejaVuSans-76" d="M 191 3500 
L 800 3500 
L 1894 563 
L 2988 3500 
L 3597 3500 
L 2284 0 
L 1503 0 
L 191 3500 
z
" transform="scale(0.015625)"/>
      <path id="DejaVuSans-Oblique-76" d="M 459 3500 
L 1069 3500 
L 1581 525 
L 3256 3500 
L 3866 3500 
L 1875 0 
L 1100 0 
L 459 3500 
z
" transform="scale(0.015625)"/>
      <path id="DejaVuSans-3d" d="M 678 2906 
L 4684 2906 
L 4684 2381 
L 678 2381 
L 678 2906 
z
M 678 1631 
L 4684 1631 
L 4684 1100 
L 678 1100 
L 678 1631 
z
" transform="scale(0.015625)"/>
      <path id="DejaVuSans-Oblique-67" d="M 3816 3500 
L 3219 434 
Q 3047 -456 2561 -893 
Q 2075 -1331 1253 -1331 
Q 950 -1331 690 -1286 
Q 431 -1241 206 -1147 
L 313 -588 
Q 525 -725 762 -790 
Q 1000 -856 1269 -856 
Q 1816 -856 2167 -557 
Q 2519 -259 2631 300 
L 2681 563 
Q 2441 288 2122 144 
Q 1803 0 1434 0 
Q 903 0 598 351 
Q 294 703 294 1319 
Q 294 1803 478 2267 
Q 663 2731 997 3091 
Q 1219 3328 1514 3456 
Q 1809 3584 2131 3584 
Q 2484 3584 2746 3420 
Q 3009 3256 3138 2956 
L 3238 3500 
L 3816 3500 
z
M 2950 2216 
Q 2950 2641 2750 2872 
Q 2550 3103 2181 3103 
Q 1953 3103 1747 3012 
Q 1541 2922 1394 2759 
Q 1156 2491 1023 2127 
Q 891 1763 891 1375 
Q 891 944 1092 712 
Q 1294 481 1672 481 
Q 2219 481 2584 976 
Q 2950 1472 2950 2216 
z
" transform="scale(0.015625)"/>
     </defs>
     <use xlink:href="#DejaVuSans-53" transform="translate(0 0.015625)"/>
     <use xlink:href="#DejaVuSans-61" transform="translate(63.476562 0.015625)"/>
     <use xlink:href="#DejaVuSans-74" transform="translate(124.755859 0.015625)"/>
     <use xlink:href="#DejaVuSans-75" transform="translate(163.964844 0.015625)"/>
     <use xlink:href="#DejaVuSans-72" transform="translate(227.34375 0.015625)"/>
     <use xlink:href="#DejaVuSans-61" transform="translate(268.457031 0.015625)"/>
     <use xlink:href="#DejaVuSans-74" transform="translate(329.736328 0.015625)"/>
     <use xlink:href="#DejaVuSans-69" transform="translate(368.945312 0.015625)"/>
     <use xlink:href="#DejaVuSans-6f" transform="translate(396.728516 0.015625)"/>
     <use xlink:href="#DejaVuSans-6e" transform="translate(457.910156 0.015625)"/>
     <use xlink:href="#DejaVuSans-20" transform="translate(521.289062 0.015625)"/>
     <use xlink:href="#DejaVuSans-77" transform="translate(553.076172 0.015625)"/>
     <use xlink:href="#DejaVuSans-69" transform="translate(634.863281 0.015625)"/>
     <use xlink:href="#DejaVuSans-64" transform="translate(662.646484 0.015625)"/>
     <use xlink:href="#DejaVuSans-74" transform="translate(726.123047 0.015625)"/>
     <use xlink:href="#DejaVuSans-68" transform="translate(765.332031 0.015625)"/>
     <use xlink:href="#DejaVuSans-20" transform="translate(828.710938 0.015625)"/>
     <use xlink:href="#DejaVuSans-76" transform="translate(860.498047 0.015625)"/>
     <use xlink:href="#DejaVuSans-73" transform="translate(919.677734 0.015625)"/>
     <use xlink:href="#DejaVuSans-20" transform="translate(971.777344 0.015625)"/>
     <use xlink:href="#DejaVuSans-Oblique-4c" transform="translate(1003.564453 0.015625)"/>
     <use xlink:href="#DejaVuSans-Oblique-69" transform="translate(1059.277344 -16.390625) scale(0.7)"/>
     <use xlink:href="#DejaVuSans-Oblique-6e" transform="translate(1078.725586 -16.390625) scale(0.7)"/>
     <use xlink:href="#DejaVuSans-Oblique-74" transform="translate(1123.09082 -16.390625) scale(0.7)"/>
     <use xlink:href="#DejaVuSans-20" transform="translate(1153.271484 0.015625)"/>
     <use xlink:href="#DejaVuSans-66" transform="translate(1185.058594 0.015625)"/>
     <use xlink:href="#DejaVuSans-6f" transform="translate(1220.263672 0.015625)"/>
     <use xlink:href="#DejaVuSans-72" transform="translate(1281.445312 0.015625)"/>
     <use xlink:href="#DejaVuSans-20" transform="translate(1322.558594 0.015625)"/>
     <use xlink:href="#DejaVuSans-Oblique-76" transform="translate(1354.345703 0.015625)"/>
     <use xlink:href="#DejaVuSans-30" transform="translate(1413.525391 -16.390625) scale(0.7)"/>
     <use xlink:href="#DejaVuSans-3d" transform="translate(1480.27832 0.015625)"/>
     <use xlink:href="#DejaVuSans-Oblique-76" transform="translate(1583.549805 0.015625)"/>
     <use xlink:href="#DejaVuSans-Oblique-67" transform="translate(1642.729492 -16.390625) scale(0.7)"/>
     <use xlink:href="#DejaVuSans-20" transform="translate(1689.897461 0.015625)"/>
     <use xlink:href="#DejaVuSans-61" transform="translate(1721.68457 0.015625)"/>
     <use xlink:href="#DejaVuSans-74" transform="translate(1782.963867 0.015625)"/>
     <use xlink:href="#DejaVuSans-20" transform="translate(1822.172852 0.015625)"/>
     <use xlink:href="#DejaVuSans-64" transform="translate(1853.959961 0.015625)"/>
     <use xlink:href="#DejaVuSans-69" transform="translate(1917.436523 0.015625)"/>
     <use xlink:href="#DejaVuSans-66" transform="translate(1945.219727 0.015625)"/>
     <use xlink:href="#DejaVuSans-66" transform="translate(1980.424805 0.015625)"/>
     <use xlink:href="#DejaVuSans-65" transform="translate(2015.629883 0.015625)"/>
     <use xlink:href="#DejaVuSans-72" transform="translate(2077.15332 0.015625)"/>
     <use xlink:href="#DejaVuSans-65" transform="translate(2118.266602 0.015625)"/>
     <use xlink:href="#DejaVuSans-6e" transform="translate(2179.790039 0.015625)"/>
     <use xlink:href="#DejaVuSans-74" transform="translate(2243.168945 0.015625)"/>
     <use xlink:href="#DejaVuSans-20" transform="translate(2282.37793 0.015625)"/>
     <use xlink:href="#DejaVuSans-6c" transform="translate(2314.165039 0.015625)"/>
     <use xlink:href="#DejaVuSans-6f" transform="translate(2341.948242 0.015625)"/>
     <use xlink:href="#DejaVuSans-73" transform="translate(2403.129883 0.015625)"/>
     <use xlink:href="#DejaVuSans-73" transform="translate(2455.229492 0.015625)"/>
     <use xlink:href="#DejaVuSans-65" transform="translate(2507.329102 0.015625)"/>
     <use xlink:href="#DejaVuSans-73" transform="translate(2568.852539 0.015625)"/>
    </g>
   </g>
   <g id="legend_1">
    <g id="patch_7">
     <path d="M 472.117187 95.1765 
L 558.2 95.1765 
Q 560.2 95.1765 560.2 93.1765 
L 560.2 35.464 
Q 560.2 33.464 558.2 33.464 
L 472.117187 33.464 
Q 470.117187 33.464 470.117187 35.464 
L 470.117187 93.1765 
Q 470.117187 95.1765 472.117187 95.1765 
z
" style="fill: #ffffff; opacity: 0.8; stroke: #cccccc; stroke-linejoin: miter"/>
    </g>
    <g id="line2d_58">
     <path d="M 474.117187 41.562438 
L 484.117187 41.562438 
L 494.117187 41.562438 
" style="fill: none; stroke: #d62728; stroke-width: 1.5; stroke-linecap: square"/>
     <g>
      <use xlink:href="#m9ed7427f5d" x="484.117187" y="41.562438" style="fill: #d62728; stroke: #d62728"/>
     </g>
    </g>
    <g id="text_10">
     <!-- 100 dB/cm -->
     <g transform="translate(502.117187 45.062438) scale(0.1 -0.1)">
      <defs>
       <path id="DejaVuSans-42" d="M 1259 2228 
L 1259 519 
L 2272 519 
Q 2781 519 3026 730 
Q 3272 941 3272 1375 
Q 3272 1813 3026 2020 
Q 2781 2228 2272 2228 
L 1259 2228 
z
M 1259 4147 
L 1259 2741 
L 2194 2741 
Q 2656 2741 2882 2914 
Q 3109 3088 3109 3444 
Q 3109 3797 2882 3972 
Q 2656 4147 2194 4147 
L 1259 4147 
z
M 628 4666 
L 2241 4666 
Q 2963 4666 3353 4366 
Q 3744 4066 3744 3513 
Q 3744 3084 3544 2831 
Q 3344 2578 2956 2516 
Q 3422 2416 3680 2098 
Q 3938 1781 3938 1306 
Q 3938 681 3513 340 
Q 3088 0 2303 0 
L 628 0 
L 628 4666 
z
" transform="scale(0.015625)"/>
       <path id="DejaVuSans-2f" d="M 1625 4666 
L 2156 4666 
L 531 -594 
L 0 -594 
L 1625 4666 
z
" transform="scale(0.015625)"/>
       <path id="DejaVuSans-6d" d="M 3328 2828 
Q 3544 3216 3844 3400 
Q 4144 3584 4550 3584 
Q 5097 3584 5394 3201 
Q 5691 2819 5691 2113 
L 5691 0 
L 5113 0 
L 5113 2094 
Q 5113 2597 4934 2840 
Q 4756 3084 4391 3084 
Q 3944 3084 3684 2787 
Q 3425 2491 3425 1978 
L 3425 0 
L 2847 0 
L 2847 2094 
Q 2847 2600 2669 2842 
Q 2491 3084 2119 3084 
Q 1678 3084 1418 2786 
Q 1159 2488 1159 1978 
L 1159 0 
L 581 0 
L 581 3500 
L 1159 3500 
L 1159 2956 
Q 1356 3278 1631 3431 
Q 1906 3584 2284 3584 
Q 2666 3584 2933 3390 
Q 3200 3197 3328 2828 
z
" transform="scale(0.015625)"/>
      </defs>
      <use xlink:href="#DejaVuSans-31"/>
      <use xlink:href="#DejaVuSans-30" transform="translate(63.623047 0)"/>
      <use xlink:href="#DejaVuSans-30" transform="translate(127.246094 0)"/>
      <use xlink:href="#DejaVuSans-20" transform="translate(190.869141 0)"/>
      <use xlink:href="#DejaVuSans-64" transform="translate(222.65625 0)"/>
      <use xlink:href="#DejaVuSans-42" transform="translate(286.132812 0)"/>
      <use xlink:href="#DejaVuSans-2f" transform="translate(354.736328 0)"/>
      <use xlink:href="#DejaVuSans-63" transform="translate(388.427734 0)"/>
      <use xlink:href="#DejaVuSans-6d" transform="translate(443.408203 0)"/>
     </g>
    </g>
    <g id="line2d_59">
     <path d="M 474.117187 56.240563 
L 484.117187 56.240563 
L 494.117187 56.240563 
" style="fill: none; stroke: #2ca02c; stroke-width: 1.5; stroke-linecap: square"/>
     <g>
      <use xlink:href="#mc2b1d407e7" x="484.117187" y="56.240563" style="fill: #2ca02c; stroke: #2ca02c"/>
     </g>
    </g>
    <g id="text_11">
     <!-- 30 dB/cm -->
     <g transform="translate(502.117187 59.740563) scale(0.1 -0.1)">
      <use xlink:href="#DejaVuSans-33"/>
      <use xlink:href="#DejaVuSans-30" transform="translate(63.623047 0)"/>
      <use xlink:href="#DejaVuSans-20" transform="translate(127.246094 0)"/>
      <use xlink:href="#DejaVuSans-64" transform="translate(159.033203 0)"/>
      <use xlink:href="#DejaVuSans-42" transform="translate(222.509766 0)"/>
      <use xlink:href="#DejaVuSans-2f" transform="translate(291.113281 0)"/>
      <use xlink:href="#DejaVuSans-63" transform="translate(324.804688 0)"/>
      <use xlink:href="#DejaVuSans-6d" transform="translate(379.785156 0)"/>
     </g>
    </g>
    <g id="line2d_60">
     <path d="M 474.117187 70.918688 
L 484.117187 70.918688 
L 494.117187 70.918688 
" style="fill: none; stroke: #ff7f0e; stroke-width: 1.5; stroke-linecap: square"/>
     <g>
      <use xlink:href="#m9583732d49" x="484.117187" y="70.918688" style="fill: #ff7f0e; stroke: #ff7f0e"/>
     </g>
    </g>
    <g id="text_12">
     <!-- 10 dB/cm -->
     <g transform="translate(502.117187 74.418688) scale(0.1 -0.1)">
      <use xlink:href="#DejaVuSans-31"/>
      <use xlink:href="#DejaVuSans-30" transform="translate(63.623047 0)"/>
      <use xlink:href="#DejaVuSans-20" transform="translate(127.246094 0)"/>
      <use xlink:href="#DejaVuSans-64" transform="translate(159.033203 0)"/>
      <use xlink:href="#DejaVuSans-42" transform="translate(222.509766 0)"/>
      <use xlink:href="#DejaVuSans-2f" transform="translate(291.113281 0)"/>
      <use xlink:href="#DejaVuSans-63" transform="translate(324.804688 0)"/>
      <use xlink:href="#DejaVuSans-6d" transform="translate(379.785156 0)"/>
     </g>
    </g>
    <g id="line2d_61">
     <path d="M 474.117187 85.596813 
L 484.117187 85.596813 
L 494.117187 85.596813 
" style="fill: none; stroke: #003366; stroke-width: 1.5; stroke-linecap: square"/>
     <g>
      <use xlink:href="#m5265b372d7" x="484.117187" y="85.596813" style="fill: #003366; stroke: #003366"/>
     </g>
    </g>
    <g id="text_13">
     <!-- 0 dB/cm -->
     <g transform="translate(502.117187 89.096813) scale(0.1 -0.1)">
      <use xlink:href="#DejaVuSans-30"/>
      <use xlink:href="#DejaVuSans-20" transform="translate(63.623047 0)"/>
      <use xlink:href="#DejaVuSans-64" transform="translate(95.410156 0)"/>
      <use xlink:href="#DejaVuSans-42" transform="translate(158.886719 0)"/>
      <use xlink:href="#DejaVuSans-2f" transform="translate(227.490234 0)"/>
      <use xlink:href="#DejaVuSans-63" transform="translate(261.181641 0)"/>
      <use xlink:href="#DejaVuSans-6d" transform="translate(316.162109 0)"/>
     </g>
    </g>
   </g>
  </g>
 </g>
 <defs>
  <clipPath id="p54f7f761cd">
   <rect x="55.772054" y="28.464" width="509.427946" height="283.384"/>
  </clipPath>
 </defs>
</svg>
