<?xml version="1.0" encoding="utf-8" standalone="no"?>
<!DOCTYPE svg PUBLIC "-//W3C//DTD SVG 1.1//EN"
  "http://www.w3.org/Graphics/SVG/1.1/DTD/svg11.dtd">
<svg xmlns:xlink="http://www.w3.org/1999/xlink" width="576pt" height="360pt" viewBox="0 0 576 360" xmlns="http://www.w3.org/2000/svg" version="1.1">
 <metadata>
  <rdf:RDF xmlns:dc="http://purl.org/dc/elements/1.1/" xmlns:cc="http://creativecommons.org/ns#" xmlns:rdf="http://www.w3.org/1999/02/22-rdf-syntax-ns#">
   <cc:Work>
    <dc:type rdf:resource="http://purl.org/dc/dcmitype/StillImage"/>
    <dc:date>2025-10-15T11:26:57.896870</dc:date>
    <dc:format>image/svg+xml</dc:format>
    <dc:creator>
     <cc:Agent>
      <dc:title>Matplotlib v3.10.6, https://matplotlib.org/</dc:title>
     </cc:Agent>
    </dc:creator>
   </cc:Work>
  </rdf:RDF>
 </metadata>
 <defs>
  <style type="text/css">*{stroke-linejoin: round; stroke-linecap: butt}</style>
 </defs>
 <g id="figure_1">
  <g id="patch_1">
   <path d="M 0 360 
L 576 360 
L 576 0 
L 0 0 
z
" style="fill: #ffffff"/>
  </g>
  <g id="axes_1">
   <g id="patch_2">
    <path d="M 55.772054 312.3655 
L 565.2 312.3655 
L 565.2 28.32 
L 55.772054 28.32 
z
" style="fill: #ffffff"/>
   </g>
   <g id="matplotlib.axis_1">
    <g id="xtick_1">
     <g id="line2d_1">
      <defs>
       <path id="m1615fdaea3" d="M 0 0 
L 0 3.5 
" style="stroke: #000000; stroke-width: 0.8"/>
      </defs>
      <g>
       <use xlink:href="#m1615fdaea3" x="155.688059" y="312.3655" style="stroke: #000000; stroke-width: 0.8"/>
      </g>
     </g>
     <g id="text_1">
      <!-- $\mathdefault{10^{4}}$ -->
      <g transform="translate(146.888059 326.963937) scale(0.1 -0.1)">
       <defs>
        <path id="DejaVuSans-31" d="M 794 531 
L 1825 531 
L 1825 4091 
L 703 3866 
L 703 4441 
L 1819 4666 
L 2450 4666 
L 2450 531 
L 3481 531 
L 3481 0 
L 794 0 
L 794 531 
z
" transform="scale(0.015625)"/>
        <path id="DejaVuSans-30" d="M 2034 4250 
Q 1547 4250 1301 3770 
Q 1056 3291 1056 2328 
Q 1056 1369 1301 889 
Q 1547 409 2034 409 
Q 2525 409 2770 889 
Q 3016 1369 3016 2328 
Q 3016 3291 2770 3770 
Q 2525 4250 2034 4250 
z
M 2034 4750 
Q 2819 4750 3233 4129 
Q 3647 3509 3647 2328 
Q 3647 1150 3233 529 
Q 2819 -91 2034 -91 
Q 1250 -91 836 529 
Q 422 1150 422 2328 
Q 422 3509 836 4129 
Q 1250 4750 2034 4750 
z
" transform="scale(0.015625)"/>
        <path id="DejaVuSans-34" d="M 2419 4116 
L 825 1625 
L 2419 1625 
L 2419 4116 
z
M 2253 4666 
L 3047 4666 
L 3047 1625 
L 3713 1625 
L 3713 1100 
L 3047 1100 
L 3047 0 
L 2419 0 
L 2419 1100 
L 313 1100 
L 313 1709 
L 2253 4666 
z
" transform="scale(0.015625)"/>
       </defs>
       <use xlink:href="#DejaVuSans-31" transform="translate(0 0.684375)"/>
       <use xlink:href="#DejaVuSans-30" transform="translate(63.623047 0.684375)"/>
       <use xlink:href="#DejaVuSans-34" transform="translate(128.203125 38.965625) scale(0.7)"/>
      </g>
     </g>
    </g>
    <g id="xtick_2">
     <g id="line2d_2">
      <g>
       <use xlink:href="#m1615fdaea3" x="343.364888" y="312.3655" style="stroke: #000000; stroke-width: 0.8"/>
      </g>
     </g>
     <g id="text_2">
      <!-- $\mathdefault{10^{5}}$ -->
      <g transform="translate(334.564888 326.963937) scale(0.1 -0.1)">
       <defs>
        <path id="DejaVuSans-35" d="M 691 4666 
L 3169 4666 
L 3169 4134 
L 1269 4134 
L 1269 2991 
Q 1406 3038 1543 3061 
Q 1681 3084 1819 3084 
Q 2600 3084 3056 2656 
Q 3513 2228 3513 1497 
Q 3513 744 3044 326 
Q 2575 -91 1722 -91 
Q 1428 -91 1123 -41 
Q 819 9 494 109 
L 494 744 
Q 775 591 1075 516 
Q 1375 441 1709 441 
Q 2250 441 2565 725 
Q 2881 1009 2881 1497 
Q 2881 1984 2565 2268 
Q 2250 2553 1709 2553 
Q 1456 2553 1204 2497 
Q 953 2441 691 2322 
L 691 4666 
z
" transform="scale(0.015625)"/>
       </defs>
       <use xlink:href="#DejaVuSans-31" transform="translate(0 0.684375)"/>
       <use xlink:href="#DejaVuSans-30" transform="translate(63.623047 0.684375)"/>
       <use xlink:href="#DejaVuSans-35" transform="translate(128.203125 38.965625) scale(0.7)"/>
      </g>
     </g>
    </g>
    <g id="xtick_3">
     <g id="line2d_3">
      <g>
       <use xlink:href="#m1615fdaea3" x="531.041717" y="312.3655" style="stroke: #000000; stroke-width: 0.8"/>
      </g>
     </g>
     <g id="text_3">
      <!-- $\mathdefault{10^{6}}$ -->
      <g transform="translate(522.241717 326.963937) scale(0.1 -0.1)">
       <defs>
        <path id="DejaVuSans-36" d="M 2113 2584 
Q 1688 2584 1439 2293 
Q 1191 2003 1191 1497 
Q 1191 994 1439 701 
Q 1688 409 2113 409 
Q 2538 409 2786 701 
Q 3034 994 3034 1497 
Q 3034 2003 2786 2293 
Q 2538 2584 2113 2584 
z
M 3366 4563 
L 3366 3988 
Q 3128 4100 2886 4159 
Q 2644 4219 2406 4219 
Q 1781 4219 1451 3797 
Q 1122 3375 1075 2522 
Q 1259 2794 1537 2939 
Q 1816 3084 2150 3084 
Q 2853 3084 3261 2657 
Q 3669 2231 3669 1497 
Q 3669 778 3244 343 
Q 2819 -91 2113 -91 
Q 1303 -91 875 529 
Q 447 1150 447 2328 
Q 447 3434 972 4092 
Q 1497 4750 2381 4750 
Q 2619 4750 2861 4703 
Q 3103 4656 3366 4563 
z
" transform="scale(0.015625)"/>
       </defs>
       <use xlink:href="#DejaVuSans-31" transform="translate(0 0.765625)"/>
       <use xlink:href="#DejaVuSans-30" transform="translate(63.623047 0.765625)"/>
       <use xlink:href="#DejaVuSans-36" transform="translate(128.203125 39.046875) scale(0.7)"/>
      </g>
     </g>
    </g>
    <g id="xtick_4">
     <g id="line2d_4">
      <defs>
       <path id="m12ac44c8fb" d="M 0 0 
L 0 2 
" style="stroke: #000000; stroke-width: 0.6"/>
      </defs>
      <g>
       <use xlink:href="#m12ac44c8fb" x="57.555835" y="312.3655" style="stroke: #000000; stroke-width: 0.6"/>
      </g>
     </g>
    </g>
    <g id="xtick_5">
     <g id="line2d_5">
      <g>
       <use xlink:href="#m12ac44c8fb" x="81.00394" y="312.3655" style="stroke: #000000; stroke-width: 0.6"/>
      </g>
     </g>
    </g>
    <g id="xtick_6">
     <g id="line2d_6">
      <g>
       <use xlink:href="#m12ac44c8fb" x="99.191704" y="312.3655" style="stroke: #000000; stroke-width: 0.6"/>
      </g>
     </g>
    </g>
    <g id="xtick_7">
     <g id="line2d_7">
      <g>
       <use xlink:href="#m12ac44c8fb" x="114.05219" y="312.3655" style="stroke: #000000; stroke-width: 0.6"/>
      </g>
     </g>
    </g>
    <g id="xtick_8">
     <g id="line2d_8">
      <g>
       <use xlink:href="#m12ac44c8fb" x="126.616551" y="312.3655" style="stroke: #000000; stroke-width: 0.6"/>
      </g>
     </g>
    </g>
    <g id="xtick_9">
     <g id="line2d_9">
      <g>
       <use xlink:href="#m12ac44c8fb" x="137.500295" y="312.3655" style="stroke: #000000; stroke-width: 0.6"/>
      </g>
     </g>
    </g>
    <g id="xtick_10">
     <g id="line2d_10">
      <g>
       <use xlink:href="#m12ac44c8fb" x="147.100439" y="312.3655" style="stroke: #000000; stroke-width: 0.6"/>
      </g>
     </g>
    </g>
    <g id="xtick_11">
     <g id="line2d_11">
      <g>
       <use xlink:href="#m12ac44c8fb" x="212.184414" y="312.3655" style="stroke: #000000; stroke-width: 0.6"/>
      </g>
     </g>
    </g>
    <g id="xtick_12">
     <g id="line2d_12">
      <g>
       <use xlink:href="#m12ac44c8fb" x="245.232664" y="312.3655" style="stroke: #000000; stroke-width: 0.6"/>
      </g>
     </g>
    </g>
    <g id="xtick_13">
     <g id="line2d_13">
      <g>
       <use xlink:href="#m12ac44c8fb" x="268.680769" y="312.3655" style="stroke: #000000; stroke-width: 0.6"/>
      </g>
     </g>
    </g>
    <g id="xtick_14">
     <g id="line2d_14">
      <g>
       <use xlink:href="#m12ac44c8fb" x="286.868533" y="312.3655" style="stroke: #000000; stroke-width: 0.6"/>
      </g>
     </g>
    </g>
    <g id="xtick_15">
     <g id="line2d_15">
      <g>
       <use xlink:href="#m12ac44c8fb" x="301.729019" y="312.3655" style="stroke: #000000; stroke-width: 0.6"/>
      </g>
     </g>
    </g>
    <g id="xtick_16">
     <g id="line2d_16">
      <g>
       <use xlink:href="#m12ac44c8fb" x="314.29338" y="312.3655" style="stroke: #000000; stroke-width: 0.6"/>
      </g>
     </g>
    </g>
    <g id="xtick_17">
     <g id="line2d_17">
      <g>
       <use xlink:href="#m12ac44c8fb" x="325.177124" y="312.3655" style="stroke: #000000; stroke-width: 0.6"/>
      </g>
     </g>
    </g>
    <g id="xtick_18">
     <g id="line2d_18">
      <g>
       <use xlink:href="#m12ac44c8fb" x="334.777268" y="312.3655" style="stroke: #000000; stroke-width: 0.6"/>
      </g>
     </g>
    </g>
    <g id="xtick_19">
     <g id="line2d_19">
      <g>
       <use xlink:href="#m12ac44c8fb" x="399.861243" y="312.3655" style="stroke: #000000; stroke-width: 0.6"/>
      </g>
     </g>
    </g>
    <g id="xtick_20">
     <g id="line2d_20">
      <g>
       <use xlink:href="#m12ac44c8fb" x="432.909493" y="312.3655" style="stroke: #000000; stroke-width: 0.6"/>
      </g>
     </g>
    </g>
    <g id="xtick_21">
     <g id="line2d_21">
      <g>
       <use xlink:href="#m12ac44c8fb" x="456.357598" y="312.3655" style="stroke: #000000; stroke-width: 0.6"/>
      </g>
     </g>
    </g>
    <g id="xtick_22">
     <g id="line2d_22">
      <g>
       <use xlink:href="#m12ac44c8fb" x="474.545362" y="312.3655" style="stroke: #000000; stroke-width: 0.6"/>
      </g>
     </g>
    </g>
    <g id="xtick_23">
     <g id="line2d_23">
      <g>
       <use xlink:href="#m12ac44c8fb" x="489.405848" y="312.3655" style="stroke: #000000; stroke-width: 0.6"/>
      </g>
     </g>
    </g>
    <g id="xtick_24">
     <g id="line2d_24">
      <g>
       <use xlink:href="#m12ac44c8fb" x="501.970209" y="312.3655" style="stroke: #000000; stroke-width: 0.6"/>
      </g>
     </g>
    </g>
    <g id="xtick_25">
     <g id="line2d_25">
      <g>
       <use xlink:href="#m12ac44c8fb" x="512.853953" y="312.3655" style="stroke: #000000; stroke-width: 0.6"/>
      </g>
     </g>
    </g>
    <g id="xtick_26">
     <g id="line2d_26">
      <g>
       <use xlink:href="#m12ac44c8fb" x="522.454097" y="312.3655" style="stroke: #000000; stroke-width: 0.6"/>
      </g>
     </g>
    </g>
    <g id="text_4">
     <!-- Interaction length $L_{int}$ (\lambda_eff) -->
     <g transform="translate(221.736027 340.643625) scale(0.1 -0.1)">
      <defs>
       <path id="DejaVuSans-49" d="M 628 4666 
L 1259 4666 
L 1259 0 
L 628 0 
L 628 4666 
z
" transform="scale(0.015625)"/>
       <path id="DejaVuSans-6e" d="M 3513 2113 
L 3513 0 
L 2938 0 
L 2938 2094 
Q 2938 2591 2744 2837 
Q 2550 3084 2163 3084 
Q 1697 3084 1428 2787 
Q 1159 2491 1159 1978 
L 1159 0 
L 581 0 
L 581 3500 
L 1159 3500 
L 1159 2956 
Q 1366 3272 1645 3428 
Q 1925 3584 2291 3584 
Q 2894 3584 3203 3211 
Q 3513 2838 3513 2113 
z
" transform="scale(0.015625)"/>
       <path id="DejaVuSans-74" d="M 1172 4494 
L 1172 3500 
L 2356 3500 
L 2356 3053 
L 1172 3053 
L 1172 1153 
Q 1172 725 1289 603 
Q 1406 481 1766 481 
L 2356 481 
L 2356 0 
L 1766 0 
Q 1100 0 847 248 
Q 594 497 594 1153 
L 594 3053 
L 172 3053 
L 172 3500 
L 594 3500 
L 594 4494 
L 1172 4494 
z
" transform="scale(0.015625)"/>
       <path id="DejaVuSans-65" d="M 3597 1894 
L 3597 1613 
L 953 1613 
Q 991 1019 1311 708 
Q 1631 397 2203 397 
Q 2534 397 2845 478 
Q 3156 559 3463 722 
L 3463 178 
Q 3153 47 2828 -22 
Q 2503 -91 2169 -91 
Q 1331 -91 842 396 
Q 353 884 353 1716 
Q 353 2575 817 3079 
Q 1281 3584 2069 3584 
Q 2775 3584 3186 3129 
Q 3597 2675 3597 1894 
z
M 3022 2063 
Q 3016 2534 2758 2815 
Q 2500 3097 2075 3097 
Q 1594 3097 1305 2825 
Q 1016 2553 972 2059 
L 3022 2063 
z
" transform="scale(0.015625)"/>
       <path id="DejaVuSans-72" d="M 2631 2963 
Q 2534 3019 2420 3045 
Q 2306 3072 2169 3072 
Q 1681 3072 1420 2755 
Q 1159 2438 1159 1844 
L 1159 0 
L 581 0 
L 581 3500 
L 1159 3500 
L 1159 2956 
Q 1341 3275 1631 3429 
Q 1922 3584 2338 3584 
Q 2397 3584 2469 3576 
Q 2541 3569 2628 3553 
L 2631 2963 
z
" transform="scale(0.015625)"/>
       <path id="DejaVuSans-61" d="M 2194 1759 
Q 1497 1759 1228 1600 
Q 959 1441 959 1056 
Q 959 750 1161 570 
Q 1363 391 1709 391 
Q 2188 391 2477 730 
Q 2766 1069 2766 1631 
L 2766 1759 
L 2194 1759 
z
M 3341 1997 
L 3341 0 
L 2766 0 
L 2766 531 
Q 2569 213 2275 61 
Q 1981 -91 1556 -91 
Q 1019 -91 701 211 
Q 384 513 384 1019 
Q 384 1609 779 1909 
Q 1175 2209 1959 2209 
L 2766 2209 
L 2766 2266 
Q 2766 2663 2505 2880 
Q 2244 3097 1772 3097 
Q 1472 3097 1187 3025 
Q 903 2953 641 2809 
L 641 3341 
Q 956 3463 1253 3523 
Q 1550 3584 1831 3584 
Q 2591 3584 2966 3190 
Q 3341 2797 3341 1997 
z
" transform="scale(0.015625)"/>
       <path id="DejaVuSans-63" d="M 3122 3366 
L 3122 2828 
Q 2878 2963 2633 3030 
Q 2388 3097 2138 3097 
Q 1578 3097 1268 2742 
Q 959 2388 959 1747 
Q 959 1106 1268 751 
Q 1578 397 2138 397 
Q 2388 397 2633 464 
Q 2878 531 3122 666 
L 3122 134 
Q 2881 22 2623 -34 
Q 2366 -91 2075 -91 
Q 1284 -91 818 406 
Q 353 903 353 1747 
Q 353 2603 823 3093 
Q 1294 3584 2113 3584 
Q 2378 3584 2631 3529 
Q 2884 3475 3122 3366 
z
" transform="scale(0.015625)"/>
       <path id="DejaVuSans-69" d="M 603 3500 
L 1178 3500 
L 1178 0 
L 603 0 
L 603 3500 
z
M 603 4863 
L 1178 4863 
L 1178 4134 
L 603 4134 
L 603 4863 
z
" transform="scale(0.015625)"/>
       <path id="DejaVuSans-6f" d="M 1959 3097 
Q 1497 3097 1228 2736 
Q 959 2375 959 1747 
Q 959 1119 1226 758 
Q 1494 397 1959 397 
Q 2419 397 2687 759 
Q 2956 1122 2956 1747 
Q 2956 2369 2687 2733 
Q 2419 3097 1959 3097 
z
M 1959 3584 
Q 2709 3584 3137 3096 
Q 3566 2609 3566 1747 
Q 3566 888 3137 398 
Q 2709 -91 1959 -91 
Q 1206 -91 779 398 
Q 353 888 353 1747 
Q 353 2609 779 3096 
Q 1206 3584 1959 3584 
z
" transform="scale(0.015625)"/>
       <path id="DejaVuSans-20" transform="scale(0.015625)"/>
       <path id="DejaVuSans-6c" d="M 603 4863 
L 1178 4863 
L 1178 0 
L 603 0 
L 603 4863 
z
" transform="scale(0.015625)"/>
       <path id="DejaVuSans-67" d="M 2906 1791 
Q 2906 2416 2648 2759 
Q 2391 3103 1925 3103 
Q 1463 3103 1205 2759 
Q 947 2416 947 1791 
Q 947 1169 1205 825 
Q 1463 481 1925 481 
Q 2391 481 2648 825 
Q 2906 1169 2906 1791 
z
M 3481 434 
Q 3481 -459 3084 -895 
Q 2688 -1331 1869 -1331 
Q 1566 -1331 1297 -1286 
Q 1028 -1241 775 -1147 
L 775 -588 
Q 1028 -725 1275 -790 
Q 1522 -856 1778 -856 
Q 2344 -856 2625 -561 
Q 2906 -266 2906 331 
L 2906 616 
Q 2728 306 2450 153 
Q 2172 0 1784 0 
Q 1141 0 747 490 
Q 353 981 353 1791 
Q 353 2603 747 3093 
Q 1141 3584 1784 3584 
Q 2172 3584 2450 3431 
Q 2728 3278 2906 2969 
L 2906 3500 
L 3481 3500 
L 3481 434 
z
" transform="scale(0.015625)"/>
       <path id="DejaVuSans-68" d="M 3513 2113 
L 3513 0 
L 2938 0 
L 2938 2094 
Q 2938 2591 2744 2837 
Q 2550 3084 2163 3084 
Q 1697 3084 1428 2787 
Q 1159 2491 1159 1978 
L 1159 0 
L 581 0 
L 581 4863 
L 1159 4863 
L 1159 2956 
Q 1366 3272 1645 3428 
Q 1925 3584 2291 3584 
Q 2894 3584 3203 3211 
Q 3513 2838 3513 2113 
z
" transform="scale(0.015625)"/>
       <path id="DejaVuSans-Oblique-4c" d="M 1075 4666 
L 1709 4666 
L 909 525 
L 3181 525 
L 3078 0 
L 172 0 
L 1075 4666 
z
" transform="scale(0.015625)"/>
       <path id="DejaVuSans-Oblique-69" d="M 1172 4863 
L 1747 4863 
L 1606 4134 
L 1031 4134 
L 1172 4863 
z
M 909 3500 
L 1484 3500 
L 800 0 
L 225 0 
L 909 3500 
z
" transform="scale(0.015625)"/>
       <path id="DejaVuSans-Oblique-6e" d="M 3566 2113 
L 3156 0 
L 2578 0 
L 2988 2091 
Q 3016 2238 3031 2350 
Q 3047 2463 3047 2528 
Q 3047 2791 2881 2937 
Q 2716 3084 2419 3084 
Q 1956 3084 1622 2776 
Q 1288 2469 1184 1941 
L 800 0 
L 225 0 
L 903 3500 
L 1478 3500 
L 1363 2950 
Q 1603 3253 1940 3418 
Q 2278 3584 2650 3584 
Q 3113 3584 3367 3334 
Q 3622 3084 3622 2631 
Q 3622 2519 3608 2391 
Q 3594 2263 3566 2113 
z
" transform="scale(0.015625)"/>
       <path id="DejaVuSans-Oblique-74" d="M 2706 3500 
L 2619 3053 
L 1472 3053 
L 1100 1153 
Q 1081 1047 1072 975 
Q 1063 903 1063 863 
Q 1063 663 1183 572 
Q 1303 481 1569 481 
L 2150 481 
L 2053 0 
L 1503 0 
Q 991 0 739 200 
Q 488 400 488 806 
Q 488 878 497 964 
Q 506 1050 525 1153 
L 897 3053 
L 409 3053 
L 500 3500 
L 978 3500 
L 1172 4494 
L 1747 4494 
L 1556 3500 
L 2706 3500 
z
" transform="scale(0.015625)"/>
       <path id="DejaVuSans-28" d="M 1984 4856 
Q 1566 4138 1362 3434 
Q 1159 2731 1159 2009 
Q 1159 1288 1364 580 
Q 1569 -128 1984 -844 
L 1484 -844 
Q 1016 -109 783 600 
Q 550 1309 550 2009 
Q 550 2706 781 3412 
Q 1013 4119 1484 4856 
L 1984 4856 
z
" transform="scale(0.015625)"/>
       <path id="DejaVuSans-5c" d="M 531 4666 
L 2156 -594 
L 1625 -594 
L 0 4666 
L 531 4666 
z
" transform="scale(0.015625)"/>
       <path id="DejaVuSans-6d" d="M 3328 2828 
Q 3544 3216 3844 3400 
Q 4144 3584 4550 3584 
Q 5097 3584 5394 3201 
Q 5691 2819 5691 2113 
L 5691 0 
L 5113 0 
L 5113 2094 
Q 5113 2597 4934 2840 
Q 4756 3084 4391 3084 
Q 3944 3084 3684 2787 
Q 3425 2491 3425 1978 
L 3425 0 
L 2847 0 
L 2847 2094 
Q 2847 2600 2669 2842 
Q 2491 3084 2119 3084 
Q 1678 3084 1418 2786 
Q 1159 2488 1159 1978 
L 1159 0 
L 581 0 
L 581 3500 
L 1159 3500 
L 1159 2956 
Q 1356 3278 1631 3431 
Q 1906 3584 2284 3584 
Q 2666 3584 2933 3390 
Q 3200 3197 3328 2828 
z
" transform="scale(0.015625)"/>
       <path id="DejaVuSans-62" d="M 3116 1747 
Q 3116 2381 2855 2742 
Q 2594 3103 2138 3103 
Q 1681 3103 1420 2742 
Q 1159 2381 1159 1747 
Q 1159 1113 1420 752 
Q 1681 391 2138 391 
Q 2594 391 2855 752 
Q 3116 1113 3116 1747 
z
M 1159 2969 
Q 1341 3281 1617 3432 
Q 1894 3584 2278 3584 
Q 2916 3584 3314 3078 
Q 3713 2572 3713 1747 
Q 3713 922 3314 415 
Q 2916 -91 2278 -91 
Q 1894 -91 1617 61 
Q 1341 213 1159 525 
L 1159 0 
L 581 0 
L 581 4863 
L 1159 4863 
L 1159 2969 
z
" transform="scale(0.015625)"/>
       <path id="DejaVuSans-64" d="M 2906 2969 
L 2906 4863 
L 3481 4863 
L 3481 0 
L 2906 0 
L 2906 525 
Q 2725 213 2448 61 
Q 2172 -91 1784 -91 
Q 1150 -91 751 415 
Q 353 922 353 1747 
Q 353 2572 751 3078 
Q 1150 3584 1784 3584 
Q 2172 3584 2448 3432 
Q 2725 3281 2906 2969 
z
M 947 1747 
Q 947 1113 1208 752 
Q 1469 391 1925 391 
Q 2381 391 2643 752 
Q 2906 1113 2906 1747 
Q 2906 2381 2643 2742 
Q 2381 3103 1925 3103 
Q 1469 3103 1208 2742 
Q 947 2381 947 1747 
z
" transform="scale(0.015625)"/>
       <path id="DejaVuSans-5f" d="M 3263 -1063 
L 3263 -1509 
L -63 -1509 
L -63 -1063 
L 3263 -1063 
z
" transform="scale(0.015625)"/>
       <path id="DejaVuSans-66" d="M 2375 4863 
L 2375 4384 
L 1825 4384 
Q 1516 4384 1395 4259 
Q 1275 4134 1275 3809 
L 1275 3500 
L 2222 3500 
L 2222 3053 
L 1275 3053 
L 1275 0 
L 697 0 
L 697 3053 
L 147 3053 
L 147 3500 
L 697 3500 
L 697 3744 
Q 697 4328 969 4595 
Q 1241 4863 1831 4863 
L 2375 4863 
z
" transform="scale(0.015625)"/>
       <path id="DejaVuSans-29" d="M 513 4856 
L 1013 4856 
Q 1481 4119 1714 3412 
Q 1947 2706 1947 2009 
Q 1947 1309 1714 600 
Q 1481 -109 1013 -844 
L 513 -844 
Q 928 -128 1133 580 
Q 1338 1288 1338 2009 
Q 1338 2731 1133 3434 
Q 928 4138 513 4856 
z
" transform="scale(0.015625)"/>
      </defs>
      <use xlink:href="#DejaVuSans-49" transform="translate(0 0.015625)"/>
      <use xlink:href="#DejaVuSans-6e" transform="translate(29.492188 0.015625)"/>
      <use xlink:href="#DejaVuSans-74" transform="translate(92.871094 0.015625)"/>
      <use xlink:href="#DejaVuSans-65" transform="translate(132.080078 0.015625)"/>
      <use xlink:href="#DejaVuSans-72" transform="translate(193.603516 0.015625)"/>
      <use xlink:href="#DejaVuSans-61" transform="translate(234.716797 0.015625)"/>
      <use xlink:href="#DejaVuSans-63" transform="translate(295.996094 0.015625)"/>
      <use xlink:href="#DejaVuSans-74" transform="translate(350.976562 0.015625)"/>
      <use xlink:href="#DejaVuSans-69" transform="translate(390.185547 0.015625)"/>
      <use xlink:href="#DejaVuSans-6f" transform="translate(417.96875 0.015625)"/>
      <use xlink:href="#DejaVuSans-6e" transform="translate(479.150391 0.015625)"/>
      <use xlink:href="#DejaVuSans-20" transform="translate(542.529297 0.015625)"/>
      <use xlink:href="#DejaVuSans-6c" transform="translate(574.316406 0.015625)"/>
      <use xlink:href="#DejaVuSans-65" transform="translate(602.099609 0.015625)"/>
      <use xlink:href="#DejaVuSans-6e" transform="translate(663.623047 0.015625)"/>
      <use xlink:href="#DejaVuSans-67" transform="translate(727.001953 0.015625)"/>
      <use xlink:href="#DejaVuSans-74" transform="translate(790.478516 0.015625)"/>
      <use xlink:href="#DejaVuSans-68" transform="translate(829.6875 0.015625)"/>
      <use xlink:href="#DejaVuSans-20" transform="translate(893.066406 0.015625)"/>
      <use xlink:href="#DejaVuSans-Oblique-4c" transform="translate(924.853516 0.015625)"/>
      <use xlink:href="#DejaVuSans-Oblique-69" transform="translate(980.566406 -16.390625) scale(0.7)"/>
      <use xlink:href="#DejaVuSans-Oblique-6e" transform="translate(1000.014648 -16.390625) scale(0.7)"/>
      <use xlink:href="#DejaVuSans-Oblique-74" transform="translate(1044.379883 -16.390625) scale(0.7)"/>
      <use xlink:href="#DejaVuSans-20" transform="translate(1074.560547 0.015625)"/>
      <use xlink:href="#DejaVuSans-28" transform="translate(1106.347656 0.015625)"/>
      <use xlink:href="#DejaVuSans-5c" transform="translate(1145.361328 0.015625)"/>
      <use xlink:href="#DejaVuSans-6c" transform="translate(1179.052734 0.015625)"/>
      <use xlink:href="#DejaVuSans-61" transform="translate(1206.835938 0.015625)"/>
      <use xlink:href="#DejaVuSans-6d" transform="translate(1268.115234 0.015625)"/>
      <use xlink:href="#DejaVuSans-62" transform="translate(1365.527344 0.015625)"/>
      <use xlink:href="#DejaVuSans-64" transform="translate(1429.003906 0.015625)"/>
      <use xlink:href="#DejaVuSans-61" transform="translate(1492.480469 0.015625)"/>
      <use xlink:href="#DejaVuSans-5f" transform="translate(1553.759766 0.015625)"/>
      <use xlink:href="#DejaVuSans-65" transform="translate(1603.759766 0.015625)"/>
      <use xlink:href="#DejaVuSans-66" transform="translate(1665.283203 0.015625)"/>
      <use xlink:href="#DejaVuSans-66" transform="translate(1700.488281 0.015625)"/>
      <use xlink:href="#DejaVuSans-29" transform="translate(1735.693359 0.015625)"/>
     </g>
    </g>
   </g>
   <g id="matplotlib.axis_2">
    <g id="ytick_1">
     <g id="line2d_27">
      <defs>
       <path id="m29ba02e675" d="M 0 0 
L -3.5 0 
" style="stroke: #000000; stroke-width: 0.8"/>
      </defs>
      <g>
       <use xlink:href="#m29ba02e675" x="55.772054" y="248.19184" style="stroke: #000000; stroke-width: 0.8"/>
      </g>
     </g>
     <g id="text_5">
      <!-- $\mathdefault{10^{-1}}$ -->
      <g transform="translate(25.272054 251.991059) scale(0.1 -0.1)">
       <defs>
        <path id="DejaVuSans-2212" d="M 678 2272 
L 4684 2272 
L 4684 1741 
L 678 1741 
L 678 2272 
z
" transform="scale(0.015625)"/>
       </defs>
       <use xlink:href="#DejaVuSans-31" transform="translate(0 0.684375)"/>
       <use xlink:href="#DejaVuSans-30" transform="translate(63.623047 0.684375)"/>
       <use xlink:href="#DejaVuSans-2212" transform="translate(128.203125 38.965625) scale(0.7)"/>
       <use xlink:href="#DejaVuSans-31" transform="translate(186.855469 38.965625) scale(0.7)"/>
      </g>
     </g>
    </g>
    <g id="ytick_2">
     <g id="line2d_28">
      <g>
       <use xlink:href="#m29ba02e675" x="55.772054" y="156.479515" style="stroke: #000000; stroke-width: 0.8"/>
      </g>
     </g>
     <g id="text_6">
      <!-- $\mathdefault{10^{0}}$ -->
      <g transform="translate(31.172054 160.278733) scale(0.1 -0.1)">
       <use xlink:href="#DejaVuSans-31" transform="translate(0 0.765625)"/>
       <use xlink:href="#DejaVuSans-30" transform="translate(63.623047 0.765625)"/>
       <use xlink:href="#DejaVuSans-30" transform="translate(128.203125 39.046875) scale(0.7)"/>
      </g>
     </g>
    </g>
    <g id="ytick_3">
     <g id="line2d_29">
      <g>
       <use xlink:href="#m29ba02e675" x="55.772054" y="64.76719" style="stroke: #000000; stroke-width: 0.8"/>
      </g>
     </g>
     <g id="text_7">
      <!-- $\mathdefault{10^{1}}$ -->
      <g transform="translate(31.172054 68.566408) scale(0.1 -0.1)">
       <use xlink:href="#DejaVuSans-31" transform="translate(0 0.684375)"/>
       <use xlink:href="#DejaVuSans-30" transform="translate(63.623047 0.684375)"/>
       <use xlink:href="#DejaVuSans-31" transform="translate(128.203125 38.965625) scale(0.7)"/>
      </g>
     </g>
    </g>
    <g id="ytick_4">
     <g id="line2d_30">
      <defs>
       <path id="m09e9efeece" d="M 0 0 
L -2 0 
" style="stroke: #000000; stroke-width: 0.6"/>
      </defs>
      <g>
       <use xlink:href="#m09e9efeece" x="55.772054" y="312.296004" style="stroke: #000000; stroke-width: 0.6"/>
      </g>
     </g>
    </g>
    <g id="ytick_5">
     <g id="line2d_31">
      <g>
       <use xlink:href="#m09e9efeece" x="55.772054" y="296.146265" style="stroke: #000000; stroke-width: 0.6"/>
      </g>
     </g>
    </g>
    <g id="ytick_6">
     <g id="line2d_32">
      <g>
       <use xlink:href="#m09e9efeece" x="55.772054" y="284.687843" style="stroke: #000000; stroke-width: 0.6"/>
      </g>
     </g>
    </g>
    <g id="ytick_7">
     <g id="line2d_33">
      <g>
       <use xlink:href="#m09e9efeece" x="55.772054" y="275.800001" style="stroke: #000000; stroke-width: 0.6"/>
      </g>
     </g>
    </g>
    <g id="ytick_8">
     <g id="line2d_34">
      <g>
       <use xlink:href="#m09e9efeece" x="55.772054" y="268.538104" style="stroke: #000000; stroke-width: 0.6"/>
      </g>
     </g>
    </g>
    <g id="ytick_9">
     <g id="line2d_35">
      <g>
       <use xlink:href="#m09e9efeece" x="55.772054" y="262.398259" style="stroke: #000000; stroke-width: 0.6"/>
      </g>
     </g>
    </g>
    <g id="ytick_10">
     <g id="line2d_36">
      <g>
       <use xlink:href="#m09e9efeece" x="55.772054" y="257.079682" style="stroke: #000000; stroke-width: 0.6"/>
      </g>
     </g>
    </g>
    <g id="ytick_11">
     <g id="line2d_37">
      <g>
       <use xlink:href="#m09e9efeece" x="55.772054" y="252.388366" style="stroke: #000000; stroke-width: 0.6"/>
      </g>
     </g>
    </g>
    <g id="ytick_12">
     <g id="line2d_38">
      <g>
       <use xlink:href="#m09e9efeece" x="55.772054" y="220.583679" style="stroke: #000000; stroke-width: 0.6"/>
      </g>
     </g>
    </g>
    <g id="ytick_13">
     <g id="line2d_39">
      <g>
       <use xlink:href="#m09e9efeece" x="55.772054" y="204.43394" style="stroke: #000000; stroke-width: 0.6"/>
      </g>
     </g>
    </g>
    <g id="ytick_14">
     <g id="line2d_40">
      <g>
       <use xlink:href="#m09e9efeece" x="55.772054" y="192.975518" style="stroke: #000000; stroke-width: 0.6"/>
      </g>
     </g>
    </g>
    <g id="ytick_15">
     <g id="line2d_41">
      <g>
       <use xlink:href="#m09e9efeece" x="55.772054" y="184.087676" style="stroke: #000000; stroke-width: 0.6"/>
      </g>
     </g>
    </g>
    <g id="ytick_16">
     <g id="line2d_42">
      <g>
       <use xlink:href="#m09e9efeece" x="55.772054" y="176.825779" style="stroke: #000000; stroke-width: 0.6"/>
      </g>
     </g>
    </g>
    <g id="ytick_17">
     <g id="line2d_43">
      <g>
       <use xlink:href="#m09e9efeece" x="55.772054" y="170.685934" style="stroke: #000000; stroke-width: 0.6"/>
      </g>
     </g>
    </g>
    <g id="ytick_18">
     <g id="line2d_44">
      <g>
       <use xlink:href="#m09e9efeece" x="55.772054" y="165.367357" style="stroke: #000000; stroke-width: 0.6"/>
      </g>
     </g>
    </g>
    <g id="ytick_19">
     <g id="line2d_45">
      <g>
       <use xlink:href="#m09e9efeece" x="55.772054" y="160.676041" style="stroke: #000000; stroke-width: 0.6"/>
      </g>
     </g>
    </g>
    <g id="ytick_20">
     <g id="line2d_46">
      <g>
       <use xlink:href="#m09e9efeece" x="55.772054" y="128.871354" style="stroke: #000000; stroke-width: 0.6"/>
      </g>
     </g>
    </g>
    <g id="ytick_21">
     <g id="line2d_47">
      <g>
       <use xlink:href="#m09e9efeece" x="55.772054" y="112.721615" style="stroke: #000000; stroke-width: 0.6"/>
      </g>
     </g>
    </g>
    <g id="ytick_22">
     <g id="line2d_48">
      <g>
       <use xlink:href="#m09e9efeece" x="55.772054" y="101.263193" style="stroke: #000000; stroke-width: 0.6"/>
      </g>
     </g>
    </g>
    <g id="ytick_23">
     <g id="line2d_49">
      <g>
       <use xlink:href="#m09e9efeece" x="55.772054" y="92.37535" style="stroke: #000000; stroke-width: 0.6"/>
      </g>
     </g>
    </g>
    <g id="ytick_24">
     <g id="line2d_50">
      <g>
       <use xlink:href="#m09e9efeece" x="55.772054" y="85.113454" style="stroke: #000000; stroke-width: 0.6"/>
      </g>
     </g>
    </g>
    <g id="ytick_25">
     <g id="line2d_51">
      <g>
       <use xlink:href="#m09e9efeece" x="55.772054" y="78.973608" style="stroke: #000000; stroke-width: 0.6"/>
      </g>
     </g>
    </g>
    <g id="ytick_26">
     <g id="line2d_52">
      <g>
       <use xlink:href="#m09e9efeece" x="55.772054" y="73.655032" style="stroke: #000000; stroke-width: 0.6"/>
      </g>
     </g>
    </g>
    <g id="ytick_27">
     <g id="line2d_53">
      <g>
       <use xlink:href="#m09e9efeece" x="55.772054" y="68.963715" style="stroke: #000000; stroke-width: 0.6"/>
      </g>
     </g>
    </g>
    <g id="ytick_28">
     <g id="line2d_54">
      <g>
       <use xlink:href="#m09e9efeece" x="55.772054" y="37.159029" style="stroke: #000000; stroke-width: 0.6"/>
      </g>
     </g>
    </g>
    <g id="text_8">
     <!-- Final width/initial width (eV) -->
     <g transform="translate(19.192366 240.028687) rotate(-90) scale(0.1 -0.1)">
      <defs>
       <path id="DejaVuSans-46" d="M 628 4666 
L 3309 4666 
L 3309 4134 
L 1259 4134 
L 1259 2759 
L 3109 2759 
L 3109 2228 
L 1259 2228 
L 1259 0 
L 628 0 
L 628 4666 
z
" transform="scale(0.015625)"/>
       <path id="DejaVuSans-77" d="M 269 3500 
L 844 3500 
L 1563 769 
L 2278 3500 
L 2956 3500 
L 3675 769 
L 4391 3500 
L 4966 3500 
L 4050 0 
L 3372 0 
L 2619 2869 
L 1863 0 
L 1184 0 
L 269 3500 
z
" transform="scale(0.015625)"/>
       <path id="DejaVuSans-2f" d="M 1625 4666 
L 2156 4666 
L 531 -594 
L 0 -594 
L 1625 4666 
z
" transform="scale(0.015625)"/>
       <path id="DejaVuSans-56" d="M 1831 0 
L 50 4666 
L 709 4666 
L 2188 738 
L 3669 4666 
L 4325 4666 
L 2547 0 
L 1831 0 
z
" transform="scale(0.015625)"/>
      </defs>
      <use xlink:href="#DejaVuSans-46"/>
      <use xlink:href="#DejaVuSans-69" transform="translate(50.269531 0)"/>
      <use xlink:href="#DejaVuSans-6e" transform="translate(78.052734 0)"/>
      <use xlink:href="#DejaVuSans-61" transform="translate(141.431641 0)"/>
      <use xlink:href="#DejaVuSans-6c" transform="translate(202.710938 0)"/>
      <use xlink:href="#DejaVuSans-20" transform="translate(230.494141 0)"/>
      <use xlink:href="#DejaVuSans-77" transform="translate(262.28125 0)"/>
      <use xlink:href="#DejaVuSans-69" transform="translate(344.068359 0)"/>
      <use xlink:href="#DejaVuSans-64" transform="translate(371.851562 0)"/>
      <use xlink:href="#DejaVuSans-74" transform="translate(435.328125 0)"/>
      <use xlink:href="#DejaVuSans-68" transform="translate(474.537109 0)"/>
      <use xlink:href="#DejaVuSans-2f" transform="translate(537.916016 0)"/>
      <use xlink:href="#DejaVuSans-69" transform="translate(571.607422 0)"/>
      <use xlink:href="#DejaVuSans-6e" transform="translate(599.390625 0)"/>
      <use xlink:href="#DejaVuSans-69" transform="translate(662.769531 0)"/>
      <use xlink:href="#DejaVuSans-74" transform="translate(690.552734 0)"/>
      <use xlink:href="#DejaVuSans-69" transform="translate(729.761719 0)"/>
      <use xlink:href="#DejaVuSans-61" transform="translate(757.544922 0)"/>
      <use xlink:href="#DejaVuSans-6c" transform="translate(818.824219 0)"/>
      <use xlink:href="#DejaVuSans-20" transform="translate(846.607422 0)"/>
      <use xlink:href="#DejaVuSans-77" transform="translate(878.394531 0)"/>
      <use xlink:href="#DejaVuSans-69" transform="translate(960.181641 0)"/>
      <use xlink:href="#DejaVuSans-64" transform="translate(987.964844 0)"/>
      <use xlink:href="#DejaVuSans-74" transform="translate(1051.441406 0)"/>
      <use xlink:href="#DejaVuSans-68" transform="translate(1090.650391 0)"/>
      <use xlink:href="#DejaVuSans-20" transform="translate(1154.029297 0)"/>
      <use xlink:href="#DejaVuSans-28" transform="translate(1185.816406 0)"/>
      <use xlink:href="#DejaVuSans-65" transform="translate(1224.830078 0)"/>
      <use xlink:href="#DejaVuSans-56" transform="translate(1286.353516 0)"/>
      <use xlink:href="#DejaVuSans-29" transform="translate(1354.761719 0)"/>
     </g>
    </g>
   </g>
   <g id="line2d_55">
    <path d="M 78.92787 41.231159 
L 106.170006 42.531093 
L 133.412142 45.153443 
L 160.654278 50.083491 
L 187.896414 58.118514 
L 215.13855 68.556118 
L 242.380687 79.640043 
L 269.622823 90.604551 
L 296.864959 100.865675 
L 324.107095 109.662892 
L 351.349231 116.970075 
L 378.591367 122.19167 
L 405.833503 125.586963 
L 433.07564 128.022754 
L 460.317776 129.484575 
L 487.559912 130.617262 
L 514.802048 131.195919 
L 542.044184 131.980775 
" clip-path="url(#p00f7ded469)" style="fill: none; stroke: #d62728; stroke-width: 1.5; stroke-linecap: square"/>
    <defs>
     <path id="m3d45e5af7b" d="M 0 1.5 
C 0.397805 1.5 0.77937 1.341951 1.06066 1.06066 
C 1.341951 0.77937 1.5 0.397805 1.5 0 
C 1.5 -0.397805 1.341951 -0.77937 1.06066 -1.06066 
C 0.77937 -1.341951 0.397805 -1.5 0 -1.5 
C -0.397805 -1.5 -0.77937 -1.341951 -1.06066 -1.06066 
C -1.341951 -0.77937 -1.5 -0.397805 -1.5 0 
C -1.5 0.397805 -1.341951 0.77937 -1.06066 1.06066 
C -0.77937 1.341951 -0.397805 1.5 0 1.5 
z
" style="stroke: #d62728"/>
    </defs>
    <g clip-path="url(#p00f7ded469)">
     <use xlink:href="#m3d45e5af7b" x="78.92787" y="41.231159" style="fill: #d62728; stroke: #d62728"/>
     <use xlink:href="#m3d45e5af7b" x="106.170006" y="42.531093" style="fill: #d62728; stroke: #d62728"/>
     <use xlink:href="#m3d45e5af7b" x="133.412142" y="45.153443" style="fill: #d62728; stroke: #d62728"/>
     <use xlink:href="#m3d45e5af7b" x="160.654278" y="50.083491" style="fill: #d62728; stroke: #d62728"/>
     <use xlink:href="#m3d45e5af7b" x="187.896414" y="58.118514" style="fill: #d62728; stroke: #d62728"/>
     <use xlink:href="#m3d45e5af7b" x="215.13855" y="68.556118" style="fill: #d62728; stroke: #d62728"/>
     <use xlink:href="#m3d45e5af7b" x="242.380687" y="79.640043" style="fill: #d62728; stroke: #d62728"/>
     <use xlink:href="#m3d45e5af7b" x="269.622823" y="90.604551" style="fill: #d62728; stroke: #d62728"/>
     <use xlink:href="#m3d45e5af7b" x="296.864959" y="100.865675" style="fill: #d62728; stroke: #d62728"/>
     <use xlink:href="#m3d45e5af7b" x="324.107095" y="109.662892" style="fill: #d62728; stroke: #d62728"/>
     <use xlink:href="#m3d45e5af7b" x="351.349231" y="116.970075" style="fill: #d62728; stroke: #d62728"/>
     <use xlink:href="#m3d45e5af7b" x="378.591367" y="122.19167" style="fill: #d62728; stroke: #d62728"/>
     <use xlink:href="#m3d45e5af7b" x="405.833503" y="125.586963" style="fill: #d62728; stroke: #d62728"/>
     <use xlink:href="#m3d45e5af7b" x="433.07564" y="128.022754" style="fill: #d62728; stroke: #d62728"/>
     <use xlink:href="#m3d45e5af7b" x="460.317776" y="129.484575" style="fill: #d62728; stroke: #d62728"/>
     <use xlink:href="#m3d45e5af7b" x="487.559912" y="130.617262" style="fill: #d62728; stroke: #d62728"/>
     <use xlink:href="#m3d45e5af7b" x="514.802048" y="131.195919" style="fill: #d62728; stroke: #d62728"/>
     <use xlink:href="#m3d45e5af7b" x="542.044184" y="131.980775" style="fill: #d62728; stroke: #d62728"/>
    </g>
   </g>
   <g id="line2d_56">
    <path d="M 78.92787 41.231159 
L 106.170006 42.573064 
L 133.412142 45.28808 
L 160.654278 50.568142 
L 187.896414 59.475237 
L 215.13855 71.396368 
L 242.380687 84.205094 
L 269.622823 96.97883 
L 296.864959 109.212829 
L 324.107095 120.970727 
L 351.349231 132.179429 
L 378.591367 142.84911 
L 405.833503 152.859003 
L 433.07564 161.413537 
L 460.317776 167.691922 
L 487.559912 171.780653 
L 514.802048 175.148587 
L 542.044184 176.945741 
" clip-path="url(#p00f7ded469)" style="fill: none; stroke: #2ca02c; stroke-width: 1.5; stroke-linecap: square"/>
    <defs>
     <path id="m75fe8a107b" d="M 0 1.5 
C 0.397805 1.5 0.77937 1.341951 1.06066 1.06066 
C 1.341951 0.77937 1.5 0.397805 1.5 0 
C 1.5 -0.397805 1.341951 -0.77937 1.06066 -1.06066 
C 0.77937 -1.341951 0.397805 -1.5 0 -1.5 
C -0.397805 -1.5 -0.77937 -1.341951 -1.06066 -1.06066 
C -1.341951 -0.77937 -1.5 -0.397805 -1.5 0 
C -1.5 0.397805 -1.341951 0.77937 -1.06066 1.06066 
C -0.77937 1.341951 -0.397805 1.5 0 1.5 
z
" style="stroke: #2ca02c"/>
    </defs>
    <g clip-path="url(#p00f7ded469)">
     <use xlink:href="#m75fe8a107b" x="78.92787" y="41.231159" style="fill: #2ca02c; stroke: #2ca02c"/>
     <use xlink:href="#m75fe8a107b" x="106.170006" y="42.573064" style="fill: #2ca02c; stroke: #2ca02c"/>
     <use xlink:href="#m75fe8a107b" x="133.412142" y="45.28808" style="fill: #2ca02c; stroke: #2ca02c"/>
     <use xlink:href="#m75fe8a107b" x="160.654278" y="50.568142" style="fill: #2ca02c; stroke: #2ca02c"/>
     <use xlink:href="#m75fe8a107b" x="187.896414" y="59.475237" style="fill: #2ca02c; stroke: #2ca02c"/>
     <use xlink:href="#m75fe8a107b" x="215.13855" y="71.396368" style="fill: #2ca02c; stroke: #2ca02c"/>
     <use xlink:href="#m75fe8a107b" x="242.380687" y="84.205094" style="fill: #2ca02c; stroke: #2ca02c"/>
     <use xlink:href="#m75fe8a107b" x="269.622823" y="96.97883" style="fill: #2ca02c; stroke: #2ca02c"/>
     <use xlink:href="#m75fe8a107b" x="296.864959" y="109.212829" style="fill: #2ca02c; stroke: #2ca02c"/>
     <use xlink:href="#m75fe8a107b" x="324.107095" y="120.970727" style="fill: #2ca02c; stroke: #2ca02c"/>
     <use xlink:href="#m75fe8a107b" x="351.349231" y="132.179429" style="fill: #2ca02c; stroke: #2ca02c"/>
     <use xlink:href="#m75fe8a107b" x="378.591367" y="142.84911" style="fill: #2ca02c; stroke: #2ca02c"/>
     <use xlink:href="#m75fe8a107b" x="405.833503" y="152.859003" style="fill: #2ca02c; stroke: #2ca02c"/>
     <use xlink:href="#m75fe8a107b" x="433.07564" y="161.413537" style="fill: #2ca02c; stroke: #2ca02c"/>
     <use xlink:href="#m75fe8a107b" x="460.317776" y="167.691922" style="fill: #2ca02c; stroke: #2ca02c"/>
     <use xlink:href="#m75fe8a107b" x="487.559912" y="171.780653" style="fill: #2ca02c; stroke: #2ca02c"/>
     <use xlink:href="#m75fe8a107b" x="514.802048" y="175.148587" style="fill: #2ca02c; stroke: #2ca02c"/>
     <use xlink:href="#m75fe8a107b" x="542.044184" y="176.945741" style="fill: #2ca02c; stroke: #2ca02c"/>
    </g>
   </g>
   <g id="line2d_57">
    <path d="M 78.92787 41.231159 
L 106.170006 42.573064 
L 133.412142 45.28808 
L 160.654278 50.619503 
L 187.896414 59.636037 
L 215.13855 71.700582 
L 242.380687 84.86744 
L 269.622823 98.063278 
L 296.864959 111.27941 
L 324.107095 124.422742 
L 351.349231 137.271053 
L 378.591367 149.645151 
L 405.833503 161.413537 
L 433.07564 173.429033 
L 460.317776 184.330381 
L 487.559912 195.300083 
L 514.802048 203.945796 
L 542.044184 210.490013 
" clip-path="url(#p00f7ded469)" style="fill: none; stroke: #ff7f0e; stroke-width: 1.5; stroke-linecap: square"/>
    <defs>
     <path id="me9e83aded7" d="M 0 1.5 
C 0.397805 1.5 0.77937 1.341951 1.06066 1.06066 
C 1.341951 0.77937 1.5 0.397805 1.5 0 
C 1.5 -0.397805 1.341951 -0.77937 1.06066 -1.06066 
C 0.77937 -1.341951 0.397805 -1.5 0 -1.5 
C -0.397805 -1.5 -0.77937 -1.341951 -1.06066 -1.06066 
C -1.341951 -0.77937 -1.5 -0.397805 -1.5 0 
C -1.5 0.397805 -1.341951 0.77937 -1.06066 1.06066 
C -0.77937 1.341951 -0.397805 1.5 0 1.5 
z
" style="stroke: #ff7f0e"/>
    </defs>
    <g clip-path="url(#p00f7ded469)">
     <use xlink:href="#me9e83aded7" x="78.92787" y="41.231159" style="fill: #ff7f0e; stroke: #ff7f0e"/>
     <use xlink:href="#me9e83aded7" x="106.170006" y="42.573064" style="fill: #ff7f0e; stroke: #ff7f0e"/>
     <use xlink:href="#me9e83aded7" x="133.412142" y="45.28808" style="fill: #ff7f0e; stroke: #ff7f0e"/>
     <use xlink:href="#me9e83aded7" x="160.654278" y="50.619503" style="fill: #ff7f0e; stroke: #ff7f0e"/>
     <use xlink:href="#me9e83aded7" x="187.896414" y="59.636037" style="fill: #ff7f0e; stroke: #ff7f0e"/>
     <use xlink:href="#me9e83aded7" x="215.13855" y="71.700582" style="fill: #ff7f0e; stroke: #ff7f0e"/>
     <use xlink:href="#me9e83aded7" x="242.380687" y="84.86744" style="fill: #ff7f0e; stroke: #ff7f0e"/>
     <use xlink:href="#me9e83aded7" x="269.622823" y="98.063278" style="fill: #ff7f0e; stroke: #ff7f0e"/>
     <use xlink:href="#me9e83aded7" x="296.864959" y="111.27941" style="fill: #ff7f0e; stroke: #ff7f0e"/>
     <use xlink:href="#me9e83aded7" x="324.107095" y="124.422742" style="fill: #ff7f0e; stroke: #ff7f0e"/>
     <use xlink:href="#me9e83aded7" x="351.349231" y="137.271053" style="fill: #ff7f0e; stroke: #ff7f0e"/>
     <use xlink:href="#me9e83aded7" x="378.591367" y="149.645151" style="fill: #ff7f0e; stroke: #ff7f0e"/>
     <use xlink:href="#me9e83aded7" x="405.833503" y="161.413537" style="fill: #ff7f0e; stroke: #ff7f0e"/>
     <use xlink:href="#me9e83aded7" x="433.07564" y="173.429033" style="fill: #ff7f0e; stroke: #ff7f0e"/>
     <use xlink:href="#me9e83aded7" x="460.317776" y="184.330381" style="fill: #ff7f0e; stroke: #ff7f0e"/>
     <use xlink:href="#me9e83aded7" x="487.559912" y="195.300083" style="fill: #ff7f0e; stroke: #ff7f0e"/>
     <use xlink:href="#me9e83aded7" x="514.802048" y="203.945796" style="fill: #ff7f0e; stroke: #ff7f0e"/>
     <use xlink:href="#me9e83aded7" x="542.044184" y="210.490013" style="fill: #ff7f0e; stroke: #ff7f0e"/>
    </g>
   </g>
   <g id="line2d_58">
    <path d="M 78.92787 41.231159 
L 106.170006 42.573064 
L 133.412142 45.28808 
L 160.654278 50.619503 
L 187.896414 59.636037 
L 215.13855 71.744232 
L 242.380687 84.928203 
L 269.622823 98.232768 
L 296.864959 111.63451 
L 324.107095 124.917533 
L 351.349231 138.418975 
L 378.591367 151.867329 
L 405.833503 165.33442 
L 433.07564 178.827831 
L 460.317776 191.592277 
L 487.559912 206.435992 
L 514.802048 218.325015 
L 542.044184 235.350177 
" clip-path="url(#p00f7ded469)" style="fill: none; stroke: #003366; stroke-width: 1.5; stroke-linecap: square"/>
    <defs>
     <path id="m1913e8a1a5" d="M 0 1.5 
C 0.397805 1.5 0.77937 1.341951 1.06066 1.06066 
C 1.341951 0.77937 1.5 0.397805 1.5 0 
C 1.5 -0.397805 1.341951 -0.77937 1.06066 -1.06066 
C 0.77937 -1.341951 0.397805 -1.5 0 -1.5 
C -0.397805 -1.5 -0.77937 -1.341951 -1.06066 -1.06066 
C -1.341951 -0.77937 -1.5 -0.397805 -1.5 0 
C -1.5 0.397805 -1.341951 0.77937 -1.06066 1.06066 
C -0.77937 1.341951 -0.397805 1.5 0 1.5 
z
" style="stroke: #003366"/>
    </defs>
    <g clip-path="url(#p00f7ded469)">
     <use xlink:href="#m1913e8a1a5" x="78.92787" y="41.231159" style="fill: #003366; stroke: #003366"/>
     <use xlink:href="#m1913e8a1a5" x="106.170006" y="42.573064" style="fill: #003366; stroke: #003366"/>
     <use xlink:href="#m1913e8a1a5" x="133.412142" y="45.28808" style="fill: #003366; stroke: #003366"/>
     <use xlink:href="#m1913e8a1a5" x="160.654278" y="50.619503" style="fill: #003366; stroke: #003366"/>
     <use xlink:href="#m1913e8a1a5" x="187.896414" y="59.636037" style="fill: #003366; stroke: #003366"/>
     <use xlink:href="#m1913e8a1a5" x="215.13855" y="71.744232" style="fill: #003366; stroke: #003366"/>
     <use xlink:href="#m1913e8a1a5" x="242.380687" y="84.928203" style="fill: #003366; stroke: #003366"/>
     <use xlink:href="#m1913e8a1a5" x="269.622823" y="98.232768" style="fill: #003366; stroke: #003366"/>
     <use xlink:href="#m1913e8a1a5" x="296.864959" y="111.63451" style="fill: #003366; stroke: #003366"/>
     <use xlink:href="#m1913e8a1a5" x="324.107095" y="124.917533" style="fill: #003366; stroke: #003366"/>
     <use xlink:href="#m1913e8a1a5" x="351.349231" y="138.418975" style="fill: #003366; stroke: #003366"/>
     <use xlink:href="#m1913e8a1a5" x="378.591367" y="151.867329" style="fill: #003366; stroke: #003366"/>
     <use xlink:href="#m1913e8a1a5" x="405.833503" y="165.33442" style="fill: #003366; stroke: #003366"/>
     <use xlink:href="#m1913e8a1a5" x="433.07564" y="178.827831" style="fill: #003366; stroke: #003366"/>
     <use xlink:href="#m1913e8a1a5" x="460.317776" y="191.592277" style="fill: #003366; stroke: #003366"/>
     <use xlink:href="#m1913e8a1a5" x="487.559912" y="206.435992" style="fill: #003366; stroke: #003366"/>
     <use xlink:href="#m1913e8a1a5" x="514.802048" y="218.325015" style="fill: #003366; stroke: #003366"/>
     <use xlink:href="#m1913e8a1a5" x="542.044184" y="235.350177" style="fill: #003366; stroke: #003366"/>
    </g>
   </g>
   <g id="line2d_59">
    <path d="M 78.92787 45.85402 
L 106.170006 50.954971 
L 133.412142 59.571639 
L 160.654278 71.787929 
L 187.896414 85.294741 
L 215.13855 98.918035 
L 242.380687 112.354352 
L 269.622823 125.925946 
L 296.864959 139.361745 
L 324.107095 152.859003 
L 351.349231 166.260745 
L 378.591367 179.47549 
L 405.833503 193.40305 
L 433.07564 206.435992 
L 460.317776 221.948435 
L 487.559912 235.350177 
L 514.802048 247.703696 
L 542.044184 265.706334 
" clip-path="url(#p00f7ded469)" style="fill: none; stroke: #0d57a1; stroke-width: 1.5; stroke-linecap: square"/>
    <defs>
     <path id="mf1d8ff81e1" d="M 0 1.25 
C 0.331504 1.25 0.649475 1.118292 0.883883 0.883883 
C 1.118292 0.649475 1.25 0.331504 1.25 0 
C 1.25 -0.331504 1.118292 -0.649475 0.883883 -0.883883 
C 0.649475 -1.118292 0.331504 -1.25 0 -1.25 
C -0.331504 -1.25 -0.649475 -1.118292 -0.883883 -0.883883 
C -1.118292 -0.649475 -1.25 -0.331504 -1.25 0 
C -1.25 0.331504 -1.118292 0.649475 -0.883883 0.883883 
C -0.649475 1.118292 -0.331504 1.25 0 1.25 
z
" style="stroke: #0d57a1"/>
    </defs>
    <g clip-path="url(#p00f7ded469)">
     <use xlink:href="#mf1d8ff81e1" x="78.92787" y="45.85402" style="fill: #0d57a1; stroke: #0d57a1"/>
     <use xlink:href="#mf1d8ff81e1" x="106.170006" y="50.954971" style="fill: #0d57a1; stroke: #0d57a1"/>
     <use xlink:href="#mf1d8ff81e1" x="133.412142" y="59.571639" style="fill: #0d57a1; stroke: #0d57a1"/>
     <use xlink:href="#mf1d8ff81e1" x="160.654278" y="71.787929" style="fill: #0d57a1; stroke: #0d57a1"/>
     <use xlink:href="#mf1d8ff81e1" x="187.896414" y="85.294741" style="fill: #0d57a1; stroke: #0d57a1"/>
     <use xlink:href="#mf1d8ff81e1" x="215.13855" y="98.918035" style="fill: #0d57a1; stroke: #0d57a1"/>
     <use xlink:href="#mf1d8ff81e1" x="242.380687" y="112.354352" style="fill: #0d57a1; stroke: #0d57a1"/>
     <use xlink:href="#mf1d8ff81e1" x="269.622823" y="125.925946" style="fill: #0d57a1; stroke: #0d57a1"/>
     <use xlink:href="#mf1d8ff81e1" x="296.864959" y="139.361745" style="fill: #0d57a1; stroke: #0d57a1"/>
     <use xlink:href="#mf1d8ff81e1" x="324.107095" y="152.859003" style="fill: #0d57a1; stroke: #0d57a1"/>
     <use xlink:href="#mf1d8ff81e1" x="351.349231" y="166.260745" style="fill: #0d57a1; stroke: #0d57a1"/>
     <use xlink:href="#mf1d8ff81e1" x="378.591367" y="179.47549" style="fill: #0d57a1; stroke: #0d57a1"/>
     <use xlink:href="#mf1d8ff81e1" x="405.833503" y="193.40305" style="fill: #0d57a1; stroke: #0d57a1"/>
     <use xlink:href="#mf1d8ff81e1" x="433.07564" y="206.435992" style="fill: #0d57a1; stroke: #0d57a1"/>
     <use xlink:href="#mf1d8ff81e1" x="460.317776" y="221.948435" style="fill: #0d57a1; stroke: #0d57a1"/>
     <use xlink:href="#mf1d8ff81e1" x="487.559912" y="235.350177" style="fill: #0d57a1; stroke: #0d57a1"/>
     <use xlink:href="#mf1d8ff81e1" x="514.802048" y="247.703696" style="fill: #0d57a1; stroke: #0d57a1"/>
     <use xlink:href="#mf1d8ff81e1" x="542.044184" y="265.706334" style="fill: #0d57a1; stroke: #0d57a1"/>
    </g>
   </g>
   <g id="line2d_60">
    <path d="M 78.92787 52.031882 
L 106.170006 60.351374 
L 133.412142 73.031335 
L 160.654278 87.3087 
L 187.896414 101.321925 
L 215.13855 114.981468 
L 242.380687 128.564669 
L 269.622823 141.821178 
L 296.864959 155.273691 
L 324.107095 169.176448 
L 351.349231 182.881852 
L 378.591367 196.283594 
L 405.833503 209.09232 
L 433.07564 221.948435 
L 460.317776 235.350177 
L 487.559912 255.696441 
L 514.802048 265.706334 
L 542.044184 279.108076 
" clip-path="url(#p00f7ded469)" style="fill: none; stroke: #63a8d3; stroke-width: 1.5; stroke-linecap: square"/>
    <defs>
     <path id="m64c0b050f5" d="M 0 1.25 
C 0.331504 1.25 0.649475 1.118292 0.883883 0.883883 
C 1.118292 0.649475 1.25 0.331504 1.25 0 
C 1.25 -0.331504 1.118292 -0.649475 0.883883 -0.883883 
C 0.649475 -1.118292 0.331504 -1.25 0 -1.25 
C -0.331504 -1.25 -0.649475 -1.118292 -0.883883 -0.883883 
C -1.118292 -0.649475 -1.25 -0.331504 -1.25 0 
C -1.25 0.331504 -1.118292 0.649475 -0.883883 0.883883 
C -0.649475 1.118292 -0.331504 1.25 0 1.25 
z
" style="stroke: #63a8d3"/>
    </defs>
    <g clip-path="url(#p00f7ded469)">
     <use xlink:href="#m64c0b050f5" x="78.92787" y="52.031882" style="fill: #63a8d3; stroke: #63a8d3"/>
     <use xlink:href="#m64c0b050f5" x="106.170006" y="60.351374" style="fill: #63a8d3; stroke: #63a8d3"/>
     <use xlink:href="#m64c0b050f5" x="133.412142" y="73.031335" style="fill: #63a8d3; stroke: #63a8d3"/>
     <use xlink:href="#m64c0b050f5" x="160.654278" y="87.3087" style="fill: #63a8d3; stroke: #63a8d3"/>
     <use xlink:href="#m64c0b050f5" x="187.896414" y="101.321925" style="fill: #63a8d3; stroke: #63a8d3"/>
     <use xlink:href="#m64c0b050f5" x="215.13855" y="114.981468" style="fill: #63a8d3; stroke: #63a8d3"/>
     <use xlink:href="#m64c0b050f5" x="242.380687" y="128.564669" style="fill: #63a8d3; stroke: #63a8d3"/>
     <use xlink:href="#m64c0b050f5" x="269.622823" y="141.821178" style="fill: #63a8d3; stroke: #63a8d3"/>
     <use xlink:href="#m64c0b050f5" x="296.864959" y="155.273691" style="fill: #63a8d3; stroke: #63a8d3"/>
     <use xlink:href="#m64c0b050f5" x="324.107095" y="169.176448" style="fill: #63a8d3; stroke: #63a8d3"/>
     <use xlink:href="#m64c0b050f5" x="351.349231" y="182.881852" style="fill: #63a8d3; stroke: #63a8d3"/>
     <use xlink:href="#m64c0b050f5" x="378.591367" y="196.283594" style="fill: #63a8d3; stroke: #63a8d3"/>
     <use xlink:href="#m64c0b050f5" x="405.833503" y="209.09232" style="fill: #63a8d3; stroke: #63a8d3"/>
     <use xlink:href="#m64c0b050f5" x="433.07564" y="221.948435" style="fill: #63a8d3; stroke: #63a8d3"/>
     <use xlink:href="#m64c0b050f5" x="460.317776" y="235.350177" style="fill: #63a8d3; stroke: #63a8d3"/>
     <use xlink:href="#m64c0b050f5" x="487.559912" y="255.696441" style="fill: #63a8d3; stroke: #63a8d3"/>
     <use xlink:href="#m64c0b050f5" x="514.802048" y="265.706334" style="fill: #63a8d3; stroke: #63a8d3"/>
     <use xlink:href="#m64c0b050f5" x="542.044184" y="279.108076" style="fill: #63a8d3; stroke: #63a8d3"/>
    </g>
   </g>
   <g id="line2d_61">
    <path d="M 78.92787 57.168308 
L 106.170006 68.314966 
L 133.412142 83.612372 
L 160.654278 98.488364 
L 187.896414 112.59722 
L 215.13855 126.267837 
L 242.380687 139.841632 
L 269.622823 153.195124 
L 296.864959 166.732113 
L 324.107095 180.133855 
L 351.349231 194.340274 
L 378.591367 207.742016 
L 405.833503 221.948435 
L 433.07564 235.350177 
L 460.317776 247.703696 
L 487.559912 265.706334 
L 514.802048 279.108076 
L 542.044184 299.454341 
" clip-path="url(#p00f7ded469)" style="fill: none; stroke: #d0e1f2; stroke-width: 1.5; stroke-linecap: square"/>
    <defs>
     <path id="m542db22d2f" d="M 0 1.25 
C 0.331504 1.25 0.649475 1.118292 0.883883 0.883883 
C 1.118292 0.649475 1.25 0.331504 1.25 0 
C 1.25 -0.331504 1.118292 -0.649475 0.883883 -0.883883 
C 0.649475 -1.118292 0.331504 -1.25 0 -1.25 
C -0.331504 -1.25 -0.649475 -1.118292 -0.883883 -0.883883 
C -1.118292 -0.649475 -1.25 -0.331504 -1.25 0 
C -1.25 0.331504 -1.118292 0.649475 -0.883883 0.883883 
C -0.649475 1.118292 -0.331504 1.25 0 1.25 
z
" style="stroke: #d0e1f2"/>
    </defs>
    <g clip-path="url(#p00f7ded469)">
     <use xlink:href="#m542db22d2f" x="78.92787" y="57.168308" style="fill: #d0e1f2; stroke: #d0e1f2"/>
     <use xlink:href="#m542db22d2f" x="106.170006" y="68.314966" style="fill: #d0e1f2; stroke: #d0e1f2"/>
     <use xlink:href="#m542db22d2f" x="133.412142" y="83.612372" style="fill: #d0e1f2; stroke: #d0e1f2"/>
     <use xlink:href="#m542db22d2f" x="160.654278" y="98.488364" style="fill: #d0e1f2; stroke: #d0e1f2"/>
     <use xlink:href="#m542db22d2f" x="187.896414" y="112.59722" style="fill: #d0e1f2; stroke: #d0e1f2"/>
     <use xlink:href="#m542db22d2f" x="215.13855" y="126.267837" style="fill: #d0e1f2; stroke: #d0e1f2"/>
     <use xlink:href="#m542db22d2f" x="242.380687" y="139.841632" style="fill: #d0e1f2; stroke: #d0e1f2"/>
     <use xlink:href="#m542db22d2f" x="269.622823" y="153.195124" style="fill: #d0e1f2; stroke: #d0e1f2"/>
     <use xlink:href="#m542db22d2f" x="296.864959" y="166.732113" style="fill: #d0e1f2; stroke: #d0e1f2"/>
     <use xlink:href="#m542db22d2f" x="324.107095" y="180.133855" style="fill: #d0e1f2; stroke: #d0e1f2"/>
     <use xlink:href="#m542db22d2f" x="351.349231" y="194.340274" style="fill: #d0e1f2; stroke: #d0e1f2"/>
     <use xlink:href="#m542db22d2f" x="378.591367" y="207.742016" style="fill: #d0e1f2; stroke: #d0e1f2"/>
     <use xlink:href="#m542db22d2f" x="405.833503" y="221.948435" style="fill: #d0e1f2; stroke: #d0e1f2"/>
     <use xlink:href="#m542db22d2f" x="433.07564" y="235.350177" style="fill: #d0e1f2; stroke: #d0e1f2"/>
     <use xlink:href="#m542db22d2f" x="460.317776" y="247.703696" style="fill: #d0e1f2; stroke: #d0e1f2"/>
     <use xlink:href="#m542db22d2f" x="487.559912" y="265.706334" style="fill: #d0e1f2; stroke: #d0e1f2"/>
     <use xlink:href="#m542db22d2f" x="514.802048" y="279.108076" style="fill: #d0e1f2; stroke: #d0e1f2"/>
     <use xlink:href="#m542db22d2f" x="542.044184" y="299.454341" style="fill: #d0e1f2; stroke: #d0e1f2"/>
    </g>
   </g>
   <g id="line2d_62">
    <path d="M 135.424225 312.3655 
L 135.424225 28.32 
" clip-path="url(#p00f7ded469)" style="fill: none; stroke-dasharray: 5.55,2.4; stroke-dashoffset: 0; stroke: #000000; stroke-width: 1.5"/>
   </g>
   <g id="line2d_63">
    <path d="M 55.772054 156.479515 
L 565.2 156.479515 
" clip-path="url(#p00f7ded469)" style="fill: none; stroke-dasharray: 5.55,2.4; stroke-dashoffset: 0; stroke: #000000; stroke-width: 1.5"/>
   </g>
   <g id="patch_3">
    <path d="M 55.772054 312.3655 
L 55.772054 28.32 
" style="fill: none; stroke: #000000; stroke-width: 0.8; stroke-linejoin: miter; stroke-linecap: square"/>
   </g>
   <g id="patch_4">
    <path d="M 565.2 312.3655 
L 565.2 28.32 
" style="fill: none; stroke: #000000; stroke-width: 0.8; stroke-linejoin: miter; stroke-linecap: square"/>
   </g>
   <g id="patch_5">
    <path d="M 55.772054 312.3655 
L 565.2 312.3655 
" style="fill: none; stroke: #000000; stroke-width: 0.8; stroke-linejoin: miter; stroke-linecap: square"/>
   </g>
   <g id="patch_6">
    <path d="M 55.772054 28.32 
L 565.2 28.32 
" style="fill: none; stroke: #000000; stroke-width: 0.8; stroke-linejoin: miter; stroke-linecap: square"/>
   </g>
   <g id="text_9">
    <!-- Width vs $L_{int}$ for different initial widths $\sigma_E$ -->
    <g transform="translate(187.126027 22.32) scale(0.12 -0.12)">
     <defs>
      <path id="DejaVuSans-57" d="M 213 4666 
L 850 4666 
L 1831 722 
L 2809 4666 
L 3519 4666 
L 4500 722 
L 5478 4666 
L 6119 4666 
L 4947 0 
L 4153 0 
L 3169 4050 
L 2175 0 
L 1381 0 
L 213 4666 
z
" transform="scale(0.015625)"/>
      <path id="DejaVuSans-76" d="M 191 3500 
L 800 3500 
L 1894 563 
L 2988 3500 
L 3597 3500 
L 2284 0 
L 1503 0 
L 191 3500 
z
" transform="scale(0.015625)"/>
      <path id="DejaVuSans-73" d="M 2834 3397 
L 2834 2853 
Q 2591 2978 2328 3040 
Q 2066 3103 1784 3103 
Q 1356 3103 1142 2972 
Q 928 2841 928 2578 
Q 928 2378 1081 2264 
Q 1234 2150 1697 2047 
L 1894 2003 
Q 2506 1872 2764 1633 
Q 3022 1394 3022 966 
Q 3022 478 2636 193 
Q 2250 -91 1575 -91 
Q 1294 -91 989 -36 
Q 684 19 347 128 
L 347 722 
Q 666 556 975 473 
Q 1284 391 1588 391 
Q 1994 391 2212 530 
Q 2431 669 2431 922 
Q 2431 1156 2273 1281 
Q 2116 1406 1581 1522 
L 1381 1569 
Q 847 1681 609 1914 
Q 372 2147 372 2553 
Q 372 3047 722 3315 
Q 1072 3584 1716 3584 
Q 2034 3584 2315 3537 
Q 2597 3491 2834 3397 
z
" transform="scale(0.015625)"/>
      <path id="DejaVuSans-Oblique-3c3" d="M 2219 3044 
Q 1744 3044 1422 2700 
Q 1081 2341 969 1747 
Q 844 1119 1044 756 
Q 1241 397 1706 397 
Q 2166 397 2503 759 
Q 2844 1122 2966 1747 
Q 3075 2319 2881 2700 
Q 2700 3044 2219 3044 
z
M 2309 3503 
L 4219 3500 
L 4106 2925 
L 3463 2925 
Q 3706 2438 3575 1747 
Q 3406 888 2884 400 
Q 2359 -91 1609 -91 
Q 856 -91 525 400 
Q 194 888 363 1747 
Q 528 2609 1050 3097 
Q 1484 3503 2309 3503 
z
" transform="scale(0.015625)"/>
      <path id="DejaVuSans-Oblique-45" d="M 1081 4666 
L 4031 4666 
L 3928 4134 
L 1606 4134 
L 1338 2753 
L 3566 2753 
L 3463 2222 
L 1234 2222 
L 909 531 
L 3284 531 
L 3181 0 
L 172 0 
L 1081 4666 
z
" transform="scale(0.015625)"/>
     </defs>
     <use xlink:href="#DejaVuSans-57" transform="translate(0 0.015625)"/>
     <use xlink:href="#DejaVuSans-69" transform="translate(98.876953 0.015625)"/>
     <use xlink:href="#DejaVuSans-64" transform="translate(126.660156 0.015625)"/>
     <use xlink:href="#DejaVuSans-74" transform="translate(190.136719 0.015625)"/>
     <use xlink:href="#DejaVuSans-68" transform="translate(229.345703 0.015625)"/>
     <use xlink:href="#DejaVuSans-20" transform="translate(292.724609 0.015625)"/>
     <use xlink:href="#DejaVuSans-76" transform="translate(324.511719 0.015625)"/>
     <use xlink:href="#DejaVuSans-73" transform="translate(383.691406 0.015625)"/>
     <use xlink:href="#DejaVuSans-20" transform="translate(435.791016 0.015625)"/>
     <use xlink:href="#DejaVuSans-Oblique-4c" transform="translate(467.578125 0.015625)"/>
     <use xlink:href="#DejaVuSans-Oblique-69" transform="translate(523.291016 -16.390625) scale(0.7)"/>
     <use xlink:href="#DejaVuSans-Oblique-6e" transform="translate(542.739258 -16.390625) scale(0.7)"/>
     <use xlink:href="#DejaVuSans-Oblique-74" transform="translate(587.104492 -16.390625) scale(0.7)"/>
     <use xlink:href="#DejaVuSans-20" transform="translate(617.285156 0.015625)"/>
     <use xlink:href="#DejaVuSans-66" transform="translate(649.072266 0.015625)"/>
     <use xlink:href="#DejaVuSans-6f" transform="translate(684.277344 0.015625)"/>
     <use xlink:href="#DejaVuSans-72" transform="translate(745.458984 0.015625)"/>
     <use xlink:href="#DejaVuSans-20" transform="translate(786.572266 0.015625)"/>
     <use xlink:href="#DejaVuSans-64" transform="translate(818.359375 0.015625)"/>
     <use xlink:href="#DejaVuSans-69" transform="translate(881.835938 0.015625)"/>
     <use xlink:href="#DejaVuSans-66" transform="translate(909.619141 0.015625)"/>
     <use xlink:href="#DejaVuSans-66" transform="translate(944.824219 0.015625)"/>
     <use xlink:href="#DejaVuSans-65" transform="translate(980.029297 0.015625)"/>
     <use xlink:href="#DejaVuSans-72" transform="translate(1041.552734 0.015625)"/>
     <use xlink:href="#DejaVuSans-65" transform="translate(1082.666016 0.015625)"/>
     <use xlink:href="#DejaVuSans-6e" transform="translate(1144.189453 0.015625)"/>
     <use xlink:href="#DejaVuSans-74" transform="translate(1207.568359 0.015625)"/>
     <use xlink:href="#DejaVuSans-20" transform="translate(1246.777344 0.015625)"/>
     <use xlink:href="#DejaVuSans-69" transform="translate(1278.564453 0.015625)"/>
     <use xlink:href="#DejaVuSans-6e" transform="translate(1306.347656 0.015625)"/>
     <use xlink:href="#DejaVuSans-69" transform="translate(1369.726562 0.015625)"/>
     <use xlink:href="#DejaVuSans-74" transform="translate(1397.509766 0.015625)"/>
     <use xlink:href="#DejaVuSans-69" transform="translate(1436.71875 0.015625)"/>
     <use xlink:href="#DejaVuSans-61" transform="translate(1464.501953 0.015625)"/>
     <use xlink:href="#DejaVuSans-6c" transform="translate(1525.78125 0.015625)"/>
     <use xlink:href="#DejaVuSans-20" transform="translate(1553.564453 0.015625)"/>
     <use xlink:href="#DejaVuSans-77" transform="translate(1585.351562 0.015625)"/>
     <use xlink:href="#DejaVuSans-69" transform="translate(1667.138672 0.015625)"/>
     <use xlink:href="#DejaVuSans-64" transform="translate(1694.921875 0.015625)"/>
     <use xlink:href="#DejaVuSans-74" transform="translate(1758.398438 0.015625)"/>
     <use xlink:href="#DejaVuSans-68" transform="translate(1797.607422 0.015625)"/>
     <use xlink:href="#DejaVuSans-73" transform="translate(1860.986328 0.015625)"/>
     <use xlink:href="#DejaVuSans-20" transform="translate(1913.085938 0.015625)"/>
     <use xlink:href="#DejaVuSans-Oblique-3c3" transform="translate(1944.873047 0.015625)"/>
     <use xlink:href="#DejaVuSans-Oblique-45" transform="translate(2008.251953 -16.390625) scale(0.7)"/>
    </g>
   </g>
   <g id="legend_1">
    <g id="patch_7">
     <path d="M 62.772054 307.3655 
L 148.854866 307.3655 
Q 150.854866 307.3655 150.854866 305.3655 
L 150.854866 188.9405 
Q 150.854866 186.9405 148.854866 186.9405 
L 62.772054 186.9405 
Q 60.772054 186.9405 60.772054 188.9405 
L 60.772054 305.3655 
Q 60.772054 307.3655 62.772054 307.3655 
z
" style="fill: #ffffff; opacity: 0.8; stroke: #cccccc; stroke-linejoin: miter"/>
    </g>
    <g id="line2d_64">
     <path d="M 64.772054 195.038938 
L 74.772054 195.038938 
L 84.772054 195.038938 
" style="fill: none; stroke: #d62728; stroke-width: 1.5; stroke-linecap: square"/>
     <g>
      <use xlink:href="#m3d45e5af7b" x="74.772054" y="195.038938" style="fill: #d62728; stroke: #d62728"/>
     </g>
    </g>
    <g id="text_10">
     <!-- 100 dB/cm -->
     <g transform="translate(92.772054 198.538938) scale(0.1 -0.1)">
      <defs>
       <path id="DejaVuSans-42" d="M 1259 2228 
L 1259 519 
L 2272 519 
Q 2781 519 3026 730 
Q 3272 941 3272 1375 
Q 3272 1813 3026 2020 
Q 2781 2228 2272 2228 
L 1259 2228 
z
M 1259 4147 
L 1259 2741 
L 2194 2741 
Q 2656 2741 2882 2914 
Q 3109 3088 3109 3444 
Q 3109 3797 2882 3972 
Q 2656 4147 2194 4147 
L 1259 4147 
z
M 628 4666 
L 2241 4666 
Q 2963 4666 3353 4366 
Q 3744 4066 3744 3513 
Q 3744 3084 3544 2831 
Q 3344 2578 2956 2516 
Q 3422 2416 3680 2098 
Q 3938 1781 3938 1306 
Q 3938 681 3513 340 
Q 3088 0 2303 0 
L 628 0 
L 628 4666 
z
" transform="scale(0.015625)"/>
      </defs>
      <use xlink:href="#DejaVuSans-31"/>
      <use xlink:href="#DejaVuSans-30" transform="translate(63.623047 0)"/>
      <use xlink:href="#DejaVuSans-30" transform="translate(127.246094 0)"/>
      <use xlink:href="#DejaVuSans-20" transform="translate(190.869141 0)"/>
      <use xlink:href="#DejaVuSans-64" transform="translate(222.65625 0)"/>
      <use xlink:href="#DejaVuSans-42" transform="translate(286.132812 0)"/>
      <use xlink:href="#DejaVuSans-2f" transform="translate(354.736328 0)"/>
      <use xlink:href="#DejaVuSans-63" transform="translate(388.427734 0)"/>
      <use xlink:href="#DejaVuSans-6d" transform="translate(443.408203 0)"/>
     </g>
    </g>
    <g id="line2d_65">
     <path d="M 64.772054 209.717063 
L 74.772054 209.717063 
L 84.772054 209.717063 
" style="fill: none; stroke: #2ca02c; stroke-width: 1.5; stroke-linecap: square"/>
     <g>
      <use xlink:href="#m75fe8a107b" x="74.772054" y="209.717063" style="fill: #2ca02c; stroke: #2ca02c"/>
     </g>
    </g>
    <g id="text_11">
     <!-- 30 dB/cm -->
     <g transform="translate(92.772054 213.217063) scale(0.1 -0.1)">
      <defs>
       <path id="DejaVuSans-33" d="M 2597 2516 
Q 3050 2419 3304 2112 
Q 3559 1806 3559 1356 
Q 3559 666 3084 287 
Q 2609 -91 1734 -91 
Q 1441 -91 1130 -33 
Q 819 25 488 141 
L 488 750 
Q 750 597 1062 519 
Q 1375 441 1716 441 
Q 2309 441 2620 675 
Q 2931 909 2931 1356 
Q 2931 1769 2642 2001 
Q 2353 2234 1838 2234 
L 1294 2234 
L 1294 2753 
L 1863 2753 
Q 2328 2753 2575 2939 
Q 2822 3125 2822 3475 
Q 2822 3834 2567 4026 
Q 2313 4219 1838 4219 
Q 1578 4219 1281 4162 
Q 984 4106 628 3988 
L 628 4550 
Q 988 4650 1302 4700 
Q 1616 4750 1894 4750 
Q 2613 4750 3031 4423 
Q 3450 4097 3450 3541 
Q 3450 3153 3228 2886 
Q 3006 2619 2597 2516 
z
" transform="scale(0.015625)"/>
      </defs>
      <use xlink:href="#DejaVuSans-33"/>
      <use xlink:href="#DejaVuSans-30" transform="translate(63.623047 0)"/>
      <use xlink:href="#DejaVuSans-20" transform="translate(127.246094 0)"/>
      <use xlink:href="#DejaVuSans-64" transform="translate(159.033203 0)"/>
      <use xlink:href="#DejaVuSans-42" transform="translate(222.509766 0)"/>
      <use xlink:href="#DejaVuSans-2f" transform="translate(291.113281 0)"/>
      <use xlink:href="#DejaVuSans-63" transform="translate(324.804688 0)"/>
      <use xlink:href="#DejaVuSans-6d" transform="translate(379.785156 0)"/>
     </g>
    </g>
    <g id="line2d_66">
     <path d="M 64.772054 224.395188 
L 74.772054 224.395188 
L 84.772054 224.395188 
" style="fill: none; stroke: #ff7f0e; stroke-width: 1.5; stroke-linecap: square"/>
     <g>
      <use xlink:href="#me9e83aded7" x="74.772054" y="224.395188" style="fill: #ff7f0e; stroke: #ff7f0e"/>
     </g>
    </g>
    <g id="text_12">
     <!-- 10 dB/cm -->
     <g transform="translate(92.772054 227.895188) scale(0.1 -0.1)">
      <use xlink:href="#DejaVuSans-31"/>
      <use xlink:href="#DejaVuSans-30" transform="translate(63.623047 0)"/>
      <use xlink:href="#DejaVuSans-20" transform="translate(127.246094 0)"/>
      <use xlink:href="#DejaVuSans-64" transform="translate(159.033203 0)"/>
      <use xlink:href="#DejaVuSans-42" transform="translate(222.509766 0)"/>
      <use xlink:href="#DejaVuSans-2f" transform="translate(291.113281 0)"/>
      <use xlink:href="#DejaVuSans-63" transform="translate(324.804688 0)"/>
      <use xlink:href="#DejaVuSans-6d" transform="translate(379.785156 0)"/>
     </g>
    </g>
    <g id="line2d_67">
     <path d="M 64.772054 239.073313 
L 74.772054 239.073313 
L 84.772054 239.073313 
" style="fill: none; stroke: #003366; stroke-width: 1.5; stroke-linecap: square"/>
     <g>
      <use xlink:href="#m1913e8a1a5" x="74.772054" y="239.073313" style="fill: #003366; stroke: #003366"/>
     </g>
    </g>
    <g id="text_13">
     <!-- 0 dB/cm -->
     <g transform="translate(92.772054 242.573313) scale(0.1 -0.1)">
      <use xlink:href="#DejaVuSans-30"/>
      <use xlink:href="#DejaVuSans-20" transform="translate(63.623047 0)"/>
      <use xlink:href="#DejaVuSans-64" transform="translate(95.410156 0)"/>
      <use xlink:href="#DejaVuSans-42" transform="translate(158.886719 0)"/>
      <use xlink:href="#DejaVuSans-2f" transform="translate(227.490234 0)"/>
      <use xlink:href="#DejaVuSans-63" transform="translate(261.181641 0)"/>
      <use xlink:href="#DejaVuSans-6d" transform="translate(316.162109 0)"/>
     </g>
    </g>
    <g id="line2d_68">
     <path d="M 64.772054 253.751438 
L 74.772054 253.751438 
L 84.772054 253.751438 
" style="fill: none; stroke: #0d57a1; stroke-width: 1.5; stroke-linecap: square"/>
     <g>
      <use xlink:href="#mf1d8ff81e1" x="74.772054" y="253.751438" style="fill: #0d57a1; stroke: #0d57a1"/>
     </g>
    </g>
    <g id="text_14">
     <!-- 0.124 eV -->
     <g transform="translate(92.772054 257.251438) scale(0.1 -0.1)">
      <defs>
       <path id="DejaVuSans-2e" d="M 684 794 
L 1344 794 
L 1344 0 
L 684 0 
L 684 794 
z
" transform="scale(0.015625)"/>
       <path id="DejaVuSans-32" d="M 1228 531 
L 3431 531 
L 3431 0 
L 469 0 
L 469 531 
Q 828 903 1448 1529 
Q 2069 2156 2228 2338 
Q 2531 2678 2651 2914 
Q 2772 3150 2772 3378 
Q 2772 3750 2511 3984 
Q 2250 4219 1831 4219 
Q 1534 4219 1204 4116 
Q 875 4013 500 3803 
L 500 4441 
Q 881 4594 1212 4672 
Q 1544 4750 1819 4750 
Q 2544 4750 2975 4387 
Q 3406 4025 3406 3419 
Q 3406 3131 3298 2873 
Q 3191 2616 2906 2266 
Q 2828 2175 2409 1742 
Q 1991 1309 1228 531 
z
" transform="scale(0.015625)"/>
      </defs>
      <use xlink:href="#DejaVuSans-30"/>
      <use xlink:href="#DejaVuSans-2e" transform="translate(63.623047 0)"/>
      <use xlink:href="#DejaVuSans-31" transform="translate(95.410156 0)"/>
      <use xlink:href="#DejaVuSans-32" transform="translate(159.033203 0)"/>
      <use xlink:href="#DejaVuSans-34" transform="translate(222.65625 0)"/>
      <use xlink:href="#DejaVuSans-20" transform="translate(286.279297 0)"/>
      <use xlink:href="#DejaVuSans-65" transform="translate(318.066406 0)"/>
      <use xlink:href="#DejaVuSans-56" transform="translate(379.589844 0)"/>
     </g>
    </g>
    <g id="line2d_69">
     <path d="M 64.772054 268.429563 
L 74.772054 268.429563 
L 84.772054 268.429563 
" style="fill: none; stroke: #63a8d3; stroke-width: 1.5; stroke-linecap: square"/>
     <g>
      <use xlink:href="#m64c0b050f5" x="74.772054" y="268.429563" style="fill: #63a8d3; stroke: #63a8d3"/>
     </g>
    </g>
    <g id="text_15">
     <!-- 0.186 eV -->
     <g transform="translate(92.772054 271.929563) scale(0.1 -0.1)">
      <defs>
       <path id="DejaVuSans-38" d="M 2034 2216 
Q 1584 2216 1326 1975 
Q 1069 1734 1069 1313 
Q 1069 891 1326 650 
Q 1584 409 2034 409 
Q 2484 409 2743 651 
Q 3003 894 3003 1313 
Q 3003 1734 2745 1975 
Q 2488 2216 2034 2216 
z
M 1403 2484 
Q 997 2584 770 2862 
Q 544 3141 544 3541 
Q 544 4100 942 4425 
Q 1341 4750 2034 4750 
Q 2731 4750 3128 4425 
Q 3525 4100 3525 3541 
Q 3525 3141 3298 2862 
Q 3072 2584 2669 2484 
Q 3125 2378 3379 2068 
Q 3634 1759 3634 1313 
Q 3634 634 3220 271 
Q 2806 -91 2034 -91 
Q 1263 -91 848 271 
Q 434 634 434 1313 
Q 434 1759 690 2068 
Q 947 2378 1403 2484 
z
M 1172 3481 
Q 1172 3119 1398 2916 
Q 1625 2713 2034 2713 
Q 2441 2713 2670 2916 
Q 2900 3119 2900 3481 
Q 2900 3844 2670 4047 
Q 2441 4250 2034 4250 
Q 1625 4250 1398 4047 
Q 1172 3844 1172 3481 
z
" transform="scale(0.015625)"/>
      </defs>
      <use xlink:href="#DejaVuSans-30"/>
      <use xlink:href="#DejaVuSans-2e" transform="translate(63.623047 0)"/>
      <use xlink:href="#DejaVuSans-31" transform="translate(95.410156 0)"/>
      <use xlink:href="#DejaVuSans-38" transform="translate(159.033203 0)"/>
      <use xlink:href="#DejaVuSans-36" transform="translate(222.65625 0)"/>
      <use xlink:href="#DejaVuSans-20" transform="translate(286.279297 0)"/>
      <use xlink:href="#DejaVuSans-65" transform="translate(318.066406 0)"/>
      <use xlink:href="#DejaVuSans-56" transform="translate(379.589844 0)"/>
     </g>
    </g>
    <g id="line2d_70">
     <path d="M 64.772054 283.107687 
L 74.772054 283.107687 
L 84.772054 283.107687 
" style="fill: none; stroke: #d0e1f2; stroke-width: 1.5; stroke-linecap: square"/>
     <g>
      <use xlink:href="#m542db22d2f" x="74.772054" y="283.107687" style="fill: #d0e1f2; stroke: #d0e1f2"/>
     </g>
    </g>
    <g id="text_16">
     <!-- 0.248 eV -->
     <g transform="translate(92.772054 286.607687) scale(0.1 -0.1)">
      <use xlink:href="#DejaVuSans-30"/>
      <use xlink:href="#DejaVuSans-2e" transform="translate(63.623047 0)"/>
      <use xlink:href="#DejaVuSans-32" transform="translate(95.410156 0)"/>
      <use xlink:href="#DejaVuSans-34" transform="translate(159.033203 0)"/>
      <use xlink:href="#DejaVuSans-38" transform="translate(222.65625 0)"/>
      <use xlink:href="#DejaVuSans-20" transform="translate(286.279297 0)"/>
      <use xlink:href="#DejaVuSans-65" transform="translate(318.066406 0)"/>
      <use xlink:href="#DejaVuSans-56" transform="translate(379.589844 0)"/>
     </g>
    </g>
    <g id="line2d_71">
     <path d="M 64.772054 297.785813 
L 74.772054 297.785813 
L 84.772054 297.785813 
" style="fill: none; stroke-dasharray: 5.55,2.4; stroke-dashoffset: 0; stroke: #000000; stroke-width: 1.5"/>
    </g>
    <g id="text_17">
     <!-- $L_0$  -->
     <g transform="translate(92.772054 301.285813) scale(0.1 -0.1)">
      <use xlink:href="#DejaVuSans-Oblique-4c" transform="translate(0 0.09375)"/>
      <use xlink:href="#DejaVuSans-30" transform="translate(55.712891 -16.3125) scale(0.7)"/>
      <use xlink:href="#DejaVuSans-20" transform="translate(102.983398 0.09375)"/>
     </g>
    </g>
   </g>
  </g>
 </g>
 <defs>
  <clipPath id="p00f7ded469">
   <rect x="55.772054" y="28.32" width="509.427946" height="284.0455"/>
  </clipPath>
 </defs>
</svg>
