<?xml version="1.0" encoding="utf-8" standalone="no"?>
<!DOCTYPE svg PUBLIC "-//W3C//DTD SVG 1.1//EN"
  "http://www.w3.org/Graphics/SVG/1.1/DTD/svg11.dtd">
<svg xmlns:xlink="http://www.w3.org/1999/xlink" width="432pt" height="360pt" viewBox="0 0 432 360" xmlns="http://www.w3.org/2000/svg" version="1.1">
 <metadata>
  <rdf:RDF xmlns:dc="http://purl.org/dc/elements/1.1/" xmlns:cc="http://creativecommons.org/ns#" xmlns:rdf="http://www.w3.org/1999/02/22-rdf-syntax-ns#">
   <cc:Work>
    <dc:type rdf:resource="http://purl.org/dc/dcmitype/StillImage"/>
    <dc:date>2025-10-22T20:11:26.641707</dc:date>
    <dc:format>image/svg+xml</dc:format>
    <dc:creator>
     <cc:Agent>
      <dc:title>Matplotlib v3.6.0, https://matplotlib.org/</dc:title>
     </cc:Agent>
    </dc:creator>
   </cc:Work>
  </rdf:RDF>
 </metadata>
 <defs>
  <style type="text/css">*{stroke-linejoin: round; stroke-linecap: butt}</style>
 </defs>
 <g id="figure_1">
  <g id="patch_1">
   <path d="M 0 360 
L 432 360 
L 432 0 
L 0 0 
z
" style="fill: #ffffff"/>
  </g>
  <g id="axes_1">
   <g id="patch_2">
    <path d="M 28.44 330.68 
L 403.47 330.68 
L 403.47 10.8 
L 28.44 10.8 
z
" style="fill: #ffffff"/>
   </g>
   <g id="matplotlib.axis_1">
    <g id="xtick_1">
     <g id="line2d_1">
      <defs>
       <path id="m9f29d0151c" d="M 0 0 
L 0 3.5 
" style="stroke: #000000; stroke-width: 0.8"/>
      </defs>
      <g>
       <use xlink:href="#m9f29d0151c" x="28.44" y="330.68" style="stroke: #000000; stroke-width: 0.8"/>
      </g>
     </g>
    </g>
    <g id="xtick_2">
     <g id="line2d_2">
      <g>
       <use xlink:href="#m9f29d0151c" x="122.1975" y="330.68" style="stroke: #000000; stroke-width: 0.8"/>
      </g>
     </g>
    </g>
    <g id="xtick_3">
     <g id="line2d_3">
      <g>
       <use xlink:href="#m9f29d0151c" x="215.955" y="330.68" style="stroke: #000000; stroke-width: 0.8"/>
      </g>
     </g>
    </g>
    <g id="xtick_4">
     <g id="line2d_4">
      <g>
       <use xlink:href="#m9f29d0151c" x="309.7125" y="330.68" style="stroke: #000000; stroke-width: 0.8"/>
      </g>
     </g>
    </g>
    <g id="xtick_5">
     <g id="line2d_5">
      <g>
       <use xlink:href="#m9f29d0151c" x="403.47" y="330.68" style="stroke: #000000; stroke-width: 0.8"/>
      </g>
     </g>
    </g>
   </g>
   <g id="matplotlib.axis_2">
    <g id="ytick_1">
     <g id="line2d_6">
      <defs>
       <path id="m895e0ebd4c" d="M 0 0 
L -3.5 0 
" style="stroke: #000000; stroke-width: 0.8"/>
      </defs>
      <g>
       <use xlink:href="#m895e0ebd4c" x="28.44" y="319.9817" style="stroke: #000000; stroke-width: 0.8"/>
      </g>
     </g>
    </g>
    <g id="ytick_2">
     <g id="line2d_7">
      <g>
       <use xlink:href="#m895e0ebd4c" x="28.44" y="219.339248" style="stroke: #000000; stroke-width: 0.8"/>
      </g>
     </g>
    </g>
    <g id="ytick_3">
     <g id="line2d_8">
      <g>
       <use xlink:href="#m895e0ebd4c" x="28.44" y="118.696795" style="stroke: #000000; stroke-width: 0.8"/>
      </g>
     </g>
    </g>
    <g id="ytick_4">
     <g id="line2d_9">
      <g>
       <use xlink:href="#m895e0ebd4c" x="28.44" y="18.054343" style="stroke: #000000; stroke-width: 0.8"/>
      </g>
     </g>
    </g>
   </g>
   <g id="line2d_10">
    <path d="M 28.44 224.273257 
L 40.941 224.607318 
L 53.442 224.941379 
L 65.943 225.275439 
L 78.444 225.6095 
L 90.945 226.277622 
L 103.446 226.945744 
L 115.947 227.780896 
L 128.448 228.950109 
L 140.949 230.286353 
L 153.45 232.123688 
L 165.951 234.796175 
L 178.452 238.971936 
L 190.953 245.987214 
L 197.2035 251.83328 
L 199.882286 255.340919 
L 202.561071 259.683711 
L 203.454 261.186984 
L 205.239857 265.028685 
L 207.918643 272.210994 
L 210.597429 282.06579 
L 213.276214 296.263377 
L 215.955 316.14 
L 218.633786 272.210994 
L 221.312571 101.505882 
L 223.991357 49.392384 
L 226.670143 29.1817 
L 228.456 25.34 
L 229.348929 32.522309 
L 232.027714 49.392384 
L 234.7065 119.87923 
L 240.957 162.304963 
L 253.458 187.69359 
L 265.959 197.548386 
L 278.46 202.559299 
L 290.961 205.899908 
L 303.462 208.071304 
L 315.963 209.574578 
L 328.464 210.910821 
L 340.965 211.745974 
L 353.466 212.581126 
L 365.967 213.249248 
L 378.468 213.583308 
L 390.969 214.25143 
L 403.47 214.585491 
" clip-path="url(#p099f672840)" style="fill: none; stroke: #1f77b4; stroke-width: 1.5; stroke-linecap: square"/>
   </g>
   <g id="line2d_11">
    <path d="M 28.44 219.339248 
L 403.47 219.339248 
" clip-path="url(#p099f672840)" style="fill: none; stroke-dasharray: 1.5,2.475; stroke-dashoffset: 0; stroke: #808080; stroke-width: 1.5"/>
   </g>
   <g id="line2d_12">
    <path d="M 215.955 330.68 
L 215.955 10.8 
" clip-path="url(#p099f672840)" style="fill: none; stroke-dasharray: 5.55,2.4; stroke-dashoffset: 0; stroke: #ff0000; stroke-width: 1.5"/>
   </g>
   <g id="patch_3">
    <path d="M 28.44 330.68 
L 28.44 10.8 
" style="fill: none; stroke: #000000; stroke-width: 0.8; stroke-linejoin: miter; stroke-linecap: square"/>
   </g>
   <g id="patch_4">
    <path d="M 403.47 330.68 
L 403.47 10.8 
" style="fill: none; stroke: #000000; stroke-width: 0.8; stroke-linejoin: miter; stroke-linecap: square"/>
   </g>
   <g id="patch_5">
    <path d="M 28.44 330.68 
L 403.47 330.68 
" style="fill: none; stroke: #000000; stroke-width: 0.8; stroke-linejoin: miter; stroke-linecap: square"/>
   </g>
   <g id="patch_6">
    <path d="M 28.44 10.8 
L 403.47 10.8 
" style="fill: none; stroke: #000000; stroke-width: 0.8; stroke-linejoin: miter; stroke-linecap: square"/>
   </g>
   <g id="legend_1">
    <g id="line2d_13">
     <path d="M 356.428125 25.8 
L 368.428125 25.8 
L 380.428125 25.8 
" style="fill: none; stroke-dasharray: 5.55,2.4; stroke-dashoffset: 0; stroke: #ff0000; stroke-width: 1.5"/>
    </g>
    <g id="text_1">
     <!--   -->
     <g transform="translate(390.028125 30) scale(0.12 -0.12)">
      <defs>
       <path id="Cambria-20" transform="scale(0.015625)"/>
      </defs>
      <use xlink:href="#Cambria-20"/>
     </g>
    </g>
   </g>
  </g>
 </g>
 <defs>
  <clipPath id="p099f672840">
   <rect x="28.44" y="10.8" width="375.03" height="319.88"/>
  </clipPath>
 </defs>
</svg>
