<?xml version="1.0" encoding="utf-8" standalone="no"?>
<!DOCTYPE svg PUBLIC "-//W3C//DTD SVG 1.1//EN"
  "http://www.w3.org/Graphics/SVG/1.1/DTD/svg11.dtd">
<svg xmlns:xlink="http://www.w3.org/1999/xlink" width="576pt" height="360pt" viewBox="0 0 576 360" xmlns="http://www.w3.org/2000/svg" version="1.1">
 <metadata>
  <rdf:RDF xmlns:dc="http://purl.org/dc/elements/1.1/" xmlns:cc="http://creativecommons.org/ns#" xmlns:rdf="http://www.w3.org/1999/02/22-rdf-syntax-ns#">
   <cc:Work>
    <dc:type rdf:resource="http://purl.org/dc/dcmitype/StillImage"/>
    <dc:date>2025-10-12T17:44:31.686421</dc:date>
    <dc:format>image/svg+xml</dc:format>
    <dc:creator>
     <cc:Agent>
      <dc:title>Matplotlib v3.6.0, https://matplotlib.org/</dc:title>
     </cc:Agent>
    </dc:creator>
   </cc:Work>
  </rdf:RDF>
 </metadata>
 <defs>
  <style type="text/css">*{stroke-linejoin: round; stroke-linecap: butt}</style>
 </defs>
 <g id="figure_1">
  <g id="patch_1">
   <path d="M 0 360 
L 576 360 
L 576 0 
L 0 0 
z
" style="fill: #ffffff"/>
  </g>
  <g id="axes_1">
   <g id="patch_2">
    <path d="M 55.772054 311.848 
L 565.2 311.848 
L 565.2 28.32 
L 55.772054 28.32 
z
" style="fill: #ffffff"/>
   </g>
   <g id="matplotlib.axis_1">
    <g id="xtick_1">
     <g id="line2d_1">
      <defs>
       <path id="m30ac43eefa" d="M 0 0 
L 0 3.5 
" style="stroke: #000000; stroke-width: 0.8"/>
      </defs>
      <g>
       <use xlink:href="#m30ac43eefa" x="192.195933" y="311.848" style="stroke: #000000; stroke-width: 0.8"/>
      </g>
     </g>
     <g id="text_1">
      <!-- $\mathdefault{10^{-3}}$ -->
      <g transform="translate(180.445933 326.446438) scale(0.1 -0.1)">
       <defs>
        <path id="DejaVuSans-31" d="M 794 531 
L 1825 531 
L 1825 4091 
L 703 3866 
L 703 4441 
L 1819 4666 
L 2450 4666 
L 2450 531 
L 3481 531 
L 3481 0 
L 794 0 
L 794 531 
z
" transform="scale(0.015625)"/>
        <path id="DejaVuSans-30" d="M 2034 4250 
Q 1547 4250 1301 3770 
Q 1056 3291 1056 2328 
Q 1056 1369 1301 889 
Q 1547 409 2034 409 
Q 2525 409 2770 889 
Q 3016 1369 3016 2328 
Q 3016 3291 2770 3770 
Q 2525 4250 2034 4250 
z
M 2034 4750 
Q 2819 4750 3233 4129 
Q 3647 3509 3647 2328 
Q 3647 1150 3233 529 
Q 2819 -91 2034 -91 
Q 1250 -91 836 529 
Q 422 1150 422 2328 
Q 422 3509 836 4129 
Q 1250 4750 2034 4750 
z
" transform="scale(0.015625)"/>
        <path id="DejaVuSans-2212" d="M 678 2272 
L 4684 2272 
L 4684 1741 
L 678 1741 
L 678 2272 
z
" transform="scale(0.015625)"/>
        <path id="DejaVuSans-33" d="M 2597 2516 
Q 3050 2419 3304 2112 
Q 3559 1806 3559 1356 
Q 3559 666 3084 287 
Q 2609 -91 1734 -91 
Q 1441 -91 1130 -33 
Q 819 25 488 141 
L 488 750 
Q 750 597 1062 519 
Q 1375 441 1716 441 
Q 2309 441 2620 675 
Q 2931 909 2931 1356 
Q 2931 1769 2642 2001 
Q 2353 2234 1838 2234 
L 1294 2234 
L 1294 2753 
L 1863 2753 
Q 2328 2753 2575 2939 
Q 2822 3125 2822 3475 
Q 2822 3834 2567 4026 
Q 2313 4219 1838 4219 
Q 1578 4219 1281 4162 
Q 984 4106 628 3988 
L 628 4550 
Q 988 4650 1302 4700 
Q 1616 4750 1894 4750 
Q 2613 4750 3031 4423 
Q 3450 4097 3450 3541 
Q 3450 3153 3228 2886 
Q 3006 2619 2597 2516 
z
" transform="scale(0.015625)"/>
       </defs>
       <use xlink:href="#DejaVuSans-31" transform="translate(0 0.765625)"/>
       <use xlink:href="#DejaVuSans-30" transform="translate(63.623047 0.765625)"/>
       <use xlink:href="#DejaVuSans-2212" transform="translate(128.203125 39.046875) scale(0.7)"/>
       <use xlink:href="#DejaVuSans-33" transform="translate(186.855469 39.046875) scale(0.7)"/>
      </g>
     </g>
    </g>
    <g id="xtick_2">
     <g id="line2d_2">
      <g>
       <use xlink:href="#m30ac43eefa" x="351.721237" y="311.848" style="stroke: #000000; stroke-width: 0.8"/>
      </g>
     </g>
     <g id="text_2">
      <!-- $\mathdefault{10^{-2}}$ -->
      <g transform="translate(339.971237 326.446438) scale(0.1 -0.1)">
       <defs>
        <path id="DejaVuSans-32" d="M 1228 531 
L 3431 531 
L 3431 0 
L 469 0 
L 469 531 
Q 828 903 1448 1529 
Q 2069 2156 2228 2338 
Q 2531 2678 2651 2914 
Q 2772 3150 2772 3378 
Q 2772 3750 2511 3984 
Q 2250 4219 1831 4219 
Q 1534 4219 1204 4116 
Q 875 4013 500 3803 
L 500 4441 
Q 881 4594 1212 4672 
Q 1544 4750 1819 4750 
Q 2544 4750 2975 4387 
Q 3406 4025 3406 3419 
Q 3406 3131 3298 2873 
Q 3191 2616 2906 2266 
Q 2828 2175 2409 1742 
Q 1991 1309 1228 531 
z
" transform="scale(0.015625)"/>
       </defs>
       <use xlink:href="#DejaVuSans-31" transform="translate(0 0.765625)"/>
       <use xlink:href="#DejaVuSans-30" transform="translate(63.623047 0.765625)"/>
       <use xlink:href="#DejaVuSans-2212" transform="translate(128.203125 39.046875) scale(0.7)"/>
       <use xlink:href="#DejaVuSans-32" transform="translate(186.855469 39.046875) scale(0.7)"/>
      </g>
     </g>
    </g>
    <g id="xtick_3">
     <g id="line2d_3">
      <g>
       <use xlink:href="#m30ac43eefa" x="511.246542" y="311.848" style="stroke: #000000; stroke-width: 0.8"/>
      </g>
     </g>
     <g id="text_3">
      <!-- $\mathdefault{10^{-1}}$ -->
      <g transform="translate(499.496542 326.446438) scale(0.1 -0.1)">
       <use xlink:href="#DejaVuSans-31" transform="translate(0 0.684375)"/>
       <use xlink:href="#DejaVuSans-30" transform="translate(63.623047 0.684375)"/>
       <use xlink:href="#DejaVuSans-2212" transform="translate(128.203125 38.965625) scale(0.7)"/>
       <use xlink:href="#DejaVuSans-31" transform="translate(186.855469 38.965625) scale(0.7)"/>
      </g>
     </g>
    </g>
    <g id="xtick_4">
     <g id="line2d_4">
      <defs>
       <path id="mb853c5860d" d="M 0 0 
L 0 2 
" style="stroke: #000000; stroke-width: 0.6"/>
      </defs>
      <g>
       <use xlink:href="#mb853c5860d" x="80.69253" y="311.848" style="stroke: #000000; stroke-width: 0.6"/>
      </g>
     </g>
    </g>
    <g id="xtick_5">
     <g id="line2d_5">
      <g>
       <use xlink:href="#mb853c5860d" x="108.783542" y="311.848" style="stroke: #000000; stroke-width: 0.6"/>
      </g>
     </g>
    </g>
    <g id="xtick_6">
     <g id="line2d_6">
      <g>
       <use xlink:href="#mb853c5860d" x="128.714432" y="311.848" style="stroke: #000000; stroke-width: 0.6"/>
      </g>
     </g>
    </g>
    <g id="xtick_7">
     <g id="line2d_7">
      <g>
       <use xlink:href="#mb853c5860d" x="144.174031" y="311.848" style="stroke: #000000; stroke-width: 0.6"/>
      </g>
     </g>
    </g>
    <g id="xtick_8">
     <g id="line2d_8">
      <g>
       <use xlink:href="#mb853c5860d" x="156.805443" y="311.848" style="stroke: #000000; stroke-width: 0.6"/>
      </g>
     </g>
    </g>
    <g id="xtick_9">
     <g id="line2d_9">
      <g>
       <use xlink:href="#mb853c5860d" x="167.48515" y="311.848" style="stroke: #000000; stroke-width: 0.6"/>
      </g>
     </g>
    </g>
    <g id="xtick_10">
     <g id="line2d_10">
      <g>
       <use xlink:href="#mb853c5860d" x="176.736333" y="311.848" style="stroke: #000000; stroke-width: 0.6"/>
      </g>
     </g>
    </g>
    <g id="xtick_11">
     <g id="line2d_11">
      <g>
       <use xlink:href="#mb853c5860d" x="184.896455" y="311.848" style="stroke: #000000; stroke-width: 0.6"/>
      </g>
     </g>
    </g>
    <g id="xtick_12">
     <g id="line2d_12">
      <g>
       <use xlink:href="#mb853c5860d" x="240.217835" y="311.848" style="stroke: #000000; stroke-width: 0.6"/>
      </g>
     </g>
    </g>
    <g id="xtick_13">
     <g id="line2d_13">
      <g>
       <use xlink:href="#mb853c5860d" x="268.308846" y="311.848" style="stroke: #000000; stroke-width: 0.6"/>
      </g>
     </g>
    </g>
    <g id="xtick_14">
     <g id="line2d_14">
      <g>
       <use xlink:href="#mb853c5860d" x="288.239736" y="311.848" style="stroke: #000000; stroke-width: 0.6"/>
      </g>
     </g>
    </g>
    <g id="xtick_15">
     <g id="line2d_15">
      <g>
       <use xlink:href="#mb853c5860d" x="303.699336" y="311.848" style="stroke: #000000; stroke-width: 0.6"/>
      </g>
     </g>
    </g>
    <g id="xtick_16">
     <g id="line2d_16">
      <g>
       <use xlink:href="#mb853c5860d" x="316.330748" y="311.848" style="stroke: #000000; stroke-width: 0.6"/>
      </g>
     </g>
    </g>
    <g id="xtick_17">
     <g id="line2d_17">
      <g>
       <use xlink:href="#mb853c5860d" x="327.010455" y="311.848" style="stroke: #000000; stroke-width: 0.6"/>
      </g>
     </g>
    </g>
    <g id="xtick_18">
     <g id="line2d_18">
      <g>
       <use xlink:href="#mb853c5860d" x="336.261638" y="311.848" style="stroke: #000000; stroke-width: 0.6"/>
      </g>
     </g>
    </g>
    <g id="xtick_19">
     <g id="line2d_19">
      <g>
       <use xlink:href="#mb853c5860d" x="344.42176" y="311.848" style="stroke: #000000; stroke-width: 0.6"/>
      </g>
     </g>
    </g>
    <g id="xtick_20">
     <g id="line2d_20">
      <g>
       <use xlink:href="#mb853c5860d" x="399.743139" y="311.848" style="stroke: #000000; stroke-width: 0.6"/>
      </g>
     </g>
    </g>
    <g id="xtick_21">
     <g id="line2d_21">
      <g>
       <use xlink:href="#mb853c5860d" x="427.834151" y="311.848" style="stroke: #000000; stroke-width: 0.6"/>
      </g>
     </g>
    </g>
    <g id="xtick_22">
     <g id="line2d_22">
      <g>
       <use xlink:href="#mb853c5860d" x="447.765041" y="311.848" style="stroke: #000000; stroke-width: 0.6"/>
      </g>
     </g>
    </g>
    <g id="xtick_23">
     <g id="line2d_23">
      <g>
       <use xlink:href="#mb853c5860d" x="463.22464" y="311.848" style="stroke: #000000; stroke-width: 0.6"/>
      </g>
     </g>
    </g>
    <g id="xtick_24">
     <g id="line2d_24">
      <g>
       <use xlink:href="#mb853c5860d" x="475.856053" y="311.848" style="stroke: #000000; stroke-width: 0.6"/>
      </g>
     </g>
    </g>
    <g id="xtick_25">
     <g id="line2d_25">
      <g>
       <use xlink:href="#mb853c5860d" x="486.53576" y="311.848" style="stroke: #000000; stroke-width: 0.6"/>
      </g>
     </g>
    </g>
    <g id="xtick_26">
     <g id="line2d_26">
      <g>
       <use xlink:href="#mb853c5860d" x="495.786943" y="311.848" style="stroke: #000000; stroke-width: 0.6"/>
      </g>
     </g>
    </g>
    <g id="xtick_27">
     <g id="line2d_27">
      <g>
       <use xlink:href="#mb853c5860d" x="503.947064" y="311.848" style="stroke: #000000; stroke-width: 0.6"/>
      </g>
     </g>
    </g>
    <g id="xtick_28">
     <g id="line2d_28">
      <g>
       <use xlink:href="#mb853c5860d" x="559.268444" y="311.848" style="stroke: #000000; stroke-width: 0.6"/>
      </g>
     </g>
    </g>
    <g id="text_4">
     <!-- Interaction length $L_{int}$ (m) -->
     <g transform="translate(246.386027 340.126125) scale(0.1 -0.1)">
      <defs>
       <path id="DejaVuSans-49" d="M 628 4666 
L 1259 4666 
L 1259 0 
L 628 0 
L 628 4666 
z
" transform="scale(0.015625)"/>
       <path id="DejaVuSans-6e" d="M 3513 2113 
L 3513 0 
L 2938 0 
L 2938 2094 
Q 2938 2591 2744 2837 
Q 2550 3084 2163 3084 
Q 1697 3084 1428 2787 
Q 1159 2491 1159 1978 
L 1159 0 
L 581 0 
L 581 3500 
L 1159 3500 
L 1159 2956 
Q 1366 3272 1645 3428 
Q 1925 3584 2291 3584 
Q 2894 3584 3203 3211 
Q 3513 2838 3513 2113 
z
" transform="scale(0.015625)"/>
       <path id="DejaVuSans-74" d="M 1172 4494 
L 1172 3500 
L 2356 3500 
L 2356 3053 
L 1172 3053 
L 1172 1153 
Q 1172 725 1289 603 
Q 1406 481 1766 481 
L 2356 481 
L 2356 0 
L 1766 0 
Q 1100 0 847 248 
Q 594 497 594 1153 
L 594 3053 
L 172 3053 
L 172 3500 
L 594 3500 
L 594 4494 
L 1172 4494 
z
" transform="scale(0.015625)"/>
       <path id="DejaVuSans-65" d="M 3597 1894 
L 3597 1613 
L 953 1613 
Q 991 1019 1311 708 
Q 1631 397 2203 397 
Q 2534 397 2845 478 
Q 3156 559 3463 722 
L 3463 178 
Q 3153 47 2828 -22 
Q 2503 -91 2169 -91 
Q 1331 -91 842 396 
Q 353 884 353 1716 
Q 353 2575 817 3079 
Q 1281 3584 2069 3584 
Q 2775 3584 3186 3129 
Q 3597 2675 3597 1894 
z
M 3022 2063 
Q 3016 2534 2758 2815 
Q 2500 3097 2075 3097 
Q 1594 3097 1305 2825 
Q 1016 2553 972 2059 
L 3022 2063 
z
" transform="scale(0.015625)"/>
       <path id="DejaVuSans-72" d="M 2631 2963 
Q 2534 3019 2420 3045 
Q 2306 3072 2169 3072 
Q 1681 3072 1420 2755 
Q 1159 2438 1159 1844 
L 1159 0 
L 581 0 
L 581 3500 
L 1159 3500 
L 1159 2956 
Q 1341 3275 1631 3429 
Q 1922 3584 2338 3584 
Q 2397 3584 2469 3576 
Q 2541 3569 2628 3553 
L 2631 2963 
z
" transform="scale(0.015625)"/>
       <path id="DejaVuSans-61" d="M 2194 1759 
Q 1497 1759 1228 1600 
Q 959 1441 959 1056 
Q 959 750 1161 570 
Q 1363 391 1709 391 
Q 2188 391 2477 730 
Q 2766 1069 2766 1631 
L 2766 1759 
L 2194 1759 
z
M 3341 1997 
L 3341 0 
L 2766 0 
L 2766 531 
Q 2569 213 2275 61 
Q 1981 -91 1556 -91 
Q 1019 -91 701 211 
Q 384 513 384 1019 
Q 384 1609 779 1909 
Q 1175 2209 1959 2209 
L 2766 2209 
L 2766 2266 
Q 2766 2663 2505 2880 
Q 2244 3097 1772 3097 
Q 1472 3097 1187 3025 
Q 903 2953 641 2809 
L 641 3341 
Q 956 3463 1253 3523 
Q 1550 3584 1831 3584 
Q 2591 3584 2966 3190 
Q 3341 2797 3341 1997 
z
" transform="scale(0.015625)"/>
       <path id="DejaVuSans-63" d="M 3122 3366 
L 3122 2828 
Q 2878 2963 2633 3030 
Q 2388 3097 2138 3097 
Q 1578 3097 1268 2742 
Q 959 2388 959 1747 
Q 959 1106 1268 751 
Q 1578 397 2138 397 
Q 2388 397 2633 464 
Q 2878 531 3122 666 
L 3122 134 
Q 2881 22 2623 -34 
Q 2366 -91 2075 -91 
Q 1284 -91 818 406 
Q 353 903 353 1747 
Q 353 2603 823 3093 
Q 1294 3584 2113 3584 
Q 2378 3584 2631 3529 
Q 2884 3475 3122 3366 
z
" transform="scale(0.015625)"/>
       <path id="DejaVuSans-69" d="M 603 3500 
L 1178 3500 
L 1178 0 
L 603 0 
L 603 3500 
z
M 603 4863 
L 1178 4863 
L 1178 4134 
L 603 4134 
L 603 4863 
z
" transform="scale(0.015625)"/>
       <path id="DejaVuSans-6f" d="M 1959 3097 
Q 1497 3097 1228 2736 
Q 959 2375 959 1747 
Q 959 1119 1226 758 
Q 1494 397 1959 397 
Q 2419 397 2687 759 
Q 2956 1122 2956 1747 
Q 2956 2369 2687 2733 
Q 2419 3097 1959 3097 
z
M 1959 3584 
Q 2709 3584 3137 3096 
Q 3566 2609 3566 1747 
Q 3566 888 3137 398 
Q 2709 -91 1959 -91 
Q 1206 -91 779 398 
Q 353 888 353 1747 
Q 353 2609 779 3096 
Q 1206 3584 1959 3584 
z
" transform="scale(0.015625)"/>
       <path id="DejaVuSans-20" transform="scale(0.015625)"/>
       <path id="DejaVuSans-6c" d="M 603 4863 
L 1178 4863 
L 1178 0 
L 603 0 
L 603 4863 
z
" transform="scale(0.015625)"/>
       <path id="DejaVuSans-67" d="M 2906 1791 
Q 2906 2416 2648 2759 
Q 2391 3103 1925 3103 
Q 1463 3103 1205 2759 
Q 947 2416 947 1791 
Q 947 1169 1205 825 
Q 1463 481 1925 481 
Q 2391 481 2648 825 
Q 2906 1169 2906 1791 
z
M 3481 434 
Q 3481 -459 3084 -895 
Q 2688 -1331 1869 -1331 
Q 1566 -1331 1297 -1286 
Q 1028 -1241 775 -1147 
L 775 -588 
Q 1028 -725 1275 -790 
Q 1522 -856 1778 -856 
Q 2344 -856 2625 -561 
Q 2906 -266 2906 331 
L 2906 616 
Q 2728 306 2450 153 
Q 2172 0 1784 0 
Q 1141 0 747 490 
Q 353 981 353 1791 
Q 353 2603 747 3093 
Q 1141 3584 1784 3584 
Q 2172 3584 2450 3431 
Q 2728 3278 2906 2969 
L 2906 3500 
L 3481 3500 
L 3481 434 
z
" transform="scale(0.015625)"/>
       <path id="DejaVuSans-68" d="M 3513 2113 
L 3513 0 
L 2938 0 
L 2938 2094 
Q 2938 2591 2744 2837 
Q 2550 3084 2163 3084 
Q 1697 3084 1428 2787 
Q 1159 2491 1159 1978 
L 1159 0 
L 581 0 
L 581 4863 
L 1159 4863 
L 1159 2956 
Q 1366 3272 1645 3428 
Q 1925 3584 2291 3584 
Q 2894 3584 3203 3211 
Q 3513 2838 3513 2113 
z
" transform="scale(0.015625)"/>
       <path id="DejaVuSans-Oblique-4c" d="M 1075 4666 
L 1709 4666 
L 909 525 
L 3181 525 
L 3078 0 
L 172 0 
L 1075 4666 
z
" transform="scale(0.015625)"/>
       <path id="DejaVuSans-Oblique-69" d="M 1172 4863 
L 1747 4863 
L 1606 4134 
L 1031 4134 
L 1172 4863 
z
M 909 3500 
L 1484 3500 
L 800 0 
L 225 0 
L 909 3500 
z
" transform="scale(0.015625)"/>
       <path id="DejaVuSans-Oblique-6e" d="M 3566 2113 
L 3156 0 
L 2578 0 
L 2988 2091 
Q 3016 2238 3031 2350 
Q 3047 2463 3047 2528 
Q 3047 2791 2881 2937 
Q 2716 3084 2419 3084 
Q 1956 3084 1622 2776 
Q 1288 2469 1184 1941 
L 800 0 
L 225 0 
L 903 3500 
L 1478 3500 
L 1363 2950 
Q 1603 3253 1940 3418 
Q 2278 3584 2650 3584 
Q 3113 3584 3367 3334 
Q 3622 3084 3622 2631 
Q 3622 2519 3608 2391 
Q 3594 2263 3566 2113 
z
" transform="scale(0.015625)"/>
       <path id="DejaVuSans-Oblique-74" d="M 2706 3500 
L 2619 3053 
L 1472 3053 
L 1100 1153 
Q 1081 1047 1072 975 
Q 1063 903 1063 863 
Q 1063 663 1183 572 
Q 1303 481 1569 481 
L 2150 481 
L 2053 0 
L 1503 0 
Q 991 0 739 200 
Q 488 400 488 806 
Q 488 878 497 964 
Q 506 1050 525 1153 
L 897 3053 
L 409 3053 
L 500 3500 
L 978 3500 
L 1172 4494 
L 1747 4494 
L 1556 3500 
L 2706 3500 
z
" transform="scale(0.015625)"/>
       <path id="DejaVuSans-28" d="M 1984 4856 
Q 1566 4138 1362 3434 
Q 1159 2731 1159 2009 
Q 1159 1288 1364 580 
Q 1569 -128 1984 -844 
L 1484 -844 
Q 1016 -109 783 600 
Q 550 1309 550 2009 
Q 550 2706 781 3412 
Q 1013 4119 1484 4856 
L 1984 4856 
z
" transform="scale(0.015625)"/>
       <path id="DejaVuSans-6d" d="M 3328 2828 
Q 3544 3216 3844 3400 
Q 4144 3584 4550 3584 
Q 5097 3584 5394 3201 
Q 5691 2819 5691 2113 
L 5691 0 
L 5113 0 
L 5113 2094 
Q 5113 2597 4934 2840 
Q 4756 3084 4391 3084 
Q 3944 3084 3684 2787 
Q 3425 2491 3425 1978 
L 3425 0 
L 2847 0 
L 2847 2094 
Q 2847 2600 2669 2842 
Q 2491 3084 2119 3084 
Q 1678 3084 1418 2786 
Q 1159 2488 1159 1978 
L 1159 0 
L 581 0 
L 581 3500 
L 1159 3500 
L 1159 2956 
Q 1356 3278 1631 3431 
Q 1906 3584 2284 3584 
Q 2666 3584 2933 3390 
Q 3200 3197 3328 2828 
z
" transform="scale(0.015625)"/>
       <path id="DejaVuSans-29" d="M 513 4856 
L 1013 4856 
Q 1481 4119 1714 3412 
Q 1947 2706 1947 2009 
Q 1947 1309 1714 600 
Q 1481 -109 1013 -844 
L 513 -844 
Q 928 -128 1133 580 
Q 1338 1288 1338 2009 
Q 1338 2731 1133 3434 
Q 928 4138 513 4856 
z
" transform="scale(0.015625)"/>
      </defs>
      <use xlink:href="#DejaVuSans-49" transform="translate(0 0.015625)"/>
      <use xlink:href="#DejaVuSans-6e" transform="translate(29.492188 0.015625)"/>
      <use xlink:href="#DejaVuSans-74" transform="translate(92.871094 0.015625)"/>
      <use xlink:href="#DejaVuSans-65" transform="translate(132.080078 0.015625)"/>
      <use xlink:href="#DejaVuSans-72" transform="translate(193.603516 0.015625)"/>
      <use xlink:href="#DejaVuSans-61" transform="translate(234.716797 0.015625)"/>
      <use xlink:href="#DejaVuSans-63" transform="translate(295.996094 0.015625)"/>
      <use xlink:href="#DejaVuSans-74" transform="translate(350.976562 0.015625)"/>
      <use xlink:href="#DejaVuSans-69" transform="translate(390.185547 0.015625)"/>
      <use xlink:href="#DejaVuSans-6f" transform="translate(417.96875 0.015625)"/>
      <use xlink:href="#DejaVuSans-6e" transform="translate(479.150391 0.015625)"/>
      <use xlink:href="#DejaVuSans-20" transform="translate(542.529297 0.015625)"/>
      <use xlink:href="#DejaVuSans-6c" transform="translate(574.316406 0.015625)"/>
      <use xlink:href="#DejaVuSans-65" transform="translate(602.099609 0.015625)"/>
      <use xlink:href="#DejaVuSans-6e" transform="translate(663.623047 0.015625)"/>
      <use xlink:href="#DejaVuSans-67" transform="translate(727.001953 0.015625)"/>
      <use xlink:href="#DejaVuSans-74" transform="translate(790.478516 0.015625)"/>
      <use xlink:href="#DejaVuSans-68" transform="translate(829.6875 0.015625)"/>
      <use xlink:href="#DejaVuSans-20" transform="translate(893.066406 0.015625)"/>
      <use xlink:href="#DejaVuSans-Oblique-4c" transform="translate(924.853516 0.015625)"/>
      <use xlink:href="#DejaVuSans-Oblique-69" transform="translate(980.566406 -16.390625) scale(0.7)"/>
      <use xlink:href="#DejaVuSans-Oblique-6e" transform="translate(1000.014648 -16.390625) scale(0.7)"/>
      <use xlink:href="#DejaVuSans-Oblique-74" transform="translate(1044.379883 -16.390625) scale(0.7)"/>
      <use xlink:href="#DejaVuSans-20" transform="translate(1074.560547 0.015625)"/>
      <use xlink:href="#DejaVuSans-28" transform="translate(1106.347656 0.015625)"/>
      <use xlink:href="#DejaVuSans-6d" transform="translate(1145.361328 0.015625)"/>
      <use xlink:href="#DejaVuSans-29" transform="translate(1242.773438 0.015625)"/>
     </g>
    </g>
   </g>
   <g id="matplotlib.axis_2">
    <g id="ytick_1">
     <g id="line2d_29">
      <defs>
       <path id="md23049cf9e" d="M 0 0 
L -3.5 0 
" style="stroke: #000000; stroke-width: 0.8"/>
      </defs>
      <g>
       <use xlink:href="#md23049cf9e" x="55.772054" y="295.962964" style="stroke: #000000; stroke-width: 0.8"/>
      </g>
     </g>
     <g id="text_5">
      <!-- $\mathdefault{10^{-2}}$ -->
      <g transform="translate(25.272054 299.762183) scale(0.1 -0.1)">
       <use xlink:href="#DejaVuSans-31" transform="translate(0 0.765625)"/>
       <use xlink:href="#DejaVuSans-30" transform="translate(63.623047 0.765625)"/>
       <use xlink:href="#DejaVuSans-2212" transform="translate(128.203125 39.046875) scale(0.7)"/>
       <use xlink:href="#DejaVuSans-32" transform="translate(186.855469 39.046875) scale(0.7)"/>
      </g>
     </g>
    </g>
    <g id="ytick_2">
     <g id="line2d_30">
      <g>
       <use xlink:href="#md23049cf9e" x="55.772054" y="212.863756" style="stroke: #000000; stroke-width: 0.8"/>
      </g>
     </g>
     <g id="text_6">
      <!-- $\mathdefault{10^{-1}}$ -->
      <g transform="translate(25.272054 216.662974) scale(0.1 -0.1)">
       <use xlink:href="#DejaVuSans-31" transform="translate(0 0.684375)"/>
       <use xlink:href="#DejaVuSans-30" transform="translate(63.623047 0.684375)"/>
       <use xlink:href="#DejaVuSans-2212" transform="translate(128.203125 38.965625) scale(0.7)"/>
       <use xlink:href="#DejaVuSans-31" transform="translate(186.855469 38.965625) scale(0.7)"/>
      </g>
     </g>
    </g>
    <g id="ytick_3">
     <g id="line2d_31">
      <g>
       <use xlink:href="#md23049cf9e" x="55.772054" y="129.764547" style="stroke: #000000; stroke-width: 0.8"/>
      </g>
     </g>
     <g id="text_7">
      <!-- $\mathdefault{10^{0}}$ -->
      <g transform="translate(31.172054 133.563766) scale(0.1 -0.1)">
       <use xlink:href="#DejaVuSans-31" transform="translate(0 0.765625)"/>
       <use xlink:href="#DejaVuSans-30" transform="translate(63.623047 0.765625)"/>
       <use xlink:href="#DejaVuSans-30" transform="translate(128.203125 39.046875) scale(0.7)"/>
      </g>
     </g>
    </g>
    <g id="ytick_4">
     <g id="line2d_32">
      <g>
       <use xlink:href="#md23049cf9e" x="55.772054" y="46.665338" style="stroke: #000000; stroke-width: 0.8"/>
      </g>
     </g>
     <g id="text_8">
      <!-- $\mathdefault{10^{1}}$ -->
      <g transform="translate(31.172054 50.464557) scale(0.1 -0.1)">
       <use xlink:href="#DejaVuSans-31" transform="translate(0 0.684375)"/>
       <use xlink:href="#DejaVuSans-30" transform="translate(63.623047 0.684375)"/>
       <use xlink:href="#DejaVuSans-31" transform="translate(128.203125 38.965625) scale(0.7)"/>
      </g>
     </g>
    </g>
    <g id="ytick_5">
     <g id="line2d_33">
      <defs>
       <path id="mc7eb07099d" d="M 0 0 
L -2 0 
" style="stroke: #000000; stroke-width: 0.6"/>
      </defs>
      <g>
       <use xlink:href="#mc7eb07099d" x="55.772054" y="308.835195" style="stroke: #000000; stroke-width: 0.6"/>
      </g>
     </g>
    </g>
    <g id="ytick_6">
     <g id="line2d_34">
      <g>
       <use xlink:href="#mc7eb07099d" x="55.772054" y="304.01611" style="stroke: #000000; stroke-width: 0.6"/>
      </g>
     </g>
    </g>
    <g id="ytick_7">
     <g id="line2d_35">
      <g>
       <use xlink:href="#mc7eb07099d" x="55.772054" y="299.765375" style="stroke: #000000; stroke-width: 0.6"/>
      </g>
     </g>
    </g>
    <g id="ytick_8">
     <g id="line2d_36">
      <g>
       <use xlink:href="#mc7eb07099d" x="55.772054" y="270.94761" style="stroke: #000000; stroke-width: 0.6"/>
      </g>
     </g>
    </g>
    <g id="ytick_9">
     <g id="line2d_37">
      <g>
       <use xlink:href="#mc7eb07099d" x="55.772054" y="256.314566" style="stroke: #000000; stroke-width: 0.6"/>
      </g>
     </g>
    </g>
    <g id="ytick_10">
     <g id="line2d_38">
      <g>
       <use xlink:href="#mc7eb07099d" x="55.772054" y="245.932255" style="stroke: #000000; stroke-width: 0.6"/>
      </g>
     </g>
    </g>
    <g id="ytick_11">
     <g id="line2d_39">
      <g>
       <use xlink:href="#mc7eb07099d" x="55.772054" y="237.87911" style="stroke: #000000; stroke-width: 0.6"/>
      </g>
     </g>
    </g>
    <g id="ytick_12">
     <g id="line2d_40">
      <g>
       <use xlink:href="#mc7eb07099d" x="55.772054" y="231.299211" style="stroke: #000000; stroke-width: 0.6"/>
      </g>
     </g>
    </g>
    <g id="ytick_13">
     <g id="line2d_41">
      <g>
       <use xlink:href="#mc7eb07099d" x="55.772054" y="225.735986" style="stroke: #000000; stroke-width: 0.6"/>
      </g>
     </g>
    </g>
    <g id="ytick_14">
     <g id="line2d_42">
      <g>
       <use xlink:href="#mc7eb07099d" x="55.772054" y="220.916901" style="stroke: #000000; stroke-width: 0.6"/>
      </g>
     </g>
    </g>
    <g id="ytick_15">
     <g id="line2d_43">
      <g>
       <use xlink:href="#mc7eb07099d" x="55.772054" y="216.666167" style="stroke: #000000; stroke-width: 0.6"/>
      </g>
     </g>
    </g>
    <g id="ytick_16">
     <g id="line2d_44">
      <g>
       <use xlink:href="#mc7eb07099d" x="55.772054" y="187.848401" style="stroke: #000000; stroke-width: 0.6"/>
      </g>
     </g>
    </g>
    <g id="ytick_17">
     <g id="line2d_45">
      <g>
       <use xlink:href="#mc7eb07099d" x="55.772054" y="173.215357" style="stroke: #000000; stroke-width: 0.6"/>
      </g>
     </g>
    </g>
    <g id="ytick_18">
     <g id="line2d_46">
      <g>
       <use xlink:href="#mc7eb07099d" x="55.772054" y="162.833047" style="stroke: #000000; stroke-width: 0.6"/>
      </g>
     </g>
    </g>
    <g id="ytick_19">
     <g id="line2d_47">
      <g>
       <use xlink:href="#mc7eb07099d" x="55.772054" y="154.779901" style="stroke: #000000; stroke-width: 0.6"/>
      </g>
     </g>
    </g>
    <g id="ytick_20">
     <g id="line2d_48">
      <g>
       <use xlink:href="#mc7eb07099d" x="55.772054" y="148.200002" style="stroke: #000000; stroke-width: 0.6"/>
      </g>
     </g>
    </g>
    <g id="ytick_21">
     <g id="line2d_49">
      <g>
       <use xlink:href="#mc7eb07099d" x="55.772054" y="142.636777" style="stroke: #000000; stroke-width: 0.6"/>
      </g>
     </g>
    </g>
    <g id="ytick_22">
     <g id="line2d_50">
      <g>
       <use xlink:href="#mc7eb07099d" x="55.772054" y="137.817692" style="stroke: #000000; stroke-width: 0.6"/>
      </g>
     </g>
    </g>
    <g id="ytick_23">
     <g id="line2d_51">
      <g>
       <use xlink:href="#mc7eb07099d" x="55.772054" y="133.566958" style="stroke: #000000; stroke-width: 0.6"/>
      </g>
     </g>
    </g>
    <g id="ytick_24">
     <g id="line2d_52">
      <g>
       <use xlink:href="#mc7eb07099d" x="55.772054" y="104.749193" style="stroke: #000000; stroke-width: 0.6"/>
      </g>
     </g>
    </g>
    <g id="ytick_25">
     <g id="line2d_53">
      <g>
       <use xlink:href="#mc7eb07099d" x="55.772054" y="90.116148" style="stroke: #000000; stroke-width: 0.6"/>
      </g>
     </g>
    </g>
    <g id="ytick_26">
     <g id="line2d_54">
      <g>
       <use xlink:href="#mc7eb07099d" x="55.772054" y="79.733838" style="stroke: #000000; stroke-width: 0.6"/>
      </g>
     </g>
    </g>
    <g id="ytick_27">
     <g id="line2d_55">
      <g>
       <use xlink:href="#mc7eb07099d" x="55.772054" y="71.680693" style="stroke: #000000; stroke-width: 0.6"/>
      </g>
     </g>
    </g>
    <g id="ytick_28">
     <g id="line2d_56">
      <g>
       <use xlink:href="#mc7eb07099d" x="55.772054" y="65.100794" style="stroke: #000000; stroke-width: 0.6"/>
      </g>
     </g>
    </g>
    <g id="ytick_29">
     <g id="line2d_57">
      <g>
       <use xlink:href="#mc7eb07099d" x="55.772054" y="59.537569" style="stroke: #000000; stroke-width: 0.6"/>
      </g>
     </g>
    </g>
    <g id="ytick_30">
     <g id="line2d_58">
      <g>
       <use xlink:href="#mc7eb07099d" x="55.772054" y="54.718484" style="stroke: #000000; stroke-width: 0.6"/>
      </g>
     </g>
    </g>
    <g id="ytick_31">
     <g id="line2d_59">
      <g>
       <use xlink:href="#mc7eb07099d" x="55.772054" y="50.46775" style="stroke: #000000; stroke-width: 0.6"/>
      </g>
     </g>
    </g>
    <g id="text_9">
     <!-- Final width (eV) -->
     <g transform="translate(19.192366 208.966031) rotate(-90) scale(0.1 -0.1)">
      <defs>
       <path id="DejaVuSans-46" d="M 628 4666 
L 3309 4666 
L 3309 4134 
L 1259 4134 
L 1259 2759 
L 3109 2759 
L 3109 2228 
L 1259 2228 
L 1259 0 
L 628 0 
L 628 4666 
z
" transform="scale(0.015625)"/>
       <path id="DejaVuSans-77" d="M 269 3500 
L 844 3500 
L 1563 769 
L 2278 3500 
L 2956 3500 
L 3675 769 
L 4391 3500 
L 4966 3500 
L 4050 0 
L 3372 0 
L 2619 2869 
L 1863 0 
L 1184 0 
L 269 3500 
z
" transform="scale(0.015625)"/>
       <path id="DejaVuSans-64" d="M 2906 2969 
L 2906 4863 
L 3481 4863 
L 3481 0 
L 2906 0 
L 2906 525 
Q 2725 213 2448 61 
Q 2172 -91 1784 -91 
Q 1150 -91 751 415 
Q 353 922 353 1747 
Q 353 2572 751 3078 
Q 1150 3584 1784 3584 
Q 2172 3584 2448 3432 
Q 2725 3281 2906 2969 
z
M 947 1747 
Q 947 1113 1208 752 
Q 1469 391 1925 391 
Q 2381 391 2643 752 
Q 2906 1113 2906 1747 
Q 2906 2381 2643 2742 
Q 2381 3103 1925 3103 
Q 1469 3103 1208 2742 
Q 947 2381 947 1747 
z
" transform="scale(0.015625)"/>
       <path id="DejaVuSans-56" d="M 1831 0 
L 50 4666 
L 709 4666 
L 2188 738 
L 3669 4666 
L 4325 4666 
L 2547 0 
L 1831 0 
z
" transform="scale(0.015625)"/>
      </defs>
      <use xlink:href="#DejaVuSans-46"/>
      <use xlink:href="#DejaVuSans-69" x="50.269531"/>
      <use xlink:href="#DejaVuSans-6e" x="78.052734"/>
      <use xlink:href="#DejaVuSans-61" x="141.431641"/>
      <use xlink:href="#DejaVuSans-6c" x="202.710938"/>
      <use xlink:href="#DejaVuSans-20" x="230.494141"/>
      <use xlink:href="#DejaVuSans-77" x="262.28125"/>
      <use xlink:href="#DejaVuSans-69" x="344.068359"/>
      <use xlink:href="#DejaVuSans-64" x="371.851562"/>
      <use xlink:href="#DejaVuSans-74" x="435.328125"/>
      <use xlink:href="#DejaVuSans-68" x="474.537109"/>
      <use xlink:href="#DejaVuSans-20" x="537.916016"/>
      <use xlink:href="#DejaVuSans-28" x="569.703125"/>
      <use xlink:href="#DejaVuSans-65" x="608.716797"/>
      <use xlink:href="#DejaVuSans-56" x="670.240234"/>
      <use xlink:href="#DejaVuSans-29" x="738.648438"/>
     </g>
    </g>
   </g>
   <g id="line2d_60">
    <path d="M 78.92787 41.207636 
L 102.083685 52.359475 
L 125.239501 66.914824 
L 148.395317 80.458507 
L 171.551133 93.35495 
L 194.706948 105.643695 
L 217.862764 118.128902 
L 241.01858 130.320178 
L 264.174395 142.194477 
L 287.330211 154.999813 
L 310.486027 166.744154 
L 333.641843 180.015168 
L 356.797658 192.696951 
L 379.953474 206.392553 
L 403.10929 219.663566 
L 426.265106 228.733385 
L 449.420921 240.876509 
L 472.576737 259.311965 
L 495.732553 298.960364 
L 518.888369 298.960364 
L 542.044184 298.960364 
" clip-path="url(#p984534e78a)" style="fill: none; stroke: #d0e1f2; stroke-width: 1.5; stroke-linecap: square"/>
    <defs>
     <path id="m2d293c9a26" d="M 0 1.25 
C 0.331504 1.25 0.649475 1.118292 0.883883 0.883883 
C 1.118292 0.649475 1.25 0.331504 1.25 0 
C 1.25 -0.331504 1.118292 -0.649475 0.883883 -0.883883 
C 0.649475 -1.118292 0.331504 -1.25 0 -1.25 
C -0.331504 -1.25 -0.649475 -1.118292 -0.883883 -0.883883 
C -1.118292 -0.649475 -1.25 -0.331504 -1.25 0 
C -1.25 0.331504 -1.118292 0.649475 -0.883883 0.883883 
C -0.649475 1.118292 -0.331504 1.25 0 1.25 
z
" style="stroke: #d0e1f2"/>
    </defs>
    <g clip-path="url(#p984534e78a)">
     <use xlink:href="#m2d293c9a26" x="78.92787" y="41.207636" style="fill: #d0e1f2; stroke: #d0e1f2"/>
     <use xlink:href="#m2d293c9a26" x="102.083685" y="52.359475" style="fill: #d0e1f2; stroke: #d0e1f2"/>
     <use xlink:href="#m2d293c9a26" x="125.239501" y="66.914824" style="fill: #d0e1f2; stroke: #d0e1f2"/>
     <use xlink:href="#m2d293c9a26" x="148.395317" y="80.458507" style="fill: #d0e1f2; stroke: #d0e1f2"/>
     <use xlink:href="#m2d293c9a26" x="171.551133" y="93.35495" style="fill: #d0e1f2; stroke: #d0e1f2"/>
     <use xlink:href="#m2d293c9a26" x="194.706948" y="105.643695" style="fill: #d0e1f2; stroke: #d0e1f2"/>
     <use xlink:href="#m2d293c9a26" x="217.862764" y="118.128902" style="fill: #d0e1f2; stroke: #d0e1f2"/>
     <use xlink:href="#m2d293c9a26" x="241.01858" y="130.320178" style="fill: #d0e1f2; stroke: #d0e1f2"/>
     <use xlink:href="#m2d293c9a26" x="264.174395" y="142.194477" style="fill: #d0e1f2; stroke: #d0e1f2"/>
     <use xlink:href="#m2d293c9a26" x="287.330211" y="154.999813" style="fill: #d0e1f2; stroke: #d0e1f2"/>
     <use xlink:href="#m2d293c9a26" x="310.486027" y="166.744154" style="fill: #d0e1f2; stroke: #d0e1f2"/>
     <use xlink:href="#m2d293c9a26" x="333.641843" y="180.015168" style="fill: #d0e1f2; stroke: #d0e1f2"/>
     <use xlink:href="#m2d293c9a26" x="356.797658" y="192.696951" style="fill: #d0e1f2; stroke: #d0e1f2"/>
     <use xlink:href="#m2d293c9a26" x="379.953474" y="206.392553" style="fill: #d0e1f2; stroke: #d0e1f2"/>
     <use xlink:href="#m2d293c9a26" x="403.10929" y="219.663566" style="fill: #d0e1f2; stroke: #d0e1f2"/>
     <use xlink:href="#m2d293c9a26" x="426.265106" y="228.733385" style="fill: #d0e1f2; stroke: #d0e1f2"/>
     <use xlink:href="#m2d293c9a26" x="449.420921" y="240.876509" style="fill: #d0e1f2; stroke: #d0e1f2"/>
     <use xlink:href="#m2d293c9a26" x="472.576737" y="259.311965" style="fill: #d0e1f2; stroke: #d0e1f2"/>
     <use xlink:href="#m2d293c9a26" x="495.732553" y="298.960364" style="fill: #d0e1f2; stroke: #d0e1f2"/>
     <use xlink:href="#m2d293c9a26" x="518.888369" y="298.960364" style="fill: #d0e1f2; stroke: #d0e1f2"/>
     <use xlink:href="#m2d293c9a26" x="542.044184" y="298.960364" style="fill: #d0e1f2; stroke: #d0e1f2"/>
    </g>
   </g>
   <g id="line2d_61">
    <path d="M 78.92787 42.872928 
L 102.083685 55.612986 
L 125.239501 71.238393 
L 148.395317 84.868436 
L 171.551133 97.726994 
L 194.706948 110.365634 
L 217.862764 122.469973 
L 241.01858 134.613097 
L 264.174395 147.214993 
L 287.330211 159.250547 
L 310.486027 171.695678 
L 333.641843 184.265902 
L 356.797658 196.711032 
L 379.953474 212.421456 
L 403.10929 219.663566 
L 426.265106 240.876509 
L 449.420921 259.311965 
L 472.576737 259.311965 
L 495.732553 298.960364 
L 518.888369 298.960364 
L 542.044184 298.960364 
" clip-path="url(#p984534e78a)" style="fill: none; stroke: #8dc1dd; stroke-width: 1.5; stroke-linecap: square"/>
    <defs>
     <path id="m68bfba7bf1" d="M 0 1.25 
C 0.331504 1.25 0.649475 1.118292 0.883883 0.883883 
C 1.118292 0.649475 1.25 0.331504 1.25 0 
C 1.25 -0.331504 1.118292 -0.649475 0.883883 -0.883883 
C 0.649475 -1.118292 0.331504 -1.25 0 -1.25 
C -0.331504 -1.25 -0.649475 -1.118292 -0.883883 -0.883883 
C -1.118292 -0.649475 -1.25 -0.331504 -1.25 0 
C -1.25 0.331504 -1.118292 0.649475 -0.883883 0.883883 
C -0.649475 1.118292 -0.331504 1.25 0 1.25 
z
" style="stroke: #8dc1dd"/>
    </defs>
    <g clip-path="url(#p984534e78a)">
     <use xlink:href="#m68bfba7bf1" x="78.92787" y="42.872928" style="fill: #8dc1dd; stroke: #8dc1dd"/>
     <use xlink:href="#m68bfba7bf1" x="102.083685" y="55.612986" style="fill: #8dc1dd; stroke: #8dc1dd"/>
     <use xlink:href="#m68bfba7bf1" x="125.239501" y="71.238393" style="fill: #8dc1dd; stroke: #8dc1dd"/>
     <use xlink:href="#m68bfba7bf1" x="148.395317" y="84.868436" style="fill: #8dc1dd; stroke: #8dc1dd"/>
     <use xlink:href="#m68bfba7bf1" x="171.551133" y="97.726994" style="fill: #8dc1dd; stroke: #8dc1dd"/>
     <use xlink:href="#m68bfba7bf1" x="194.706948" y="110.365634" style="fill: #8dc1dd; stroke: #8dc1dd"/>
     <use xlink:href="#m68bfba7bf1" x="217.862764" y="122.469973" style="fill: #8dc1dd; stroke: #8dc1dd"/>
     <use xlink:href="#m68bfba7bf1" x="241.01858" y="134.613097" style="fill: #8dc1dd; stroke: #8dc1dd"/>
     <use xlink:href="#m68bfba7bf1" x="264.174395" y="147.214993" style="fill: #8dc1dd; stroke: #8dc1dd"/>
     <use xlink:href="#m68bfba7bf1" x="287.330211" y="159.250547" style="fill: #8dc1dd; stroke: #8dc1dd"/>
     <use xlink:href="#m68bfba7bf1" x="310.486027" y="171.695678" style="fill: #8dc1dd; stroke: #8dc1dd"/>
     <use xlink:href="#m68bfba7bf1" x="333.641843" y="184.265902" style="fill: #8dc1dd; stroke: #8dc1dd"/>
     <use xlink:href="#m68bfba7bf1" x="356.797658" y="196.711032" style="fill: #8dc1dd; stroke: #8dc1dd"/>
     <use xlink:href="#m68bfba7bf1" x="379.953474" y="212.421456" style="fill: #8dc1dd; stroke: #8dc1dd"/>
     <use xlink:href="#m68bfba7bf1" x="403.10929" y="219.663566" style="fill: #8dc1dd; stroke: #8dc1dd"/>
     <use xlink:href="#m68bfba7bf1" x="426.265106" y="240.876509" style="fill: #8dc1dd; stroke: #8dc1dd"/>
     <use xlink:href="#m68bfba7bf1" x="449.420921" y="259.311965" style="fill: #8dc1dd; stroke: #8dc1dd"/>
     <use xlink:href="#m68bfba7bf1" x="472.576737" y="259.311965" style="fill: #8dc1dd; stroke: #8dc1dd"/>
     <use xlink:href="#m68bfba7bf1" x="495.732553" y="298.960364" style="fill: #8dc1dd; stroke: #8dc1dd"/>
     <use xlink:href="#m68bfba7bf1" x="518.888369" y="298.960364" style="fill: #8dc1dd; stroke: #8dc1dd"/>
     <use xlink:href="#m68bfba7bf1" x="542.044184" y="298.960364" style="fill: #8dc1dd; stroke: #8dc1dd"/>
    </g>
   </g>
   <g id="line2d_62">
    <path d="M 78.92787 43.996547 
L 102.083685 59.805249 
L 125.239501 77.142243 
L 148.395317 91.01065 
L 171.551133 103.980288 
L 194.706948 116.713445 
L 217.862764 128.671968 
L 241.01858 141.269054 
L 264.174395 153.048553 
L 287.330211 165.830446 
L 310.486027 178.702676 
L 333.641843 190.845801 
L 356.797658 203.718031 
L 379.953474 219.663566 
L 403.10929 228.733385 
L 426.265106 240.876509 
L 449.420921 259.311965 
L 472.576737 298.960364 
L 495.732553 298.960364 
L 518.888369 298.960364 
L 542.044184 298.960364 
" clip-path="url(#p984534e78a)" style="fill: none; stroke: #3f8fc5; stroke-width: 1.5; stroke-linecap: square"/>
    <defs>
     <path id="m312a021720" d="M 0 1.25 
C 0.331504 1.25 0.649475 1.118292 0.883883 0.883883 
C 1.118292 0.649475 1.25 0.331504 1.25 0 
C 1.25 -0.331504 1.118292 -0.649475 0.883883 -0.883883 
C 0.649475 -1.118292 0.331504 -1.25 0 -1.25 
C -0.331504 -1.25 -0.649475 -1.118292 -0.883883 -0.883883 
C -1.118292 -0.649475 -1.25 -0.331504 -1.25 0 
C -1.25 0.331504 -1.118292 0.649475 -0.883883 0.883883 
C -0.649475 1.118292 -0.331504 1.25 0 1.25 
z
" style="stroke: #3f8fc5"/>
    </defs>
    <g clip-path="url(#p984534e78a)">
     <use xlink:href="#m312a021720" x="78.92787" y="43.996547" style="fill: #3f8fc5; stroke: #3f8fc5"/>
     <use xlink:href="#m312a021720" x="102.083685" y="59.805249" style="fill: #3f8fc5; stroke: #3f8fc5"/>
     <use xlink:href="#m312a021720" x="125.239501" y="77.142243" style="fill: #3f8fc5; stroke: #3f8fc5"/>
     <use xlink:href="#m312a021720" x="148.395317" y="91.01065" style="fill: #3f8fc5; stroke: #3f8fc5"/>
     <use xlink:href="#m312a021720" x="171.551133" y="103.980288" style="fill: #3f8fc5; stroke: #3f8fc5"/>
     <use xlink:href="#m312a021720" x="194.706948" y="116.713445" style="fill: #3f8fc5; stroke: #3f8fc5"/>
     <use xlink:href="#m312a021720" x="217.862764" y="128.671968" style="fill: #3f8fc5; stroke: #3f8fc5"/>
     <use xlink:href="#m312a021720" x="241.01858" y="141.269054" style="fill: #3f8fc5; stroke: #3f8fc5"/>
     <use xlink:href="#m312a021720" x="264.174395" y="153.048553" style="fill: #3f8fc5; stroke: #3f8fc5"/>
     <use xlink:href="#m312a021720" x="287.330211" y="165.830446" style="fill: #3f8fc5; stroke: #3f8fc5"/>
     <use xlink:href="#m312a021720" x="310.486027" y="178.702676" style="fill: #3f8fc5; stroke: #3f8fc5"/>
     <use xlink:href="#m312a021720" x="333.641843" y="190.845801" style="fill: #3f8fc5; stroke: #3f8fc5"/>
     <use xlink:href="#m312a021720" x="356.797658" y="203.718031" style="fill: #3f8fc5; stroke: #3f8fc5"/>
     <use xlink:href="#m312a021720" x="379.953474" y="219.663566" style="fill: #3f8fc5; stroke: #3f8fc5"/>
     <use xlink:href="#m312a021720" x="403.10929" y="228.733385" style="fill: #3f8fc5; stroke: #3f8fc5"/>
     <use xlink:href="#m312a021720" x="426.265106" y="240.876509" style="fill: #3f8fc5; stroke: #3f8fc5"/>
     <use xlink:href="#m312a021720" x="449.420921" y="259.311965" style="fill: #3f8fc5; stroke: #3f8fc5"/>
     <use xlink:href="#m312a021720" x="472.576737" y="298.960364" style="fill: #3f8fc5; stroke: #3f8fc5"/>
     <use xlink:href="#m312a021720" x="495.732553" y="298.960364" style="fill: #3f8fc5; stroke: #3f8fc5"/>
     <use xlink:href="#m312a021720" x="518.888369" y="298.960364" style="fill: #3f8fc5; stroke: #3f8fc5"/>
     <use xlink:href="#m312a021720" x="542.044184" y="298.960364" style="fill: #3f8fc5; stroke: #3f8fc5"/>
    </g>
   </g>
   <g id="line2d_63">
    <path d="M 78.92787 42.753525 
L 102.083685 61.119511 
L 125.239501 81.840093 
L 148.395317 96.122751 
L 171.551133 109.219838 
L 194.706948 121.664969 
L 217.862764 133.861205 
L 241.01858 146.680323 
L 264.174395 158.506407 
L 287.330211 171.695678 
L 310.486027 182.792655 
L 333.641843 196.711032 
L 356.797658 209.281256 
L 379.953474 219.663566 
L 403.10929 240.876509 
L 426.265106 259.311965 
L 449.420921 259.311965 
L 472.576737 298.960364 
L 495.732553 298.960364 
L 518.888369 298.960364 
L 542.044184 298.960364 
" clip-path="url(#p984534e78a)" style="fill: none; stroke: #0d57a1; stroke-width: 1.5; stroke-linecap: square"/>
    <defs>
     <path id="m7b38d96367" d="M 0 1.25 
C 0.331504 1.25 0.649475 1.118292 0.883883 0.883883 
C 1.118292 0.649475 1.25 0.331504 1.25 0 
C 1.25 -0.331504 1.118292 -0.649475 0.883883 -0.883883 
C 0.649475 -1.118292 0.331504 -1.25 0 -1.25 
C -0.331504 -1.25 -0.649475 -1.118292 -0.883883 -0.883883 
C -1.118292 -0.649475 -1.25 -0.331504 -1.25 0 
C -1.25 0.331504 -1.118292 0.649475 -0.883883 0.883883 
C -0.649475 1.118292 -0.331504 1.25 0 1.25 
z
" style="stroke: #0d57a1"/>
    </defs>
    <g clip-path="url(#p984534e78a)">
     <use xlink:href="#m7b38d96367" x="78.92787" y="42.753525" style="fill: #0d57a1; stroke: #0d57a1"/>
     <use xlink:href="#m7b38d96367" x="102.083685" y="61.119511" style="fill: #0d57a1; stroke: #0d57a1"/>
     <use xlink:href="#m7b38d96367" x="125.239501" y="81.840093" style="fill: #0d57a1; stroke: #0d57a1"/>
     <use xlink:href="#m7b38d96367" x="148.395317" y="96.122751" style="fill: #0d57a1; stroke: #0d57a1"/>
     <use xlink:href="#m7b38d96367" x="171.551133" y="109.219838" style="fill: #0d57a1; stroke: #0d57a1"/>
     <use xlink:href="#m7b38d96367" x="194.706948" y="121.664969" style="fill: #0d57a1; stroke: #0d57a1"/>
     <use xlink:href="#m7b38d96367" x="217.862764" y="133.861205" style="fill: #0d57a1; stroke: #0d57a1"/>
     <use xlink:href="#m7b38d96367" x="241.01858" y="146.680323" style="fill: #0d57a1; stroke: #0d57a1"/>
     <use xlink:href="#m7b38d96367" x="264.174395" y="158.506407" style="fill: #0d57a1; stroke: #0d57a1"/>
     <use xlink:href="#m7b38d96367" x="287.330211" y="171.695678" style="fill: #0d57a1; stroke: #0d57a1"/>
     <use xlink:href="#m7b38d96367" x="310.486027" y="182.792655" style="fill: #0d57a1; stroke: #0d57a1"/>
     <use xlink:href="#m7b38d96367" x="333.641843" y="196.711032" style="fill: #0d57a1; stroke: #0d57a1"/>
     <use xlink:href="#m7b38d96367" x="356.797658" y="209.281256" style="fill: #0d57a1; stroke: #0d57a1"/>
     <use xlink:href="#m7b38d96367" x="379.953474" y="219.663566" style="fill: #0d57a1; stroke: #0d57a1"/>
     <use xlink:href="#m7b38d96367" x="403.10929" y="240.876509" style="fill: #0d57a1; stroke: #0d57a1"/>
     <use xlink:href="#m7b38d96367" x="426.265106" y="259.311965" style="fill: #0d57a1; stroke: #0d57a1"/>
     <use xlink:href="#m7b38d96367" x="449.420921" y="259.311965" style="fill: #0d57a1; stroke: #0d57a1"/>
     <use xlink:href="#m7b38d96367" x="472.576737" y="298.960364" style="fill: #0d57a1; stroke: #0d57a1"/>
     <use xlink:href="#m7b38d96367" x="495.732553" y="298.960364" style="fill: #0d57a1; stroke: #0d57a1"/>
     <use xlink:href="#m7b38d96367" x="518.888369" y="298.960364" style="fill: #0d57a1; stroke: #0d57a1"/>
     <use xlink:href="#m7b38d96367" x="542.044184" y="298.960364" style="fill: #0d57a1; stroke: #0d57a1"/>
    </g>
   </g>
   <g id="line2d_64">
    <path d="M 126.949771 311.848 
L 126.949771 28.32 
" clip-path="url(#p984534e78a)" style="fill: none; stroke-dasharray: 5.55,2.4; stroke-dashoffset: 0; stroke: #000000; stroke-width: 1.5"/>
   </g>
   <g id="patch_3">
    <path d="M 55.772054 311.848 
L 55.772054 28.32 
" style="fill: none; stroke: #000000; stroke-width: 0.8; stroke-linejoin: miter; stroke-linecap: square"/>
   </g>
   <g id="patch_4">
    <path d="M 565.2 311.848 
L 565.2 28.32 
" style="fill: none; stroke: #000000; stroke-width: 0.8; stroke-linejoin: miter; stroke-linecap: square"/>
   </g>
   <g id="patch_5">
    <path d="M 55.772054 311.848 
L 565.2 311.848 
" style="fill: none; stroke: #000000; stroke-width: 0.8; stroke-linejoin: miter; stroke-linecap: square"/>
   </g>
   <g id="patch_6">
    <path d="M 55.772054 28.32 
L 565.2 28.32 
" style="fill: none; stroke: #000000; stroke-width: 0.8; stroke-linejoin: miter; stroke-linecap: square"/>
   </g>
   <g id="text_10">
    <!-- Width vs $L_{int}$ for different initial widths $\sigma_E$ -->
    <g transform="translate(187.126027 22.32) scale(0.12 -0.12)">
     <defs>
      <path id="DejaVuSans-57" d="M 213 4666 
L 850 4666 
L 1831 722 
L 2809 4666 
L 3519 4666 
L 4500 722 
L 5478 4666 
L 6119 4666 
L 4947 0 
L 4153 0 
L 3169 4050 
L 2175 0 
L 1381 0 
L 213 4666 
z
" transform="scale(0.015625)"/>
      <path id="DejaVuSans-76" d="M 191 3500 
L 800 3500 
L 1894 563 
L 2988 3500 
L 3597 3500 
L 2284 0 
L 1503 0 
L 191 3500 
z
" transform="scale(0.015625)"/>
      <path id="DejaVuSans-73" d="M 2834 3397 
L 2834 2853 
Q 2591 2978 2328 3040 
Q 2066 3103 1784 3103 
Q 1356 3103 1142 2972 
Q 928 2841 928 2578 
Q 928 2378 1081 2264 
Q 1234 2150 1697 2047 
L 1894 2003 
Q 2506 1872 2764 1633 
Q 3022 1394 3022 966 
Q 3022 478 2636 193 
Q 2250 -91 1575 -91 
Q 1294 -91 989 -36 
Q 684 19 347 128 
L 347 722 
Q 666 556 975 473 
Q 1284 391 1588 391 
Q 1994 391 2212 530 
Q 2431 669 2431 922 
Q 2431 1156 2273 1281 
Q 2116 1406 1581 1522 
L 1381 1569 
Q 847 1681 609 1914 
Q 372 2147 372 2553 
Q 372 3047 722 3315 
Q 1072 3584 1716 3584 
Q 2034 3584 2315 3537 
Q 2597 3491 2834 3397 
z
" transform="scale(0.015625)"/>
      <path id="DejaVuSans-66" d="M 2375 4863 
L 2375 4384 
L 1825 4384 
Q 1516 4384 1395 4259 
Q 1275 4134 1275 3809 
L 1275 3500 
L 2222 3500 
L 2222 3053 
L 1275 3053 
L 1275 0 
L 697 0 
L 697 3053 
L 147 3053 
L 147 3500 
L 697 3500 
L 697 3744 
Q 697 4328 969 4595 
Q 1241 4863 1831 4863 
L 2375 4863 
z
" transform="scale(0.015625)"/>
      <path id="DejaVuSans-Oblique-3c3" d="M 2219 3044 
Q 1744 3044 1422 2700 
Q 1081 2341 969 1747 
Q 844 1119 1044 756 
Q 1241 397 1706 397 
Q 2166 397 2503 759 
Q 2844 1122 2966 1747 
Q 3075 2319 2881 2700 
Q 2700 3044 2219 3044 
z
M 2309 3503 
L 4219 3500 
L 4106 2925 
L 3463 2925 
Q 3706 2438 3575 1747 
Q 3406 888 2884 400 
Q 2359 -91 1609 -91 
Q 856 -91 525 400 
Q 194 888 363 1747 
Q 528 2609 1050 3097 
Q 1484 3503 2309 3503 
z
" transform="scale(0.015625)"/>
      <path id="DejaVuSans-Oblique-45" d="M 1081 4666 
L 4031 4666 
L 3928 4134 
L 1606 4134 
L 1338 2753 
L 3566 2753 
L 3463 2222 
L 1234 2222 
L 909 531 
L 3284 531 
L 3181 0 
L 172 0 
L 1081 4666 
z
" transform="scale(0.015625)"/>
     </defs>
     <use xlink:href="#DejaVuSans-57" transform="translate(0 0.015625)"/>
     <use xlink:href="#DejaVuSans-69" transform="translate(98.876953 0.015625)"/>
     <use xlink:href="#DejaVuSans-64" transform="translate(126.660156 0.015625)"/>
     <use xlink:href="#DejaVuSans-74" transform="translate(190.136719 0.015625)"/>
     <use xlink:href="#DejaVuSans-68" transform="translate(229.345703 0.015625)"/>
     <use xlink:href="#DejaVuSans-20" transform="translate(292.724609 0.015625)"/>
     <use xlink:href="#DejaVuSans-76" transform="translate(324.511719 0.015625)"/>
     <use xlink:href="#DejaVuSans-73" transform="translate(383.691406 0.015625)"/>
     <use xlink:href="#DejaVuSans-20" transform="translate(435.791016 0.015625)"/>
     <use xlink:href="#DejaVuSans-Oblique-4c" transform="translate(467.578125 0.015625)"/>
     <use xlink:href="#DejaVuSans-Oblique-69" transform="translate(523.291016 -16.390625) scale(0.7)"/>
     <use xlink:href="#DejaVuSans-Oblique-6e" transform="translate(542.739258 -16.390625) scale(0.7)"/>
     <use xlink:href="#DejaVuSans-Oblique-74" transform="translate(587.104492 -16.390625) scale(0.7)"/>
     <use xlink:href="#DejaVuSans-20" transform="translate(617.285156 0.015625)"/>
     <use xlink:href="#DejaVuSans-66" transform="translate(649.072266 0.015625)"/>
     <use xlink:href="#DejaVuSans-6f" transform="translate(684.277344 0.015625)"/>
     <use xlink:href="#DejaVuSans-72" transform="translate(745.458984 0.015625)"/>
     <use xlink:href="#DejaVuSans-20" transform="translate(786.572266 0.015625)"/>
     <use xlink:href="#DejaVuSans-64" transform="translate(818.359375 0.015625)"/>
     <use xlink:href="#DejaVuSans-69" transform="translate(881.835938 0.015625)"/>
     <use xlink:href="#DejaVuSans-66" transform="translate(909.619141 0.015625)"/>
     <use xlink:href="#DejaVuSans-66" transform="translate(944.824219 0.015625)"/>
     <use xlink:href="#DejaVuSans-65" transform="translate(980.029297 0.015625)"/>
     <use xlink:href="#DejaVuSans-72" transform="translate(1041.552734 0.015625)"/>
     <use xlink:href="#DejaVuSans-65" transform="translate(1082.666016 0.015625)"/>
     <use xlink:href="#DejaVuSans-6e" transform="translate(1144.189453 0.015625)"/>
     <use xlink:href="#DejaVuSans-74" transform="translate(1207.568359 0.015625)"/>
     <use xlink:href="#DejaVuSans-20" transform="translate(1246.777344 0.015625)"/>
     <use xlink:href="#DejaVuSans-69" transform="translate(1278.564453 0.015625)"/>
     <use xlink:href="#DejaVuSans-6e" transform="translate(1306.347656 0.015625)"/>
     <use xlink:href="#DejaVuSans-69" transform="translate(1369.726562 0.015625)"/>
     <use xlink:href="#DejaVuSans-74" transform="translate(1397.509766 0.015625)"/>
     <use xlink:href="#DejaVuSans-69" transform="translate(1436.71875 0.015625)"/>
     <use xlink:href="#DejaVuSans-61" transform="translate(1464.501953 0.015625)"/>
     <use xlink:href="#DejaVuSans-6c" transform="translate(1525.78125 0.015625)"/>
     <use xlink:href="#DejaVuSans-20" transform="translate(1553.564453 0.015625)"/>
     <use xlink:href="#DejaVuSans-77" transform="translate(1585.351562 0.015625)"/>
     <use xlink:href="#DejaVuSans-69" transform="translate(1667.138672 0.015625)"/>
     <use xlink:href="#DejaVuSans-64" transform="translate(1694.921875 0.015625)"/>
     <use xlink:href="#DejaVuSans-74" transform="translate(1758.398438 0.015625)"/>
     <use xlink:href="#DejaVuSans-68" transform="translate(1797.607422 0.015625)"/>
     <use xlink:href="#DejaVuSans-73" transform="translate(1860.986328 0.015625)"/>
     <use xlink:href="#DejaVuSans-20" transform="translate(1913.085938 0.015625)"/>
     <use xlink:href="#DejaVuSans-Oblique-3c3" transform="translate(1944.873047 0.015625)"/>
     <use xlink:href="#DejaVuSans-Oblique-45" transform="translate(2008.251953 -16.390625) scale(0.7)"/>
    </g>
   </g>
   <g id="legend_1">
    <g id="patch_7">
     <path d="M 467.1 109.7325 
L 558.2 109.7325 
Q 560.2 109.7325 560.2 107.7325 
L 560.2 35.32 
Q 560.2 33.32 558.2 33.32 
L 467.1 33.32 
Q 465.1 33.32 465.1 35.32 
L 465.1 107.7325 
Q 465.1 109.7325 467.1 109.7325 
z
" style="fill: #ffffff; opacity: 0.8; stroke: #cccccc; stroke-linejoin: miter"/>
    </g>
    <g id="line2d_65">
     <path d="M 469.1 41.418437 
L 479.1 41.418437 
L 489.1 41.418437 
" style="fill: none; stroke: #d0e1f2; stroke-width: 1.5; stroke-linecap: square"/>
     <g>
      <use xlink:href="#m2d293c9a26" x="479.1" y="41.418437" style="fill: #d0e1f2; stroke: #d0e1f2"/>
     </g>
    </g>
    <g id="text_11">
     <!-- 0.273 eV -->
     <g transform="translate(497.1 44.918437) scale(0.1 -0.1)">
      <defs>
       <path id="DejaVuSans-2e" d="M 684 794 
L 1344 794 
L 1344 0 
L 684 0 
L 684 794 
z
" transform="scale(0.015625)"/>
       <path id="DejaVuSans-37" d="M 525 4666 
L 3525 4666 
L 3525 4397 
L 1831 0 
L 1172 0 
L 2766 4134 
L 525 4134 
L 525 4666 
z
" transform="scale(0.015625)"/>
      </defs>
      <use xlink:href="#DejaVuSans-30"/>
      <use xlink:href="#DejaVuSans-2e" x="63.623047"/>
      <use xlink:href="#DejaVuSans-32" x="95.410156"/>
      <use xlink:href="#DejaVuSans-37" x="159.033203"/>
      <use xlink:href="#DejaVuSans-33" x="222.65625"/>
      <use xlink:href="#DejaVuSans-20" x="286.279297"/>
      <use xlink:href="#DejaVuSans-65" x="318.066406"/>
      <use xlink:href="#DejaVuSans-56" x="379.589844"/>
     </g>
    </g>
    <g id="line2d_66">
     <path d="M 469.1 56.096563 
L 479.1 56.096563 
L 489.1 56.096563 
" style="fill: none; stroke: #8dc1dd; stroke-width: 1.5; stroke-linecap: square"/>
     <g>
      <use xlink:href="#m68bfba7bf1" x="479.1" y="56.096563" style="fill: #8dc1dd; stroke: #8dc1dd"/>
     </g>
    </g>
    <g id="text_12">
     <!-- 0.310 eV -->
     <g transform="translate(497.1 59.596563) scale(0.1 -0.1)">
      <use xlink:href="#DejaVuSans-30"/>
      <use xlink:href="#DejaVuSans-2e" x="63.623047"/>
      <use xlink:href="#DejaVuSans-33" x="95.410156"/>
      <use xlink:href="#DejaVuSans-31" x="159.033203"/>
      <use xlink:href="#DejaVuSans-30" x="222.65625"/>
      <use xlink:href="#DejaVuSans-20" x="286.279297"/>
      <use xlink:href="#DejaVuSans-65" x="318.066406"/>
      <use xlink:href="#DejaVuSans-56" x="379.589844"/>
     </g>
    </g>
    <g id="line2d_67">
     <path d="M 469.1 70.774687 
L 479.1 70.774687 
L 489.1 70.774687 
" style="fill: none; stroke: #3f8fc5; stroke-width: 1.5; stroke-linecap: square"/>
     <g>
      <use xlink:href="#m312a021720" x="479.1" y="70.774687" style="fill: #3f8fc5; stroke: #3f8fc5"/>
     </g>
    </g>
    <g id="text_13">
     <!-- 0.372 eV -->
     <g transform="translate(497.1 74.274687) scale(0.1 -0.1)">
      <use xlink:href="#DejaVuSans-30"/>
      <use xlink:href="#DejaVuSans-2e" x="63.623047"/>
      <use xlink:href="#DejaVuSans-33" x="95.410156"/>
      <use xlink:href="#DejaVuSans-37" x="159.033203"/>
      <use xlink:href="#DejaVuSans-32" x="222.65625"/>
      <use xlink:href="#DejaVuSans-20" x="286.279297"/>
      <use xlink:href="#DejaVuSans-65" x="318.066406"/>
      <use xlink:href="#DejaVuSans-56" x="379.589844"/>
     </g>
    </g>
    <g id="line2d_68">
     <path d="M 469.1 85.452812 
L 479.1 85.452812 
L 489.1 85.452812 
" style="fill: none; stroke: #0d57a1; stroke-width: 1.5; stroke-linecap: square"/>
     <g>
      <use xlink:href="#m7b38d96367" x="479.1" y="85.452812" style="fill: #0d57a1; stroke: #0d57a1"/>
     </g>
    </g>
    <g id="text_14">
     <!-- 0.434 eV -->
     <g transform="translate(497.1 88.952812) scale(0.1 -0.1)">
      <defs>
       <path id="DejaVuSans-34" d="M 2419 4116 
L 825 1625 
L 2419 1625 
L 2419 4116 
z
M 2253 4666 
L 3047 4666 
L 3047 1625 
L 3713 1625 
L 3713 1100 
L 3047 1100 
L 3047 0 
L 2419 0 
L 2419 1100 
L 313 1100 
L 313 1709 
L 2253 4666 
z
" transform="scale(0.015625)"/>
      </defs>
      <use xlink:href="#DejaVuSans-30"/>
      <use xlink:href="#DejaVuSans-2e" x="63.623047"/>
      <use xlink:href="#DejaVuSans-34" x="95.410156"/>
      <use xlink:href="#DejaVuSans-33" x="159.033203"/>
      <use xlink:href="#DejaVuSans-34" x="222.65625"/>
      <use xlink:href="#DejaVuSans-20" x="286.279297"/>
      <use xlink:href="#DejaVuSans-65" x="318.066406"/>
      <use xlink:href="#DejaVuSans-56" x="379.589844"/>
     </g>
    </g>
    <g id="line2d_69">
     <path d="M 469.1 100.1325 
L 479.1 100.1325 
L 489.1 100.1325 
" style="fill: none; stroke-dasharray: 5.55,2.4; stroke-dashoffset: 0; stroke: #000000; stroke-width: 1.5"/>
    </g>
    <g id="text_15">
     <!-- $L_0$ (optimal) -->
     <g transform="translate(497.1 103.6325) scale(0.1 -0.1)">
      <defs>
       <path id="DejaVuSans-70" d="M 1159 525 
L 1159 -1331 
L 581 -1331 
L 581 3500 
L 1159 3500 
L 1159 2969 
Q 1341 3281 1617 3432 
Q 1894 3584 2278 3584 
Q 2916 3584 3314 3078 
Q 3713 2572 3713 1747 
Q 3713 922 3314 415 
Q 2916 -91 2278 -91 
Q 1894 -91 1617 61 
Q 1341 213 1159 525 
z
M 3116 1747 
Q 3116 2381 2855 2742 
Q 2594 3103 2138 3103 
Q 1681 3103 1420 2742 
Q 1159 2381 1159 1747 
Q 1159 1113 1420 752 
Q 1681 391 2138 391 
Q 2594 391 2855 752 
Q 3116 1113 3116 1747 
z
" transform="scale(0.015625)"/>
      </defs>
      <use xlink:href="#DejaVuSans-Oblique-4c" transform="translate(0 0.015625)"/>
      <use xlink:href="#DejaVuSans-30" transform="translate(55.712891 -16.390625) scale(0.7)"/>
      <use xlink:href="#DejaVuSans-20" transform="translate(102.983398 0.015625)"/>
      <use xlink:href="#DejaVuSans-28" transform="translate(134.770508 0.015625)"/>
      <use xlink:href="#DejaVuSans-6f" transform="translate(173.78418 0.015625)"/>
      <use xlink:href="#DejaVuSans-70" transform="translate(234.96582 0.015625)"/>
      <use xlink:href="#DejaVuSans-74" transform="translate(298.442383 0.015625)"/>
      <use xlink:href="#DejaVuSans-69" transform="translate(337.651367 0.015625)"/>
      <use xlink:href="#DejaVuSans-6d" transform="translate(365.43457 0.015625)"/>
      <use xlink:href="#DejaVuSans-61" transform="translate(462.84668 0.015625)"/>
      <use xlink:href="#DejaVuSans-6c" transform="translate(524.125977 0.015625)"/>
      <use xlink:href="#DejaVuSans-29" transform="translate(551.90918 0.015625)"/>
     </g>
    </g>
   </g>
  </g>
 </g>
 <defs>
  <clipPath id="p984534e78a">
   <rect x="55.772054" y="28.32" width="509.427946" height="283.528"/>
  </clipPath>
 </defs>
</svg>
